<?xml version="1.0" encoding="UTF-8" standalone="no"?>
<svg
   width="598.235"
   height="210"
   version="1.1"
   id="svg3"
   sodipodi:docname="dow.svg"
   inkscape:version="1.3.2 (091e20e, 2023-11-25, custom)"
   xmlns:inkscape="http://www.inkscape.org/namespaces/inkscape"
   xmlns:sodipodi="http://sodipodi.sourceforge.net/DTD/sodipodi-0.dtd"
   xmlns="http://www.w3.org/2000/svg"
   xmlns:svg="http://www.w3.org/2000/svg">
  <defs
     id="defs3" />
  <sodipodi:namedview
     id="namedview3"
     pagecolor="#ffffff"
     bordercolor="#666666"
     borderopacity="1.0"
     inkscape:showpageshadow="2"
     inkscape:pageopacity="0.0"
     inkscape:pagecheckerboard="0"
     inkscape:deskcolor="#d1d1d1"
     inkscape:zoom="4.1288124"
     inkscape:cx="299.11749"
     inkscape:cy="104.99387"
     inkscape:window-width="3440"
     inkscape:window-height="1369"
     inkscape:window-x="-8"
     inkscape:window-y="-8"
     inkscape:window-maximized="1"
     inkscape:current-layer="svg3" />
  <g
     id="g1"
     style="fill:#ffffff">
    <path
       d="m 457.42353,193.64706 q -3.29412,0 -6.05294,-1.11177 -2.75883,-1.11176 -4.81765,-3.12941 -2.01765,-2.05882 -3.12941,-4.81764 -1.11177,-2.75883 -1.11177,-6.05295 0,-3.29411 1.11177,-6.05294 1.11176,-2.75882 3.12941,-4.77647 2.05882,-2.05882 4.81765,-3.17059 2.75882,-1.11176 6.05294,-1.11176 3.12941,0 5.84706,1.11176 2.75882,1.11177 4.81764,3.17059 2.1,2.01765 3.25294,4.77647 1.19412,2.75883 1.19412,6.05294 0,3.29412 -1.11176,6.05295 -1.11177,2.75882 -3.17059,4.81764 -2.01765,2.01765 -4.77647,3.12941 -2.75883,1.11177 -6.05294,1.11177 z m 0,-2.18235 q 2.63529,0 4.94117,-0.94706 2.30589,-0.94706 4.07647,-2.67647 1.77059,-1.77059 2.75883,-4.11765 0.98823,-2.34706 0.98823,-5.18824 0,-2.67647 -0.94706,-5.02353 -0.94706,-2.34705 -2.67647,-4.11764 -1.68823,-1.77059 -4.03529,-2.75883 -2.30588,-1.02941 -5.10588,-1.02941 -3.70589,0 -6.62942,1.68824 -2.88235,1.64706 -4.52941,4.57059 -1.64706,2.88235 -1.64706,6.67058 0,2.67647 0.94706,5.02353 0.94706,2.34706 2.6353,4.11765 1.72941,1.77059 4.07647,2.8 2.34706,0.98824 5.14706,0.98824 z m -5.64118,-3.91177 v -17.99412 h 5.27059 q 3.37647,0 4.94117,1.31765 1.56471,1.31765 1.56471,3.99412 0,1.93529 -0.98823,3.08823 -0.98824,1.11177 -2.22353,1.60589 l 4.77647,7.98823 h -3.54118 l -4.11765,-7.12353 h -2.55294 v 7.12353 z m 5.18824,-9.67647 q 1.60588,0 2.51176,-0.82353 0.90588,-0.82353 0.90588,-2.1 0,-1.44118 -0.82353,-2.1 -0.82353,-0.65882 -2.63529,-0.65882 h -2.01765 v 5.68235 z"
       aria-label="®"
       style="font-size:7px;fill:#ffffff;stroke-width:5.88235"
       id="path1" />
    <path
       id="path2"
       style="fill:#ffffff;stroke-width:5.88235"
       d="M 299.11719 5 L 5 105 L 299.11719 205 L 593.23438 105 L 299.11719 5 z M 148.47656 64.353516 L 208.99414 64.353516 C 224.34119 64.353516 242.1875 83.429784 242.1875 105.41211 C 242.1875 129.18856 222.02353 145.2168 208.99414 145.2168 L 148.47656 145.2168 L 148.47656 140.8418 C 153.11774 140.79474 156.87695 139.55882 156.87695 138 L 157.10547 138 L 157.10547 71.289062 C 157.12307 71.218463 157.19336 71.181744 157.19336 71.152344 C 157.19336 71.075864 157.12307 71.035403 157.10547 70.970703 L 157.10547 70.859375 L 157.04688 70.859375 C 156.59394 69.424086 153.0292 68.277344 148.55273 68.277344 L 148.47656 68.277344 L 148.47656 64.353516 z M 297.76562 75.681641 C 323.54796 75.681641 340.45898 91.952889 340.45898 112.01758 C 340.45898 132.65873 325.90491 146.2583 303.24023 148.13477 L 292.29492 148.13477 C 269.63024 146.2583 255.05859 132.65873 255.05859 112.01758 C 255.05859 92.011709 271.83037 75.681641 297.76562 75.681641 z M 468.66406 79.853516 L 468.66406 84.876953 C 468.66406 84.876953 466.01795 84.864803 465.42383 84.976562 C 463.62383 85.353032 462.42268 86.22277 461.7168 87.193359 C 461.66974 87.246298 438.64794 138.75456 438.64648 138.75781 C 438.57012 140.85043 438.61367 141.88281 443.45312 141.88281 L 443.45312 146.38281 L 411.59375 146.62305 L 411.59375 142.0293 C 414.68199 142.0293 415.53516 141.15225 415.53516 138.67578 C 415.53516 137.68754 404.42969 109.3125 404.42969 109.3125 L 391.43555 137.62891 C 391.12967 137.96421 391.05859 138.33432 391.05859 138.74609 C 391.05859 141.35197 392.41748 142.0293 396.04102 142.0293 L 396.05859 142.0293 L 396.05859 146.62305 L 361.69336 146.49414 L 361.69336 141.85938 C 364.50512 141.78879 366.87695 141.31148 366.87695 138.57031 C 366.87695 138.01736 366.8757 137.52334 366.6875 137.04688 L 347.5293 87.505859 C 347.5293 87.482359 347.59391 87.441469 347.57031 87.417969 C 346.72325 85.86503 347.04679 84.734375 342.07031 84.734375 L 342.07031 80.005859 L 373.51758 80.005859 L 373.51758 84.734375 C 371.07642 84.734375 369.48828 84.941499 369.48828 87.417969 L 369.33008 87.417969 L 380.05273 119.04688 L 393.24609 82.09375 L 404.42969 82.09375 L 415.08203 82.035156 L 429.3418 120.56445 L 441.92969 87.558594 C 441.92969 86.117415 441.40612 84.941674 437.43555 84.871094 C 437.31789 84.859294 436.54747 84.859375 436.38867 84.859375 L 436.38867 79.982422 L 468.66406 79.853516 z M 175.62891 81.417969 L 175.62891 127.43555 L 207.29492 127.43555 C 215.15373 127.43555 225.0529 119.85851 225.0293 105.07617 C 225.00576 89.729128 213.50668 81.417969 207.29492 81.417969 L 175.62891 81.417969 z M 297.83008 92.628906 C 283.26537 92.628906 273.78906 101.7177 273.78906 112.98828 C 273.78906 124.23532 283.27125 133.34766 297.83008 133.34766 C 312.40652 133.34766 321.86523 124.23532 321.86523 112.98828 C 321.86523 101.7177 312.40652 92.628906 297.83008 92.628906 z " />
  </g>
</svg>
