<?xml version="1.0" encoding="UTF-8" standalone="no"?>
<!-- Created with Inkscape (http://www.inkscape.org/) -->

<svg
   version="1.1"
   id="svg1"
   width="4618.7305"
   height="269.75137"
   viewBox="0 0 4618.7305 269.75137"
   sodipodi:docname="NASARAP.svg"
   inkscape:version="1.3.2 (091e20e, 2023-11-25, custom)"
   xmlns:inkscape="http://www.inkscape.org/namespaces/inkscape"
   xmlns:sodipodi="http://sodipodi.sourceforge.net/DTD/sodipodi-0.dtd"
   xmlns="http://www.w3.org/2000/svg"
   xmlns:svg="http://www.w3.org/2000/svg">
  <defs
     id="defs1" />
  <sodipodi:namedview
     id="namedview1"
     pagecolor="#ffffff"
     bordercolor="#666666"
     borderopacity="1.0"
     inkscape:showpageshadow="2"
     inkscape:pageopacity="0.0"
     inkscape:pagecheckerboard="0"
     inkscape:deskcolor="#d1d1d1"
     inkscape:zoom="0.53474778"
     inkscape:cx="2313.2401"
     inkscape:cy="122.48765"
     inkscape:window-width="3440"
     inkscape:window-height="1369"
     inkscape:window-x="-8"
     inkscape:window-y="-8"
     inkscape:window-maximized="1"
     inkscape:current-layer="g1" />
  <g
     inkscape:groupmode="layer"
     inkscape:label="Image"
     id="g1"
     transform="translate(3.4705703,-13.085127)">
    <path
       style="fill:#ffffff"
       d="m 4064.8211,282.18943 c -0.3736,-0.60453 -1.5527,-1.09914 -2.6202,-1.09914 -1.8422,0 -1.941,-0.83233 -1.941,-16.34502 0,-20.68642 -0.8324,-19.65498 15.8608,-19.65498 14.6167,0 18.4914,-1.2054 20.6752,-6.4319 1.2436,-2.97641 1.464,-15.45302 1.464,-82.881 0,-75.629285 0.086,-79.455275 1.8287,-81.032125 1.5552,-1.40739 4.4493,-1.65498 19.345,-1.65498 15.9103,0 17.6732,0.17339 19.2278,1.89117 1.5939,1.76126 1.6838,7.75494 1.3085,87.250005 -0.2655,56.2429 -0.771,86.8985 -1.4822,89.87267 -4.3401,18.15234 -12.6045,27.74012 -25.2278,29.26737 -11.7367,1.41997 -47.6914,2.0271 -48.4388,0.81793 z m -3924.56119,-51.79 c -10.0364,-1.68005 -19.74327,-6.93846 -26.06436,-14.1196 -4.92599,-5.59623 -5.31256,-6.39115 -38.996115,-80.18954 -14.93656,-32.725 -27.85311,-60.287505 -28.70344,-61.250005 -2.10982,-2.38815 -4.809459,-2.19717 -6.679372,0.4725 -1.374717,1.96269 -1.556704,10.82936 -1.556704,75.845015 0,70.0543 -0.08863,73.70272 -1.82874,75.2775 -1.560433,1.41217 -4.494776,1.65499 -20,1.65499 -16.83158306,0 -18.1712601,-0.13271 -18.1712601,-1.8 0,-0.99 -0.462995,-2.263 -1.028878,-2.82888 -1.286142,-1.28614 -0.651885,-157.980485 0.675939,-166.991945 1.52331904,-10.33822 9.071001,-18.6571 21.3529391,-23.53472 7.734909,-3.07182 31.898716,-3.88197 40.629296,-1.36218 13.49295,3.89428 21.81477,11.19902 28.50108,25.01772 2.12898,4.4 15.992855,34.55 30.808625,67.000005 14.81577,32.45 27.83144,60.0125 28.92371,61.25 2.3332,2.64342 4.38858,2.85584 6.56586,0.67857 1.40017,-1.40017 1.57142,-9.61145 1.57142,-75.34502 0,-70.200655 0.0886,-73.853735 1.82875,-75.428575 1.5667,-1.41785 4.55349,-1.65498 20.84501,-1.65498 17.31296,0 19.16802,0.16768 20.71043,1.87202 1.56817,1.73281 1.67166,7.8868 1.39157,82.750005 -0.30177,80.65886 -0.30858,80.89377 -2.51293,86.70825 -6.94126,18.30915 -21.79403,26.82222 -46.26283,26.51618 -5.225,-0.0654 -10.625,-0.30714 -12,-0.53731 z m 73.55671,-4.53165 c -0.85619,-1.22238 -1.55671,-3.80067 -1.55671,-5.72954 0,-3.46018 59.95664,-156.883365 66.17173,-169.327025 3.83899,-7.68629 9.58691,-13.23672 17.67702,-17.06968 l 6.65125,-3.15125 h 17.55187 17.55186 l 7.66085,3.78619 c 8.57928,4.24011 13.13856,8.96666 17.15432,17.78367 4.53539,9.95789 63.5811,166.084125 63.5811,168.118505 0,1.10168 -0.77202,3.30998 -1.7156,4.90734 l -1.71561,2.9043 -21.53439,-0.002 -21.5344,-0.002 -28.40213,-75.24787 c -15.62117,-41.38632 -29.0377,-75.922865 -29.81451,-76.747865 -1.24976,-1.32729 -1.60645,-1.26246 -3.09787,0.56311 -0.92702,1.13471 -14.94514,35.672215 -31.15137,76.750005 l -29.46589,74.68689 h -21.22741 c -20.80218,0 -21.25859,-0.0445 -22.78411,-2.22251 z m 231.67589,-0.0299 c -2.13953,-2.27742 -2.2326,-3.12732 -2.2326,-20.38772 0,-17.53396 0.0613,-18.06885 2.31446,-20.18555 l 2.31445,-2.17431 54.93555,-0.022 c 51.4115,-0.0205 55.19849,-0.14137 59.03448,-1.88347 6.00138,-2.7255 8.90106,-7.31706 8.90106,-14.09456 0,-9.33396 -5.07699,-14.05279 -17.26766,-16.04951 -3.15279,-0.5164 -18.46381,-0.94152 -34.02449,-0.9447 -32.6015,-0.007 -38.99305,-0.87383 -51.81061,-7.02922 -13.82567,-6.63952 -22.66617,-18.28325 -26.05682,-34.31919 -2.18691,-10.342915 -1.38442,-31.826925 1.52426,-40.807325 4.4116,-13.62053 15.08557,-25.05264 27.8923,-29.8734 12.61991,-4.75042 15.43644,-4.94089 73.33804,-4.9593 51.63319,-0.0164 54.68479,0.0819 56.25,1.81138 1.41455,1.56306 1.65498,4.51875 1.65498,20.34501 0,16.66827 -0.18251,18.68144 -1.82874,20.17126 -1.64899,1.49232 -6.61817,1.65499 -50.55718,1.65499 -32.80828,0 -50.1895,0.3679 -53.20046,1.12606 -14.73943,3.71143 -15.99208,22.051945 -1.91362,28.018025 2.1264,0.90111 13.19207,1.45572 38,1.90455 31.42052,0.56846 35.79915,0.85152 42.81396,2.76774 20.61893,5.63242 33.22194,17.84903 38.35971,37.18363 2.37139,8.92411 2.39159,31.02729 0.0364,39.79339 -5.31374,19.7776 -17.85054,32.01438 -38.71003,37.78365 -5.84773,1.61735 -12.57279,1.83535 -67.0174,2.17239 l -60.51741,0.37463 z m 185.72976,-0.80045 c -1.40567,-1.97408 -2.01316,-4.00596 -1.71915,-5.75 0.96262,-5.71018 65.93219,-167.818685 69.31167,-172.942695 4.00669,-6.07499 10.53021,-11.1455 17.82219,-13.85259 4.29276,-1.59366 7.87781,-1.90185 22.12293,-1.90185 16.96194,0 17.01456,0.007 23.5,3.10965 7.29191,3.48852 12.74915,8.37123 16.38165,14.65705 3.1328,5.42111 65.61835,169.548655 65.61835,172.356305 0,1.159 -0.93266,3.29296 -2.07258,4.74214 l -2.07258,2.63486 h -21.27784 -21.27784 l -28.39958,-75.1439 c -15.61977,-41.32915 -28.93612,-75.866655 -29.5919,-76.750005 -1.08011,-1.45494 -1.37306,-1.41786 -3.11253,0.3939 -1.05611,1.1 -15.14457,35.630275 -31.30768,76.733945 l -29.38747,74.73395 -21.1819,0.0161 -21.18191,0.0161 z m 316.12057,0.64111 -2.2658,-2.41176 0.4219,-42.83824 c 0.3506,-35.60067 0.6897,-43.64838 2.0071,-47.63333 3.2314,-9.7742 10.294,-15.65025 21.1875,-17.62777 3.5896,-0.65161 21.9597,-1.08582 46.49996,-1.09911 37.194,-0.0201 40.9023,-0.17457 44.6077,-1.8577 6.6314,-3.01222 11.4895,-10.50059 11.4311,-17.620335 -0.052,-6.34211 -6.9183,-14.55768 -13.7535,-16.456 -2.34,-0.64989 -23.2202,-1.03492 -56.3139,-1.03843 -49.67916,-0.005 -52.68676,-0.10696 -54.24996,-1.83432 -1.4146,-1.56306 -1.655,-4.51875 -1.655,-20.34501 0,-16.8433 0.1696,-18.66978 1.8774,-20.21531 1.7311,-1.5666 6.5838,-1.67496 62.24996,-1.39013 60.1602,0.30783 60.3972,0.31712 67.3726,2.63986 19.8621,6.61393 32.8949,20.52648 37.6013,40.13934 1.9163,7.98607 1.6823,28.971925 -0.4127,37.000005 -4.0505,15.52187 -13.9925,29.11058 -26.4239,36.11627 l -6.0207,3.39298 18.878,32.46289 c 10.3829,17.8546 18.878,33.53308 18.878,34.84109 0,1.308 -0.772,3.68511 -1.7156,5.28247 l -1.7156,2.9043 h -21.1465 -21.1464 l -20.888,-35.47287 -20.8879,-35.47287 -20.75,-0.0271 -20.74996,-0.0271 v 33.32568 33.32569 l -2.3145,2.17431 c -2.1994,2.06627 -3.2094,2.17432 -20.3257,2.17432 -17.7432,0 -18.0449,-0.0359 -20.2769,-2.41176 z m 237.91706,1.74317 c -27.7072,-3.56731 -45.5821,-19.33068 -53.1705,-46.88944 -1.9129,-6.94723 -2.1958,-10.57226 -2.2582,-28.94197 -0.084,-24.87225 1.1446,-31.92589 8.0761,-46.3484 7.7584,-16.142925 21.5104,-26.959625 38.9817,-30.661175 9.7407,-2.06372 61.0011,-2.06372 70.7418,0 24.6004,5.21197 40.8103,23.51041 46.1838,52.134445 1.3216,7.03984 1.5678,12.80412 1.1907,27.87513 -0.4236,16.93 -0.7691,19.97759 -3.1707,27.97311 -1.4824,4.93521 -4.1307,11.68272 -5.885,14.99446 -4.6042,8.69153 -14.6118,18.47487 -23.4362,22.91105 -12.3108,6.18888 -16.503,6.8284 -46.7535,7.13223 -14.85,0.14915 -28.575,0.0684 -30.5,-0.17944 z m 50.815,-41.71567 c 11.1445,-4.06241 16.6232,-13.4783 17.8478,-30.67365 1.3631,-19.14155 -4.1279,-33.50711 -14.9313,-39.06341 -9.8456,-5.0637 -43.6175,-5.0637 -53.4631,0 -8.3062,4.27199 -12.6706,11.98488 -14.4943,25.61464 -2.1638,16.17219 1.6582,32.05076 9.3977,39.04294 4.6416,4.19342 7.4172,5.41327 14.8282,6.51687 8.9548,1.3335 35.8079,0.38781 40.815,-1.43739 z m 134.6615,41.44267 c -13.6055,-2.12549 -24.9553,-7.92464 -31.7583,-16.2268 -4.191,-5.11456 -8.8582,-14.66459 -11.4024,-23.33161 -1.6076,-5.4761 -1.7889,-13.26922 -2.0765,-89.250005 -0.3119,-82.39384 -0.2948,-83.25 1.6637,-83.25 1.0884,0 2.2571,-0.45 2.597,-1 0.3687,-0.59654 6.824,-1 16,-1 9.1759,0 15.6313,0.40346 16,1 0.3399,0.55 1.4915,1 2.559,1 1.8767,0 1.941,0.96058 1.941,29 v 29 l 35.25,0.0174 c 39.7661,0.0196 44.1452,0.53403 56.4966,6.63697 14.7021,7.26446 25.1154,21.239185 30.4361,40.845675 3.0338,11.17938 3.3037,44.75527 0.4582,57 -4.8949,21.06381 -14.921,35.05959 -30.8874,43.11698 -12.1242,6.11847 -15.792,6.61992 -50.7535,6.93886 -17.325,0.15804 -33.7606,-0.0658 -36.5235,-0.49743 z m 60.2698,-41.11642 c 5.8255,-1.62352 12.498,-7.75784 15.1539,-13.93176 6.6457,-15.44833 4.2182,-41.94933 -4.7038,-51.35182 -6.9348,-7.30821 -14.3204,-8.58398 -49.9464,-8.62754 l -25.25,-0.0309 v 26.2899 c 0,28.0627 0.8522,34.88507 5.1034,40.85538 2.7056,3.79956 9.0545,6.97169 15.8966,7.94237 7.6981,1.09213 38.6227,0.28226 43.7463,-1.14566 z m 139.2537,41.38942 c -27.6045,-3.55409 -45.6102,-19.43281 -53.1705,-46.88944 -1.9129,-6.94723 -2.1958,-10.57226 -2.2582,-28.94197 -0.084,-24.81478 1.148,-31.93187 7.9967,-46.18524 7.7916,-16.215565 21.6221,-27.129625 39.0611,-30.824335 9.6543,-2.04543 60.9982,-2.06447 70.6166,-0.0262 24.7257,5.23971 40.9213,23.44716 46.2862,52.035765 1.3475,7.18039 1.5928,12.84139 1.2135,28 -0.4236,16.93 -0.7691,19.97759 -3.1707,27.97311 -1.4824,4.93521 -4.1307,11.68272 -5.885,14.99446 -4.6042,8.69153 -14.6118,18.47487 -23.4362,22.91105 -12.3108,6.18888 -16.503,6.8284 -46.7535,7.13223 -14.85,0.14915 -28.575,0.0684 -30.5,-0.17944 z m 51.1628,-41.8107 c 5.6797,-2.00901 10.8149,-6.81443 13.5893,-12.71682 4.2478,-9.03681 5.3926,-23.73881 2.8008,-35.96767 -4.0575,-19.14405 -13.2739,-24.77447 -40.5529,-24.77447 -29.1737,0 -38.3484,6.66448 -41.2139,29.93758 -2.0244,16.4424 1.6559,31.5535 9.3857,38.53693 6.9929,6.31764 13.0604,7.50051 35.8282,6.98482 11.0951,-0.2513 16.8251,-0.81978 20.1628,-2.00037 z m 128.1242,41.46826 c -12.6431,-1.84688 -23.3226,-8.76303 -28.0032,-18.13514 -5.3255,-10.66336 -5.6266,-13.48506 -6.0395,-56.60383 l -0.3854,-40.25 h -8.2745 c -11.7546,0 -11.5844,0.28903 -11.5844,-19.673765 0,-19.64308 -0.1939,-19.32624 11.8287,-19.32624 h 8.1713 v -15.34502 c 0,-13.596 0.2084,-15.53364 1.8287,-17 1.5509,-1.40349 4.4145,-1.65498 18.845,-1.65498 15.2151,0 17.1915,0.19357 18.6713,1.82874 1.3869,1.5325 1.655,4.2863 1.655,17 v 15.17126 h 18.345 c 16.5023,0 18.5112,0.18368 20,1.82874 1.395,1.54143 1.655,4.34502 1.655,17.84501 0,14.246315 -0.2021,16.199165 -1.8288,17.671265 -1.5604,1.41217 -4.4947,1.65499 -20,1.65499 h -18.1712 v 30.95077 c 0,33.53244 0.6311,39.41295 4.6344,43.17842 2.3666,2.22602 3.3861,2.39077 16.6931,2.69767 11.1679,0.25757 14.5435,0.66142 15.9225,1.90499 1.5296,1.37939 1.75,3.61693 1.75,17.76815 0,14.41464 -0.2006,16.3715 -1.8288,17.84501 -1.5738,1.42427 -4.3967,1.63759 -20.25,1.53023 -10.1317,-0.0686 -20.7671,-0.46744 -23.6342,-0.88627 z m 71.368,-0.81772 c -1.5086,-1.66699 -1.655,-8.37541 -1.655,-75.84501 0,-70.435775 0.088,-74.096335 1.8287,-75.671265 1.5509,-1.40349 4.4145,-1.65498 18.845,-1.65498 15.2151,0 17.1915,0.19357 18.6713,1.82874 1.5084,1.66674 1.655,8.33932 1.655,75.325685 v 73.49695 l -2.3145,2.17431 c -2.1836,2.05139 -3.249,2.17432 -18.845,2.17432 -14.7445,0 -16.7094,-0.19759 -18.1855,-1.82875 z m 122.66,0.82113 c -18.3025,-2.67601 -33.8839,-12.45911 -42.7938,-26.86899 -14.3942,-23.27953 -15.2467,-70.6054 -1.7401,-96.60706 4.731,-9.107595 14.6664,-19.199075 23.0874,-23.449965 13.3995,-6.76404 16.27,-7.06637 67.0914,-7.06637 34.1645,0 45.9418,0.30172 46.8401,1.2 1.7313,1.73133 1.6856,35.152995 -0.05,36.590065 -0.7972,0.65999 -15.9232,1.1846 -41.75,1.44801 -45.5188,0.46425 -46.9017,0.66365 -54.0278,7.78971 -5.5745,5.57451 -8.1441,13.28861 -8.7369,26.22917 -0.9245,20.17981 3.6391,32.53986 13.9706,37.83818 6.181,3.16987 15.7172,3.86438 53.3441,3.88506 26.6828,0.0147 36.3618,0.33161 37.25,1.21981 0.84,0.84001 1.2,6.34333 1.2,18.34501 0,15.33982 -0.1926,17.31926 -1.8288,18.8 -1.6459,1.48952 -6.0699,1.64251 -44.25,1.53023 -23.3317,-0.0686 -44.7545,-0.4659 -47.6062,-0.88286 z m 119.8593,-1.30684 c -2.0458,-2.17759 -2.1743,-3.26236 -2.1743,-18.34501 0,-14.05229 0.2179,-16.22778 1.7659,-17.6287 1.5525,-1.40498 7.2636,-1.63523 47.25,-1.90499 40.6945,-0.27453 45.8135,-0.48723 48.6129,-2.01986 3.5245,-1.92963 4.3712,-3.51692 4.3712,-8.19446 0,-4.05411 -3.3733,-7.42692 -8.6534,-8.65218 -2.1156,-0.49095 -14.8716,-0.91118 -28.3466,-0.93385 -33.2911,-0.056 -42.974,-2.2897 -53.7923,-12.40899 -8.7227,-8.15903 -12.2077,-18.41816 -12.2077,-35.93663 0,-25.624645 10.2385,-39.968095 32.2308,-45.153235 8.3307,-1.96414 102.6352,-2.24158 104.5692,-0.30764 0.8397,0.83976 1.2,6.33333 1.2,18.3 0,11.966665 -0.3603,17.460235 -1.2,18.300005 -0.8914,0.89133 -11.5017,1.21533 -41.25,1.25961 -22.0275,0.0328 -42.1965,0.41281 -44.8201,0.8445 -6.2651,1.03091 -9.7299,4.25276 -9.7299,9.04769 0,8.90521 4.0482,10.04571 35.6928,10.05575 25.051,0.008 32.9803,0.77577 41.6991,4.03788 11.5314,4.31447 18.4951,11.00187 22.8117,21.90671 1.8941,4.78489 2.203,7.54196 2.2462,20.04786 0.043,12.5391 -0.2547,15.37902 -2.2042,21 -5.481,15.80322 -17.9347,25.22809 -36.9732,27.98107 -3.7248,0.53862 -27.5065,0.98822 -52.8481,0.99912 l -46.0757,0.0198 z m 235.8938,-0.58992 c -1.1375,-1.5974 -2.0681,-3.69638 -2.0681,-4.66439 0,-3.43338 66.0719,-168.861695 69.5661,-174.176795 3.9911,-6.07109 10.5124,-11.14306 17.8109,-13.85259 4.2928,-1.59366 7.8778,-1.90185 22.123,-1.90185 18.4382,0 21.318,0.67034 30.6962,7.14544 7.6835,5.30498 9.4521,9.30706 42.8109,96.873225 17.5961,46.18938 31.9929,84.93265 31.9929,86.09616 0,1.1635 -0.9327,3.30114 -2.0726,4.75032 l -2.0726,2.63486 h -21.2582 -21.2581 l -28.4193,-75.14874 c -15.6306,-41.33181 -28.9558,-75.869315 -29.6116,-76.750005 -1.0784,-1.44836 -1.3743,-1.41028 -3.0983,0.39874 -1.0482,1.1 -15.1367,35.632685 -31.3076,76.739305 l -29.4017,74.7393 -21.1819,0.0107 -21.1819,0.0107 z m 235.1062,0.58992 -2.1743,-2.31445 V 119.27583 c 0,-102.462935 0.032,-104.185545 1.941,-104.185545 1.0675,0 2.2191,-0.45 2.559,-1 0.8283,-1.34021 32.1717,-1.34021 33,0 0.3399,0.55 1.4915,1 2.559,1 1.9089,0 1.941,1.72403 1.941,104.325685 v 104.32569 l -2.3145,2.17431 c -2.1834,2.05118 -3.2495,2.17432 -18.8257,2.17432 -15.966,0 -16.583,-0.0764 -18.6855,-2.31446 z m 77.4807,0.48571 c -1.5178,-1.67714 -1.655,-10.50561 -1.655,-106.5 0,-102.943725 0.032,-104.671255 1.941,-104.671255 1.0675,0 2.2191,-0.45 2.559,-1 0.8273,-1.33861 31.1727,-1.33861 32,0 0.3399,0.55 1.4915,1 2.559,1 1.9089,0 1.941,1.72403 1.941,104.325685 v 104.32568 l -2.3145,2.17431 c -2.1836,2.05139 -3.249,2.17432 -18.845,2.17432 -14.7445,0 -16.7094,-0.19759 -18.1855,-1.82875 z m 77,0 c -1.5086,-1.66699 -1.655,-8.37541 -1.655,-75.84501 0,-70.435775 0.088,-74.096335 1.8287,-75.671265 1.5509,-1.40349 4.4145,-1.65498 18.845,-1.65498 15.2151,0 17.1915,0.19357 18.6713,1.82874 1.5086,1.66699 1.655,8.37541 1.655,75.845015 0,70.43577 -0.089,74.09633 -1.8288,75.67126 -1.5508,1.4035 -4.4145,1.65499 -18.845,1.65499 -15.2151,0 -17.1914,-0.19358 -18.6712,-1.82875 z m 111.8922,0.75283 c -7.757,-1.17645 -11.7855,-2.50255 -18.8156,-6.19365 -14.5865,-7.65858 -21.9396,-24.89123 -20.3664,-47.73043 1.4597,-21.19258 9.6702,-32.83448 27.6348,-39.18432 6.3133,-2.23156 7.6877,-2.30671 47.868,-2.61755 l 41.3681,-0.32002 -0.669,-4.18396 c -0.9611,-6.01005 -3.5458,-9.90363 -8.095,-12.19415 -3.7712,-1.89882 -6.2985,-2.0155 -49.9556,-2.30632 -40.4511,-0.26946 -46.196,-0.49865 -47.75,-1.90498 -1.5501,-1.40284 -1.7665,-3.58196 -1.7665,-17.788705 0,-14.41465 0.2005,-16.37151 1.8287,-17.84502 1.6514,-1.49445 6.7768,-1.65498 52.8401,-1.65498 47.8924,0 51.4937,0.1234 58.9029,2.01833 13.9651,3.57167 23.7528,11.31488 29.4887,23.32906 4.6662,9.773635 5.0611,15.203655 4.7375,65.152615 l -0.2979,46 -2.3844,4.80161 c -2.6852,5.40729 -6.6726,8.84989 -13.1843,11.3829 -3.9315,1.52933 -9.5634,1.74737 -49.9313,1.93307 -25.025,0.11513 -48.1788,-0.19695 -51.4528,-0.6935 z m 75.8813,-40.49551 c 1.2064,-1.20635 1.5715,-3.76191 1.5715,-11 v -9.42857 l -33.25,0.002 c -29.6527,0.001 -33.6286,0.19072 -36.7489,1.75 -9.6547,4.82466 -6.6768,17.08214 4.6841,19.28034 2.0981,0.40596 16.9451,0.78986 32.9933,0.85311 25.2951,0.0997 29.3878,-0.0942 30.75,-1.45643 z m 79.1998,39.71317 c -1.5471,-1.70952 -1.6596,-7.372 -1.405,-70.75 l 0.2767,-68.891745 2.3033,-4.01718 c 1.2668,-2.20945 3.934,-5.13445 5.9271,-6.5 l 3.6238,-2.48282 h 47.5729 c 46.0644,0 47.8424,0.071 56.0729,2.2385 19.0653,5.02093 33.1873,15.61044 40.3561,30.261505 6.3464,12.97026 6.6071,15.72734 6.6265,70.09501 0.016,45.82053 -0.087,48.6895 -1.8114,50.25 -1.5461,1.3992 -4.3784,1.65499 -18.3257,1.65499 -15.951,0 -16.5688,-0.0766 -18.6712,-2.31446 -2.1628,-2.30222 -2.1743,-2.54154 -2.1743,-45.31849 0,-47.87208 -0.2113,-49.749 -6.4142,-56.99577 -7.6344,-8.9191 -19.1426,-11.32384 -54.3358,-11.35396 l -20.25,-0.0173 v 55.82568 55.82569 l -2.3145,2.17431 c -2.1836,2.05139 -3.249,2.17432 -18.845,2.17432 -14.8402,0 -16.7025,-0.19002 -18.2122,-1.85826 z m 243.9074,0.74551 c -24.5551,-3.57713 -41.9213,-18.68451 -49.3374,-42.91997 -3.1819,-10.3982 -4.5507,-24.59649 -3.8911,-40.3606 1.075,-25.6919 6.5758,-40.75192 19.5895,-53.631665 8.4831,-8.39573 14.8637,-11.97255 26.8064,-15.02697 6.9973,-1.78962 11.2917,-1.94805 52.8018,-1.94805 42.5046,0 45.2833,0.10848 46.8401,1.82874 1.3996,1.54658 1.655,4.38203 1.655,18.37755 0,12.020415 -0.3421,16.832025 -1.25,17.583775 -0.7962,0.65922 -15.9532,1.19215 -41.75,1.46796 -26.9396,0.28803 -41.7113,0.82306 -44.1177,1.59795 -13.194,4.2487 -19.2502,16.02162 -19.1076,37.14403 0.1178,17.43807 4.7763,28.17947 14.3365,33.05673 6.2837,3.20569 15.6964,3.90271 52.9838,3.92346 33.1995,0.0185 35.7064,0.14288 37.25,1.84855 1.3994,1.54628 1.655,4.37977 1.655,18.34501 0,14.7307 -0.1977,16.69519 -1.8288,18.17126 -1.6458,1.48943 -6.0723,1.64279 -44.25,1.53304 -23.3317,-0.0671 -45.1051,-0.51293 -48.3855,-0.9908 z m 162.3343,0.0417 c -16.5808,-2.43588 -29.2806,-10.79111 -35.6576,-23.4591 -5.4636,-10.8536 -5.7124,-13.1827 -5.7124,-53.4699 0,-35.90002 0.094,-37.79867 2.2084,-44.5 3.8635,-12.245855 10.7686,-20.810645 21.3062,-26.427105 10.4976,-5.59519 14.6493,-6.04334 55.9854,-6.04334 40.6109,0 45.0911,0.44923 55.1093,5.52586 15.2574,7.73148 21.8451,20.97697 21.8759,43.984485 0.035,25.87538 -8.6137,38.62781 -30.5397,45.03227 -5.075,1.48237 -11.7658,1.79895 -45.6955,2.1621 l -39.75,0.42544 v 3.67014 c 0.01,4.94398 3.2352,9.9257 7.7682,11.98032 3.2968,1.49435 9.163,1.72514 50.7104,1.9951 41.3804,0.26888 47.1931,0.49602 48.75,1.90499 1.5557,1.4079 1.7677,3.60094 1.7677,18.28974 0,14.89903 -0.1963,16.86762 -1.8288,18.34501 -1.6537,1.49657 -6.5594,1.64331 -51.25,1.53304 -27.1817,-0.0671 -51.9547,-0.49414 -55.0512,-0.94905 z m 67.0363,-93.23545 c 9.2827,-3.25259 9.7676,-14.54116 0.8343,-19.42274 -2.8744,-1.57068 -6.2921,-1.77081 -30.2406,-1.77081 -24.6151,0 -27.3417,0.16959 -30.8681,1.91996 -5.4985,2.72925 -7.6236,6.72149 -7.6282,14.33004 v 6.25 l 32.25,-0.0564 c 22.2823,-0.039 33.3028,-0.42534 35.6563,-1.25 z m 161.7098,92.43476 c -1.5487,-1.71127 -1.6691,-5.76322 -1.405,-47.27882 l 0.2889,-45.40713 2.5546,-4.96195 c 2.8144,-5.46665 8.966,-10.73838 14.7206,-12.61508 2.5575,-0.83406 17.0668,-1.395 46.3005,-1.79003 l 42.5758,-0.5753 4.1545,-2.75112 c 10.2223,-6.76924 11.1773,-22.216605 1.8032,-29.167235 -6.0385,-4.47742 -7.4059,-4.58165 -60.1035,-4.58165 -47.3588,0 -50.2893,-0.10336 -51.8507,-1.82875 -1.4146,-1.56306 -1.655,-4.51875 -1.655,-20.34501 0,-16.66827 0.1825,-18.68144 1.8287,-20.17126 1.6542,-1.49704 6.9903,-1.65498 55.912,-1.65498 60.4066,0 64.0557,0.30679 77.0506,6.47802 12.867,6.11052 22.1634,16.72049 27.363,31.22927 2.901,8.09516 3.6807,29.714825 1.453,40.292715 -4.8663,23.10697 -22.1056,40.18049 -44.9453,44.51315 -5.9406,1.12691 -15.8053,1.48685 -40.75,1.48685 h -32.912 v 33.32568 33.32569 l -2.3145,2.17431 c -2.1996,2.06645 -3.2089,2.17432 -20.345,2.17432 -16.3485,0 -18.1886,-0.17461 -19.7244,-1.87169 z m 183.9951,-0.005 c -1.5667,-1.7312 -1.6738,-6.60774 -1.3782,-62.75 0.3549,-67.404005 0.2087,-65.822705 7.0263,-76.023885 3.4455,-5.15561 10.5072,-10.49717 16.5634,-12.5288 2.5918,-0.86948 15.299,-1.33316 43.05,-1.57089 35.9328,-0.30781 39.5367,-0.18885 41.25,1.36167 1.6891,1.52866 1.8773,3.32162 1.8773,17.88897 0,14.154895 -0.22,16.387185 -1.75,17.758495 -1.4831,1.32924 -6.1039,1.61979 -30.2956,1.90499 -25.619,0.30201 -28.8314,0.5239 -31.3335,2.1643 -5.5817,3.65931 -5.6209,4.07478 -5.6209,59.48511 0,48.01894 -0.1028,50.9701 -1.8288,52.53212 -1.5508,1.4035 -4.4145,1.65499 -18.845,1.65499 -15.3748,0 -17.1801,-0.18107 -18.715,-1.87707 z m 178.8653,0.93983 c -32.5853,-5.11877 -50.2758,-26.25472 -53.7122,-64.17309 -1.2955,-14.29581 -0.1595,-32.50016 2.7076,-43.38967 6.1292,-23.278505 21.3611,-38.958525 43.2945,-44.568155 6.6174,-1.69243 11.1699,-1.93185 36.7336,-1.93185 25.5636,0 30.1162,0.23942 36.7335,1.93185 20.7018,5.29461 34.3324,18.14891 41.4276,39.068155 7.6287,22.4919 6.8542,56.86148 -1.7464,77.5 -5.1636,12.39093 -15.4739,23.66331 -27.041,29.56441 -2.0181,1.02954 -6.9777,2.84944 -11.0215,4.04422 -6.6303,1.95902 -10.0526,2.20036 -34.8522,2.45779 -15.125,0.15701 -29.7606,-0.0696 -32.5235,-0.50366 z m 45.8176,-40.08475 c 16.8586,-2.43762 23.5577,-11.40062 24.4748,-32.74618 0.5654,-13.15857 -0.785,-21.589 -4.5813,-28.60208 -5.1945,-9.59601 -11.8644,-12.48259 -30.6876,-13.28093 -24.0416,-1.01965 -35.1017,1.93588 -41.2231,11.01576 -4.3668,6.47738 -5.3656,10.29062 -5.9962,22.89237 -1.2729,25.43989 6.0482,38.10217 23.5099,40.66214 8.0907,1.18614 26.4903,1.21756 34.5035,0.0589 z m 215.2531,39.91068 c -21.3087,-3.10506 -35.407,-15.47098 -40.0396,-35.11954 -1.1586,-4.91419 -1.4781,-13.94186 -1.4781,-41.76915 0,-38.41247 0.4941,-43.17954 5.4984,-53.055075 4.9093,-9.68809 13.2635,-16.74084 25.0528,-21.14995 5.6749,-2.12238 7.5532,-2.2283 45.4986,-2.56581 43.3421,-0.3855 47.3689,-0.009 58.5622,5.47156 7.3831,3.61516 15.5404,12.50554 18.3642,20.01469 3.2685,8.691575 4.5731,22.199025 3.2119,33.254945 -2.4183,19.64043 -11.5257,30.21669 -30.7176,35.67172 -5.0722,1.4417 -12.1654,1.76833 -45.8709,2.11229 l -39.8708,0.40688 0.5476,4.0828 c 0.6548,4.88224 3.1901,8.54143 7.7986,11.25595 3.2456,1.91173 5.4909,2.01345 50.8773,2.30477 41.8451,0.26859 47.6916,0.49474 49.25,1.90499 1.552,1.40462 1.7682,3.57677 1.7682,17.77091 0,15.61007 -0.08,16.24608 -2.3145,18.34501 l -2.3144,2.17432 -48.9356,-0.12195 c -26.9145,-0.0671 -51.6143,-0.51228 -54.8883,-0.98936 z m 69.0081,-94.0637 c 3.0111,-1.65075 5.4447,-5.437 5.4447,-8.47092 0,-3.43429 -3.2909,-8.26733 -6.8273,-10.0268 -3.284,-1.6339 -6.5301,-1.82727 -30.6727,-1.82727 -25.2015,0 -27.2262,0.13322 -30.3955,2 -5.5139,3.24781 -7.4586,6.69703 -7.9275,14.06073 l -0.4164,6.53919 33.8697,-0.29996 c 29.4228,-0.26058 34.2708,-0.51988 36.925,-1.97497 z m 122.9804,94.06226 c -26.133,-3.80699 -43.8953,-20.63556 -50.5444,-47.88725 -4.4566,-18.26561 -3.5119,-48.48036 2.0374,-65.16616 6.6207,-19.907075 21.4269,-33.707375 41.7377,-38.901995 6.923,-1.77059 11.3634,-1.93185 53.1935,-1.93185 34.1645,0 45.9418,0.30172 46.8401,1.2 0.8397,0.83976 1.2,6.33333 1.2,18.3 0,11.966665 -0.3603,17.460235 -1.2,18.300005 -0.8872,0.88712 -10.4689,1.20805 -36.75,1.23087 -37.7776,0.0328 -47.7411,0.74459 -53.7816,3.84207 -7.9711,4.08753 -12.8317,13.05648 -14.0814,25.98369 -2.0448,21.15253 3.0519,36.65346 13.8656,42.17021 6.3577,3.24345 15.683,3.93257 53.4974,3.95335 26.6828,0.0147 36.3618,0.33161 37.25,1.21981 0.84,0.84001 1.2,6.34333 1.2,18.34501 0,15.33982 -0.1926,17.31926 -1.8288,18.8 -1.6458,1.48943 -6.0723,1.64279 -44.25,1.53304 -23.3317,-0.0671 -45.1051,-0.51293 -48.3855,-0.9908 z m 163.4149,0.0518 c -13.4552,-1.981 -22.4062,-7.6753 -27.6865,-17.61306 -5.5958,-10.53141 -6.2641,-16.85688 -6.2641,-59.28386 v -38.04215 h -8.345 c -11.8359,0 -11.655,0.30532 -11.655,-19.673765 0,-19.64308 -0.1939,-19.32624 11.8287,-19.32624 h 8.1713 v -15.34502 c 0,-13.596 0.2084,-15.53364 1.8287,-17 1.5509,-1.40349 4.4145,-1.65498 18.845,-1.65498 15.2151,0 17.1915,0.19357 18.6713,1.82874 1.3869,1.5325 1.655,4.2863 1.655,17 v 15.17126 h 18 c 17.1509,0 18,0.0916 18,1.94098 0,1.06754 0.45,2.2191 1,2.55902 0.5916,0.36566 1,6.49071 1,15 0,8.509285 -0.4084,14.634335 -1,15.000005 -0.55,0.33991 -1,1.49147 -1,2.55901 0,1.84942 -0.8491,1.94099 -18,1.94099 h -18 v 32.97976 c 0,45.27679 -0.6519,44.02024 22.837,44.02024 h 12.9013 l 0.6198,3.75 c 0.3409,2.0625 0.6199,9.15 0.6199,15.75 0,6.6 -0.279,13.6875 -0.6199,15.75 l -0.6198,3.75 -18.6192,-0.12195 c -10.2405,-0.0671 -21.1164,-0.48961 -24.1685,-0.93898 z M 1820.9149,62.261535 c -1.4179,-1.5667 -1.655,-4.55349 -1.655,-20.84501 0,-17.15266 0.1792,-19.17846 1.8287,-20.67126 1.5509,-1.40349 4.4145,-1.65498 18.845,-1.65498 15.2151,0 17.1915,0.19357 18.6713,1.82874 1.4178,1.5667 1.655,4.55349 1.655,20.84501 0,17.15266 -0.1792,19.17846 -1.8288,20.67126 -1.5508,1.4035 -4.4145,1.65499 -18.845,1.65499 -15.2151,0 -17.1914,-0.19358 -18.6712,-1.82875 z m 868,0 c -1.4179,-1.5667 -1.655,-4.55349 -1.655,-20.84501 0,-17.15266 0.1792,-19.17846 1.8287,-20.67126 1.5509,-1.40349 4.4145,-1.65498 18.845,-1.65498 15.2151,0 17.1915,0.19357 18.6713,1.82874 1.4217,1.57096 1.655,4.59656 1.655,21.46481 0,18.39016 -0.1228,19.70176 -1.9343,20.67126 -1.1146,0.59652 -9.1003,1.03519 -18.845,1.03519 -15.1129,0 -17.0867,-0.19443 -18.5657,-1.82875 z m 1411,0 c -1.4179,-1.5667 -1.655,-4.55349 -1.655,-20.84501 0,-17.15266 0.1792,-19.17846 1.8287,-20.67126 1.5552,-1.40739 4.4493,-1.65498 19.345,-1.65498 15.6995,0 17.688,0.18967 19.1713,1.82874 1.4178,1.5667 1.655,4.55349 1.655,20.84501 0,17.15266 -0.1792,19.17846 -1.8288,20.67126 -1.5551,1.40739 -4.4492,1.65499 -19.345,1.65499 -15.6995,0 -17.6879,-0.18968 -19.1712,-1.82875 z"
       id="path1" />
  </g>
</svg>
