<?xml version="1.0" encoding="UTF-8" standalone="no"?>
<!-- Generator: Adobe Illustrator 26.0.3, SVG Export Plug-In . SVG Version: 6.00 Build 0)  -->

<svg
   version="1.0"
   id="Layer_1"
   x="0px"
   y="0px"
   viewBox="0 0 799.99998 162.25584"
   xml:space="preserve"
   sodipodi:docname="Optimum.svg"
   inkscape:version="1.3.2 (091e20e, 2023-11-25)"
   width="800"
   height="162.25584"
   xmlns:inkscape="http://www.inkscape.org/namespaces/inkscape"
   xmlns:sodipodi="http://sodipodi.sourceforge.net/DTD/sodipodi-0.dtd"
   xmlns="http://www.w3.org/2000/svg"
   xmlns:svg="http://www.w3.org/2000/svg"><defs
   id="defs835" /><sodipodi:namedview
   id="namedview833"
   pagecolor="#ffffff"
   bordercolor="#666666"
   borderopacity="1.0"
   inkscape:pageshadow="2"
   inkscape:pageopacity="0.0"
   inkscape:pagecheckerboard="0"
   showgrid="false"
   inkscape:zoom="1.4679925"
   inkscape:cx="67.439037"
   inkscape:cy="3.7466131"
   inkscape:window-width="1312"
   inkscape:window-height="770"
   inkscape:window-x="0"
   inkscape:window-y="25"
   inkscape:window-maximized="0"
   inkscape:current-layer="Layer_1"
   inkscape:showpageshadow="2"
   inkscape:deskcolor="#d1d1d1" />
<style
   type="text/css"
   id="style824">
	.st0{fill:#0086D6;}
</style>
<path
   d="m 213.53794,77.898929 h 10.89774 v 35.922341 c 0,12.10865 5.2471,23.41003 29.46439,23.41003 7.66881,0 14.93399,-0.80727 22.6028,-1.61453 v -29.86802 h -8.47603 c -7.26522,0 -6.86159,-3.63269 -6.86159,-6.054325 V 78.302483 h 16.14489 V 47.627236 H 261.16525 V 19.777377 h -36.72957 v 27.849859 h -10.89774 c 0,-0.807264 0,30.271612 0,30.271612 z M 50.474818,41.976627 C 23.432183,41.16936 0.8293419,62.157714 0.02211734,89.200349 -0.78514677,116.24298 20.606798,138.84578 47.649473,139.65305 c 0.807263,0 2.018163,0 2.825426,0 27.042635,0.80726 49.645431,-20.58472 50.452701,-47.627356 0.80726,-27.042635 -20.584721,-49.645435 -47.627356,-50.452699 -1.210895,0.403632 -2.018159,0.403632 -2.825426,0.403632 m 0,64.579463 C 41.595151,106.95972 34.329932,100.09814 34.329932,91.218471 33.9263,82.3388 40.787888,75.073584 49.667554,75.073584 c 8.879667,-0.403632 16.144888,6.457953 16.144888,15.337624 0,0 0,0.403631 0,0.403631 0,8.476035 -6.861585,15.337621 -15.337624,15.741251 M 167.92866,44.39834 c -9.68689,-0.403631 -18.97019,3.229054 -25.42815,10.494194 0.40364,-2.018159 0.40364,-4.03624 0.40364,-6.054322 V 47.223685 H 106.98184 V 162.25585 h 35.92231 v -30.67524 c 6.45795,6.86158 15.33762,10.49415 25.02451,10.09056 23.00643,0 41.1694,-20.58472 41.1694,-48.838213 0,-28.25353 -18.16297,-48.434617 -41.1694,-48.434617 M 157.4345,108.9778 c -8.47603,0 -15.74121,-6.86154 -16.14484,-15.337616 0,-8.476039 6.86155,-15.741255 15.33762,-16.144846 8.47604,0 15.74125,6.861544 16.14485,15.337619 0,0 0,0.403632 0,0.403632 0.40363,8.476071 -6.45792,15.337621 -15.33763,15.741251 0,0 0,0 0,0"
   id="path826"
   style="fill:#ffffff;fill-opacity:1;stroke-width:4.0362" />
<path
   class="st0"
   d="m 778.60807,94.851039 c -11.70502,0 -20.98832,9.686931 -20.98832,21.391941 0,11.70506 9.68691,20.98832 21.39197,20.98832 11.70501,0 20.98828,-9.6869 20.98828,-20.98832 0,-12.10864 -9.68692,-21.391941 -21.39193,-21.391941 0,0 0,0 0,0"
   id="path828"
   style="fill:#ffffff;fill-opacity:1;stroke-width:4.0362" />
<path
   d="m 317.67227,0 c -11.70501,0 -21.39194,9.6868921 -21.39194,21.391945 0,11.705013 9.68693,21.391946 21.39194,21.391946 11.70502,0 21.39195,-9.686933 21.39195,-21.391946 C 339.46785,9.2832998 329.78092,0 317.67227,0 m -27.8499,79.109824 h 10.49416 v 57.717886 h 36.32598 V 48.43458 h -46.82014 z m 265.98659,18.56656 c 0.40361,4.843466 -2.82544,9.283306 -7.66882,9.686936 -0.40361,0 -0.80726,0 -1.21088,0 -4.84349,0 -8.47604,-3.63269 -8.87969,-8.476037 0,-0.403636 0,-0.807268 0,-1.614531 V 48.43454 h -35.92231 v 53.68168 c 0,18.97019 14.12672,38.74765 44.39839,38.74765 30.27163,0 44.39836,-19.77746 44.80197,-38.74765 V 48.43454 H 555.40531 V 97.676343 Z M 716.85398,44.39834 c -11.30141,0 -21.79555,4.843463 -28.65714,13.723134 -5.24708,-8.879671 -14.93399,-14.126729 -25.42817,-13.723134 -8.87966,0 -17.3557,4.03624 -23.00642,10.494194 0.40365,-2.421791 0.80726,-4.843463 0.80726,-7.668812 v -1.614527 h -35.92235 v 91.218475 h 35.92235 V 81.127865 c 2.01818,-2.825422 5.65068,-4.843427 9.28331,-4.843427 4.43984,-0.403631 8.47604,3.229058 8.87965,7.668772 0,0.403635 0,1.210899 0,1.614531 V 137.2313 h 35.92231 V 81.127905 c 2.01818,-2.825422 5.65068,-4.843426 9.28331,-4.843426 4.43984,-0.403632 8.47604,3.229058 8.87965,7.668771 0,0.403632 0,1.210895 0,1.614531 v 51.663559 h 35.92235 V 74.670029 C 749.14374,54.892574 732.99884,44.398377 716.85398,44.398377 m -255.08884,0 c -11.30136,0 -21.79554,4.843467 -28.65714,13.723133 -5.24703,-8.879666 -14.93399,-14.126724 -25.42813,-13.723133 -8.87967,0 -17.35573,4.036244 -23.00642,10.494197 0.40364,-2.421794 0.80727,-4.843467 0.80727,-7.668812 v -1.614527 h -36.32594 v 91.218475 h 35.92235 V 81.127905 c 2.01816,-2.825422 5.65069,-4.843426 9.28329,-4.843426 4.43982,-0.403632 8.47602,3.229058 8.87966,7.668771 0,0.403632 0,1.210895 0,1.614531 v 51.663559 h 36.32591 V 81.127946 c 2.01814,-2.825426 5.65068,-4.843427 9.28326,-4.843427 4.43985,-0.403631 8.47605,3.229058 8.8797,7.668772 0,0.403632 0,1.210895 0,1.614527 v 51.663552 h 36.32592 v -62.5613 c 0,-19.777455 -16.14482,-30.271653 -32.28973,-30.271653"
   id="path830"
   style="fill:#ffffff;fill-opacity:1;stroke-width:4.0362" />
</svg>
