<?xml version="1.0" encoding="UTF-8" standalone="no"?>
<!-- Generator: Adobe Illustrator 26.0.3, SVG Export Plug-In . SVG Version: 6.00 Build 0)  -->

<svg
   version="1.0"
   id="Layer_1"
   x="0px"
   y="0px"
   viewBox="0 0 234 159.8"
   style="enable-background:new 0 0 234 159.8;"
   xml:space="preserve"
   sodipodi:docname="Optimum.svg"
   inkscape:version="1.1.2 (b8e25be8, 2022-02-05)"
   xmlns:inkscape="http://www.inkscape.org/namespaces/inkscape"
   xmlns:sodipodi="http://sodipodi.sourceforge.net/DTD/sodipodi-0.dtd"
   xmlns="http://www.w3.org/2000/svg"
   xmlns:svg="http://www.w3.org/2000/svg"><defs
   id="defs835" /><sodipodi:namedview
   id="namedview833"
   pagecolor="#ffffff"
   bordercolor="#666666"
   borderopacity="1.0"
   inkscape:pageshadow="2"
   inkscape:pageopacity="0.0"
   inkscape:pagecheckerboard="0"
   showgrid="false"
   inkscape:zoom="1.4679925"
   inkscape:cx="84.809696"
   inkscape:cy="100.13675"
   inkscape:window-width="1312"
   inkscape:window-height="770"
   inkscape:window-x="0"
   inkscape:window-y="25"
   inkscape:window-maximized="0"
   inkscape:current-layer="Layer_1" />
<style
   type="text/css"
   id="style824">
	.st0{fill:#0086D6;}
</style>
<path
   d="M70.7,79.1h2.7v8.9c0,3,1.3,5.8,7.3,5.8c1.9,0,3.7-0.2,5.6-0.4v-7.4h-2.1c-1.8,0-1.7-0.9-1.7-1.5v-5.3h4v-7.6h-4v-6.9h-9.1  v6.9h-2.7C70.7,71.4,70.7,79.1,70.7,79.1z M30.3,70.2C23.6,70,18,75.2,17.8,81.9c-0.2,6.7,5.1,12.3,11.8,12.5c0.2,0,0.5,0,0.7,0  c6.7,0.2,12.3-5.1,12.5-11.8c0.2-6.7-5.1-12.3-11.8-12.5C30.7,70.2,30.5,70.2,30.3,70.2 M30.3,86.2c-2.2,0.1-4-1.6-4-3.8  c-0.1-2.2,1.6-4,3.8-4c2.2-0.1,4,1.6,4,3.8c0,0,0,0.1,0,0.1C34.1,84.4,32.4,86.1,30.3,86.2 M59.4,70.8c-2.4-0.1-4.7,0.8-6.3,2.6  c0.1-0.5,0.1-1,0.1-1.5v-0.4h-8.9V100h8.9v-7.6c1.6,1.7,3.8,2.6,6.2,2.5c5.7,0,10.2-5.1,10.2-12.1S65.1,70.8,59.4,70.8 M56.8,86.8  c-2.1,0-3.9-1.7-4-3.8c0-2.1,1.7-3.9,3.8-4c2.1,0,3.9,1.7,4,3.8c0,0,0,0.1,0,0.1C60.7,85,59,86.7,56.8,86.8  C56.8,86.8,56.8,86.8,56.8,86.8"
   id="path826"
   style="fill:#ffffff;fill-opacity:1" />
<path
   class="st0"
   d="M210.7,83.3c-2.9,0-5.2,2.4-5.2,5.3c0,2.9,2.4,5.2,5.3,5.2c2.9,0,5.2-2.4,5.2-5.2  C216,85.6,213.6,83.3,210.7,83.3C210.7,83.3,210.7,83.3,210.7,83.3"
   id="path828"
   style="fill:#ffffff;fill-opacity:1" />
<path
   d="M96.5,59.8c-2.9,0-5.3,2.4-5.3,5.3c0,2.9,2.4,5.3,5.3,5.3c2.9,0,5.3-2.4,5.3-5.3C101.9,62.1,99.5,59.8,96.5,59.8 M89.6,79.4  h2.6v14.3h9V71.8H89.6V79.4z M155.5,84c0.1,1.2-0.7,2.3-1.9,2.4c-0.1,0-0.2,0-0.3,0c-1.2,0-2.1-0.9-2.2-2.1c0-0.1,0-0.2,0-0.4V71.8  h-8.9v13.3c0,4.7,3.5,9.6,11,9.6s11-4.9,11.1-9.6V71.8h-8.9V84L155.5,84z M195.4,70.8c-2.8,0-5.4,1.2-7.1,3.4  c-1.3-2.2-3.7-3.5-6.3-3.4c-2.2,0-4.3,1-5.7,2.6c0.1-0.6,0.2-1.2,0.2-1.9v-0.4h-8.9v22.6h8.9V79.9c0.5-0.7,1.4-1.2,2.3-1.2  c1.1-0.1,2.1,0.8,2.2,1.9c0,0.1,0,0.3,0,0.4v12.8h8.9V79.9c0.5-0.7,1.4-1.2,2.3-1.2c1.1-0.1,2.1,0.8,2.2,1.9c0,0.1,0,0.3,0,0.4v12.8  h8.9V78.3C203.4,73.4,199.4,70.8,195.4,70.8 M132.2,70.8c-2.8,0-5.4,1.2-7.1,3.4c-1.3-2.2-3.7-3.5-6.3-3.4c-2.2,0-4.3,1-5.7,2.6  c0.1-0.6,0.2-1.2,0.2-1.9v-0.4h-9v22.6h8.9V79.9c0.5-0.7,1.4-1.2,2.3-1.2c1.1-0.1,2.1,0.8,2.2,1.9c0,0.1,0,0.3,0,0.4v12.8h9V79.9  c0.5-0.7,1.4-1.2,2.3-1.2c1.1-0.1,2.1,0.8,2.2,1.9c0,0.1,0,0.3,0,0.4v12.8h9V78.3C140.2,73.4,136.2,70.8,132.2,70.8"
   id="path830"
   style="fill:#ffffff;fill-opacity:1" />
</svg>
