<?xml version="1.0" encoding="UTF-8" standalone="no"?>
<!-- Created with Inkscape (http://www.inkscape.org/) -->

<svg
   version="1.1"
   id="svg1"
   width="3192"
   height="513"
   viewBox="0 0 3192 513"
   sodipodi:docname="PutnamCoSchools.svg"
   inkscape:version="1.3.2 (091e20e, 2023-11-25, custom)"
   xmlns:inkscape="http://www.inkscape.org/namespaces/inkscape"
   xmlns:sodipodi="http://sodipodi.sourceforge.net/DTD/sodipodi-0.dtd"
   xmlns="http://www.w3.org/2000/svg"
   xmlns:svg="http://www.w3.org/2000/svg">
  <defs
     id="defs1" />
  <sodipodi:namedview
     id="namedview1"
     pagecolor="#ffffff"
     bordercolor="#666666"
     borderopacity="1.0"
     inkscape:showpageshadow="2"
     inkscape:pageopacity="0.0"
     inkscape:pagecheckerboard="0"
     inkscape:deskcolor="#d1d1d1"
     inkscape:zoom="0.82424812"
     inkscape:cx="1596"
     inkscape:cy="256.59749"
     inkscape:window-width="3440"
     inkscape:window-height="1369"
     inkscape:window-x="-8"
     inkscape:window-y="-8"
     inkscape:window-maximized="1"
     inkscape:current-layer="g1" />
  <g
     inkscape:groupmode="layer"
     inkscape:label="Image"
     id="g1">
    <path
       style="fill:#ffffff"
       d="M 4.6934063,505.03176 9.5,498.06352 17.303217,498.03176 25.106434,498 20.303217,504.99497 15.5,511.98993 7.6934063,511.99497 -0.11318733,512 Z M 71.620106,505.75 c 0.405977,-0.6875 2.546121,-3.8375 4.755875,-7 L 80.393717,493 h 7.362159 c 5.608916,0 7.189866,0.29768 6.638676,1.25 -0.397915,0.6875 -2.514673,3.8375 -4.703908,7 L 85.710218,507 h -7.414126 c -5.658309,0 -7.239319,-0.29603 -6.675986,-1.25 z M 370,494.74196 c 0,-1.13859 56.7479,-161.92131 57.27603,-162.27907 0.12318,-0.0834 18.22397,-8.95857 40.22397,-19.7225 143.57305,-70.24595 138.80048,-67.65491 140.17078,-76.0991 0.66633,-4.10608 -1.83384,-9.88107 -4.96603,-11.47071 -1.28765,-0.65351 -29.35505,-2.73268 -67.47507,-4.99842 -35.89867,-2.1337 -65.5394,-4.14854 -65.86828,-4.47742 C 468.72642,215.05975 543.57563,3.0627001 544.91689,1.6972991 545.46354,1.1408116 826.0123,426.07043 869.45182,493.25 l 1.7782,2.75 -250.61501,0 C 419.93519,496 370,495.74933 370,494.74196 Z M 46,489.37231 c 0,-0.34522 2.292596,-3.72022 5.094657,-7.5 L 56.189315,475 h 6.988676 c 3.843772,0 6.838676,0.37989 6.655342,0.8442 C 69.65,476.3085 67.475,479.66925 65,483.31252 l -4.5,6.62414 -7.25,0.0317 C 49.2625,489.98575 46,489.71754 46,489.37231 Z m 1674.5643,-3.49572 c -4.8925,-1.14678 -10.3657,-5.22412 -11.6908,-8.7092 -0.7031,-1.84947 -0.6315,-3.98356 0.2401,-7.15174 1.4756,-5.36391 11.79,-16.23261 21.3864,-22.53588 19.5235,-12.82374 59.7755,-29.18994 101.9512,-41.45277 8.6131,-2.50433 14.8368,-4.88841 16.2659,-6.23092 7.0653,-6.63752 15.8069,-30.31135 17.6488,-47.79608 0.9513,-9.03048 0.3185,-9.06358 -12.4726,-0.65238 -12.236,8.04619 -28.8977,16.77893 -35.3933,18.55037 -6.3463,1.73071 -11.8913,1.36867 -14.8651,-0.97057 -8.4497,-6.64648 5.3678,-20.16977 28.63,-28.02049 7.2615,-2.45064 15.1761,-2.2696 20.8962,0.47798 3.6133,1.73566 3.7239,1.72507 8.492,-0.81318 5.6329,-2.99864 8.0151,-3.19287 11.2625,-0.91831 2.2592,1.58244 2.3349,2.02244 1.7618,10.25 -0.7219,10.36576 -4.2913,23.94854 -9.6867,36.86116 -2.1949,5.25301 -3.9907,9.98797 -3.9907,10.52215 0,0.60703 3.3061,0.71261 8.8162,0.28156 11.1188,-0.86981 17.2327,0.51266 20.7492,4.69184 2.7461,3.26347 2.9089,7.03391 0.3251,7.52592 -1.004,0.19119 -2.0775,-0.82321 -2.8533,-2.69633 -1.7015,-4.1076 -6.3613,-5.52486 -15.598,-4.74407 -13.3301,1.12681 -15.1968,2.33155 -28.8315,18.60771 -13.6014,16.23647 -25.4687,26.81521 -43.9781,39.203 -29.8663,19.98863 -60.7107,30.02243 -79.0653,25.72023 z m 21.2279,-8.44857 c 23.1177,-4.71478 51.445,-21.10531 80.0908,-46.34166 7.4854,-6.59442 19.117,-19.39304 19.117,-21.03498 0,-1.23889 -11.0011,1.97476 -34,9.93211 -47.9603,16.59371 -72.1504,28.77068 -85.2394,42.90837 -5.6635,6.11727 -7.3063,9.97963 -5.3705,12.6269 2.6207,3.58414 13.2664,4.38428 25.4021,1.90926 z m 92.1512,-121.15855 c 8.4938,-4.27321 15.6133,-8.31537 15.821,-8.98259 0.6105,-1.96102 -4.7589,-2.69894 -10.7272,-1.47422 -3.0454,0.62495 -10.0372,3.36284 -15.5372,6.08419 -15.1421,7.4922 -20.1327,14.10286 -9.6181,12.74047 2.8719,-0.37212 10.4576,-3.53622 20.0615,-8.36785 z M 122.63875,474 l 4.65468,-7 h 7.43662 c 4.09014,0 7.28662,0.37735 7.10328,0.83856 -0.18333,0.46121 -2.13333,3.60728 -4.33333,6.99126 l -4,6.15269 -7.75797,0.009 -7.75797,0.009 z M 116.751,461.33264 c 5.78106,-7.26458 7.17094,-8.07042 15.249,-8.84119 4.125,-0.39358 7.275,-0.49143 7,-0.21743 -0.275,0.27399 -6.07977,3.28662 -12.89948,6.69472 l -12.39949,6.19654 z m 229.47356,-4.08229 c -8.38732,-11.40267 -8.19601,-9.94536 -2.35913,-17.97034 2.82401,-3.88267 5.13457,-7.3866 5.13457,-7.78652 0,-0.39991 -9.9692,-0.39468 -22.15378,0.0116 -20.50238,0.68369 -22.10579,0.61369 -21.50998,-0.93897 0.35409,-0.92275 3.57329,-5.87949 7.15378,-11.01497 3.58049,-5.13547 6.50998,-9.59563 6.50998,-9.91146 0,-0.31582 -4.94911,-0.70147 -10.99802,-0.85698 L 297.00396,408.5 l 6.99708,-10.5 6.99708,-10.5 -8.49789,-0.28892 c -8.11178,-0.27578 -8.59737,-0.42345 -10.68712,-3.25 C 290.60903,382.33249 289.13331,381 288.53373,381 c -0.59958,0 -4.37663,1.575 -8.39343,3.5 -4.36093,2.08992 -8.82238,3.5 -11.07389,3.5 -3.66525,0 -3.98596,0.30738 -11.47691,11 l -7.70629,11 h -11.42109 -11.42108 l -7.72018,11 -7.72018,11 H 200.30034 C 194.08515,432 189,431.72479 189,431.38842 c 0,-0.33636 2.9565,-4.88165 6.57,-10.10062 3.6135,-5.21898 6.81164,-10.11877 7.10699,-10.88843 C 203.1172,409.2522 201.22111,409 192.15637,409 h -11.05762 l -7.23954,10.5 -7.23954,10.5 h -9.30984 C 152.18942,430 148,429.71438 148,429.3653 c 0,-0.34909 4.1329,-4.84909 9.18422,-10 L 166.36844,410 h 6.67654 6.67654 l 7.57349,-10.75 7.57349,-10.75 -2.93425,-0.31336 c -1.61384,-0.17235 -2.91151,-0.62235 -2.88371,-1 0.0278,-0.37765 9.01133,-9.91164 19.96339,-21.18664 17.13858,-17.64392 19.58628,-20.54248 17.56878,-20.80491 -2.21109,-0.28761 -1.92248,-0.92586 5.08712,-11.25 L 239.10102,323 h 11.8762 11.8762 l 6.86608,-9.75 c 3.77635,-5.3625 7.21089,-10.3125 7.63231,-11 0.5958,-0.97198 -1.79349,-1.25 -10.74227,-1.25 h -11.50849 l -4.72373,6.75 c -2.59805,3.7125 -5.0438,7.12552 -5.43501,7.58448 -0.3912,0.45897 -2.67576,-2.34968 -5.07679,-6.24144 l -4.36552,-7.07592 -14.25,-0.009 c -7.8375,-0.005 -14.25,-0.37622 -14.25,-0.82558 0,-0.44936 6.09025,-9.78686 13.53389,-20.75 l 13.5339,-19.93298 -20.53065,-0.27028 -20.53064,-0.27028 3.68933,-5.55653 c 3.33463,-5.02231 3.55803,-5.76547 2.32371,-7.72972 -0.7511,-1.19525 -2.2322,-3.63569 -3.29136,-5.42319 l -1.92573,-3.25 2.84877,-0.009 c 1.56683,-0.005 34.95087,-0.67975 74.18675,-1.49946 l 71.33796,-1.49039 63.66204,-62.3212 c 35.01412,-34.27666 66.61803,-65.07726 70.23092,-68.44577 l 6.56888,-6.124576 -23.40931,68.021466 c -12.87513,37.41181 -23.21302,68.21777 -22.9731,68.4577 0.41693,0.41692 111.42219,3.31714 132.24464,3.45513 l 10,0.0663 -87.55284,43.8475 -87.55283,43.84749 -25.38718,68.65587 c -13.96295,37.76073 -25.70896,68.85475 -26.10224,69.09781 -0.39329,0.24307 -2.94944,-2.59572 -5.68035,-6.30842 z m -112.7142,-57.48292 c 3.8443,-5.62791 7.13964,-10.57791 7.32297,-11 C 241.01667,388.34534 236.17917,388 230.08333,388 223.9875,388 219,387.76 219,387.46666 c 0,-0.29333 3.15,-5.22833 7,-10.96666 3.85,-5.73833 7,-10.67333 7,-10.96666 C 233,365.24 228.08455,365 222.07678,365 h -10.92322 l -7.44806,10.75 -7.44806,10.75 4.12128,0.67588 c 2.2667,0.37173 7.15169,0.70923 10.85553,0.75 l 6.73426,0.0741 -6.28853,9.75 c -3.45869,5.3625 -6.62816,10.3125 -7.04327,11 -0.58618,0.97083 1.77327,1.25 10.56463,1.25 h 11.31937 z M 349.73059,399.25 c 3.80554,-5.3625 7.24952,-10.3125 7.6533,-11 0.56979,-0.97016 -1.84634,-1.25 -10.79265,-1.25 h -11.52679 l -7.03222,10.16302 C 324.1645,402.75267 321,407.70267 321,408.16302 321,408.62336 325.90757,409 331.90572,409 h 10.90572 z M 272.25,377.04338 C 276.5125,371.04424 280,365.88029 280,365.56793 280,365.25557 274.83506,365 268.52237,365 h -11.47764 l -6.8421,10.25 c -3.76315,5.6375 -7.17478,10.8125 -7.58138,11.5 -0.57395,0.97045 1.7899,1.24451 10.56973,1.22546 L 264.5,387.95092 Z m 69.31834,-0.23056 c 3.81241,-5.60295 7.08166,-10.55295 7.26499,-11 0.18334,-0.44705 -4.76666,-0.79924 -11,-0.78265 l -11.33333,0.0302 -6.5,9.56086 c -3.575,5.25847 -6.85986,10.19489 -7.29969,10.96982 -0.66759,1.17623 1.07814,1.40897 10.56834,1.40897 h 11.36803 z M 263.95469,355.13205 C 267.82961,349.70468 271,344.97968 271,344.63205 271,344.28442 265.86863,344 259.59697,344 h -11.40304 l -7.14724,10.5 -7.14725,10.5 h 11.50497 11.50497 z m 46.3558,0.073 C 313.98972,349.81776 317,345.09276 317,344.70501 317,344.31725 312.06006,344 306.02237,344 H 295.04473 L 288,354.5 280.95527,365 h 11.33286 11.33285 z M 311.9493,318.25 c 1.83386,-2.6125 5.33498,-7.5625 7.78027,-11 l 4.44599,-6.25 -11.83778,0.0225 -11.83778,0.0225 -5.5,8.20676 c -3.025,4.51371 -6.33169,9.45357 -7.3482,10.97747 L 285.8036,323 h 11.4057 11.4057 z m 50.32782,-6.25 7.63311,-11 -11.70512,0.0245 -11.70511,0.0245 -7.25424,10.97551 L 331.99152,323 H 343.31776 354.644 Z M 400.5814,289.75 407.97292,279 h -11.45424 -11.45423 l -7.03222,10.16302 C 374.1645,294.75267 371,299.71741 371,300.19577 c 0,0.47835 4.99273,0.74249 11.09495,0.58698 L 393.18989,300.5 Z M 295.1612,275.73815 c 2.01366,-2.88098 5.52593,-7.82565 7.80504,-10.98815 l 4.14383,-5.75 h -11.90493 -11.90493 l -5.47669,8.25 c -3.01218,4.5375 -6.28148,9.4875 -7.26512,11 l -1.78842,2.75 11.36501,-0.0118 11.36501,-0.0118 z M 174.55637,456.25 c 0.98251,-1.5125 3.34798,-5.1125 5.25659,-8 l 3.4702,-5.25 h 7.85842 c 4.32213,0 7.85842,0.24532 7.85842,0.54516 0,0.29984 -2.26371,3.89984 -5.03047,8 L 188.93905,459 h -8.08453 -8.08454 z m -132.187109,0.2301 c 0.320782,-0.83594 2.410694,-4.21094 4.64425,-7.5 L 51.074522,443 h 7.472954 7.472953 l -3.713336,5.75 c -6.10985,9.46094 -5.800421,9.25 -13.569069,9.25 -5.809161,0 -6.856123,-0.24986 -6.368763,-1.5199 z M 83.068585,456.25 c 0.03772,-0.4125 3.540055,-5.7 7.782963,-11.75 l 7.714377,-11 11.217035,-0.28275 c 6.16937,-0.15551 11.21704,0.0421 11.21704,0.43924 0,0.39709 -3.462,5.81183 -7.69334,12.03275 L 105.61332,457 H 94.30666 c -6.218663,0 -11.275797,-0.3375 -11.238075,-0.75 z M 222,453.46666 c 0,-0.29333 3.16006,-5.24333 7.02237,-11 L 236.04473,432 h 11.52733 c 9.62721,0 11.3955,0.23225 10.72763,1.40897 -0.43983,0.77493 -3.72469,5.71135 -7.29969,10.96982 l -6.5,9.56086 -11.25,0.0302 C 227.0625,453.98642 222,453.76 222,453.46666 Z M 161.81613,437.75 l 3.88605,-5.25 11.22863,-0.2835 c 7.54065,-0.19038 11.01884,0.0559 10.58989,0.75 -0.3513,0.56843 -2.58095,1.0335 -4.95476,1.0335 -3.01225,0 -7.24483,1.35935 -14.01155,4.5 -5.33254,2.475 -9.9045,4.5 -10.15992,4.5 -0.25542,0 1.28433,-2.3625 3.42166,-5.25 z m 1834.51027,-5.8159 c -5.9828,-1.15212 -10.1152,-3.55598 -12.4335,-7.23265 -1.6614,-2.63486 -1.9479,-4.44836 -1.6191,-10.24701 0.7218,-12.72692 8.1865,-24.80892 28.8704,-46.72841 l 12.3136,-13.04912 -6.4789,0.65237 c -10.0584,1.0128 -16.7909,-0.43525 -20.3039,-4.36703 -2.7214,-3.04571 -2.8869,-3.68838 -2.3827,-9.24911 0.8688,-9.58186 5.5079,-17.48374 17.2077,-29.31067 16.0674,-16.24199 42.2195,-32.0395 62.0434,-37.4781 10.9394,-3.00118 21.4934,-2.48945 27.2518,1.32136 8.0664,5.33816 9.7088,14.0212 4.8614,25.69983 -2.5423,6.12481 -6.0344,11.05444 -7.8309,11.05444 -1.4854,0 -0.868,-4.73614 1.2602,-9.66709 1.1472,-2.6581 2.3266,-7.11255 2.6209,-9.89878 2.8874,-27.34034 -46.151,-13.53447 -83.706,23.56587 -7.4354,7.3454 -10.4538,11.17477 -13.3086,16.88436 -6.5123,13.02464 -4.4253,16.84931 8.5399,15.64981 14.9743,-1.38538 26.5701,-5.69806 38.1461,-14.18712 11.9272,-8.7467 32.0372,-16.93655 36.9542,-15.04972 3.1319,1.2018 1.9522,5.33571 -2.5824,9.04937 -5.4911,4.49699 -23.8459,13.99852 -39.8895,20.64919 -11.3694,4.713 -13.4422,5.97806 -20.6261,12.58844 -16.0484,14.76714 -33.8477,39.50721 -35.761,49.70561 -2.5246,13.45738 10.162,17.14346 33.1506,9.63188 15.0101,-4.90457 49.0582,-24.80083 81.4068,-47.57068 19.1727,-13.49545 25.9692,-16.74813 25.9692,-12.42846 0,2.96929 -8.359,9.42026 -34,26.23901 -30.3541,19.91028 -38.1875,24.59716 -53.1643,31.80946 -20.9786,10.10255 -36.0455,13.978 -46.5093,11.96295 z M 2068,333 c 1.925,-1.05389 3.05,-1.91617 2.5,-1.91617 -0.55,0 -2.575,0.86228 -4.5,1.91617 -1.925,1.05389 -3.05,1.91617 -2.5,1.91617 0.55,0 2.575,-0.86228 4.5,-1.91617 z M 953.28529,423.0975 c -4.96289,-2.31749 -5.77464,-4.48188 -5.0382,-13.43354 0.6856,-8.33367 5.45411,-20.18767 13.3902,-33.28655 6.9844,-11.52806 16.35739,-25.38695 19.69666,-29.12347 1.104,-1.23533 1.79395,-2.45937 1.53323,-2.72009 -0.26072,-0.26072 -6.64803,6.4755 -14.19402,14.96938 -22.49487,25.3206 -37.05975,36.40623 -50.67316,38.56838 -10.07395,1.60001 -14.541,-3.59473 -13.75904,-16.0004 0.80853,-12.82716 6.47299,-24.00831 20.37704,-40.22251 11.62286,-13.55397 41.7274,-38.9856 57.02684,-48.17495 18.38396,-11.04201 32.49046,-13.02046 40.36816,-5.66165 l 3.0623,2.86067 3.2124,-2.76767 c 4.1884,-3.6087 6.1346,-4.24798 8.2417,-2.70725 1.4721,1.07645 1.5397,1.61392 0.4624,3.68132 -1.7236,3.30778 -16.6286,22.95187 -32.8191,43.25424 -20.27588,25.42522 -29.40045,38.69893 -37.57873,54.66659 -8.0723,15.76074 -11.05038,25.5402 -8.65613,28.4251 2.33061,2.80822 7.18595,1.83639 15.47717,-3.09784 7.32923,-4.36174 18.72672,-14.25022 52.08499,-45.18904 C 1037.0991,356.38037 1047.0572,349 1049.9732,349 c 0.9599,0 3.7211,-1.73037 6.136,-3.84527 7.4338,-6.51024 10.528,-7.42792 15.8193,-4.69172 3.7557,1.94215 4.4263,4.08306 2.8991,9.25538 -1.6869,5.71309 -2.8202,5.31195 -5.726,-2.02681 l -1.112,-2.80841 -4.6259,3.30841 c -9.8852,7.06966 -19.9019,21.35824 -19.1886,27.37187 0.5681,4.78922 4.811,6.93952 13.6482,6.91692 11.4331,-0.0292 27.699,-5.98151 64.3807,-23.55914 11.3872,-5.45668 21.0622,-9.93692 21.5,-9.95609 0.4378,-0.0192 6.5488,-8.23167 13.58,-18.25 16.4806,-23.48227 26.8987,-38.47693 29.2463,-42.09393 l 1.8685,-2.8788 -3.4494,1.77552 c -1.8972,0.97654 -8.3994,4.56517 -14.4494,7.97475 -23.4843,13.23496 -43.9175,20.57381 -52.5023,18.85687 -4.3871,-0.87743 -3.6788,-2.99097 1.2523,-3.73646 14.1372,-2.13729 42.1835,-14.61556 65.25,-29.03086 13.6013,-8.50008 14.654,-9.45483 25.6249,-23.24183 13.908,-17.47807 21.8958,-23.74829 25.5712,-20.07286 3.1995,3.19945 0.083,7.70061 -16.5441,23.89224 -15.6773,15.26701 -24.8807,26.88011 -41.4799,52.34022 -2.5101,3.85 -7.2982,10.825 -10.6402,15.5 -9.5662,13.38163 -36.4405,53.87823 -40.134,60.47748 l -3.3456,5.97749 2.9739,-2.13679 c 1.6356,-1.17523 7.0912,-5.71965 12.1237,-10.09872 25.9261,-22.56018 61.6562,-50.06417 70.0648,-53.93389 7.8644,-3.61929 11.2421,-3.89399 14.6752,-1.19349 l 2.8893,2.27272 -0.6862,15.61441 c -0.3774,8.58792 -0.3857,16.39749 -0.018,17.35458 0.9313,2.42694 5.6596,4.66621 9.8529,4.66621 5.372,0 15.2642,-4.14884 28.2914,-11.86547 9.324,-5.52304 12.6638,-8.12149 16.0135,-12.45879 4.2661,-5.52389 10.7383,-9.67574 15.0833,-9.67574 4.3062,0 2.3661,3.91578 -6.6065,13.33439 C 1274.6629,362.554 1264,379.83806 1264,387.57647 c 0,8.82025 5.6399,8.718 23.2847,-0.42212 34.6147,-17.93068 58.5339,-33.68493 66.561,-43.83987 6.8641,-8.68376 16.0555,-10.54058 17.7986,-3.5956 1.3331,5.31166 -4.2633,12.05298 -12.2021,14.69821 -5.082,1.69335 -7.6869,6.55542 -7.8356,14.62545 -0.09,4.87221 0.2886,6.21341 2.3934,8.48345 2.3875,2.57496 2.8151,2.66869 9.5,2.08246 10.8556,-0.95197 22.9822,-4.53579 48.5,-14.33335 35.0578,-13.46045 47.7012,-17.2751 57.2568,-17.2751 4.5702,0 6.0881,-0.49266 9.2432,-3 2.0763,-1.65 4.7256,-2.99311 5.8875,-2.98469 5.4013,0.0392 6.5096,5.38238 1.1301,5.4483 -2.6266,0.0322 -3.979,1.42033 -11.7268,12.03639 -9.414,12.89929 -17.3585,27.81175 -20.7247,38.90219 -1.1523,3.79621 -1.9365,7.06074 -1.7427,7.25451 1.4204,1.42041 15.5367,-6.25786 26.1766,-14.23824 7.1461,-5.35988 23.5523,-21.63007 29.2658,-29.02325 l 3.1722,-4.10479 -2.469,-2.31952 c -5.4031,-5.07599 -1.8023,-12.51038 5.7102,-11.78954 2.8822,0.27655 3.4916,0.84161 4.6136,4.27812 0.7111,2.17772 1.4632,4.1298 1.6713,4.33797 0.2082,0.20816 4.8014,1.00515 10.2072,1.77107 18.8872,2.67607 52.0235,1.33957 74.7252,-3.01392 4.3431,-0.83286 7.9648,-1.63587 8.0483,-1.78445 0.083,-0.14858 2.1023,-2.654 4.4863,-5.5676 4.5672,-5.58172 10.2838,-9.20255 14.5291,-9.20255 4.7571,0 3.0927,3.76136 -5.4309,12.27357 -13.442,13.42396 -25.0293,32.19885 -25.0293,40.55494 0,10.51239 7.8183,8.5423 41.1957,-10.38065 8.4174,-4.77214 21.3793,-12.70333 28.8043,-17.62486 11.4152,-7.56639 14.2721,-9.99518 18.5,-15.72775 8.6201,-11.68803 24.0741,-30.42028 28.6301,-34.70347 5.5326,-5.20134 7.5111,-5.93075 8.9243,-3.2902 1.2497,2.33513 0.7219,3.1344 -11.3993,17.26272 -18.0904,21.08586 -51.6673,71.9568 -49.1537,74.47047 0.2451,0.24505 3.0184,-1.53002 6.1629,-3.94461 3.1445,-2.41459 9.8426,-7.54016 14.8846,-11.39016 5.042,-3.85 15.4186,-11.90966 23.0592,-17.91036 24.9803,-19.61894 37.7338,-26.9365 46.0041,-26.39595 6.9311,0.45301 8.494,3.05836 9.4814,15.80467 0.8801,11.36293 2.4588,15.09827 7.9605,18.83585 3.4934,2.37324 4.954,2.45087 17.9459,0.95386 3.6051,-0.4154 3.1913,2.19609 -0.7088,4.47388 -4.2096,2.45853 -12.976,3.32722 -17.7331,1.75724 -4.8855,-1.61236 -10.482,-6.60249 -12.3408,-11.00357 -0.8167,-1.93359 -1.796,-7.91448 -2.1763,-13.29087 -0.3803,-5.37639 -1.2259,-10.30969 -1.8792,-10.9629 -2.8224,-2.82248 -26.8044,12.69825 -60.4513,39.1231 C 1672.465,402.92633 1669.3062,405 1664.5464,405 c -2.2805,0 -4.6864,-0.54 -5.3464,-1.2 -3.4886,-3.48862 0.4407,-15.26293 10.4456,-31.3 2.7449,-4.4 5.3123,-8.54322 5.7051,-9.20716 0.3929,-0.66394 -4.541,2.54997 -10.9644,7.14202 -21.291,15.22106 -46.337,28.54695 -56.8651,30.25542 -9.7221,1.57767 -15.1272,-3.3693 -14.3198,-13.10592 0.4912,-5.92241 5.415,-17.16737 11.1986,-25.57526 2.0044,-2.91393 3.4921,-5.45034 3.306,-5.63647 -0.1862,-0.18614 -1.8461,0.094 -3.6889,0.62246 -11.5448,3.31102 -56.622,5.28335 -79.0528,3.45891 l -8.5357,-0.69426 -4.3192,5.59842 c -7.1487,9.26605 -29.2313,29.92681 -38.8954,36.39101 -9.1775,6.13876 -18.3042,10.25083 -22.7515,10.25083 -1.3544,0 -3.3865,-0.92398 -4.5158,-2.05328 -1.7308,-1.73079 -1.9463,-2.79097 -1.3723,-6.75 1.5944,-10.99736 10.6698,-30.56863 19.7989,-42.69672 3.8819,-5.15722 4.2539,-6.04347 2.6485,-6.30946 -2.9597,-0.49037 -38.1975,11.47196 -52.8638,17.94593 -20.3604,8.98743 -45.3358,15.66717 -54.6528,14.61701 -13.2085,-1.48879 -18.1056,-10.39511 -14.0641,-25.57849 1.3469,-5.05995 1.329,-5.25906 -0.3601,-4 -0.9776,0.72875 -6.0083,4.52505 -11.1792,8.43621 -19.8856,15.04081 -40.3239,27.12786 -54.8118,32.4153 -10.4556,3.81582 -15.0557,3.86954 -19.136,0.2235 -5.9717,-5.33624 -4.8457,-15.05482 3.4179,-29.5 2.4385,-4.2625 4.3291,-7.75 4.2015,-7.75 -0.1276,0 -3.7733,2.01808 -8.1015,4.48463 -15.7479,8.97429 -27.9631,11.10315 -35.4146,6.172 -5.735,-3.79524 -6.6379,-7.8902 -5.0315,-22.81958 1.4519,-13.49261 1.1102,-15.33898 -2.6632,-14.39192 -7.1325,1.79014 -22.8661,13.74075 -77.8531,59.13391 -14.1645,11.69317 -18.356,14.10865 -21.5323,12.40874 -5.0016,-2.67674 -0.9956,-13.13765 14.0618,-36.71968 l 7.8101,-12.2319 -3.6745,1.53426 c -2.021,0.84385 -7.4786,3.55736 -12.128,6.03004 -13.0099,6.91911 -37.7493,17.89741 -47.1192,20.90957 -11.846,3.80815 -24.835,4.50909 -31.2199,1.68476 -8.6381,-3.82108 -10.7743,-11.20321 -6.1332,-21.19483 l 2.5548,-5.5 -3.7971,3.5 c -2.0884,1.925 -11.7007,11.19027 -21.3606,20.58949 -19.02914,18.51546 -36.5426,33.06426 -44.4714,36.94327 -7.13786,3.49205 -13.00754,3.99629 -18.21471,1.56474 z m -31.29526,-33.17803 c 12.09751,-5.48725 36.0705,-26.99026 62.34275,-55.91947 7.74204,-8.525 18.48432,-20.08434 23.87182,-25.68742 11.0891,-11.53291 11.9916,-14.06762 6.1111,-17.16288 -6.4943,-3.41833 -16.60991,0.35271 -33.53268,12.50073 -34.96771,25.10159 -54.00001,44.85889 -64.48887,66.94544 -5.49537,11.57169 -5.69026,21.45326 -0.42171,21.38217 0.89516,-0.0121 3.64807,-0.93844 6.11759,-2.05857 z m 439.47027,-41.89491 c 3.6214,-2.2382 6.4387,-7.02456 4.1346,-7.02456 -0.7492,0 -2.9895,1.8013 -4.9785,4.00288 -5.0478,5.58722 -4.7916,6.50456 0.8439,3.02168 z M 2555,420.93932 c -6.3132,-2.66164 -11.3817,-10.22708 -13.108,-19.56552 -1.2478,-6.75034 0.9527,-23.65966 4.5556,-35.00505 1.287,-4.05281 2.1141,-7.36875 1.8381,-7.36875 -0.276,0 -7.2403,6.51939 -15.4762,14.48753 -20.9045,20.22496 -35.4755,30.78558 -45.4559,32.94508 -3.8831,0.8402 -9.744,-1.42504 -11.3236,-4.37658 -3.3241,-6.21105 -1.7313,-20.5968 4.0276,-36.37651 1.8034,-4.94147 2.5884,-8.43354 2.0228,-8.99908 -0.5082,-0.50828 -0.6945,-1.5225 -0.4139,-2.25382 0.6349,-1.65448 -11.4118,1.51118 -30.1665,7.9272 -13.1328,4.49276 -16.7141,5.92199 -28.5,11.37364 -13.1539,6.08445 -39.6683,13.29246 -48.7418,13.25058 -5.7694,-0.0266 -12.1585,-2.76451 -15.0605,-6.45386 -2.9622,-3.76576 -3.6491,-8.55252 -2.2487,-15.67035 0.6544,-3.32655 0.9817,-6.25642 0.7273,-6.51083 -0.2544,-0.25442 -7.1481,2.87794 -15.3194,6.96078 -17.493,8.74051 -40.5925,18.84393 -48.3569,21.15069 -7.8337,2.32736 -20.897,3.11427 -26.3507,1.58734 -2.6015,-0.7284 -5.825,-2.65958 -7.744,-4.63953 -2.8428,-2.93297 -3.2774,-4.05518 -3.2134,-8.29659 0.051,-3.35701 0.9699,-6.59331 2.9129,-10.25527 3.3148,-6.24744 19.6868,-23.25038 23.9472,-24.87019 3.7407,-1.42222 8.6659,-0.50196 10.9762,2.05088 1.5204,1.68005 1.6593,2.73403 0.8872,6.73044 -1.1235,5.81563 -3.4074,6.31619 -4.8834,1.0703 -0.5676,-2.01749 -1.3073,-3.94278 -1.6438,-4.27843 -1.0277,-1.02522 -10.9476,7.03426 -15.5699,12.6499 -5.5395,6.72981 -8.3183,12.43781 -8.3183,17.08672 0,3.08309 0.4896,3.91179 3.1125,5.26815 8.3549,4.32048 18.9495,2.56551 42.2969,-7.00638 18.6205,-7.634 52.4298,-24.47018 53.0485,-26.41683 0.94,-2.95781 8.5907,-9.9959 12.1387,-11.16686 7.6358,-2.52004 11.406,5.31001 5.7776,11.999 -2.7306,3.24519 -9.1306,7.03288 -11.8833,7.03288 -2.4958,0 -5.444,7.70615 -5.4689,14.29545 -0.019,4.91956 0.3697,6.18718 2.5699,8.38734 2.4246,2.42462 3.0215,2.55278 9.25,1.98606 8.861,-0.80627 23.2803,-4.66855 36.1581,-9.68515 C 2455.3693,353.08909 2471.3261,348 2480.93,348 h 5.7701 l 7.5595,-15.25 c 12.1746,-24.56026 24.9949,-43.43454 40.9563,-60.29667 C 2548.7354,258.171 2565.2767,246 2571.1681,246 c 3.7369,0 6.309,3.86446 5.4456,8.18167 -2.6114,13.05697 -26.9955,42.7879 -65.4201,79.76518 -19.0803,18.36162 -19.1828,18.48331 -22.1837,26.34184 -7.3168,19.16088 -9.8724,33.78199 -6.67,38.1615 4.4408,6.07316 25.9747,-8.96319 58.3007,-40.70933 16.0477,-15.75982 16.2013,-15.95293 26.6878,-33.54596 19.9247,-33.42755 41.5902,-60.44957 55.6174,-69.36823 5.3059,-3.37353 7.5948,-3.55359 9.113,-0.71689 3.5735,6.67718 -13.6269,29.67184 -57.5588,76.94876 -15.4128,16.58627 -26.5,43.08027 -26.5,63.3242 0,7.02655 0.4103,9.06861 2.75,13.68795 3.2968,6.50888 6.5303,8.41429 12.707,7.48803 5.9582,-0.89348 16.7941,-6.3032 24.846,-12.40412 7.045,-5.33802 9.1125,-6.1202 10.0081,-3.78631 0.6113,1.59294 -6.7135,8.94475 -13.3338,13.38298 -10.2922,6.89994 -24.0921,10.66925 -29.9773,8.18805 z m -177.5607,-76.15611 c 1.9374,-2.76598 1.9733,-3.78321 0.1335,-3.78321 -1.4122,0 -7.5728,6.71436 -7.5728,8.25352 0,1.36132 5.7928,-2.11961 7.4393,-4.47031 z m 156.2413,-41.91249 c 15.0014,-16.5983 23.6609,-27.04891 28.8941,-34.87072 5.0218,-7.50573 7.7974,-13.65197 6.5214,-14.44058 -1.5459,-0.95543 -12.5847,7.17073 -22.5413,16.59357 -10.7337,10.15835 -19.504,20.68247 -29.0399,34.84701 -6.0581,8.99876 -16.4543,27.50334 -16.4957,29.36144 -0.036,1.62548 21.4829,-19.12239 32.6614,-31.49072 z m 74.9655,-18.68082 c 13.3202,-16.25579 17.1174,-21.78611 15.8149,-23.03283 -0.9624,-0.92114 -16.1661,15.47331 -24.8933,26.84293 -7.7575,10.1063 -16.5969,23.30652 -16.5234,24.67511 0.076,1.41627 11.6747,-11.48874 25.6018,-28.48521 z m -488.8961,130.73 c -5.3248,-3.10142 0.8002,-10.05751 16.2419,-18.44578 14.0282,-7.62041 25.8948,-14.40091 29.2659,-16.72231 l 2.7577,-1.89906 -3.4038,-6.17638 c -7.5247,-13.6535 -10.5788,-27.26178 -9.9146,-44.17637 0.5083,-12.94586 0.867,-14.5 3.3467,-14.5 2.7042,0 3.5498,2.68992 4.401,14 0.9056,12.03395 2.7697,21.85392 5.5996,29.5 2.6365,7.12344 8.0059,16.50384 9.4392,16.49064 0.559,-0.005 5.2914,-2.25347 10.5164,-4.99629 22.6408,-11.88505 31.1493,-16.02339 36.9899,-17.99096 5.7289,-1.92991 6.4098,-1.97151 8.6153,-0.52641 1.4729,0.96509 2.3948,2.53477 2.3948,4.07762 0,7.49359 -11.2003,30.90501 -18.9395,39.58816 -10.8973,12.22646 -20.5461,11.86065 -36.0992,-1.36857 -3.4103,-2.9008 -6.7373,-5.66864 -7.3934,-6.15074 -0.7736,-0.56856 -6.617,2.02125 -16.6303,7.37061 -18.1234,9.68199 -29.1873,17.06382 -30.7649,20.52628 -1.1872,2.60564 -3.4903,3.10751 -6.4227,1.39956 z m 87.7698,-21.93213 c 5.8957,-3.64373 14.9189,-16.92863 19.8215,-29.18317 3.7526,-9.37991 3.6393,-10.23876 -1.0913,-8.27372 -2.0625,0.85674 -10.05,5.083 -17.75,9.39168 -7.7,4.30868 -16.8316,9.25489 -20.2925,10.99158 l -6.2926,3.15761 2.0615,2.8951 c 3.6655,5.14775 14.9135,12.8782 18.9056,12.9933 0.76,0.0219 2.8471,-0.86566 4.6378,-1.97238 z m -2090.4574,8.79439 c 2.83781,-4.00519 6.12219,-8.73909 7.29863,-10.51978 l 2.13897,-3.23762 11.58037,-0.0124 11.58036,-0.0124 7.41964,-10.96408 7.41963,-10.96408 11.25,-0.0359 c 6.1875,-0.0198 11.25,0.20408 11.25,0.49742 0,0.29333 -3.15049,5.22905 -7.00108,10.96827 l -7.00108,10.43494 -11.70643,0.28172 -11.70642,0.28173 -7.10944,10 -7.10943,10 -11.73169,0.28216 -11.73168,0.28215 z M 2711.2,403.8 c -6.2783,-6.27831 9.4957,-34.27497 42.6952,-75.77811 3.29,-4.11296 5.8021,-7.65795 5.5823,-7.87775 -0.5169,-0.51687 -12.2494,6.75393 -30.4775,18.88728 -39.058,25.9986 -58.8682,36.9974 -78.3377,43.49366 -20.0321,6.68402 -34.5092,5.69517 -39.6319,-2.70705 -2.4953,-4.09284 -2.6661,-11.57613 -0.4586,-20.09512 0.8645,-3.33618 1.3607,-6.87298 1.1027,-7.85956 -0.2867,-1.09637 0.1855,-2.00151 1.2144,-2.32809 0.9259,-0.29387 3.3959,-2.82807 5.4889,-5.63155 4.5474,-6.09107 11.4419,-9.76253 15.1553,-8.07057 3.1162,1.41983 4.0387,6.16053 1.9752,10.15088 -1.6881,3.26429 -9.6937,9.01598 -12.5491,9.01598 -2.7111,0 -4.8885,3.31444 -6.0823,9.25857 -2.7913,13.89931 3.1186,19.26365 18.4012,16.70225 19.2078,-3.2193 38.836,-13.00879 80.7148,-40.25633 35.9112,-23.36476 59.8061,-37.10258 62.6418,-36.01441 3.1008,1.18989 0.9219,4.94178 -10.6335,18.30992 -21.6195,25.01113 -58.6376,82.59225 -47.7754,74.31394 2.8435,-2.16703 24.2749,-18.77872 39.7742,-30.82928 28.0043,-21.77312 40.1538,-28.8438 48.6122,-28.29097 6.9173,0.45211 8.5453,3.12715 9.4511,15.52862 0.8307,11.37476 1.6047,13.70639 5.9017,17.77769 2.9578,2.80247 3.6394,2.98987 10.3507,2.84617 3.9513,-0.0846 8.3093,-0.30961 9.6843,-0.5 3.6205,-0.50133 3.1975,2.13439 -0.7088,4.41578 -4.2096,2.45853 -12.976,3.32722 -17.7331,1.75724 -4.8855,-1.61236 -10.482,-6.60249 -12.3408,-11.00357 -0.8167,-1.93359 -1.796,-7.91448 -2.1763,-13.29087 -0.3803,-5.37639 -1.2112,-10.29498 -1.8465,-10.93021 -3.1071,-3.10712 -30.3659,14.88568 -68.8779,45.46434 C 2723.5415,403.57846 2721.2416,405 2716.4679,405 c -2.2374,0 -4.6079,-0.54 -5.2679,-1.2 z m -83.7348,-56.90359 c 3.3607,-2.95075 4.6472,-5.89641 2.5753,-5.89641 -1.1064,0 -5.7023,4.66819 -7.1378,7.25 -1.5352,2.76099 0.5966,2.12856 4.5625,-1.35359 z m 235.8055,40.20604 c -12.6221,-5.92753 -10.4343,-19.55392 5.7862,-36.0381 11.7693,-11.96062 15.6271,-13.8305 21.8716,-10.60134 3.7557,1.94215 4.4263,4.08306 2.8991,9.25538 -1.6898,5.72285 -2.8137,5.31814 -5.745,-2.0686 l -1.131,-2.85022 -3.7258,2.75213 c -9.9915,7.3804 -18.9845,19.23032 -19.927,26.25746 -0.475,3.54093 -0.2166,4.11352 2.8393,6.2931 4.9771,3.54976 15.4527,3.34566 26.8619,-0.52334 12.1815,-4.1309 31.171,-12.25837 48.5,-20.75794 17.9162,-8.78758 18.1653,-8.95288 23.3227,-15.47745 6.8456,-8.66041 16.075,-10.58357 17.8004,-3.70914 0.995,3.96443 -1.9786,9.00093 -7.3107,12.38247 -2.5872,1.64073 -5.5055,2.98314 -6.4851,2.98314 -2.4417,0 -4.5272,3.50206 -5.9014,9.90973 -1.439,6.71022 -0.081,12.13398 3.5201,14.0614 5.1002,2.72951 23.9204,-1.1621 44.554,-9.21279 43.2842,-16.88836 56.508,-21.00114 68,-21.14899 l 8.5,-0.10935 v 2.98653 c 0,2.31293 -0.6576,3.30169 -2.9155,4.38389 -2.6087,1.2503 -3.0515,1.21136 -4.2078,-0.36996 -0.9836,-1.34509 -2.0789,-1.61357 -4.5845,-1.12376 -7.2302,1.4134 -38.0499,12.20465 -50.3052,17.61396 -19.0657,8.4153 -42.2371,15.00789 -52.487,14.93331 -6.5918,-0.048 -13.034,-2.85068 -15.7225,-6.84017 -2.4893,-3.6939 -2.9841,-10.33028 -1.3089,-17.55573 0.5065,-2.18455 0.7026,-4.19018 0.4359,-4.45695 -0.2668,-0.26676 -7.7794,3.18689 -16.6948,7.67477 -33.8862,17.05793 -48.111,22.2557 -62.7097,22.91421 -7.9852,0.36019 -10.1744,0.11182 -13.7293,-1.55765 z m 110.1945,-40.20604 c 3.3089,-2.90527 4.6538,-5.89641 2.6512,-5.89641 -0.8878,0 -8.1164,7.57279 -8.1164,8.50288 0,1.28904 2.2514,0.21532 5.4652,-2.60647 z M 133.6518,367.08129 c 1.01651,-1.60529 3.30143,-4.98029 5.07759,-7.5 L 141.95878,355 h 7.61881 7.61881 l -1.8482,2.91871 c -1.01651,1.60529 -3.30143,4.98029 -5.07759,7.5 L 147.04122,370 h -7.61881 -7.61881 z m 52.57268,-33.02485 7.27552,-11.00746 11.82678,-0.0245 11.82678,-0.0245 -7.43554,10.75 -7.43554,10.75 -11.66676,0.28196 -11.66675,0.28195 z M 1317,318.51058 c -1.375,-0.71861 -4.2577,-2.05368 -6.406,-2.96681 -3.458,-1.46978 -3.7354,-1.83093 -2.4182,-3.14817 1.6709,-1.67086 10.9023,-4.3656 15.0175,-4.38373 3.1819,-0.014 5.8067,3.20119 5.8067,7.11281 0,2.10656 -0.6735,2.91447 -3.1492,3.77749 -3.8938,1.3574 -5.6532,1.27955 -8.8508,-0.39159 z m 337,0.0855 c -1.375,-0.74289 -4.2577,-2.10712 -6.406,-3.03162 -3.458,-1.48808 -3.7354,-1.8516 -2.4182,-3.16884 1.6709,-1.67086 10.9023,-4.3656 15.0175,-4.38373 3.1819,-0.014 5.8067,3.20119 5.8067,7.11281 0,2.10656 -0.6735,2.91447 -3.1492,3.77749 -4.0532,1.41296 -5.7796,1.35325 -8.8508,-0.30611 z M 944.5,183.442 c -1.1,-0.25393 -4.475,-0.95238 -7.5,-1.55211 -12.4541,-2.46913 -23.72114,-10.54248 -28.91148,-20.71637 -4.66187,-9.13802 -5.05801,-13.85566 -5.07374,-60.42352 L 903,57 h 15 15 v 40.350777 c 0,42.632303 0.15734,44.297673 4.77202,50.508073 3.6573,4.92198 9.24408,7.09293 18.3207,7.11919 9.83424,0.0284 15.11707,-2.55086 19.40728,-9.47545 l 3,-4.84214 0.2913,-41.830226 L 979.0826,57 l 14.9587,0 14.9587,0 -0.017,42.75 c -0.019,46.1888 -0.4727,51.36335 -5.3501,60.98852 -5.19967,10.26105 -11.77577,15.63972 -24.26621,19.8476 -6.4736,2.18088 -10.07936,2.70915 -20.36629,2.98381 -6.875,0.18357 -13.4,0.126 -14.5,-0.12793 z m 689,-0.13956 c -18.219,-2.41642 -34.9934,-14.60233 -43.3228,-31.47219 -5.4202,-10.97764 -7.4761,-19.90285 -7.4472,-32.33025 0.045,-19.504589 5.7116,-34.002303 18.219,-46.613957 12.94,-13.047933 24.6891,-17.482534 44.051,-16.626743 12.7991,0.565715 20.919,2.913427 29.8105,8.619104 5.6143,3.602706 15.1895,13.299166 15.1895,15.381914 0,0.759022 -4.7852,5.497189 -10.6338,10.52926 l -10.6339,9.149219 -2.9473,-4.44964 c -5.3322,-8.050215 -15.6047,-14.430158 -23.285,-14.461618 -7.1473,-0.02928 -11.5153,1.85737 -17.0012,7.343262 -9.274,9.273947 -13.2422,25.346919 -10.147,41.099769 1.9642,9.99701 4.199,14.91952 9.3733,20.64691 5.123,5.67052 10.5281,8.20124 17.391,8.14257 9.5349,-0.0815 19.9168,-6.33521 24.4301,-14.71599 1.0535,-1.95626 2.2221,-3.44146 2.5969,-3.30045 0.3747,0.14102 5.4222,4.27693 11.2167,9.19091 l 10.5353,8.93453 -1.6976,2.9687 c -3.2559,5.69401 -11.1394,12.55916 -18.4726,16.08626 -10.451,5.02674 -25.6043,7.41969 -37.2249,5.87843 z m 114.7985,-0.33587 c -17.061,-3.07061 -32.5713,-14.47605 -40.0718,-29.46657 -6.5092,-13.00944 -9.0276,-34.34898 -5.8417,-49.5 2.4726,-11.758687 8.6041,-23.094287 17.0085,-31.444337 C 1730.8186,61.20452 1743.5839,56 1760,56 c 16.7778,0 29.3862,5.194935 41.051,16.913916 12.8082,12.867755 18.2189,27.079108 18.1175,47.586084 -0.1519,30.69931 -15.4107,53.28781 -41.1685,60.94407 -6.6827,1.98637 -22.5928,2.80192 -29.7015,1.5225 z M 1771,155.60011 c 5.1815,-2.55204 11.176,-9.86957 13.5988,-16.60011 2.2043,-6.12336 3.0261,-24.61775 1.4161,-31.86577 -2.4676,-11.107929 -8.3326,-19.618705 -16.233,-23.555637 -13.6099,-6.782092 -27.672,0.711113 -34.0097,18.122577 -2.9944,8.22651 -3.614,24.28556 -1.271,32.94144 2.1496,7.94133 8.0854,17.32075 12.809,20.24006 7.0059,4.32989 15.8138,4.59663 23.6898,0.71744 z m 106.3467,27.30513 c -16.8278,-2.81139 -29.2635,-12.04877 -34.2836,-25.46609 -3.5387,-9.4582 -4.0478,-16.88757 -4.0555,-59.18915 L 1839,57 l 14.9487,0 14.9488,0 0.3012,41.25 c 0.2981,40.80789 0.3259,41.29602 2.5939,45.54364 4.3971,8.23505 9.5931,11.0224 20.7074,11.10832 10.9121,0.0844 17.2349,-3.61812 21.2023,-12.41561 1.6179,-3.5877 1.8279,-8.06154 2.0995,-44.73635 l 0.3018,-40.75 15.0286,0 15.0286,0 -0.4241,44.75 c -0.3415,36.04333 -0.717,45.72281 -1.9298,49.75 -5.3286,17.69327 -16.3607,27.40635 -35.2283,31.01631 -8.3501,1.59763 -22.9117,1.77897 -31.2319,0.38893 z m 507.0405,0.16299 c -6.6888,-1.06799 -14.5527,-3.67953 -21.4271,-7.11574 C 2357.0744,173.01048 2347,164.60641 2347,162.63857 c 0,-0.64685 4.4671,-5.62643 9.9269,-11.06573 l 9.9269,-9.88964 5.1215,4.60465 c 6.8952,6.19944 14.2002,8.89733 25.6631,9.47801 10.1496,0.51416 14.7331,-0.52731 18.7648,-4.26371 3.3449,-3.09998 3.3989,-7.39541 0.1417,-11.26642 -2.6929,-3.20034 -11.465,-6.23971 -24.0449,-8.33112 -9.5675,-1.5906 -22.6316,-6.13889 -28.5602,-9.94326 -7.2053,-4.62363 -14.4524,-13.01299 -16.5855,-19.19981 -2.6858,-7.789609 -2.3222,-17.967676 0.8929,-24.990267 4.6461,-10.148392 13.3985,-16.778413 26.8242,-20.319549 8.4532,-2.229604 26.1468,-2.265016 34.9388,-0.06993 7.5155,1.876412 23.004,9.328336 27.7532,13.352797 L 2441.0267,73.5 2434.963,82 c -3.3351,4.675 -6.6036,9.031856 -7.2634,9.681902 -0.9252,0.911564 -3.1679,0.213625 -9.8049,-3.051339 -9.0831,-4.468299 -20.102,-7.634292 -26.5378,-7.624986 -13.0641,0.01889 -20.7015,8.548878 -13.6069,15.197313 4.3633,4.08896 9.9369,6.41405 25.8663,10.79043 32.7832,9.00677 44.6355,19.19191 44.8095,38.50668 0.061,6.79878 -0.3425,8.84454 -2.689,13.62454 -7.0102,14.28012 -24.3475,23.30413 -46.7368,24.32632 -5.225,0.23855 -11.8008,0.0664 -14.6128,-0.38263 z m 127.1128,0.23421 c -16.3939,-2.17436 -32.5706,-12.9746 -41.3208,-27.58747 -13.0498,-21.79334 -12.4976,-53.33075 1.2977,-74.114199 7.8594,-11.84068 22.3383,-21.963835 35.2605,-24.652943 8.307,-1.728688 26.193,-0.684608 33.6827,1.9662 6.7012,2.371744 12.325,5.492338 17.8908,9.927482 4.3199,3.442298 9.6891,9.860438 9.6891,11.581907 0,0.631624 -4.77,5.303976 -10.6,10.383003 l -10.6,9.2346 -2.9798,-4.498827 c -3.7344,-5.637913 -7.916,-9.196758 -14.3202,-12.187593 -9.4832,-4.428759 -18.247,-2.738025 -26.0012,5.016201 -17.5741,17.574049 -13.5403,57.380459 6.873,67.825039 10.9003,5.57722 27.7085,-0.64538 34.1744,-12.65178 1.0535,-1.95626 2.2526,-3.44146 2.6647,-3.30045 0.4121,0.14102 5.4505,4.27959 11.1964,9.19683 l 10.4471,8.94043 -1.5466,2.99078 c -2.6544,5.13316 -11.0456,12.3913 -18.5793,16.0706 -10.315,5.0377 -25.4579,7.42135 -37.2285,5.86019 z m 256,0.067 c -24.3987,-3.78129 -42.1516,-20.34489 -48.1208,-44.89711 -2.3156,-9.52431 -2.3536,-27.84808 -0.076,-36.47237 5.8275,-22.062689 22.1766,-39.212614 42.3408,-44.414815 7.7351,-1.995585 22.1801,-2.042397 29.6525,-0.0961 19.4294,5.060714 34.6398,19.830331 41.2763,40.080244 2.6604,8.117466 2.9241,10.159936 2.8963,22.430666 -0.022,9.83662 -0.5161,15.24071 -1.82,19.91475 -5.8385,20.92894 -19.9253,35.6807 -39.6494,41.52114 -5.5853,1.65384 -21.0324,2.78095 -26.5,1.93359 z m 19.5682,-27.43767 c 4.6721,-2.33982 10.5904,-8.96952 12.9768,-14.53676 4.6208,-10.77997 5.0433,-28.73866 0.9343,-39.72078 -7.3299,-19.590866 -25.4224,-26.546477 -38.9445,-14.972074 -5.4285,4.646644 -8.6275,10.385355 -11.0338,19.793934 -8.3095,32.48975 12.6207,61.17777 36.0672,49.43568 z m 111.2085,26.64559 c -20.2409,-3.86053 -35.8502,-18.01331 -42.7107,-38.72517 -3.728,-11.25486 -4.6264,-27.88954 -2.1295,-39.42812 C 2859.7522,75.239153 2882.4877,56 2910.6609,56 c 17.3049,0 29.5299,4.984362 41.4423,16.89676 8.3373,8.337282 13.4124,17.284797 16.5256,29.13489 2.2646,8.62001 2.2532,26.99871 -0.023,36.44072 -5.0758,21.05849 -19.1093,36.54512 -38.6002,42.59692 -8.4342,2.61879 -22.4206,3.28356 -31.7293,1.50811 z m 23.4835,-26.77209 c 18.616,-8.71152 22.6607,-47.81533 6.876,-66.477558 -3.7686,-4.455558 -11.9764,-8.332828 -17.5825,-8.30579 C 2895.4294,81.097317 2884,97.775674 2884,120.5 c 0,28.02271 17.786,44.6524 37.7602,35.30531 z M 3124.5,182.5957 c -12.9003,-2.50808 -28.4532,-10.77674 -33.7004,-17.91668 -1.6855,-2.29361 -1.6112,-2.40255 8.5624,-12.54145 l 10.2626,-10.22774 3.9377,3.71426 c 2.1657,2.04284 6.8627,5.08881 10.4377,6.76882 5.6222,2.64206 7.8504,3.10079 16.5,3.39689 8.8891,0.30431 10.4989,0.085 14.4907,-1.97373 2.4699,-1.27384 5.1552,-3.52324 5.9674,-4.99866 1.3226,-2.4028 1.2961,-3.06117 -0.2542,-6.3122 -2.2738,-4.76823 -7.0425,-6.8323 -23.3937,-10.12576 -26.3066,-5.29866 -38.6309,-12.57477 -46.3757,-27.37945 -1.9513,-3.73003 -2.361,-6.039947 -2.3943,-13.5 -0.035,-7.884555 0.3076,-9.708238 2.766,-14.714439 6.7299,-13.704787 22.034,-21.069818 43.6938,-21.027481 12.8586,0.02513 21.8232,2.016843 32.5,7.220703 7.4644,3.638146 15.5,9.270083 15.5,10.86354 0,1.083046 -12.9949,18.658217 -13.7921,18.653397 -0.3893,-0.0024 -4.0829,-1.692112 -8.2079,-3.755019 -19.2936,-9.6487 -38.2682,-9.828157 -42.8215,-0.404994 -3.1052,6.426293 5.8329,13.007863 23.8826,17.585973 21.3296,5.41005 33.7612,11.08775 41.0787,18.76139 5.6911,5.96802 7.1713,9.75137 7.6662,19.59462 0.416,8.27443 0.2601,9.14577 -2.7191,15.19736 -7.1189,14.46062 -23.608,22.8712 -47.0869,24.0177 -5.8554,0.28592 -12.1855,-0.0582 -16.5,-0.89705 z M 800,119.90409 V 56.808171 l 26.75,0.436976 c 28.13746,0.459642 31.90225,0.996874 41.59941,5.936204 6.02189,3.067298 12.20297,9.375562 14.78732,15.091599 2.06268,4.5622 2.36327,6.753379 2.36327,17.22705 0,10.87567 -0.2469,12.52656 -2.63517,17.62001 -3.37999,7.20852 -8.45974,12.79739 -14.73675,16.21377 C 860.72261,133.36433 849.14282,136 838.84004,136 H 830 V 159.5 183 H 815 800 Z M 847.96412,109.75 C 853.50732,106.90759 856,102.38361 856,95.165602 c 0,-4.735831 -0.38697,-5.752568 -3.29692,-8.662526 -3.84342,-3.843417 -8.92022,-5.489708 -16.95308,-5.497499 L 830,81 V 96.5 112 h 6.78811 c 5.07274,0 7.89694,-0.56858 11.17601,-2.25 z M 1057,132.5 V 82 H 1040.5 1024 V 69.5 57 h 47.5 47.5 V 69.5 82 h -16 -16 v 50.5 50.5 h -15 -15 z M 1133,120 V 57 l 16.75,0.0205 16.75,0.0205 22,41.910572 22,41.910573 0.2609,-41.931076 L 1211.0217,57 1226.0109,57 1241,57 v 63.01989 63.01989 L 1219.9285,182.76989 1198.8569,182.5 1181.1785,148.71955 1163.5,114.9391 1163.2369,148.96955 1162.9737,183 H 1147.9869 1133 Z m 126.6905,46.7747 c 3.1128,-8.95109 12.9598,-37.1997 21.8821,-62.7747 l 16.2223,-46.5 16.4965,-0.273698 16.4964,-0.273698 1.1825,3.273698 C 1333.7259,65.08682 1373,182.2963 1373,182.67515 1373,182.85382 1365.8375,183 1357.0833,183 h -15.9166 l -2.9161,-8.75 -2.916,-8.75 -21.5775,-0.26925 -21.5776,-0.26925 -2.922,8.76925 -2.9221,8.76925 -16.1523,0.2747 -16.1522,0.27469 z m 67.0637,-27.0247 c -0.253,-0.6875 -3.0573,-9.125 -6.2319,-18.75 -3.1745,-9.625 -6.0533,-17.81133 -6.3971,-18.19185 -0.3439,-0.38052 -3.6023,8.05698 -7.2409,18.75 L 1300.2686,141 h 13.4727 c 10.3567,0 13.3663,-0.2891 13.0129,-1.25 z M 1387,120 V 57 l 22.75,0.0022 22.75,0.0022 9.408,35.747809 c 5.1744,19.6613 9.7145,36.35009 10.0892,37.08622 0.6671,1.31067 2.2089,-4.20563 13.9295,-49.83841 l 5.779,-22.5 23.6471,-0.268099 L 1519,56.963803 V 119.9819 183 h -14.4896 -14.4896 l -0.2604,-43.91804 -0.2604,-43.91804 -11.546,43.66804 -11.5461,43.66804 -13.4539,0.26683 -13.454,0.26684 L 1428,140.83303 1416.5,98.632401 1416.2391,140.8162 1415.9783,183 H 1401.4891 1387 Z m 583,-0.0236 V 56.952772 l 17.1596,0.273614 17.1596,0.273614 22.0904,42 22.0904,42 0.2609,-42.25 0.2608,-42.25 14.9892,0 14.9891,0 v 63.01989 63.01989 l -21.25,-0.26989 -21.25,-0.26989 -17.209,-32.90902 c -9.465,-18.09997 -17.6775,-33.37747 -18.25,-33.95 C 2000.3197,114.91967 2000,125.10254 2000,148.8 V 183 h -15 -15 z M 2127,132.5 V 82 H 2110.5 2094 V 69.5 57 h 48 48 V 69.5 82 h -16.5 -16.5 v 50.5 50.5 h -15 -15 z m 102,22.60818 V 127.21636 L 2210.6271,92.10818 2192.2543,57 l 14.639,0 14.639,0 10.9839,21.478026 c 6.0411,11.812914 11.2088,21.482862 11.4838,21.488773 0.275,0.0059 5.3859,-9.4669 11.3576,-21.050692 5.9716,-11.583792 11.3933,-21.26703 12.0481,-21.518307 0.6549,-0.251277 7.3316,-0.331077 14.8374,-0.177334 l 13.6467,0.279534 -18.4294,35 -18.4294,35 -0.015,27.75 L 2259,183 h -15 -15 z M 2584,120 V 57 h 15 15 v 25 25 h 26.5 26.5 V 82 57 h 15 15 v 63 63 h -15 -15 v -25 -25 h -26.5 -26.5 v 25 25 h -15 -15 z m 410,0 V 57 h 15 15 v 50.5 50.5 h 27.5 27.5 v 12.5 12.5 h -42.5 -42.5 z"
       id="path1" />
  </g>
</svg>
