<?xml version="1.0" encoding="UTF-8" standalone="no"?>
<svg
   xmlns:dc="http://purl.org/dc/elements/1.1/"
   xmlns:cc="http://creativecommons.org/ns#"
   xmlns:rdf="http://www.w3.org/1999/02/22-rdf-syntax-ns#"
   xmlns:svg="http://www.w3.org/2000/svg"
   xmlns="http://www.w3.org/2000/svg"
   viewBox="0 0 1066.6667 533.33331"
   height="533.33331"
   width="1066.6667"
   xml:space="preserve"
   id="svg2"
   version="1.1"><metadata
     id="metadata8"><rdf:RDF><cc:Work
         rdf:about=""><dc:format>image/svg+xml</dc:format><dc:type
           rdf:resource="http://purl.org/dc/dcmitype/StillImage" /></cc:Work></rdf:RDF></metadata><defs
     id="defs6" /><g
     transform="matrix(1.3333333,0,0,-1.3333333,0,533.33333)"
     id="g10"><g
       transform="scale(0.1)"
       id="g12"><path
         id="path14"
         style="fill:#ffffff;fill-opacity:1;fill-rule:nonzero;stroke:none"
         d="m 1206.54,1573.74 h 205.03 v -29.76 h -172.83 v -101.9 h 154.5 v -29.35 h -154.5 v -124.32 h -32.2 v 285.33" /><path
         id="path16"
         style="fill:#ffffff;fill-opacity:1;fill-rule:nonzero;stroke:none"
         d="m 1992,1430.26 v 0.82 c 0,64.8 -47.29,117.79 -112.51,117.79 -65.21,0 -111.68,-52.17 -111.68,-116.98 v -0.81 c 0,-64.81 47.28,-117.81 112.49,-117.81 65.22,0 111.7,52.18 111.7,116.99 z m -257.63,0 v 0.82 c 0,78.66 59.12,147.54 145.93,147.54 86.83,0 145.12,-68.07 145.12,-146.73 v -0.81 c 0,-78.68 -59.1,-147.56 -145.93,-147.56 -86.83,0 -145.12,68.07 -145.12,146.74" /><path
         id="path18"
         style="fill:#ffffff;fill-opacity:1;fill-rule:nonzero;stroke:none"
         d="m 2368.2,1407.84 v 165.9 h 32.2 v -163.87 c 0,-61.54 33.02,-96.18 87.24,-96.18 52.57,0 85.99,31.78 85.99,94.15 v 165.9 h 32.21 v -163.46 c 0,-83.14 -47.7,-126.36 -119.03,-126.36 -70.51,0 -118.61,43.22 -118.61,123.92" /><path
         id="path20"
         style="fill:#ffffff;fill-opacity:1;fill-rule:nonzero;stroke:none"
         d="m 2961.24,1573.74 h 30.17 l 179.75,-228.67 v 228.67 h 31.38 v -285.33 h -25.69 l -184.22,233.97 v -233.97 h -31.39 v 285.33" /><path
         id="path22"
         style="fill:#ffffff;fill-opacity:1;fill-rule:nonzero;stroke:none"
         d="m 3594.64,1543.98 v -225.82 h 66.85 c 72.14,0 118.21,48.92 118.21,112.1 v 0.82 c 0,63.17 -46.07,112.9 -118.21,112.9 z m -32.21,29.76 h 99.06 c 89.67,0 151.62,-61.56 151.62,-141.85 v -0.81 c 0,-80.31 -61.95,-142.67 -151.62,-142.67 h -99.06 v 285.33" /><path
         id="path24"
         style="fill:#ffffff;fill-opacity:1;fill-rule:nonzero;stroke:none"
         d="m 4326.69,1393.16 -64.82,145.11 -65.21,-145.11 z m -79.47,182.61 h 30.15 l 130.03,-287.36 h -34.66 l -33.42,75.4 h -155.3 l -33.83,-75.4 h -33 l 130.03,287.36" /><path
         id="path26"
         style="fill:#ffffff;fill-opacity:1;fill-rule:nonzero;stroke:none"
         d="m 4781.57,1543.98 h -95.8 v 29.76 h 224.19 v -29.76 h -95.78 v -255.57 h -32.61 v 255.57" /><path
         id="path28"
         style="fill:#ffffff;fill-opacity:1;fill-rule:nonzero;stroke:none"
         d="m 5252.33,1573.74 h 32.21 v -285.33 h -32.21 v 285.33" /><path
         id="path30"
         style="fill:#ffffff;fill-opacity:1;fill-rule:nonzero;stroke:none"
         d="m 5892.25,1430.26 v 0.82 c 0,64.8 -47.27,117.79 -112.49,117.79 -65.21,0 -111.68,-52.17 -111.68,-116.98 v -0.81 c 0,-64.81 47.28,-117.81 112.49,-117.81 65.22,0 111.68,52.18 111.68,116.99 z m -257.58,0 v 0.82 c 0,78.66 59.1,147.54 145.9,147.54 86.83,0 145.12,-68.07 145.12,-146.73 v -0.81 c 0,-78.68 -59.1,-147.56 -145.93,-147.56 -86.82,0 -145.09,68.07 -145.09,146.74" /><path
         id="path32"
         style="fill:#ffffff;fill-opacity:1;fill-rule:nonzero;stroke:none"
         d="m 6272.95,1573.74 h 30.17 l 179.76,-228.67 v 228.67 h 31.38 v -285.33 h -25.69 l -184.23,233.97 v -233.97 h -31.39 v 285.33" /><path
         id="path34"
         style="fill:#ffffff;fill-opacity:1;fill-rule:nonzero;stroke:none"
         d="m 1149.42,950.289 v 0.59 c 0,46.633 -34.02,84.771 -80.94,84.771 -46.95,0 -80.386,-37.548 -80.386,-84.189 v -0.582 c 0,-46.649 34.036,-84.777 80.966,-84.777 46.92,0 80.36,37.546 80.36,84.187 z m -185.369,0 v 0.59 c 0,56.611 42.519,106.191 105.009,106.191 62.48,0 104.42,-49 104.42,-105.609 v -0.582 c 0,-56.617 -42.53,-106.188 -105,-106.188 -62.48,0 -104.429,48.989 -104.429,105.598" /><path
         id="path36"
         style="fill:#ffffff;fill-opacity:1;fill-rule:nonzero;stroke:none"
         d="m 1423.61,1053.54 h 147.55 v -21.41 H 1446.8 v -73.329 h 111.16 V 937.672 H 1446.8 v -89.461 h -23.19 v 205.329" /><path
         id="path38"
         style="fill:#ffffff;fill-opacity:1;fill-rule:nonzero;stroke:none"
         d="m 2090.38,1053.54 h 25.24 l 58.66,-171.001 56.31,171.591 h 19.08 l 56.31,-171.591 58.67,171.001 H 2389 l -73.35,-206.798 h -19.64 l -56.31,166.618 -56.62,-166.618 h -19.36 l -73.34,206.798" /><path
         id="path40"
         style="fill:#ffffff;fill-opacity:1;fill-rule:nonzero;stroke:none"
         d="m 2632.11,1053.54 h 148.44 v -21.12 h -125.27 v -70.111 h 112.05 V 941.191 H 2655.28 V 869.332 H 2782 v -21.121 h -149.89 v 205.329" /><path
         id="path42"
         style="fill:#ffffff;fill-opacity:1;fill-rule:nonzero;stroke:none"
         d="m 3016.28,878.129 14.37,17.012 c 21.41,-19.36 41.95,-29.039 70.39,-29.039 27.58,0 45.77,14.679 45.77,34.91 v 0.59 c 0,19.058 -10.26,29.918 -53.39,39.007 -47.22,10.27 -68.92,25.52 -68.92,59.25 v 0.591 c 0,32.27 28.45,56.02 67.46,56.02 29.92,0 51.33,-8.5 72.15,-25.22 l -13.49,-17.89 c -19.07,15.54 -38.13,22.29 -59.24,22.29 -26.7,0 -43.71,-14.67 -43.71,-33.14 v -0.6 c 0,-19.359 10.56,-30.211 55.74,-39.89 45.74,-9.969 66.87,-26.692 66.87,-58.079 v -0.582 c 0,-35.211 -29.33,-58.078 -70.1,-58.078 -32.57,0 -59.26,10.848 -83.9,32.848" /><path
         id="path44"
         style="fill:#ffffff;fill-opacity:1;fill-rule:nonzero;stroke:none"
         d="m 3468.49,1032.13 h -68.94 v 21.41 h 161.34 v -21.41 h -68.93 V 848.211 h -23.47 v 183.919" /><path
         id="path46"
         style="fill:#ffffff;fill-opacity:1;fill-rule:nonzero;stroke:none"
         d="m 4076.87,1053.54 h 25.81 l 73.05,-176.868 73.32,176.868 h 24.93 L 4185.7,846.742 h -20.55 l -88.28,206.798" /><path
         id="path48"
         style="fill:#ffffff;fill-opacity:1;fill-rule:nonzero;stroke:none"
         d="m 4517.66,1053.54 h 23.18 V 848.211 h -23.18 v 205.329" /><path
         id="path50"
         style="fill:#ffffff;fill-opacity:1;fill-rule:nonzero;stroke:none"
         d="m 4888.26,948.809 c 30.8,0 52.8,15.851 52.8,42.25 v 0.601 c 0,25.21 -19.36,40.47 -52.51,40.47 h -63.36 v -83.321 z m -86.24,104.731 h 88.3 c 25.23,0 45.47,-7.63 58.37,-20.53 9.98,-9.98 15.84,-24.34 15.84,-40.479 v -0.59 c 0,-34.019 -23.47,-53.972 -55.73,-59.839 l 63.06,-83.891 h -28.44 L 4883.86,928 h -58.67 v -79.789 h -23.17 v 205.329" /><path
         id="path52"
         style="fill:#ffffff;fill-opacity:1;fill-rule:nonzero;stroke:none"
         d="m 5206.15,950.289 v 0.59 c 0,56.311 41.36,106.191 102.94,106.191 34.62,0 56.03,-9.98 76.57,-27.29 l -14.96,-17.6 c -15.84,13.78 -33.44,23.47 -62.49,23.47 -45.45,0 -78.02,-38.431 -78.02,-84.189 v -0.582 c 0,-48.988 31.39,-85.359 81.26,-85.359 23.45,0 45.18,9.101 59.25,20.531 v 51.051 h -62.49 v 20.82 H 5393 v -81.84 c -19.08,-17.023 -47.82,-31.391 -82.44,-31.391 -64.53,0 -104.41,46.938 -104.41,105.598" /><path
         id="path54"
         style="fill:#ffffff;fill-opacity:1;fill-rule:nonzero;stroke:none"
         d="m 5648.39,1053.54 h 23.18 V 848.211 h -23.18 v 205.329" /><path
         id="path56"
         style="fill:#ffffff;fill-opacity:1;fill-rule:nonzero;stroke:none"
         d="m 5932.75,1053.54 h 21.7 l 129.37,-164.56 v 164.56 h 22.58 V 848.211 h -18.47 L 5955.34,1016.58 V 848.211 h -22.59 v 205.329" /><path
         id="path58"
         style="fill:#ffffff;fill-opacity:1;fill-rule:nonzero;stroke:none"
         d="m 6367.67,1053.54 h 23.19 V 848.211 h -23.19 v 205.329" /><path
         id="path60"
         style="fill:#ffffff;fill-opacity:1;fill-rule:nonzero;stroke:none"
         d="m 6785.21,923.602 -46.64,104.418 -46.92,-104.418 z m -57.19,131.408 h 21.69 l 93.58,-206.799 h -24.93 l -24.06,54.269 h -111.75 l -24.34,-54.269 h -23.77 l 93.58,206.799" /><path
         id="path62"
         style="fill:#ffffff;fill-opacity:1;fill-rule:nonzero;stroke:none"
         d="m 1453.83,2638.19 c -17.39,169.47 -117.33,302.02 -291.16,302.02 -160.79,0 -273.756,-123.85 -297.662,-302.02 z m -256.39,-464.97 c 128.19,0 219.45,47.8 310.71,136.87 l 154.26,-136.87 c -108.64,-130.38 -258.54,-215.1 -469.32,-215.1 -332.426,0 -588.813,241.16 -588.813,597.51 0,330.26 232.489,599.68 560.563,599.68 365.03,0 549.72,-286.8 549.72,-619.25 0,-23.9 -2.17,-45.63 -4.34,-71.69 H 867.176 c 30.422,-186.86 160.794,-291.15 330.264,-291.15" /><path
         id="path64"
         style="fill:#ffffff;fill-opacity:1;fill-rule:nonzero;stroke:none"
         d="m 2068.58,1984.18 h -262.91 v 1147.23 h 262.91 v -178.17 c 73.88,108.64 180.34,202.07 358.52,202.07 258.54,0 408.47,-173.82 408.47,-441.08 v -730.05 h -262.9 v 651.83 c 0,178.17 -89.08,280.29 -245.53,280.29 -152.09,0 -258.56,-106.47 -258.56,-284.63 v -647.49" /><path
         id="path66"
         style="fill:#ffffff;fill-opacity:1;fill-rule:nonzero;stroke:none"
         d="m 6161.72,3131.41 h 275.96 L 5968.35,1975.48 h -236.84 l -471.48,1155.93 h 282.45 l 308.54,-843.05 310.7,843.05" /><path
         id="path68"
         style="fill:#ffffff;fill-opacity:1;fill-rule:nonzero;stroke:none"
         d="m 7141.49,2470.89 c -67.35,26.06 -160.79,45.62 -262.9,45.62 -165.13,0 -262.9,-67.36 -262.9,-184.68 v -4.35 c 0,-108.65 97.77,-169.48 221.62,-169.48 173.82,0 304.18,97.78 304.18,241.19 z m -6.52,-486.71 v 141.23 c -78.19,-93.43 -197.71,-165.13 -371.52,-165.13 -217.29,0 -408.51,123.84 -408.51,354.16 v 4.35 c 0,247.69 197.73,369.38 465,369.38 139.06,0 228.13,-19.57 317.22,-47.81 v 28.24 c 0,158.63 -99.96,245.52 -282.45,245.52 -128.21,0 -223.8,-28.23 -328.1,-71.69 l -71.71,210.75 c 126.03,56.5 249.86,95.61 436.72,95.61 338.97,0 504.1,-178.17 504.1,-484.54 v -680.07 h -260.75" /><path
         id="path70"
         style="fill:#ffffff;fill-opacity:1;fill-rule:nonzero;stroke:none"
         d="m 5083.2,2546.25 c 0,-198.89 -135.44,-367.17 -349.6,-367.17 -205.39,0 -351.88,170.49 -351.88,371.51 v 4.41 c 0,200.99 135.53,367.07 347.48,367.07 207.61,0 354,-168.22 354,-371.48 z m -349.6,607.48 c -68.84,0 -134.07,-10.62 -194.71,-29.68 -259.1,-75.6 -401.22,-307.38 -529.03,-516.53 -66.13,-108.26 -128.14,-209.22 -200.96,-286.47 -82.4,-83.96 -173.61,-141.97 -296.99,-141.97 -203.22,0 -345.27,166.08 -345.27,371.51 v 4.41 c 0,200.99 139.84,367.07 332.18,367.07 133.24,0 218.49,-59 299.34,-144.2 l 163.88,177 c -107.08,118 -242.52,198.86 -461.07,198.86 -345.29,0 -598.76,-275.3 -598.76,-603.14 v -4.34 c 0,-327.78 253.47,-596.62 596.61,-596.62 2.36,0 4.37,0.34 6.71,0.34 0.27,0 0.55,-0.06 0.84,-0.06 0.8,0 1.64,0 2.48,0.06 3.53,0.07 6.76,0.59 10.24,0.72 187.95,4.81 310.86,73.58 412.75,174.58 81.16,75.85 147.24,168.65 207.17,262.69 68.5,-251.64 297.21,-438.33 590.19,-438.33 356.21,0 618.46,273.18 618.46,600.96 v 4.41 c 0,329.98 -260.02,598.73 -614.06,598.73" /></g></g></svg>