<?xml version="1.0" encoding="UTF-8" standalone="no"?>
<!-- Uploaded to: SVG Repo, www.svgrepo.com, Generator: SVG Repo Mixer Tools -->

<svg
   fill="#000000"
   version="1.1"
   id="Capa_1"
   width="800px"
   height="800px"
   viewBox="0 0 459.319 459.319"
   xml:space="preserve"
   sodipodi:docname="dictionary.svg"
   inkscape:version="1.3.2 (091e20e, 2023-11-25, custom)"
   xmlns:inkscape="http://www.inkscape.org/namespaces/inkscape"
   xmlns:sodipodi="http://sodipodi.sourceforge.net/DTD/sodipodi-0.dtd"
   xmlns="http://www.w3.org/2000/svg"
   xmlns:svg="http://www.w3.org/2000/svg"><defs
   id="defs1" /><sodipodi:namedview
   id="namedview1"
   pagecolor="#ffffff"
   bordercolor="#666666"
   borderopacity="1.0"
   inkscape:showpageshadow="2"
   inkscape:pageopacity="0.0"
   inkscape:pagecheckerboard="0"
   inkscape:deskcolor="#d1d1d1"
   inkscape:zoom="1.49125"
   inkscape:cx="400"
   inkscape:cy="400"
   inkscape:window-width="3440"
   inkscape:window-height="1369"
   inkscape:window-x="-8"
   inkscape:window-y="-8"
   inkscape:window-maximized="1"
   inkscape:current-layer="Capa_1" />
<g
   id="g1"
   style="fill:#6f6f91">
	<path
   d="M141.288,189.821h-23.685V145.28h23.528v-23.69h21.016v23.374h23.681v44.707h-23.681v0.151H141.288z M60.801,398.87   c0.012,1.1,0.03,1.921,0.042,2.459c0.006,0.331-0.053,0.638-0.071,0.963c0.739,18.224,15.755,32.817,34.146,32.817h303.76v-33.461   c0-6.68,5.421-12.105,12.105-12.105c6.679,0,12.105,5.426,12.105,12.105v45.565c0,6.686-5.427,12.105-12.105,12.105H93.091   c-0.629,0-1.235-0.089-1.847-0.183c-30.505-1.91-54.757-27.261-54.757-58.245c0-0.71,0.085-1.396,0.109-2.099   c-0.375-35.943,0-309.36,0.042-339.109c-0.047-0.423-0.127-0.827-0.127-1.259C36.511,26.205,62.719,0,94.938,0h19.343h293.535   h2.955c6.685,0,12.105,5.423,12.105,12.105v342.139c0,6.679-5.421,12.104-12.105,12.104c-0.071,0-0.13-0.023-0.201-0.023   c-0.887,0.213-1.82,0.354-2.772,0.354H94.918C76.736,366.674,61.859,380.948,60.801,398.87z M278.347,121.59h94.425v20.862h-23.685   v23.69h-23.525v23.685h-23.69v23.533h-23.536v49.882h120.792v-26.209h-94.584v-20.859h23.69V192.49h23.525v-23.69h23.689V145.28   h23.679V95.237h-120.78V121.59z M224.949,192.49h56.265v-26.353h-56.265V192.49z M91.41,263.229h26.2v-47.056h23.679v-0.15h44.54   v47.219h26.354v-120.79h-23.688v-23.841H164.81V95.237h-26.202v23.684h-23.685v23.69H91.389v120.618H91.41z"
   id="path1"
   style="fill:#6f6f91" />
</g>
</svg>
