<?xml version="1.0" encoding="UTF-8" standalone="no"?>
<!-- Created with Inkscape (http://www.inkscape.org/) -->

<svg
   xmlns:dc="http://purl.org/dc/elements/1.1/"
   xmlns:cc="http://creativecommons.org/ns#"
   xmlns:rdf="http://www.w3.org/1999/02/22-rdf-syntax-ns#"
   xmlns:svg="http://www.w3.org/2000/svg"
   xmlns="http://www.w3.org/2000/svg"
   xmlns:sodipodi="http://sodipodi.sourceforge.net/DTD/sodipodi-0.dtd"
   xmlns:inkscape="http://www.inkscape.org/namespaces/inkscape"
   width="1105.1877"
   height="1201.3383"
   id="svg2"
   version="1.1"
   inkscape:version="0.92.0 r"
   sodipodi:docname="BeanieBotWhite.svg"
   inkscape:export-filename="/home/brandon/Desktop/BeanieBlack.png"
   inkscape:export-xdpi="600"
   inkscape:export-ydpi="600">
  <defs
     id="defs4" />
  <sodipodi:namedview
     id="base"
     pagecolor="#ffffff"
     bordercolor="#666666"
     borderopacity="1.0"
     inkscape:pageopacity="0.0"
     inkscape:pageshadow="2"
     inkscape:zoom="0.25"
     inkscape:cx="-255.78893"
     inkscape:cy="491.92237"
     inkscape:document-units="px"
     inkscape:current-layer="layer13"
     showgrid="false"
     inkscape:window-width="1920"
     inkscape:window-height="1012"
     inkscape:window-x="0"
     inkscape:window-y="32"
     inkscape:window-maximized="1"
     showguides="true"
     fit-margin-top="0"
     fit-margin-left="0"
     fit-margin-right="0"
     fit-margin-bottom="0">
    <inkscape:grid
       type="xygrid"
       id="grid3078"
       originx="-22.4"
       originy="-12.794979"
       spacingx="1.0666667"
       spacingy="1.0666667" />
  </sodipodi:namedview>
  <metadata
     id="metadata7">
    <rdf:RDF>
      <cc:Work
         rdf:about="">
        <dc:format>image/svg+xml</dc:format>
        <dc:type
           rdf:resource="http://purl.org/dc/dcmitype/StillImage" />
        <dc:title />
      </cc:Work>
    </rdf:RDF>
  </metadata>
  <g
     inkscape:groupmode="layer"
     id="layer6"
     inkscape:label="Face"
     style="display:inline"
     transform="translate(-22.4,-33.866721)">
    <path
       style="fill:#ffffff;fill-opacity:1;stroke:none;stroke-width:1.06666672"
       d="m 752.80833,397.04166 -16.44166,0.25834 -11.55625,0.16042 -8.32084,0.1125 -10.84583,0.14375 -12.6125,0.17708 -8.68334,0.12916 -9.45833,0.1125 -11.96875,0.17501 -1.98125,0.0166 -5.28124,1.10833 -4.97084,1.0125 -4.06042,0.85209 -3.86249,0.46667 -6.62084,0.83541 -6.73333,0.81875 -11.45833,1.42917 -1.51876,0.16042 -7.13125,1.43124 -5.94166,1.17292 -7.21459,1.44583 -6.17499,1.22084 -7.75834,1.55833 -3.82916,0.75625 -5.59792,1.26876 -8.0875,1.89582 -9.55834,2.24792 -11.37499,2.65208 -9.93751,2.34584 -9.75624,2.34583 -12.31459,2.93959 -9.65833,2.32916 -8.78125,2.08959 -13.28959,3.14999 -11.425,2.79583 -11.35625,2.74584 -16.01458,3.47084 -10.84583,2.21666 -3.58125,0.70834 -6.00834,2.24791 -7.49583,2.82917 -8.41875,3.40625 -6.27292,2.37708 -7.80833,2.97292 -7.3625,3.95209 -4.85416,2.52291 -3.63125,2.24791 -5.67917,3.50417 -9.93751,6.18542 -11.48958,7.24583 -6.09166,3.87291 -7.01667,5.97709 -6.9,6.03959 -10.84583,9.625 -2.68125,5.4625 H 850.875 l 0.0459,-75.43751 -5.94791,-5.63541 -21.575,-11.90625 -11.19375,-6.20208 -4.73753,-2.64999 -5.01876,-2.42708 -5.82708,-2.77917 -5.975,-2.89166 -6.80208,-2.21667 -6.57083,-2.12083 -6.81667,-1.92916 -8.55208,-2.44168 z m -99.49583,66.10209 a 21.166063,21.118923 0 0 1 21.16459,21.11875 21.166063,21.118923 0 0 1 -21.16459,21.11875 21.166063,21.118923 0 0 1 -21.16667,-21.11875 21.166063,21.118923 0 0 1 21.16667,-21.11875 z m -156.75833,0.009 a 21.166063,21.118923 0 0 1 21.16666,21.11875 21.166063,21.118923 0 0 1 -21.16666,21.11874 21.166063,21.118923 0 0 1 -21.16459,-21.11874 21.166063,21.118923 0 0 1 21.16459,-21.11875 z"
       id="path4300"
       inkscape:connector-curvature="0"
       inkscape:export-xdpi="600"
       inkscape:export-ydpi="600" />
    <path
       style="opacity:1;fill:#ffffff;fill-opacity:1;stroke:none;stroke-width:0.32000002;stroke-miterlimit:4;stroke-dasharray:none;stroke-opacity:1"
       d="m 321.46368,510.22316 -5.04629,3.81941 -2.991,5.20003 -0.96258,1.51782 h 538.36965 l 0.006,-0.0361 0.009,-10.50125 h -529.3843 z"
       id="rect4264"
       inkscape:connector-curvature="0"
       inkscape:export-xdpi="600"
       inkscape:export-ydpi="600" />
  </g>
  <g
     inkscape:groupmode="layer"
     id="layer9"
     inkscape:label="Blue Bottom Hat"
     style="display:inline"
     transform="translate(-22.4,-33.866721)">
    <path
       style="fill:#ffffff;fill-opacity:1;stroke:none;stroke-width:1.06666672px;stroke-linecap:round;stroke-linejoin:miter;stroke-opacity:1"
       d="m 241.99999,516.98577 67.73333,0.26416 3.86667,-7.92452 16.66667,-15.05659 8.4,-7.26414 14.26666,-9.24527 22.39999,-14.13205 12.93334,-7 18.26666,-7.13206 6,-2.50943 12.13334,-4.62264 12.93333,-2.6415 17.86667,-3.96226 22.53333,-5.54716 64.66667,-15.71696 35.06666,-8.32074 38.53332,-7.79244 30.53334,-3.83018 14.4,-3.03774 92.93333,-1.32075 25.06667,7.26414 13.2,4.35849 17.2,8.45281 37.73332,21.26412 6.66667,6.47169 1.6,79.22114 27.33333,0.0467 3.46667,-9.79624 25.6,-28.52826 12.13333,-44.64145 0.8,-77.13196 -8,-43.45277 -8,-44.50938 -1.06667,-1.32075 -11.6,2.90565 -66.66665,-33.81127 c 0,0 -61.6,-31.30185 -62.26667,-31.43392 -0.66667,-0.13208 -36.53333,-4.49056 -36.53333,-4.49056 l -102.53334,-0.5283 -85.59998,14.26413 -70.13334,35.13203 -64.4,39.22637 -74.53332,40.28296 -59.73333,37.77353 -24.53334,36.84901 -15.46666,52.43388 1.2,15.58488 -8.66667,12.28301 z"
       id="path3193"
       inkscape:connector-curvature="0"
       sodipodi:nodetypes="ccccccccccccccccccccccccccccccccccccscccccccccccc"
       inkscape:export-xdpi="600"
       inkscape:export-ydpi="600" />
    <path
       style="opacity:1;fill:#ffffff;fill-opacity:1;stroke:none;stroke-width:5.33333349;stroke-miterlimit:4;stroke-dasharray:none;stroke-opacity:1"
       d="m 242.02083,510.43958 v 10.28958 h 65.92699 l 1.73421,-3.37291 v -6.91667 z"
       id="rect3370"
       inkscape:connector-curvature="0"
       inkscape:export-xdpi="600"
       inkscape:export-ydpi="600" />
  </g>
  <g
     inkscape:groupmode="layer"
     id="layer3"
     inkscape:label="Body Top"
     style="display:inline"
     transform="translate(-22.4,-33.866721)">
    <path
       style="fill:#ffffff;fill-opacity:1;stroke:none;stroke-width:1.06666672"
       d="m 114.14583,528.98547 v 220.79792 h 56.55209 v -79.00625 h 62.73124 v -0.006 h 69.52293 v 51.21458 h -69.36251 v 27.79792 h 0.14167 v 90.33334 h 0.0146 v 102.71458 h 69.20625 v 51.21458 h -69.52293 v -0.0792 H 170.58545 V 840.38951 H 114.14587 V 1100.9604 H 1036.7792 V 840.39368 h -57.375 v 153.57499 h -62.84583 v 0.0792 h -69.52292 v -51.21458 h 69.20625 v -102.7125 h 0.0146 v -90.33542 h 0.14167 v -27.79584 h -69.3625 V 670.7749 h 69.52292 v 0.004 h 62.73124 v 79.00625 h 57.48957 v -220.8 H 114.1459 Z m 826.56042,42.6125 0.81458,0.0354 v 4.28542 c -1.39305,0.2125 -2.43194,0.82639 -3.11666,1.84166 -0.68472,1.01528 -1.02708,2.46735 -1.02708,4.35626 v 29.25416 1.52291 c 0,0.54307 0.10624,1.12153 0.31874,1.73542 0.23612,0.59028 0.53125,1.09792 0.88542,1.52292 0.37778,0.47222 0.77917,0.81458 1.20417,1.02708 0.425,0.18889 1.00347,0.31875 1.73541,0.38958 v 4.32083 c -4.58055,0 -8.55903,-1.19235 -11.93541,-3.57707 -2.975,-2.10139 -5.21806,-4.92293 -6.72917,-8.46459 -1.51111,-3.56528 -2.26667,-7.77986 -2.26667,-12.64374 0,-3.56528 0.48403,-6.88265 1.45208,-9.95209 0.99167,-3.09306 2.42014,-5.77292 4.28542,-8.03958 1.88889,-2.29029 4.14376,-4.13195 6.76459,-5.52501 2.64444,-1.39305 5.18263,-2.08958 7.61458,-2.08958 z m -212.53541,0.0354 v 3.825 c -1.20417,0.42499 -2.05417,1.00347 -2.55001,1.73541 -0.49583,0.73195 -0.74374,1.80625 -0.74374,3.22292 v 31.6625 c 0,2.07778 0.28333,3.54167 0.84999,4.39167 0.44861,0.70833 1.2632,1.21597 2.44376,1.52291 v 3.89583 c -5.24168,-0.42499 -9.63334,-2.39652 -13.17501,-5.91458 -4.60416,-4.58055 -6.90625,-10.96736 -6.90625,-19.16041 0,-4.10833 0.60209,-7.81528 1.80625,-11.12084 1.22779,-3.32916 3.03403,-6.15069 5.41875,-8.46458 1.81806,-1.77083 3.77778,-3.11666 5.87917,-4.0375 2.10139,-0.92083 4.42708,-1.44027 6.97709,-1.55833 z m 2.90416,0 c 2.55,0.11806 4.8757,0.6375 6.97709,1.55833 2.125,0.92084 4.09652,2.26667 5.91458,4.0375 4.81667,4.69861 7.225,11.22708 7.225,19.58542 0,8.19305 -2.30209,14.57986 -6.90625,19.16041 -3.54167,3.54168 -7.94514,5.5132 -13.21042,5.91458 v -3.89583 c 0.61389,-0.14166 1.08611,-0.31875 1.41667,-0.53125 0.35416,-0.23611 0.67292,-0.56667 0.95624,-0.99166 0.63751,-0.96806 0.95626,-2.43194 0.95626,-4.39167 v -31.6625 c 0,-1.25139 -0.2125,-2.24305 -0.6375,-2.975 -0.28334,-0.49583 -0.6257,-0.88542 -1.02709,-1.16875 -0.37778,-0.28334 -0.93264,-0.55486 -1.66458,-0.81458 z m 91.72917,0 v 3.825 c -1.20417,0.42499 -2.05418,1.00347 -2.55,1.73541 -0.49583,0.73195 -0.74375,1.80625 -0.74375,3.22292 v 31.6625 c 0,2.07778 0.28333,3.54167 0.85,4.39167 0.4486,0.70833 1.2632,1.21597 2.44375,1.52291 v 3.89583 c -5.24167,-0.42499 -9.63333,-2.39652 -13.17501,-5.91458 -4.60416,-4.58055 -6.90625,-10.96736 -6.90625,-19.16041 0,-4.10833 0.60209,-7.81528 1.80625,-11.12084 1.22779,-3.32916 3.03403,-6.15069 5.41875,-8.46458 1.81806,-1.77083 3.77779,-3.11666 5.87917,-4.0375 2.10139,-0.92083 4.42709,-1.44027 6.97709,-1.55833 z m 2.90416,0 c 2.55001,0.11806 4.8757,0.6375 6.97709,1.55833 2.125,0.92084 4.09652,2.26667 5.91458,4.0375 4.81666,4.69861 7.225,11.22708 7.225,19.58542 0,8.19305 -2.30209,14.57986 -6.90625,19.16041 -3.54166,3.54168 -7.94514,5.5132 -13.21042,5.91458 v -3.89583 c 0.61389,-0.14166 1.08611,-0.31875 1.41667,-0.53125 0.35417,-0.23611 0.67292,-0.56667 0.95625,-0.99166 0.6375,-0.96806 0.95625,-2.43194 0.95625,-4.39167 v -31.6625 c 0,-1.25139 -0.2125,-2.24305 -0.6375,-2.975 -0.28333,-0.49583 -0.6257,-0.88542 -1.02708,-1.16875 -0.37778,-0.28334 -0.93264,-0.55486 -1.66459,-0.81458 z m 131.36042,0 c 0.6375,0 1.12153,0.18888 1.45208,0.56666 0.35417,0.37779 0.53126,0.93264 0.53126,1.66459 v 14.73333 c 0,0.94444 -0.21251,1.62917 -0.63751,2.05417 -0.425,0.425 -0.90902,0.63749 -1.45208,0.63749 -0.56667,0 -1.02709,-0.17707 -1.38125,-0.53124 -0.33055,-0.37778 -0.60208,-0.97986 -0.81458,-1.80625 -0.49583,-1.86528 -0.97986,-3.32917 -1.45209,-4.39167 -1.01527,-2.24305 -2.17222,-4.06111 -3.47083,-5.45416 -0.87361,-0.94445 -1.74723,-1.66459 -2.62084,-2.16042 -0.87361,-0.51945 -1.84166,-0.85001 -2.90416,-0.99167 v -4.28542 c 1.15694,0.1889 2.08957,0.38959 2.79792,0.60209 0.73194,0.21249 2.04236,0.66124 3.93124,1.34583 1.20418,0.425 2.00695,0.6375 2.40834,0.6375 0.68472,0 1.20417,-0.30694 1.55833,-0.92083 l 0.46042,-0.85001 c 0.28334,-0.56665 0.81458,-0.84999 1.59375,-0.84999 z m 23.65833,0 v 4.07292 c -1.46389,0.40138 -2.58542,1.02708 -3.36458,1.87708 -0.75556,0.82638 -1.13334,1.85348 -1.13334,3.08125 0,1.18056 0.31875,2.21945 0.95626,3.11666 0.63749,0.87361 1.67638,1.71181 3.11666,2.51458 0.99167,0.54307 3.23473,1.58196 6.72917,3.11668 2.125,0.92083 3.76598,1.75903 4.92292,2.51458 1.18055,0.73194 2.29032,1.65278 3.32916,2.76249 2.78612,2.92779 4.17917,6.41042 4.17917,10.44793 0,3.04583 -0.75556,5.83193 -2.26667,8.35832 -1.5111,2.52639 -3.58889,4.50973 -6.23333,5.95001 -1.41667,0.75555 -2.975,1.34589 -4.675,1.77083 -1.67639,0.44861 -3.24653,0.67291 -4.71041,0.67291 v -4.03749 c 2.05416,-0.49584 3.52985,-1.18055 4.42708,-2.05417 0.92083,-0.89722 1.38125,-2.10139 1.38125,-3.6125 0,-1.58194 -0.70833,-2.97499 -2.125,-4.17916 -0.94445,-0.77917 -2.73889,-1.74723 -5.38333,-2.90418 -2.90417,-1.27499 -4.89931,-2.18402 -5.98542,-2.72708 -1.06251,-0.54305 -2.08959,-1.18055 -3.08125,-1.9125 -4.43889,-3.16388 -6.65833,-7.37846 -6.65833,-12.64374 0,-2.69167 0.55492,-5.17084 1.66457,-7.43751 1.10973,-2.29027 2.65626,-4.13194 4.63959,-5.525 2.7625,-1.93611 6.18611,-3.01041 10.27083,-3.22291 z m 2.79792,0.17709 c 1.41666,0.0944 2.64444,0.28332 3.68333,0.56666 1.03889,0.25973 2.51458,0.79097 4.42708,1.59375 0.47223,0.18889 0.86182,0.28333 1.16876,0.28333 0.44861,0 0.77917,-0.15347 0.99166,-0.46042 l 0.77917,-1.02708 c 0.37778,-0.51944 0.83819,-0.77917 1.38125,-0.77917 0.6375,0 1.09792,0.23612 1.38125,0.70833 0.30695,0.44862 0.46042,1.16876 0.46042,2.16042 v 11.68751 c 0,0.68471 -0.20069,1.25138 -0.60209,1.7 -0.37777,0.42499 -0.87361,0.63749 -1.4875,0.63749 -0.47222,0 -0.90902,-0.15347 -1.31041,-0.46041 -0.2125,-0.18889 -0.38959,-0.4132 -0.53125,-0.67292 -0.11806,-0.28333 -0.23611,-0.74374 -0.35417,-1.38125 -0.25972,-1.15695 -0.70833,-2.3493 -1.34583,-3.57709 -0.63751,-1.22777 -1.38125,-2.32568 -2.23126,-3.29375 -1.7,-1.91249 -3.8368,-3.17569 -6.41041,-3.78957 z m -830.34375,0.77915 h 0.92083 15.76042 v 41.6146 c 0,0.92083 0.17708,1.58194 0.53125,1.98332 0.18888,0.23612 0.36597,0.38959 0.53125,0.46042 0.16528,0.0472 0.70833,0.1889 1.62917,0.425 1.13333,0.25972 1.7,0.90903 1.7,1.94792 0,0.61388 -0.30695,1.10972 -0.92084,1.4875 -0.4486,0.28333 -1.19236,0.425 -2.23125,0.425 h -1.20416 -15.79584 -0.92083 c -0.85,0 -1.51111,-0.15347 -1.98333,-0.46042 -0.44862,-0.33056 -0.67292,-0.79097 -0.67292,-1.38125 0,-0.96805 0.47223,-1.60555 1.41666,-1.9125 0.77917,-0.25972 1.22778,-0.41319 1.34584,-0.46041 0.14166,-0.0708 0.28334,-0.2125 0.425,-0.42501 0.28333,-0.37778 0.425,-0.97986 0.425,-1.80625 v -35.45208 c 0,-0.82639 -0.14167,-1.42847 -0.425,-1.80625 -0.14166,-0.2125 -0.28334,-0.34236 -0.425,-0.38958 -0.11806,-0.0708 -0.56667,-0.23611 -1.34584,-0.49583 -0.94443,-0.30694 -1.41666,-0.94445 -1.41666,-1.9125 0,-0.59028 0.2243,-1.03889 0.67292,-1.34584 0.47222,-0.33056 1.13333,-0.49584 1.98333,-0.49584 z m 19.65625,0 c 4.86389,0 8.45278,0.46043 10.76667,1.38126 2.66805,1.0625 4.78125,2.69166 6.33958,4.8875 1.58195,2.24305 2.37292,4.99375 2.37292,8.25209 0,3.6361 -0.80278,6.6111 -2.40834,8.92499 -1.60556,2.29028 -3.84861,3.97847 -6.72916,5.06458 -2.38473,0.87362 -5.82014,1.31043 -10.30625,1.31043 v -3.78959 c 1.01527,-0.23611 1.7236,-0.48402 2.125,-0.74375 0.42499,-0.25972 0.79097,-0.66112 1.09791,-1.20417 0.49584,-0.92083 0.74375,-2.16041 0.74375,-3.71875 v -11.33333 c 0,-1.10972 -0.0827,-1.93611 -0.24791,-2.47917 -0.16528,-0.54305 -0.49584,-1.03889 -0.99167,-1.4875 -0.68473,-0.66111 -1.60556,-1.0743 -2.7625,-1.23958 z m 25.925,0 h 0.92083 15.79584 0.92083 l 1.275,0.14168 c 0.40138,0.11805 0.73194,0.33055 0.99167,0.63749 0.25972,0.30695 0.38958,0.67292 0.38958,1.09792 0,0.94445 -0.47222,1.57015 -1.41667,1.87709 -0.77916,0.25972 -1.23958,0.42499 -1.38124,0.49583 -0.11806,0.0472 -0.24792,0.17709 -0.38959,0.38958 -0.28333,0.37778 -0.425,0.97986 -0.425,1.80625 v 29.71458 c 0,2.00696 0.0473,3.41181 0.14167,4.21459 0.11806,0.77917 0.34236,1.4875 0.67292,2.12499 0.30694,0.59029 0.6493,1.01529 1.02708,1.27501 0.37777,0.25972 1.09792,0.55481 2.16041,0.88542 v 4.63957 h -0.77916 c -3.06944,0 -5.61942,-0.27152 -7.65001,-0.81458 -2.3847,-0.63749 -4.4743,-1.58194 -6.26875,-2.83333 -1.79444,-1.25138 -3.06944,-2.65625 -3.825,-4.21458 -0.80277,-1.65278 -1.20416,-4.06111 -1.20416,-7.22501 v -27.76666 c 0,-0.82639 -0.14166,-1.42847 -0.425,-1.80625 -0.14166,-0.2125 -0.28333,-0.34236 -0.425,-0.38958 -0.11805,-0.0708 -0.56667,-0.23611 -1.34584,-0.49583 -0.94444,-0.30694 -1.41666,-0.93264 -1.41666,-1.87709 0,-0.61389 0.22431,-1.0743 0.67292,-1.38125 0.47222,-0.33056 1.13333,-0.49584 1.98333,-0.49584 z m 29.92708,0 h 8.67709 c 0.73194,0 1.21596,0.0236 1.45208,0.0708 0.25972,0.0236 0.50764,0.10624 0.74375,0.24791 0.61388,0.35417 0.92087,0.8382 0.92083,1.45209 0,0.51945 -0.18889,0.95625 -0.56666,1.31042 -0.11806,0.11805 -0.62569,0.4368 -1.52292,0.95625 -1.03889,0.56666 -1.85347,1.44027 -2.44376,2.62083 -0.59027,1.15695 -0.8854,2.47917 -0.8854,3.96667 v 23.12708 c 0,3.96666 -0.87361,7.225 -2.62084,9.77501 -1.275,1.88888 -3.10486,3.4 -5.48958,4.53333 -1.18056,0.56666 -2.59722,0.97985 -4.25,1.23957 V 617.25 c 2.36111,-0.30697 4.33264,-1.27501 5.91458,-2.90417 1.79444,-1.86528 2.69167,-4.54514 2.69167,-8.03959 v -23.09166 c 0,-3.23472 -1.23958,-5.48959 -3.71875,-6.76458 -0.73195,-0.37779 -1.21598,-0.69653 -1.45209,-0.95626 -0.2125,-0.28332 -0.31875,-0.68472 -0.31875,-1.20417 0,-0.61389 0.22431,-1.05069 0.67292,-1.31041 0.44861,-0.25972 1.18055,-0.38959 2.19583,-0.38959 z m 15.725,0 h 9.31458 v 4.28542 c -1.10971,0.63751 -1.97152,1.45209 -2.58541,2.44376 -1.01528,1.60555 -1.7,3.50625 -2.05417,5.70208 l -0.35417,2.16041 c -0.11804,0.68473 -0.37777,1.22778 -0.77916,1.62918 -0.37778,0.37777 -0.86181,0.56666 -1.45208,0.56666 -0.61389,0 -1.12154,-0.2125 -1.52292,-0.6375 -0.37777,-0.425 -0.56667,-0.97986 -0.56667,-1.66459 z m 12.18334,0 h 15.72499 v 41.6146 c 0,0.92083 0.17709,1.58194 0.53126,1.98332 0.18888,0.23612 0.36597,0.38959 0.53125,0.46042 0.16528,0.0472 0.70833,0.1889 1.62916,0.425 1.13333,0.25972 1.7,0.90903 1.7,1.94792 0,0.61388 -0.30694,1.10972 -0.92083,1.4875 -0.44861,0.28333 -1.20417,0.425 -2.26667,0.425 h -1.16874 -15.79584 -1.16875 c -1.03889,0 -1.82986,-0.15347 -2.37292,-0.46042 -0.51944,-0.33056 -0.77917,-0.81458 -0.77917,-1.45208 0,-1.03889 0.56667,-1.6882 1.7,-1.94792 0.92084,-0.2361 1.4639,-0.37778 1.62918,-0.425 0.16527,-0.0708 0.33055,-0.2243 0.49583,-0.46042 0.35416,-0.40138 0.53125,-1.06249 0.53125,-1.98332 z m 18.66458,0 h 9.31459 v 14.48542 c 0,0.68473 -0.20071,1.23959 -0.60209,1.66459 -0.37777,0.425 -0.87361,0.6375 -1.4875,0.6375 -0.59027,0 -1.08611,-0.18889 -1.4875,-0.56666 -0.37778,-0.4014 -0.6257,-0.94445 -0.74375,-1.62918 l -0.35417,-2.16041 c -0.35417,-2.19583 -1.03889,-4.09653 -2.05417,-5.70208 -0.63749,-0.99167 -1.4993,-1.80625 -2.58541,-2.44376 z m 18.20417,0 h 15.5125 l 18.84166,32.72501 v 15.61875 h -9.66874 l -24.04792,-41.43751 c -0.51944,-0.89721 -0.94445,-1.52291 -1.27501,-1.87707 -0.33055,-0.35417 -0.75555,-0.61389 -1.27499,-0.77917 l -1.34584,-0.49583 c -0.35416,-0.11806 -0.63749,-0.33056 -0.84999,-0.6375 -0.21251,-0.30695 -0.31876,-0.64931 -0.31876,-1.02709 0,-0.40138 0.10624,-0.76736 0.31876,-1.09792 0.2125,-0.35416 0.49583,-0.60208 0.84999,-0.74374 0.40139,-0.16528 1.4875,-0.24793 3.25834,-0.24793 z m 27.97916,0 H 330.3 c 1.20417,0 1.99514,0.1889 2.37292,0.56667 0.40138,0.37778 0.60208,0.82639 0.60208,1.34583 0,0.49584 -0.11805,0.87362 -0.35417,1.13334 -0.2125,0.23612 -0.74374,0.56666 -1.59375,0.99167 -1.25139,0.6375 -2.19583,1.61736 -2.83333,2.93958 -0.44861,0.96805 -0.67292,2.27848 -0.67292,3.93125 v 16.15 l -3.75416,-6.33958 v -9.81042 c 0,-1.98333 -0.29514,-3.49444 -0.88542,-4.53333 -0.56667,-1.06251 -1.58194,-1.97153 -3.04584,-2.72708 -0.49583,-0.23612 -0.83818,-0.48403 -1.02708,-0.74376 -0.18888,-0.28332 -0.28333,-0.6375 -0.28333,-1.06249 0,-0.63751 0.2007,-1.09795 0.60208,-1.38125 0.42501,-0.30695 1.09792,-0.46043 2.01875,-0.46043 z m 30.42292,0 h 14.27291 l 9.84584,41.6146 c 0.18888,0.73193 0.40139,1.38124 0.6375,1.94791 0.2125,0.44861 0.68472,0.81458 1.41666,1.09792 0.61389,0.2597 1.03882,0.51943 1.27501,0.77916 0.23611,0.25972 0.35417,0.61389 0.35417,1.0625 0,1.22778 -0.92085,1.84167 -2.76251,1.84167 h -17.67292 c -0.70833,0 -1.27499,-0.16528 -1.7,-0.49583 -0.42499,-0.35418 -0.63749,-0.81459 -0.63749,-1.38126 0,-0.47221 0.0944,-0.82639 0.28333,-1.0625 0.18889,-0.2361 0.61389,-0.53125 1.275,-0.88541 0.47222,-0.23611 0.80278,-0.49583 0.99166,-0.77917 0.1889,-0.28333 0.28334,-0.6375 0.28334,-1.0625 0,-0.40139 -0.0354,-0.75555 -0.10624,-1.06249 l -1.13333,-5.13543 h -9.88125 l 0.95625,-4.21458 h 7.93333 l -6.51666,-28.79375 0.88541,-3.47084 z m 32.76041,0 h 16.57501 l 6.97708,19.86876 3.08125,-10.73125 v 11.75833 l -8.18125,27.44792 h -1.87708 L 387.4625,580.1688 c -0.47222,-1.36944 -0.96806,-2.29027 -1.4875,-2.76249 -0.30695,-0.30695 -0.83819,-0.53126 -1.59375,-0.67292 -1.53472,-0.33056 -2.30208,-1.0625 -2.30208,-2.19583 0,-0.61389 0.21248,-1.08611 0.6375,-1.41667 0.4486,-0.35417 1.0861,-0.53126 1.91249,-0.53126 z m 29.60834,0 h 15.725 0.95625 c 1.77083,0 2.65625,0.6139 2.65625,1.84168 0,0.96805 -0.47223,1.60556 -1.41666,1.9125 -0.77917,0.25972 -1.23959,0.42499 -1.38125,0.49583 -0.11806,0.0472 -0.24793,0.17709 -0.38959,0.38958 -0.28333,0.37778 -0.425,0.97986 -0.425,1.80625 v 35.45208 c 0,0.82639 0.14167,1.42847 0.425,1.80625 0.14166,0.21251 0.27153,0.35417 0.38959,0.42501 l 1.38125,0.46041 c 0.94443,0.30695 1.41666,0.94445 1.41666,1.9125 0,1.22778 -0.88542,1.84167 -2.65625,1.84167 h -0.95625 -15.76042 -1.16875 c -1.03889,0 -1.82985,-0.15347 -2.37291,-0.46042 -0.51945,-0.33056 -0.77917,-0.81458 -0.77917,-1.45208 0,-1.03889 0.56666,-1.6882 1.7,-1.94792 0.92083,-0.2361 1.46389,-0.37778 1.62917,-0.425 0.16527,-0.0708 0.33055,-0.2125 0.49583,-0.425 0.35417,-0.425 0.53125,-1.09791 0.53125,-2.01874 z m 57.48125,0 h 14.27292 l 9.84583,41.6146 c 0.18889,0.73193 0.40139,1.38124 0.6375,1.94791 0.2125,0.44861 0.68472,0.81458 1.41667,1.09792 0.61389,0.2597 1.03889,0.51943 1.275,0.77916 0.2361,0.25972 0.35416,0.61389 0.35416,1.0625 0,1.22778 -0.92083,1.84167 -2.76249,1.84167 h -17.67292 c -0.70833,0 -1.275,-0.16528 -1.7,-0.49583 -0.425,-0.35418 -0.63751,-0.81459 -0.63751,-1.38126 0,-0.47221 0.0944,-0.82639 0.28334,-1.0625 0.18889,-0.2361 0.61389,-0.53125 1.275,-0.88541 0.47222,-0.23611 0.80277,-0.49583 0.99167,-0.77917 0.18889,-0.28333 0.28333,-0.6375 0.28333,-1.0625 0,-0.40139 -0.0354,-0.75555 -0.10624,-1.06249 l -1.13334,-5.13543 h -9.88124 l 0.95624,-4.21458 h 7.93334 l -6.51667,-28.79375 0.88542,-3.47084 z m 33.3625,0 h 0.92083 15.76042 v 41.6146 c 0,0.92083 0.17708,1.58194 0.53125,1.98332 0.18888,0.23612 0.36597,0.38959 0.53125,0.46042 0.16528,0.0472 0.70833,0.1889 1.62917,0.425 1.13333,0.25972 1.7,0.90903 1.7,1.94792 0,0.61388 -0.30695,1.10972 -0.92084,1.4875 -0.4486,0.28333 -1.19236,0.425 -2.23125,0.425 h -1.20416 -15.79584 -0.92083 c -0.85,0 -1.51111,-0.15347 -1.98333,-0.46042 -0.44862,-0.33056 -0.67292,-0.79097 -0.67292,-1.38125 0,-0.96805 0.47223,-1.60555 1.41666,-1.9125 0.77917,-0.25972 1.22778,-0.41319 1.34584,-0.46041 0.14166,-0.0708 0.28334,-0.2125 0.425,-0.42501 0.28333,-0.37778 0.425,-0.97986 0.425,-1.80625 v -35.45208 c 0,-0.82639 -0.14167,-1.42847 -0.425,-1.80625 -0.14166,-0.2125 -0.28334,-0.34236 -0.425,-0.38958 -0.11806,-0.0708 -0.56667,-0.23611 -1.34584,-0.49583 -0.94443,-0.30694 -1.41666,-0.94445 -1.41666,-1.9125 0,-0.59028 0.2243,-1.03889 0.67292,-1.34584 0.47222,-0.33056 1.13333,-0.49584 1.98333,-0.49584 z m 19.47917,0 h 0.92083 c 2.62083,0 4.85208,0.0944 6.69375,0.28334 2.73889,0.25972 5.18264,1.15694 7.33125,2.69167 3.09306,2.19583 4.63958,5.32433 4.63958,9.38541 0,3.32917 -1.03889,6.05626 -3.11667,8.18126 -0.87361,0.89721 -1.90069,1.62916 -3.08125,2.19583 -1.15693,0.56666 -2.92777,1.20417 -5.3125,1.9125 2.17223,0.33056 3.83681,0.69652 4.99375,1.09792 1.18056,0.40139 2.24306,0.94444 3.1875,1.62916 0.99167,0.73195 1.74723,1.60556 2.26667,2.62083 0.54306,1.01528 0.81459,2.08959 0.81459,3.22293 v 7.33124 c 0,0.75556 0.24791,1.13333 0.74374,1.13333 0.1889,0 0.34237,-0.0472 0.46042,-0.14166 0.14167,-0.11806 0.33056,-0.33056 0.56667,-0.63751 0.59028,-0.80277 1.19236,-1.20416 1.80625,-1.20416 0.40138,0 0.80278,0.21251 1.20417,0.6375 0.40138,0.425 0.60208,0.85 0.60208,1.27501 0,0.73193 -0.35417,1.62916 -1.0625,2.69165 -0.68472,1.03889 -1.54653,1.97153 -2.58542,2.79792 -0.96805,0.77917 -2.01875,1.33403 -3.15208,1.66459 -1.13334,0.35417 -2.46736,0.53124 -4.00208,0.53124 -3.11667,0 -5.54861,-0.8854 -7.29583,-2.65624 -1.74724,-1.79444 -2.62084,-4.28542 -2.62084,-7.47292 v -5.94999 c 0,-1.32223 -0.0118,-2.08959 -0.0354,-2.30209 -0.11806,-0.94444 -0.44861,-1.75903 -0.99167,-2.44375 -0.68471,-0.82639 -1.66457,-1.31042 -2.93958,-1.45208 v -3.78959 c 1.27501,-0.18889 2.18403,-0.51944 2.72708,-0.99166 0.47223,-0.425 0.79098,-0.90904 0.95626,-1.45209 0.18888,-0.54306 0.28333,-1.34583 0.28333,-2.40833 v -9.38542 c 0,-1.4875 -0.29514,-2.59722 -0.88541,-3.32917 -0.56667,-0.73194 -1.60556,-1.31041 -3.11667,-1.73541 z m 31.2375,0 h 0.92083 15.76042 v 48.34376 h -15.76042 -0.92083 c -0.85001,0 -1.51111,-0.15347 -1.98334,-0.46042 -0.44861,-0.33056 -0.67292,-0.79097 -0.67292,-1.38125 0,-0.96805 0.47223,-1.60555 1.41668,-1.9125 0.77916,-0.25972 1.22777,-0.41319 1.34583,-0.46041 0.14166,-0.0708 0.28333,-0.2125 0.42499,-0.42501 0.28334,-0.37778 0.42501,-0.97986 0.42501,-1.80625 v -35.45208 c 0,-0.82639 -0.14167,-1.42847 -0.42501,-1.80625 -0.14166,-0.2125 -0.28333,-0.34236 -0.42499,-0.38958 -0.11806,-0.0708 -0.56667,-0.23611 -1.34583,-0.49583 -0.94445,-0.30694 -1.41668,-0.94445 -1.41668,-1.9125 0,-0.59028 0.22431,-1.03889 0.67292,-1.34584 0.47223,-0.33056 1.13333,-0.49584 1.98334,-0.49584 z m 19.83333,0 h 14.27292 v 12.53751 c 0,0.73194 -0.14167,1.2632 -0.425,1.59375 -0.28334,0.33056 -0.73195,0.49587 -1.34584,0.49583 -0.51944,0 -0.89722,-0.10624 -1.13333,-0.31875 -0.23611,-0.2125 -0.46042,-0.64931 -0.67292,-1.31042 -0.89722,-2.73889 -2.21944,-4.82847 -3.96666,-6.26874 -1.72361,-1.44028 -3.96667,-2.30208 -6.72917,-2.58542 z m 34.35417,0 h 14.27292 l 9.84583,41.6146 c 0.18889,0.73193 0.40139,1.38124 0.63749,1.94791 0.21251,0.44861 0.68473,0.81458 1.41668,1.09792 0.61388,0.2597 1.03889,0.51943 1.27499,0.77916 0.23611,0.25972 0.35417,0.61389 0.35417,1.0625 0,1.22778 -0.92083,1.84167 -2.7625,1.84167 h -17.67291 c -0.70834,0 -1.275,-0.16528 -1.7,-0.49583 -0.42501,-0.35418 -0.63751,-0.81459 -0.63751,-1.38126 0,-0.47221 0.0944,-0.82639 0.28334,-1.0625 0.18889,-0.2361 0.61389,-0.53125 1.275,-0.88541 0.47222,-0.23611 0.80277,-0.49583 0.99167,-0.77917 0.18888,-0.28333 0.28332,-0.6375 0.28332,-1.0625 0,-0.40139 -0.0354,-0.75555 -0.10624,-1.06249 l -1.13333,-5.13543 h -9.88125 l 0.95625,-4.21458 h 7.93333 l -6.51666,-28.79375 0.88542,-3.47084 z m 51.49583,0 h 0.92083 15.76042 v 41.6146 c 0,0.92083 0.17708,1.58194 0.53125,1.98332 0.18888,0.23612 0.36597,0.38959 0.53125,0.46042 0.16528,0.0472 0.70833,0.1889 1.62917,0.425 1.13333,0.25972 1.7,0.90903 1.7,1.94792 0,0.61388 -0.30695,1.10972 -0.92084,1.4875 -0.4486,0.28333 -1.19236,0.425 -2.23125,0.425 h -1.20416 -15.79584 -0.92083 c -0.85,0 -1.51111,-0.15347 -1.98333,-0.46042 -0.44862,-0.33056 -0.67292,-0.79097 -0.67292,-1.38125 0,-0.96805 0.47223,-1.60555 1.41666,-1.9125 0.77917,-0.25972 1.22778,-0.41319 1.34584,-0.46041 0.14166,-0.0708 0.28334,-0.2125 0.425,-0.42501 0.28333,-0.37778 0.425,-0.97986 0.425,-1.80625 v -35.45208 c 0,-0.82639 -0.14167,-1.42847 -0.425,-1.80625 -0.14166,-0.2125 -0.28334,-0.34236 -0.425,-0.38958 -0.11806,-0.0708 -0.56667,-0.23611 -1.34584,-0.49583 -0.94443,-0.30694 -1.41666,-0.94445 -1.41666,-1.9125 0,-0.59028 0.2243,-1.03889 0.67292,-1.34584 0.47222,-0.33056 1.13333,-0.49584 1.98333,-0.49584 z m 19.47917,0 h 0.92083 c 2.62083,0 4.85208,0.0944 6.69375,0.28334 2.73889,0.25972 5.18264,1.15694 7.33125,2.69167 3.09306,2.19583 4.63958,5.32433 4.63958,9.38541 0,3.32917 -1.03889,6.05626 -3.11667,8.18126 -0.87361,0.89721 -1.90069,1.62916 -3.08125,2.19583 -1.15693,0.56666 -2.92777,1.20417 -5.3125,1.9125 2.17223,0.33056 3.83681,0.69652 4.99375,1.09792 1.18056,0.40139 2.24307,0.94444 3.1875,1.62916 0.99167,0.73195 1.74724,1.60556 2.26667,2.62083 0.54306,1.01528 0.81459,2.08959 0.81459,3.22293 v 7.33124 c 0,0.75556 0.24791,1.13333 0.74374,1.13333 0.1889,0 0.34237,-0.0472 0.46042,-0.14166 0.14167,-0.11806 0.33056,-0.33056 0.56667,-0.63751 0.59028,-0.80277 1.19236,-1.20416 1.80625,-1.20416 0.40138,0 0.80278,0.21251 1.20417,0.6375 0.40138,0.425 0.60208,0.85 0.60208,1.27501 0,0.73193 -0.35417,1.62916 -1.0625,2.69165 -0.68472,1.03889 -1.54653,1.97153 -2.58542,2.79792 -0.96805,0.77917 -2.01875,1.33403 -3.15208,1.66459 -1.13334,0.35417 -2.46736,0.53124 -4.00208,0.53124 -3.11667,0 -5.54862,-0.8854 -7.29583,-2.65624 -1.74723,-1.79444 -2.62084,-4.28542 -2.62084,-7.47292 v -5.94999 c 0,-1.32223 -0.0118,-2.08959 -0.0354,-2.30209 -0.11806,-0.94444 -0.44861,-1.75903 -0.99167,-2.44375 -0.68471,-0.82639 -1.66457,-1.31042 -2.93958,-1.45208 v -3.78959 c 1.27501,-0.18889 2.18403,-0.51944 2.72708,-0.99166 0.47223,-0.425 0.79098,-0.90904 0.95626,-1.45209 0.18888,-0.54306 0.28333,-1.34583 0.28333,-2.40833 v -9.38542 c 0,-1.4875 -0.29514,-2.59722 -0.88541,-3.32917 -0.56667,-0.73194 -1.60556,-1.31041 -3.11667,-1.73541 z m 77.27916,0 h 0.92084 15.76041 v 48.34376 h -15.76041 -0.92084 c -0.85,0 -1.51111,-0.15347 -1.98333,-0.46042 -0.44861,-0.33056 -0.67293,-0.79097 -0.67291,-1.38125 0,-0.96805 0.47221,-1.60555 1.41666,-1.9125 0.77917,-0.25972 1.22778,-0.41319 1.34583,-0.46041 0.14167,-0.0708 0.28333,-0.2125 0.42501,-0.42501 0.28333,-0.37778 0.42499,-0.97986 0.42499,-1.80625 v -35.45208 c 0,-0.82639 -0.14166,-1.42847 -0.42499,-1.80625 -0.14168,-0.2125 -0.28334,-0.34236 -0.42501,-0.38958 -0.11805,-0.0708 -0.56666,-0.23611 -1.34583,-0.49583 -0.94445,-0.30694 -1.41668,-0.94445 -1.41666,-1.9125 0,-0.59028 0.2243,-1.03889 0.67291,-1.34584 0.47222,-0.33056 1.13333,-0.49584 1.98333,-0.49584 z m 19.55,0 h 4.07292 c 5.38333,0 9.49167,1.10973 12.325,3.32918 1.29861,1.01527 2.29028,2.24305 2.975,3.68332 0.68472,1.44028 1.02708,2.99862 1.02708,4.67501 0,1.65277 -0.35417,3.21111 -1.0625,4.675 -0.68472,1.46388 -1.65278,2.67986 -2.90417,3.64791 -0.92083,0.75556 -1.98333,1.36944 -3.1875,1.84167 -1.20416,0.47222 -2.90416,0.95625 -5.1,1.45208 2.12501,0.42501 3.75417,0.8382 4.8875,1.23959 1.15695,0.40138 2.19584,0.90902 3.11667,1.52291 1.58195,1.01529 2.78612,2.36112 3.61251,4.0375 0.84999,1.65278 1.27499,3.50625 1.27499,5.56042 0,4.0375 -1.4875,7.18959 -4.46249,9.45626 -1.53473,1.18055 -3.23473,2.01874 -5.1,2.51458 -1.84168,0.47222 -4.26182,0.70833 -7.26042,0.70833 h -4.21459 v -3.71875 c 0.94445,-0.0708 1.6882,-0.2007 2.23125,-0.38958 0.54306,-0.2125 1.02708,-0.55486 1.45209,-1.02709 0.77917,-0.87361 1.16874,-2.23125 1.16874,-4.07291 v -8.03959 c 0,-1.18055 -0.10624,-2.10138 -0.31875,-2.7625 -0.18888,-0.66111 -0.55486,-1.26321 -1.09791,-1.80624 -0.40138,-0.42501 -0.83819,-0.73195 -1.31042,-0.92085 -0.47222,-0.18888 -1.14514,-0.34235 -2.01875,-0.46041 v -3.68333 c 0.87361,-0.0708 1.54653,-0.1889 2.01875,-0.35417 0.49584,-0.16528 0.94445,-0.43677 1.34584,-0.81459 0.37778,-0.35416 0.69653,-0.81458 0.95624,-1.38125 0.25972,-0.56666 0.4014,-1.08611 0.425,-1.55832 v -1.94793 -6.12708 c 0,-0.63749 -0.10624,-1.2986 -0.31875,-1.98333 -0.21249,-0.70833 -0.47221,-1.2632 -0.77916,-1.66458 -0.44861,-0.54305 -0.95625,-0.94444 -1.52292,-1.20417 -0.54305,-0.25972 -1.2868,-0.4368 -2.23125,-0.53125 z m 70.97501,0 h 9.31458 v 4.28542 c -1.10973,0.63751 -1.97153,1.45209 -2.58542,2.44376 -1.01528,1.60555 -1.7,3.50625 -2.05417,5.70208 l -0.35416,2.16041 c -0.11806,0.68473 -0.37778,1.22778 -0.77917,1.62918 -0.37778,0.37777 -0.8618,0.56666 -1.45208,0.56666 -0.61389,0 -1.12153,-0.2125 -1.52292,-0.6375 -0.37778,-0.425 -0.56666,-0.97986 -0.56666,-1.66459 z m 12.18332,0 h 15.72501 v 41.6146 c 0,0.92083 0.17709,1.58194 0.53125,1.98332 0.18889,0.23612 0.36597,0.38959 0.53124,0.46042 0.16528,0.0472 0.70834,0.1889 1.62918,0.425 1.13333,0.25972 1.7,0.90903 1.7,1.94792 0,0.61388 -0.30695,1.10972 -0.92084,1.4875 -0.44861,0.28333 -1.20417,0.425 -2.26666,0.425 h -1.16876 -15.79583 -1.16875 c -1.03889,0 -1.82986,-0.15347 -2.37291,-0.46042 -0.51945,-0.33056 -0.77917,-0.81458 -0.77917,-1.45208 0,-1.03889 0.56667,-1.6882 1.7,-1.94792 0.92083,-0.2361 1.46388,-0.37778 1.62916,-0.425 0.16528,-0.0708 0.33057,-0.2243 0.49583,-0.46042 0.35419,-0.40138 0.53125,-1.06249 0.53125,-1.98332 z m 18.66459,0 h 9.31458 v 14.48542 c 0,0.68473 -0.20069,1.23959 -0.60208,1.66459 -0.37778,0.425 -0.87361,0.6375 -1.4875,0.6375 -0.59028,0 -1.0861,-0.18889 -1.48751,-0.56666 -0.37776,-0.4014 -0.62568,-0.94445 -0.74374,-1.62918 l -0.35416,-2.16041 c -0.35417,-2.19583 -1.0389,-4.09653 -2.05417,-5.70208 -0.6375,-0.99167 -1.49931,-1.80625 -2.58542,-2.44376 z m 16.32708,0 h 0.92084 15.79583 0.92084 c 0.84999,0 1.49929,0.16528 1.94791,0.49584 0.47223,0.30695 0.70833,0.75556 0.70833,1.34584 0,0.96805 -0.47221,1.60556 -1.41667,1.9125 -0.77915,0.25972 -1.23957,0.42499 -1.38125,0.49583 -0.11804,0.0472 -0.24791,0.17709 -0.38958,0.38958 -0.28333,0.37778 -0.425,0.97986 -0.425,1.80625 v 35.45208 c 0,0.82639 0.14167,1.42847 0.425,1.80625 0.14167,0.21251 0.27154,0.35417 0.38958,0.42501 l 1.38125,0.46041 c 0.94445,0.30695 1.41667,0.94445 1.41667,1.9125 0,0.59028 -0.2361,1.05069 -0.70833,1.38125 -0.44862,0.30695 -1.09792,0.46042 -1.94791,0.46042 h -0.92084 -15.79583 -0.92084 c -0.85,0 -1.51111,-0.15347 -1.98333,-0.46042 -0.44861,-0.33056 -0.67286,-0.79097 -0.67292,-1.38125 0,-0.96805 0.47222,-1.60555 1.41667,-1.9125 0.77917,-0.25972 1.22778,-0.41319 1.34583,-0.46041 0.14167,-0.0708 0.28333,-0.2125 0.42501,-0.42501 0.28333,-0.37778 0.42499,-0.97986 0.42499,-1.80625 v -35.45208 c 0,-0.82639 -0.14166,-1.42847 -0.42499,-1.80625 -0.14168,-0.2125 -0.28334,-0.34236 -0.42501,-0.38958 -0.11805,-0.0708 -0.56666,-0.23611 -1.34583,-0.49583 -0.94445,-0.30694 -1.41667,-0.94445 -1.41667,-1.9125 0,-0.59028 0.22431,-1.03889 0.67292,-1.34584 0.47222,-0.33056 1.13333,-0.49584 1.98333,-0.49584 z m -546.51458,8.99584 1.80625,7.33126 -6.26875,22.87915 c -0.18889,0.66112 -0.28333,1.27501 -0.28333,1.84168 0,1.4875 0.69652,2.54999 2.08958,3.1875 l 1.23958,0.56666 c 0.77917,0.35417 1.16876,0.94444 1.16876,1.77083 0,1.18056 -0.86182,1.77084 -2.58542,1.77084 h -8.99584 c -0.87361,0 -1.57013,-0.17709 -2.08958,-0.53126 -0.49583,-0.37777 -0.74375,-0.8854 -0.74375,-1.52291 0,-0.68472 0.51944,-1.25139 1.55833,-1.7 0.96806,-0.425 1.6764,-0.80278 2.125,-1.13333 0.47223,-0.35417 0.92084,-0.82639 1.34584,-1.41667 0.66111,-0.96806 1.20416,-2.25486 1.62916,-3.86042 z m 119.85,0 1.80625,7.33126 -6.26875,22.87915 c -0.18888,0.66112 -0.28334,1.27501 -0.28334,1.84168 0,1.4875 0.69654,2.54999 2.08959,3.1875 l 1.23959,0.56666 c 0.77916,0.35417 1.16874,0.94444 1.16874,1.77083 0,1.18056 -0.8618,1.77084 -2.58542,1.77084 h -8.99583 c -0.87361,0 -1.57014,-0.17709 -2.08958,-0.53126 -0.49583,-0.37777 -0.74375,-0.8854 -0.74375,-1.52291 0,-0.68472 0.51945,-1.25139 1.55834,-1.7 0.96805,-0.425 1.67638,-0.80278 2.12499,-1.13333 0.47222,-0.35417 0.92084,-0.82639 1.34583,-1.41667 0.66111,-0.96806 1.20417,-2.25486 1.62918,-3.86042 z m 138.26666,0 1.80625,7.33126 -6.26874,22.87915 c -0.18889,0.66112 -0.28334,1.27501 -0.28334,1.84168 0,1.4875 0.69653,2.54999 2.08959,3.1875 l 1.23958,0.56666 c 0.77917,0.35417 1.16875,0.94444 1.16875,1.77083 0,1.18056 -0.8618,1.77084 -2.58542,1.77084 h -8.99583 c -0.87361,0 -1.57014,-0.17709 -2.08959,-0.53126 -0.49583,-0.37777 -0.74374,-0.8854 -0.74374,-1.52291 0,-0.68472 0.51944,-1.25139 1.55833,-1.7 0.96806,-0.425 1.67639,-0.80278 2.125,-1.13333 0.47222,-0.35417 0.92083,-0.82639 1.34583,-1.41667 0.66111,-0.96806 1.20417,-2.25486 1.62917,-3.86042 z m -313.40208,3.43542 3.75417,6.23333 v 18.98334 c 0,1.65278 0.27153,3.01041 0.81458,4.07292 0.56667,1.06249 1.45209,1.9361 2.65626,2.62083 l 1.06249,0.60208 c 0.61389,0.35416 0.92083,0.88542 0.92083,1.59375 0,0.54306 -0.22429,0.99167 -0.67291,1.34583 -0.37777,0.30695 -1.15694,0.46042 -2.3375,0.46042 h -8.18125 c -2.14861,0 -3.22292,-0.61389 -3.22292,-1.84167 0,-0.425 0.10624,-0.75556 0.31876,-0.99167 0.2361,-0.25972 0.73194,-0.60208 1.48749,-1.02708 2.26667,-1.25139 3.4,-3.52986 3.4,-6.83541 z m 287.86667,1.59375 c 0.75555,0 1.275,0.29513 1.55834,0.88541 0.16527,0.30695 0.24791,1.00348 0.24791,2.08958 v 13.49375 c 0,1.10973 -0.12987,1.87709 -0.38959,2.30209 -0.2361,0.42501 -0.68471,0.6375 -1.34582,0.6375 -0.54306,0 -0.96807,-0.16527 -1.27501,-0.49583 -0.30694,-0.33056 -0.55486,-0.88542 -0.74374,-1.66459 -0.40139,-1.62916 -0.97987,-2.88055 -1.73543,-3.75416 -0.73193,-0.87362 -1.68819,-1.45209 -2.86874,-1.73542 v -4.10833 c 1.36945,-0.66111 2.38472,-1.38126 3.04583,-2.16041 0.66111,-0.77917 1.14514,-1.81806 1.45209,-3.11668 0.18888,-0.89721 0.4368,-1.51111 0.74374,-1.84166 0.30694,-0.35417 0.74375,-0.53125 1.31042,-0.53125 z m -194.54375,2.26666 3.75416,10.69584 v 10.66042 c 0,1.08611 0.0354,1.86527 0.10624,2.33749 0.0944,0.47223 0.28334,0.99167 0.56667,1.55834 0.49584,1.03889 1.18056,1.81806 2.05417,2.3375 l 1.31041,0.85 c 0.89723,0.54306 1.34584,1.14514 1.34584,1.80625 0,1.20417 -0.88542,1.80625 -2.65625,1.80625 h -8.88959 c -1.77083,0 -2.65624,-0.59028 -2.65624,-1.77084 0,-0.37777 0.0708,-0.66111 0.2125,-0.84999 0.16527,-0.21251 0.47221,-0.44861 0.92083,-0.70833 2.62083,-1.41668 3.93125,-3.87223 3.93125,-7.36667 V 588.8813 Z m 578.67291,14.20208 c 0.51945,-0.0236 0.92084,0.12987 1.20417,0.46043 0.30695,0.30694 0.56667,0.8618 0.77917,1.66458 0.54305,2.03056 1.32222,3.93125 2.3375,5.70209 1.03889,1.77082 2.24306,3.27013 3.6125,4.49791 1.39305,1.27499 2.99861,2.08958 4.81667,2.44375 v 4.03749 c -1.93612,0 -4.07292,-0.55486 -6.41042,-1.66457 -0.87361,-0.40139 -1.47569,-0.66111 -1.80625,-0.77917 -0.33055,-0.11806 -0.6493,-0.17709 -0.95625,-0.17709 -0.47222,0 -0.8264,0.0827 -1.06249,0.24793 -0.23613,0.14166 -0.61391,0.51942 -1.13334,1.13333 -0.425,0.51943 -0.88542,0.77916 -1.38126,0.77916 -1.32222,0 -1.98332,-1.01534 -1.98332,-3.04583 V 605.4917 c 0,-0.66111 0.18888,-1.21597 0.56666,-1.66458 0.37777,-0.47223 0.85,-0.72008 1.41666,-0.74376 z m -377.50625,2.7271 c 0.66112,0 1.12154,0.20069 1.38126,0.60208 0.25972,0.37778 0.38958,1.05068 0.38958,2.01875 v 12.50208 h -14.73333 v -3.825 c 1.53472,-0.23611 2.79792,-0.56675 3.78958,-0.99166 1.01528,-0.42501 2.03056,-1.07432 3.04583,-1.94793 1.01529,-0.87361 1.81806,-1.77083 2.40834,-2.69166 0.61389,-0.94445 1.19235,-2.18403 1.73541,-3.71875 0.25973,-0.75556 0.53126,-1.2632 0.81459,-1.52292 0.28333,-0.28333 0.67291,-0.42499 1.16874,-0.42499 z m 368.51042,1.06249 c 0.56667,0 1.03889,0.2125 1.41667,0.63751 0.37778,0.42499 0.56666,0.95624 0.56666,1.59375 0,1.06249 -0.41319,2.3493 -1.23958,3.86041 -0.80278,1.51111 -1.84167,2.90416 -3.11666,4.17917 -1.55834,1.55832 -3.16389,2.71527 -4.81668,3.47083 -1.62915,0.75556 -3.47082,1.18055 -5.52499,1.27499 v -4.32083 c 1.84167,-0.14166 3.77777,-0.83819 5.80833,-2.08958 1.08612,-0.68472 2.05417,-1.59375 2.90417,-2.72708 0.85,-1.15695 1.4875,-2.42014 1.91251,-3.78959 0.2361,-0.75555 0.50763,-1.2868 0.81458,-1.59375 0.33055,-0.33055 0.75555,-0.49583 1.27499,-0.49583 z m -475.26666,42.51666 h 9.31458 v 4.28542 c -1.10972,0.63751 -1.97153,1.45209 -2.58542,2.44376 -1.01527,1.60555 -1.7,3.50625 -2.05417,5.70208 l -0.35416,2.16041 c -0.11806,0.68473 -0.37778,1.22778 -0.77917,1.62918 -0.37777,0.37777 -0.8618,0.56666 -1.45208,0.56666 -0.61389,0 -1.12153,-0.2125 -1.52292,-0.6375 -0.37778,-0.425 -0.56666,-0.97986 -0.56666,-1.66459 z m 12.18333,0 h 15.725 v 41.6146 c 0,0.92083 0.17709,1.58194 0.53125,1.98332 0.18889,0.23612 0.36597,0.38959 0.53125,0.46042 0.16527,0.0472 0.70834,0.1889 1.62917,0.425 1.13333,0.25972 1.7,0.90903 1.7,1.94792 0,0.61388 -0.30695,1.10972 -0.92083,1.4875 -0.44861,0.28333 -1.20418,0.425 -2.26667,0.425 h -1.16876 -15.79583 -1.16874 c -1.0389,0 -1.82987,-0.15347 -2.37292,-0.46042 -0.51945,-0.33056 -0.77917,-0.81458 -0.77917,-1.45208 0,-1.03889 0.56667,-1.6882 1.7,-1.94792 0.92083,-0.2361 1.46389,-0.37778 1.62916,-0.425 0.16528,-0.0708 0.33056,-0.2243 0.49584,-0.46042 0.35417,-0.40138 0.53125,-1.06249 0.53125,-1.98332 z m 18.66458,0 h 9.31458 v 14.48542 c 0,0.68473 -0.20069,1.23959 -0.60208,1.66459 -0.37778,0.425 -0.87361,0.6375 -1.4875,0.6375 -0.59028,0 -1.08611,-0.18889 -1.48749,-0.56666 -0.37779,-0.4014 -0.6257,-0.94445 -0.74376,-1.62918 l -0.35416,-2.16041 c -0.35417,-2.19583 -1.03889,-4.09653 -2.05417,-5.70208 -0.6375,-0.99167 -1.49931,-1.80625 -2.58542,-2.44376 z m 16.32708,0 h 0.92084 15.76041 v 48.34376 h -15.76041 -0.92084 c -0.84999,0 -1.5111,-0.15347 -1.98332,-0.46042 -0.44862,-0.33056 -0.67292,-0.79097 -0.67292,-1.38125 0,-0.96805 0.47222,-1.60555 1.41666,-1.9125 0.77917,-0.25972 1.22778,-0.41319 1.34584,-0.46041 0.14166,-0.0708 0.28333,-0.2125 0.425,-0.42501 0.28333,-0.37778 0.425,-0.97986 0.425,-1.80625 v -35.45208 c 0,-0.82639 -0.14167,-1.42847 -0.425,-1.80625 -0.14167,-0.2125 -0.28334,-0.34236 -0.425,-0.38958 -0.11806,-0.0708 -0.56667,-0.23611 -1.34584,-0.49583 -0.94444,-0.30694 -1.41666,-0.94445 -1.41666,-1.9125 0,-0.59028 0.2243,-1.03889 0.67292,-1.34584 0.47222,-0.33056 1.13333,-0.49584 1.98332,-0.49584 z m 19.83334,0 h 14.27292 v 12.53751 c 0,0.73194 -0.14167,1.2632 -0.42501,1.59375 -0.28333,0.33056 -0.73205,0.49587 -1.34582,0.49583 -0.51945,0 -0.89723,-0.10624 -1.13333,-0.31875 -0.23613,-0.2125 -0.46043,-0.64931 -0.67292,-1.31042 -0.89723,-2.73889 -2.21945,-4.82847 -3.96667,-6.26874 -1.72361,-1.44028 -3.96667,-2.30209 -6.72917,-2.58542 z m 34.35416,0 h 14.27292 l 9.84584,41.6146 c 0.18888,0.73193 0.40138,1.38124 0.6375,1.94791 0.2125,0.44861 0.68471,0.81458 1.41666,1.09792 0.61389,0.2597 1.03889,0.51943 1.275,0.77916 0.23613,0.25972 0.35417,0.61389 0.35417,1.0625 0,1.22778 -0.92083,1.84167 -2.7625,1.84167 h -17.67292 c -0.70833,0 -1.275,-0.16528 -1.7,-0.49583 -0.42499,-0.35418 -0.63749,-0.81459 -0.63749,-1.38126 0,-0.47221 0.0944,-0.82639 0.28332,-1.0625 0.1889,-0.2361 0.61389,-0.53125 1.275,-0.88541 0.47223,-0.23611 0.80279,-0.49583 0.99167,-0.77917 0.1889,-0.28333 0.28334,-0.6375 0.28334,-1.0625 0,-0.40139 -0.0354,-0.75555 -0.10624,-1.06249 l -1.13333,-5.13543 h -9.88125 l 0.95624,-4.21458 h 7.93334 l -6.51667,-28.79375 0.88541,-3.47084 z m 32.76042,0 h 16.57501 l 6.97707,19.86876 3.08125,-10.73125 v 11.75833 l -8.18125,27.44792 h -1.87707 L 618.82916,656.9688 c -0.47221,-1.36944 -0.96805,-2.29027 -1.4875,-2.76249 -0.30694,-0.30695 -0.83818,-0.53126 -1.59375,-0.67292 -1.53472,-0.33056 -2.30208,-1.0625 -2.30208,-2.19583 0,-0.61389 0.21256,-1.08611 0.6375,-1.41667 0.44862,-0.35417 1.08611,-0.53126 1.9125,-0.53126 z m 29.60834,0 h 15.72499 0.95626 c 1.77083,0 2.65624,0.6139 2.65624,1.84168 0,0.96805 -0.47222,1.60556 -1.41666,1.9125 -0.77917,0.25972 -1.23958,0.42499 -1.38125,0.49583 -0.11805,0.0472 -0.24792,0.17708 -0.38958,0.38958 -0.28333,0.37778 -0.42501,0.97986 -0.42501,1.80625 v 35.45208 c 0,0.82639 0.14168,1.42847 0.42501,1.80625 0.14166,0.21251 0.27153,0.35417 0.38958,0.42501 l 1.38125,0.46041 c 0.94444,0.30695 1.41666,0.94445 1.41666,1.9125 0,1.22778 -0.88541,1.84167 -2.65624,1.84167 H 661.32916 645.56875 644.4 c -1.03889,0 -1.82986,-0.15347 -2.37292,-0.46042 -0.51944,-0.33056 -0.77917,-0.81458 -0.77917,-1.45208 0,-1.03889 0.56667,-1.6882 1.7,-1.94792 0.92084,-0.2361 1.4639,-0.37778 1.62918,-0.425 0.16527,-0.0708 0.33055,-0.2125 0.49583,-0.425 0.35416,-0.425 0.53125,-1.09791 0.53125,-2.01874 z m -64.8125,8.99584 1.80625,7.33126 -6.26876,22.87915 c -0.18888,0.66112 -0.28333,1.27501 -0.28333,1.84168 0,1.4875 0.69653,2.54999 2.08958,3.1875 l 1.23959,0.56666 c 0.77917,0.35417 1.16875,0.94444 1.16875,1.77083 0,1.18056 -0.86181,1.77084 -2.58541,1.77084 h -8.99584 c -0.87361,0 -1.57014,-0.17709 -2.08958,-0.53126 -0.49583,-0.37777 -0.74376,-0.8854 -0.74376,-1.52291 0,-0.68472 0.51945,-1.25139 1.55834,-1.7 0.96805,-0.425 1.67639,-0.80278 2.125,-1.13333 0.47223,-0.35417 0.92083,-0.82639 1.34584,-1.41667 0.66111,-0.96806 1.20416,-2.25486 1.62916,-3.86042 z m -25.53542,5.02917 c 0.75556,0 1.275,0.29513 1.55833,0.88541 0.16528,0.30695 0.24792,1.00348 0.24792,2.08958 v 13.49375 c 0,1.10973 -0.12986,1.87709 -0.38958,2.30209 -0.23611,0.42501 -0.68473,0.6375 -1.34584,0.6375 -0.54305,0 -0.96805,-0.16527 -1.27499,-0.49583 -0.30695,-0.33056 -0.55486,-0.88542 -0.74376,-1.66459 -0.40139,-1.62916 -0.97986,-2.88055 -1.73541,-3.75416 -0.73195,-0.87362 -1.68819,-1.45209 -2.86875,-1.73542 v -4.10833 c 1.36944,-0.66111 2.38479,-1.38126 3.04582,-2.16041 0.66112,-0.77917 1.14515,-1.81806 1.45209,-3.11668 0.1889,-0.89721 0.43681,-1.51111 0.74375,-1.84166 0.30695,-0.35417 0.74375,-0.53125 1.31042,-0.53125 z m 63.57291,2.26666 3.75418,10.69584 v 10.66042 c 0,1.08611 0.0354,1.86527 0.10624,2.33749 0.0945,0.47223 0.28334,0.99167 0.56667,1.55834 0.49584,1.03889 1.18056,1.81806 2.05417,2.3375 l 1.31041,0.85 c 0.89723,0.54306 1.34584,1.14514 1.34584,1.80625 0,1.20417 -0.88542,1.80625 -2.65625,1.80625 h -8.88959 c -1.77082,0 -2.65624,-0.59028 -2.65624,-1.77084 0,-0.37777 0.0708,-0.66111 0.2125,-0.84999 0.16527,-0.21251 0.47221,-0.44861 0.92083,-0.70833 2.62083,-1.41668 3.93124,-3.87223 3.93124,-7.36667 z m -56.94999,16.92918 c 0.66111,0 1.12152,0.20069 1.38125,0.60208 0.25972,0.37778 0.38957,1.05068 0.38959,2.01875 v 12.50208 h -14.73334 v -3.825 c 1.53472,-0.23611 2.79791,-0.56675 3.78958,-0.99166 1.01528,-0.42501 2.03056,-1.07432 3.04584,-1.94793 1.01527,-0.87361 1.81805,-1.77083 2.40833,-2.69166 0.61388,-0.94445 1.19236,-2.18403 1.73541,-3.71875 0.25972,-0.75556 0.53125,-1.2632 0.81459,-1.52292 0.28333,-0.28333 0.67292,-0.42499 1.16875,-0.42499 z m 129.87708,35.71666 9.33333,0.13333 1.33333,10.8 7.13334,1.93333 7.8,-8.86666 6.73333,4.93333 -3.8,10.13333 5.6,5.06667 9.86667,-4.06667 4.06666,6.8 -8.6,8.06667 1.73334,6.13333 11.06666,1.93334 0.0667,8.66666 -10.93333,2.13334 -1.93334,6.8 8.73334,7.93333 -4.86667,6.46667 -9.66667,-4.2 -5.13333,5.73333 3.66667,10.06667 -6.93334,4.66666 -7.73333,-9.06666 -7.13333,2.46666 -0.93334,10.46667 -9.66666,0.2 -1.06667,-10.86667 -7.2,-2.06666 -7.73333,8.8 -6.33334,-4.6 3.26667,-10.66667 -4.4,-4.26667 -11.06667,3.73334 -4.06666,-7.66667 8.53333,-7.2 -2,-7 -10.46667,-1.13333 -0.2,-9.46667 10.73334,-0.93333 1.93333,-7.6 -8.46667,-7.4 4.73334,-6.6 10.26666,3.6 4.8,-5.93334 -3.86666,-9.6 6.93333,-4.53333 7.73333,9.2 6.86667,-2.13333 z m -241.23125,0.073 9.33334,0.13333 1.33333,10.8 7.13333,1.93333 7.8,-8.86666 6.73334,4.93333 -3.8,10.13333 5.6,5.06667 9.86666,-4.06667 4.06667,6.8 -8.6,8.06667 1.73333,6.13333 11.06667,1.93334 0.0667,8.66666 -10.93334,2.13334 -1.93333,6.8 8.73333,7.93333 -4.86666,6.46667 -9.66667,-4.2 -5.13333,5.73333 3.66666,10.06667 -6.93333,4.66666 -7.73333,-9.06666 -7.13334,2.46666 -0.93333,10.46667 -9.66667,0.2 -1.06666,-10.86667 -7.2,-2.06666 -7.73334,8.8 -6.33333,-4.6 3.26667,-10.66667 -4.4,-4.26667 -11.06667,3.73334 -4.06667,-7.66667 8.53334,-7.2 -2,-7 -10.46667,-1.13333 -0.2,-9.46667 10.73333,-0.93333 1.93334,-7.6 -8.46667,-7.4 4.73333,-6.6 10.26667,3.6 4.8,-5.93334 -3.86667,-9.6 6.93334,-4.53333 7.73333,9.2 6.86667,-2.13333 z m -122.97083,10.14999 h 11.36041 l 1.76042,13.43959 v 0.32084 c 3.73333,0.42667 7.35917,1.17292 10.87917,2.23957 l 7.03958,-12.31874 10.56042,4.47917 -3.51876,12.96041 -0.16041,0.47916 c 3.2,1.81336 6.23875,3.89292 9.11875,6.23959 l 11.2,-8.8 8.16042,8.16041 -8.16042,10.72084 -0.47917,0.47916 c 2.24,2.88 4.26584,5.92084 6.07917,9.12084 l 13.76042,-3.83958 4.48124,10.55833 -11.68124,6.88125 -0.8,0.16042 c 1.06666,3.73333 1.81291,7.46667 2.23958,11.2 l 14.24166,1.91874 v 11.36043 l -13.44166,1.76041 h -0.8 c -0.42667,3.62667 -1.11917,7.25252 -2.07917,10.87916 l 12.32083,7.03959 -4.32083,10.56041 -12.96041,-3.51874 -0.8,-0.32083 c -1.70667,3.2 -3.73251,6.24083 -6.07917,9.12083 l 8.8,11.35833 -8.16042,8 -10.72083,-8.15833 -0.47917,-0.48126 c -2.88,2.34667 -5.92083,4.42625 -9.12083,6.23959 l 3.68125,13.44167 -10.56042,4.47917 -6.72083,-11.67917 -0.15834,-0.48126 c -3.73333,1.06667 -7.52041,1.81292 -11.36041,2.23959 l -1.76042,13.76041 h -11.36041 l -1.76042,-13.76041 c -3.73333,-0.42667 -7.41292,-1.17292 -11.03958,-2.23959 l -6.87917,12 -10.56042,-4.47916 3.67917,-13.12084 c -3.30667,-1.91998 -6.45292,-4.05333 -9.43958,-6.4 l -10.71876,8.32084 -8.16041,-8.16041 8.31875,-10.72084 c -2.34667,-2.98667 -4.42625,-6.1329 -6.23958,-9.43959 l -12.96042,3.52084 -4.47917,-10.56041 11.83959,-6.72084 c -1.06667,-3.52 -1.81292,-7.09208 -2.23959,-10.71875 l -13.27917,-1.76041 v -11.36043 l 13.27917,-1.76041 c 0.42667,-3.73334 1.17292,-7.46667 2.23959,-11.2 l -11.67917,-6.71875 4.47917,-10.56041 12.96041,3.52083 c 1.81333,-3.30667 3.94667,-6.45501 6.4,-9.44167 l -8.32083,-10.71875 8,-8.16041 10.88125,8.32083 c 2.98666,-2.34667 6.13291,-4.42834 9.43958,-6.24167 l -3.67917,-13.11875 10.55834,-4.32084 6.88125,11.83959 c 3.52,-0.96 7.09208,-1.65249 10.71875,-2.07916 z m 242.99792,0 h 11.36041 l 1.75834,13.43959 v 0.32084 c 3.73333,0.42667 7.36125,1.17292 10.88125,2.23957 l 7.03958,-12.31874 10.56042,4.47917 -3.52084,12.96041 -0.16041,0.47916 c 3.2,1.81336 6.24083,3.89292 9.12083,6.23959 l 11.2,-8.8 8.16042,8.16041 -8.16042,10.72084 -0.47917,0.47916 c 2.24,2.88002 4.26584,5.92084 6.07917,9.12084 l 13.76042,-3.83958 4.47916,10.55833 -11.67916,6.88125 -0.8,0.16042 c 1.06666,3.73333 1.81291,7.46667 2.23958,11.2 l 14.23958,1.91874 v 11.36043 l -13.43958,1.76041 h -0.8 c -0.32,3.62667 -1.0125,7.25252 -2.07917,10.87916 l 12.31875,7.03959 -4.31875,10.56041 -12.96041,-3.51874 -0.8,-0.32083 c -1.70667,3.2 -3.73459,6.24083 -6.08125,9.12083 l 8.8,11.35833 -8.15834,8 -10.72083,-8.15833 -0.47917,-0.48126 c -2.88,2.34667 -5.92083,4.42625 -9.12083,6.23959 l 3.67917,13.44167 -10.55834,4.47917 -6.72083,-11.67917 -0.32083,-0.48126 c -3.62667,1.06667 -7.36,1.81292 -11.2,2.23959 l -1.75834,13.76041 h -11.36041 l -1.76042,-13.76041 c -3.73333,-0.42667 -7.41292,-1.17292 -11.03958,-2.23959 l -6.88125,12 -10.55834,-4.47916 3.67917,-13.12084 c -3.30667,-1.91998 -6.45292,-4.05333 -9.43958,-6.4 l -10.72084,8.32084 -8.16041,-8.16041 8.32083,-10.72084 c -2.34667,-2.98667 -4.42625,-6.1329 -6.23958,-9.43959 l -12.96042,3.52084 -4.47917,-10.56041 11.83959,-6.72084 c -1.06667,-3.52 -1.81292,-7.09208 -2.23959,-10.71875 l -13.28125,-1.76041 v -11.36043 l 13.28125,-1.76041 c 0.42667,-3.73334 1.17292,-7.46667 2.23959,-11.2 l -11.68125,-6.71875 4.48125,-10.56041 12.96041,3.52083 c 1.81333,-3.30667 3.94667,-6.45501 6.4,-9.44167 l -8.32083,-10.71875 8,-8.16041 10.87917,8.32083 c 2.98666,-2.34667 6.13499,-4.42834 9.44166,-6.24167 l -3.68125,-13.11875 10.56042,-4.32084 6.87917,11.83959 c 3.52,-0.96 7.04041,-1.65249 10.56041,-2.07916 z m 240.52083,0 h 11.36041 l 1.76042,13.43959 v 0.32084 c 3.62667,0.42667 7.19875,1.11916 10.71875,2.07916 l 6.88125,-11.83959 10.55834,4.32084 -3.67917,13.11875 c 3.30666,1.81333 6.45291,3.895 9.43958,6.24167 l 10.88125,-8.32083 8,8.16041 -8.32083,10.71875 c 2.45333,2.98666 4.58666,6.135 6.4,9.44167 l 12.96041,-3.52083 4.47917,10.56041 -11.67917,6.71875 c 1.06667,3.73333 1.81292,7.46666 2.23959,11.2 l 13.27917,1.76041 v 11.36043 l -13.27917,1.76041 c -0.42667,3.62667 -1.17292,7.19875 -2.23959,10.71875 l 11.83959,6.72084 -4.47917,10.56041 -12.96042,-3.52084 c -1.81333,3.30668 -3.89291,6.45292 -6.23958,9.43959 l 8.31875,10.72084 -8.16041,8.16041 -10.71876,-8.32084 c -2.98666,2.34669 -6.13291,4.48 -9.43958,6.4 l 3.67917,13.12084 -10.56042,4.47916 -6.87917,-12 c -3.62666,1.06667 -7.30625,1.81292 -11.03958,2.23959 l -1.76042,13.76041 H 811.07292 L 809.3125,874.7897 c -3.84,-0.42667 -7.62708,-1.17292 -11.36041,-2.23959 l -6.87917,12.16043 -10.56042,-4.47917 3.52083,-12.96042 0.16042,-0.48125 c -3.2,-1.81334 -6.24083,-3.89292 -9.12083,-6.23959 l -11.2,8.63959 -8.16042,-8 8.32083,-10.71875 0.47917,-0.63958 c -2.34667,-2.88 -4.3725,-5.92083 -6.07917,-9.12083 l -13.76041,3.83957 -4.32083,-10.56041 11.68124,-6.87916 0.63959,-0.16043 c -0.96,-3.62665 -1.6525,-7.25249 -2.07917,-10.87916 l -14.24166,-1.76041 v -11.36043 l 13.44166,-1.91874 h 0.8 c 0.42667,-3.73333 1.17292,-7.46667 2.23958,-11.2 l -12.48124,-7.04167 4.48124,-10.55833 12.96042,3.51874 0.8,0.32084 c 1.81333,-3.2 3.83917,-6.24082 6.07917,-9.12084 l -8.63959,-11.2 8.16042,-8.16041 10.71875,8.32084 0.48125,0.47916 c 2.88,-2.34667 5.91875,-4.4262 9.11875,-6.23959 l -3.67917,-13.43957 10.56042,-4.47917 6.71875,11.67917 0.32083,0.63957 c 3.52,-1.06665 7.14584,-1.8129 10.87917,-2.23957 z m -114.84376,9.37917 a 27.91166,27.806486 0 0 0 -27.91041,27.80625 27.91166,27.806486 0 0 0 27.91041,27.80625 27.91166,27.806486 0 0 0 27.9125,-27.80625 27.91166,27.806486 0 0 0 -27.9125,-27.80625 z M 455,738.00222 A 27.91166,27.806486 0 0 0 427.0875,765.80847 27.91166,27.806486 0 0 0 455,793.61472 27.91166,27.806486 0 0 0 482.91042,765.80847 27.91166,27.806486 0 0 0 455,738.00222 Z m -121.84583,16.94791 c -14.82667,2e-5 -27.46542,5.22793 -37.91876,15.68126 -1.17333,1.17334 -1.76041,2.61209 -1.76041,4.31874 0,1.70668 0.58708,3.20126 1.76041,4.48126 1.28,1.17334 2.7725,1.75833 4.47917,1.75833 1.70667,0 3.1475,-0.58499 4.32083,-1.75833 8.10667,-8.10666 17.81209,-12.16041 29.11876,-12.16041 7.57333,0 14.66791,1.97207 21.28124,5.91874 2.98667,2.66667 4.90501,4.58709 5.75834,5.76041 1.49333,2.13335 2.24166,4.8 2.24166,8 0,4.26668 -1.54833,7.94626 -4.64166,11.03959 -2.98667,2.98667 -6.6125,4.48126 -10.87917,4.48126 h -21.76041 c -1.70667,0 -3.19917,0.63874 -4.47917,1.91874 -1.17334,1.17333 -1.76042,2.61417 -1.76042,4.32084 0,1.70667 0.58708,3.19916 1.76042,4.47916 1.28,1.17333 2.7725,1.76041 4.47917,1.76041 h 21.76041 c 7.68,2e-5 14.23917,-2.72041 19.67917,-8.16041 5.44,-5.54667 8.16042,-12.15956 8.16042,-19.83959 0,-9.8133 -4.05375,-17.54663 -12.16042,-23.2 l -0.31875,-0.16041 c -2.56,-2.56 -7.14709,-4.69333 -13.76042,-6.4 -5.65333,-1.49333 -10.77375,-2.23952 -15.36041,-2.23959 z m 242.99792,0 c -14.82667,2e-5 -27.4675,5.22793 -37.92084,15.68126 -1.17333,1.17334 -1.76041,2.61209 -1.76041,4.31874 0,1.70668 0.58708,3.20126 1.76041,4.48126 1.28,1.17334 2.77458,1.75833 4.48125,1.75833 1.70667,0 3.14542,-0.58499 4.31875,-1.75833 8.10667,-8.10666 17.81417,-12.16041 29.12084,-12.16041 7.57333,0 14.66583,1.97207 21.27916,5.91874 3.09334,2.88 5.01375,4.80044 5.76042,5.76041 1.49333,2.02668 2.23958,4.69334 2.23958,8 0,4.26668 -1.54625,7.94626 -4.63958,11.03959 -2.98667,2.98667 -6.6125,4.48126 -10.87917,4.48126 h -21.76041 c -1.70667,0 -3.20125,0.63874 -4.48125,1.91874 -1.17334,1.17333 -1.75834,2.61417 -1.75834,4.32084 0,1.6 0.53333,2.98708 1.6,4.16042 l 35.83959,39.67915 c 1.17333,1.28 2.71958,1.92085 4.63958,1.92085 1.70667,0 3.1475,-0.58709 4.32083,-1.76042 1.28,-1.17333 1.91875,-2.61417 1.91875,-4.32084 0,-1.6 -0.53333,-2.98499 -1.6,-4.15833 l -26.56041,-29.28126 h 7.84166 c 7.68,2e-5 14.23917,-2.72041 19.67917,-8.16041 5.44,-5.54667 8.16042,-12.15959 8.16042,-19.83959 0,-9.8133 -4.05375,-17.54666 -12.16042,-23.2 l -0.32083,-0.16041 c -2.66667,-2.56 -7.25167,-4.69333 -13.75834,-6.4 -5.65333,-1.49333 -10.77375,-2.23952 -15.36041,-2.23959 z m 240.68124,0 c -4.58666,2e-5 -9.70708,0.74626 -15.36041,2.23959 -6.61334,1.70667 -11.20042,3.84 -13.76042,6.4 l -0.31875,0.16041 c -8.10667,5.65337 -12.16042,13.3867 -12.16042,23.2 0,7.68 2.72042,14.29292 8.16042,19.83959 5.44,5.44 11.99917,8.16041 19.67917,8.16041 h 21.76041 c 0.53334,2e-5 1.17209,-0.10538 1.91876,-0.31874 h 2.88124 c 4.26667,0 7.8925,1.54625 10.87917,4.63959 3.09333,2.98666 4.63959,6.61253 4.63959,10.87915 0,5.76 -2.45167,10.13418 -7.35834,13.12085 -6.72,4.37333 -14.0275,6.56041 -21.92083,6.56041 -11.30667,0 -21.01417,-4.05375 -29.12083,-12.16041 -1.17334,-1.17334 -2.61209,-1.76042 -4.31876,-1.76042 -1.70666,0 -3.20124,0.64083 -4.48124,1.92083 -1.17334,1.17334 -1.75834,2.61209 -1.75834,4.31874 0,1.70668 0.585,3.14751 1.75834,4.32085 10.45333,10.45333 23.09416,15.6792 37.92083,15.67915 4.58666,0 9.70708,-0.74624 15.36041,-2.23957 6.61334,-1.70667 11.20042,-3.84 13.76042,-6.4 l 0.31875,-0.16043 c 8.10667,-5.65333 12.16042,-13.38666 12.16042,-23.2 0,-7.68 -2.72042,-14.23915 -8.16042,-19.67915 -5.44,-5.54667 -11.99917,-8.3208 -19.67917,-8.32085 h -21.76041 c -0.53334,0 -1.17417,0.10751 -1.92083,0.32085 h -2.87917 c -4.26667,0 -7.94625,-1.49459 -11.03959,-4.48126 -2.98666,-3.09333 -4.48124,-6.77292 -4.48124,-11.03959 0,-5.75998 2.45374,-10.13207 7.36041,-13.11874 6.72,-4.37333 14.0275,-6.56041 21.92083,-6.56041 11.30667,0 21.01209,4.05375 29.11876,12.16041 1.17333,1.17334 2.61416,1.75833 4.32083,1.75833 1.70666,0 3.1475,-0.58499 4.32083,-1.75833 1.28,-1.28 1.91875,-2.77457 1.91875,-4.48126 0,-1.70665 -0.58708,-3.1454 -1.76041,-4.31874 C 844.29875,760.17806 831.66,754.95013 816.83333,754.95013 Z m -516.63958,34.23959 c -1.70667,0 -3.19917,0.64084 -4.47917,1.92084 -1.17333,1.17333 -1.76041,2.61417 -1.76041,4.32083 v 52.47917 c 0,1.70667 0.58708,3.19916 1.76041,4.47916 1.28,1.17333 2.7725,1.76041 4.47917,1.76041 1.70667,2e-5 3.1475,-0.58708 4.32083,-1.76041 1.28,-1.28 1.92083,-2.77249 1.92083,-4.47916 v -52.47917 c 0,-1.70666 -0.64083,-3.1475 -1.92083,-4.32083 -1.17333,-1.28 -2.61416,-1.92084 -4.32083,-1.92084 z m 242.99792,0 c -1.70667,0 -3.19917,0.64084 -4.47917,1.92084 -1.17333,1.17333 -1.76041,2.61417 -1.76041,4.32083 v 52.47917 c 0,1.70667 0.58708,3.19916 1.76041,4.47916 1.28,1.17333 2.7725,1.76041 4.47917,1.76041 1.70667,2e-5 3.1475,-0.58708 4.32083,-1.76041 1.28,-1.28 1.91875,-2.77249 1.91875,-4.47916 v -52.47917 c 0,-1.70666 -0.63875,-3.1475 -1.91875,-4.32083 -1.17333,-1.28 -2.61416,-1.92084 -4.32083,-1.92084 z m 147.01041,38.79167 h 11.36042 l 1.76041,13.43958 v 0.8 c 3.62667,0.42667 7.20084,1.12125 10.72084,2.08125 l 7.2,-12.32083 10.55833,4.32083 -3.51875,12.96042 -0.32083,0.8 c 3.2,1.70666 6.24084,3.7325 9.12083,6.07916 l 11.36042,-8.8 8,8.16042 -8.16042,10.71875 -0.48125,0.48125 c 2.34667,2.88 4.42834,5.91875 6.24167,9.11875 l 13.43958,-3.67917 4.47917,10.56042 -11.67917,6.71875 -0.48125,0.16042 c 1.06667,3.73333 1.81501,7.52041 2.24167,11.36041 l 13.75833,1.76042 v 11.36042 l -13.75833,1.75833 c -0.42666,3.73334 -1.175,7.415 -2.24167,11.04167 l 12,6.87916 -4.47917,10.56042 -13.12083,-3.68125 c -1.92,3.30667 -4.05333,6.455 -6.4,9.44167 l 8.32083,10.71875 -8.16041,8.16041 -10.71875,-8.32083 c -2.98666,2.34667 -6.135,4.42833 -9.44167,6.24167 l 3.52083,12.95833 -9.54999,4.05209 6.57917,5.00833 0.32083,0.31875 c 1.92,-1.56445 3.94583,-2.94944 6.07917,-4.15834 l -2.45417,-8.96041 7.04166,-2.9875 4.47917,7.7875 0.10624,0.31875 c 2.48889,-0.71111 5.01292,-1.20722 7.57292,-1.49167 l 1.175,-9.175 h 7.57291 l 1.17292,9.175 c 2.48889,0.28445 4.94264,0.78056 7.36042,1.49167 l 4.58542,-8 7.04166,2.9875 -2.45417,8.74583 c 2.20444,1.28 4.30264,2.70222 6.29375,4.26667 l 7.14584,-5.54583 5.43958,5.43958 -5.54583,7.14791 c 1.56444,1.99112 2.95153,4.0872 4.16041,6.2917 l 8.63959,-2.3459 2.9875,7.0396 -7.89375,4.4813 c 0.71111,2.3466 1.2093,4.728 1.49375,7.1458 l 8.85208,1.1729 v 7.5729 l -8.85208,1.175 c -0.28445,2.4889 -0.78264,4.9778 -1.49375,7.4667 l 7.78542,4.4792 -2.98542,7.0396 -8.63959,-2.3459 c -1.20888,2.2045 -2.63111,4.3027 -4.26666,6.2938 l 5.54583,7.1458 -5.33333,5.4396 -7.25417,-5.5458 c -1.99111,1.5644 -4.08722,2.9515 -6.29167,4.1604 l 2.45209,8.7458 -7.03959,2.8792 -4.58749,-7.8917 c -2.34667,0.64 -4.72807,1.101 -7.14584,1.3854 l -1.17292,9.1729 h -7.57291 l -1.175,-8.9583 v -0.2146 c -2.4889,-0.2844 -4.90542,-0.7826 -7.25209,-1.4937 l -4.69375,8.2146 -7.03958,-2.9875 2.34584,-8.6396 0.10624,-0.3209 c -2.13334,-1.2088 -4.15917,-2.5938 -6.07917,-4.1583 l -7.46667,5.8667 -5.43958,-5.4417 5.43958,-7.1458 0.32083,-0.3209 c -1.49333,-1.92 -2.84528,-3.9458 -4.05416,-6.0791 l -9.17292,2.5604 -2.9875,-7.0396 7.7875,-4.5875 0.53333,-0.1062 c -0.71111,-2.4889 -1.20931,-4.9778 -1.49375,-7.4667 l -9.49375,-1.2812 v -7.573 l 8.96042,-1.1729 h 0.53333 c 0.28444,-2.4178 0.7475,-4.7992 1.3875,-7.1458 l -8.21458,-4.8 2.88125,-7.04168 8.63958,2.34788 0.53334,0.2125 c 1.13778,-2.1333 2.48763,-4.15913 4.05208,-6.07913 l -5.86666,-7.57292 4.84374,-4.74584 -6.56458,-11.56666 c -3.52,1.06666 -7.09417,1.81291 -10.72084,2.23958 l -1.76042,13.27917 h -11.36041 l -1.75833,-13.27917 c -3.84,-0.42667 -7.57333,-1.17292 -11.2,-2.23958 l -6.72084,11.67916 -10.56042,-4.47916 3.52084,-12.96042 c -3.30666,-1.81333 -6.45291,-3.94667 -9.43958,-6.4 l -10.72084,8.31875 -8.16042,-8 8.32084,-10.87917 c -2.34664,-2.98666 -4.42624,-6.13291 -6.23958,-9.43958 l -13.12084,3.67917 -4.32083,-10.56042 11.84167,-6.87917 c -0.96,-3.52 -1.65459,-7.09416 -2.08126,-10.72083 l -13.76041,-1.75833 v -11.36042 l 13.44167,-1.76042 h 0.31874 c 0.42667,-3.73333 1.17292,-7.35916 2.23959,-10.87916 l -12.31875,-7.04167 4.47916,-10.55833 12.96042,3.51875 0.47917,0.16041 c 1.81333,-3.2 3.89501,-6.24083 6.24167,-9.12083 l -8.8,-11.2 8.15833,-8.15833 10.72083,8.15833 0.47917,0.48125 c 2.88,-2.24 5.92083,-4.26791 9.12083,-6.08125 l -3.83958,-13.75833 10.56042,-4.48125 6.87916,11.68125 0.16042,0.8 c 3.73333,-1.06667 7.46667,-1.815 11.2,-2.24167 l 1.91875,-14.23958 z m -240.60416,0.12917 h 11.36042 l 1.76041,13.43957 v 0.8 c 3.62667,0.42667 7.19875,1.12126 10.71875,2.08126 l 7.2,-12.32083 10.56042,4.32083 -3.52083,12.96042 -0.31875,0.8 c 3.2,1.70667 6.23875,3.7325 9.11875,6.07917 l 11.36041,-8.8 8,8.16041 -8.16041,10.71874 -0.47917,0.48126 c 2.34667,2.88 4.42625,5.9188 6.23958,9.11874 l 13.43959,-3.67915 4.48125,10.56041 -11.68125,6.71874 -0.47917,0.32085 c 1.06667,3.62666 1.81292,7.36 2.23958,11.2 l 13.76042,1.76041 v 11.36042 l -13.76042,1.75832 c -0.42666,3.73334 -1.17291,7.41501 -2.23958,11.04168 l 12,6.87917 -4.47917,10.56041 -13.12083,-3.68126 c -1.92,3.30668 -4.05333,6.45501 -6.4,9.44168 l 8.32083,10.71875 -8.16041,8.16042 -10.72084,-8.32085 c -2.98666,2.34669 -6.13291,4.42835 -9.43958,6.24168 l 3.52083,12.95832 -10.05416,4.26667 6.40833,4.87709 0.31875,0.32083 c 1.92,-1.49333 3.94791,-2.84528 6.08125,-4.05416 l -2.56042,-9.17292 7.03959,-2.9875 4.58749,7.7875 0.10624,0.53333 c 2.48889,-0.71111 4.97779,-1.2093 7.46667,-1.49375 l 1.27917,-9.49375 h 7.57292 l 1.17499,8.96042 v 0.53333 c 2.41778,0.28445 4.79917,0.7475 7.14584,1.3875 l 4.8,-8.21458 7.03958,2.88125 -2.34583,8.63958 -0.21458,0.53334 c 2.13333,1.13778 4.16124,2.48972 6.08124,4.05416 l 7.57292,-5.86667 5.33333,5.43959 -5.43958,7.14583 -0.32083,0.32083 c 1.56444,1.92 2.95152,3.94585 4.16041,6.07915 l 8.96042,-2.45206 2.98542,7.03956 -7.78542,4.4792 -0.32083,0.2146 c 0.7111,2.4178 1.2093,4.9066 1.49375,7.4666 l 9.17292,1.173 v 7.5729 l -9.17292,1.1729 c -0.28445,2.4889 -0.78265,4.9426 -1.49375,7.3604 l 8,4.5875 -2.98542,7.0396 -8.74791,-2.4542 c -1.28,2.2045 -2.70223,4.3027 -4.26667,6.2938 l 5.54791,7.1458 -5.44166,5.4417 -7.14584,-5.5479 c -1.99111,1.5644 -4.08931,2.9515 -6.29374,4.1604 l 2.34791,8.6396 -7.04166,2.9875 -4.47917,-7.8938 c -2.34667,0.7111 -4.72806,1.2093 -7.14584,1.4938 l -1.17499,8.852 h -7.57292 l -1.17292,-8.852 c -2.56,-0.2845 -5.04889,-0.7827 -7.46667,-1.4938 l -4.47916,7.7875 -7.04167,-2.9875 2.34792,-8.6396 c -2.20445,-1.2089 -4.30265,-2.6311 -6.29375,-4.2666 l -7.14584,5.5458 -5.44166,-5.3333 5.54791,-7.2521 c -1.56444,-1.9911 -2.95153,-4.0893 -4.16041,-6.2938 l -8.74584,2.4521 -2.88124,-7.0396 7.89374,-4.5854 c -0.64,-2.3467 -1.10306,-4.7301 -1.38749,-7.1479 l -9.17292,-1.1729 v -7.5729 l 8.96041,-1.173 h 0.21251 c 0.28443,-2.4888 0.78263,-4.9075 1.49375,-7.2541 l -8.21251,-4.6938 2.98542,-7.0396 8.64167,2.3459 0.31875,0.1083 c 1.20888,-2.1333 2.59597,-4.16124 4.16041,-6.08124 l -5.86666,-7.46667 5.30625,-5.30625 -6.35417,-11.19583 c -3.52,1.06667 -7.09208,1.81292 -10.71875,2.23958 l -1.76041,13.27917 h -11.36042 l -1.76042,-13.27917 c -3.84,-0.42666 -7.57333,-1.17291 -11.2,-2.23958 l -6.66458,11.58333 4.83125,4.82917 -5.44167,7.14792 -0.31875,0.31875 c 1.49334,1.92 2.84319,3.94792 4.05208,6.08122 l 9.17501,-2.56039 2.9854,7.03959 -7.7854,4.5875 -0.53334,0.1062 c 0.71111,2.4889 1.20722,4.9778 1.49166,7.4667 l 9.49375,1.2792 v 7.575 l -8.96041,1.1729 h -0.53334 c -0.28444,2.4178 -0.74541,4.8343 -1.38541,7.2521 l 8.21249,4.6937 -2.87915,7.0396 -8.63959,-2.3458 -0.53333,-0.2125 c -1.13778,2.1333 -2.4897,4.1591 -4.05418,6.0791 l 5.86667,7.5729 -5.43957,5.3334 -7.14793,-5.4396 -0.31874,-0.3208 c -1.92,1.5644 -3.94792,2.9515 -6.08126,4.1604 l 2.45417,8.9604 -7.03958,2.9875 -4.48125,-7.7875 -0.21251,-0.3208 c -2.41777,0.7111 -4.90664,1.2093 -7.46666,1.4937 l -1.17291,9.1729 h -7.57292 l -1.175,-9.1729 c -2.48889,-0.2844 -4.94056,-0.7826 -7.35833,-1.4937 l -4.58751,8 -7.03957,-2.9855 2.45207,-8.7479 c -2.20444,-1.28 -4.30055,-2.7022 -6.29166,-4.2666 l -7.14792,5.5479 -5.43959,-5.4396 5.54584,-7.1479 c -1.56444,-1.9911 -2.94944,-4.0893 -4.15833,-6.2938 l -8.64167,2.3479 -2.98541,-7.0395 7.89375,-4.4813 c -0.71111,-2.3467 -1.20931,-4.728 -1.49375,-7.1458 l -8.85418,-1.1729 v -7.575 l 8.85418,-1.173 c 0.28444,-2.4888 0.78264,-4.9777 1.49375,-7.4666 l -7.78751,-4.4792 2.98751,-7.0396 8.63958,2.3459 c 1.20889,-2.2045 2.63111,-4.30268 4.26667,-6.29378 l -5.54792,-7.14584 5.33333,-5.43958 7.25416,5.54583 c 1.99112,-1.56445 4.08932,-2.95153 6.29376,-4.16041 l -2.45417,-8.74584 7.03958,-2.88125 4.5875,7.89375 c 2.34667,-0.64 4.72806,-1.10097 7.14584,-1.38542 l 1.175,-9.17499 h 7.57292 l 1.17291,8.96041 v 0.21458 c 2.48889,0.28445 4.90751,0.78056 7.25417,1.49167 l 4.69166,-8.2125 7.04168,2.9875 -2.34793,8.63958 -0.10624,0.31876 c 2.13333,1.20888 4.15917,2.59596 6.07917,4.16041 l 7.07709,-5.56041 -9.61458,-4.07917 3.51875,-12.96042 c -3.30667,-1.81333 -6.45292,-3.94666 -9.43959,-6.4 l -10.71875,8.31874 -8.16041,-8 8.31875,-10.87915 c -2.34667,-2.98667 -4.42625,-6.13292 -6.23959,-9.43959 l -13.11875,3.67917 -4.32083,-10.56043 11.83958,-6.87915 c -0.96,-3.52 -1.6525,-7.09417 -2.07916,-10.72085 l -13.76042,-1.75832 v -11.36042 l 13.43958,-1.76041 h 0.32084 c 0.42666,-3.73334 1.17291,-7.35917 2.23958,-10.87917 l -12.32083,-7.04168 4.48125,-10.55832 12.96041,3.51875 0.47917,0.16042 c 1.81333,-3.2 3.89292,-6.24085 6.23958,-9.12085 l -8.8,-11.2 8.16042,-8.15832 10.72083,8.15832 0.47917,0.48126 c 2.88,-2.24 5.92083,-4.26792 9.12083,-6.08126 l -3.84166,-13.75832 10.56041,-4.48125 6.88125,11.68125 0.15834,0.8 c 3.73333,-1.06667 7.46666,-1.815 11.2,-2.24168 l 1.92083,-14.23957 z m 246.04583,26.43124 c -14.82666,0 -27.4675,5.22584 -37.92084,15.67917 -1.28,1.28 -1.92083,2.77458 -1.92083,4.48125 0,1.70667 0.58708,3.19917 1.76042,4.47917 1.28,1.17333 2.77459,1.76041 4.48125,1.76041 1.70667,0 3.19916,-0.64083 4.47916,-1.92083 6.08,-6.08 13.33377,-9.865 21.76042,-11.35833 v 88.31875 c 10e-6,1.70666 0.58709,3.1475 1.76042,4.32083 1.17334,1.28 2.66583,1.91875 4.47916,1.91875 1.70667,0 3.14751,-0.63875 4.32084,-1.91875 1.17334,-1.17333 1.75833,-2.61417 1.75833,-4.32083 V 867.3418 c 9.38667,1.06667 17.38667,4.9075 24,11.52084 1.28,1.28 2.77459,1.91875 4.48125,1.91875 1.70668,0 3.14542,-0.58708 4.31875,-1.76042 1.17333,-1.28 1.76042,-2.7725 1.76042,-4.47917 0,-1.81333 -0.58709,-3.30583 -1.76042,-4.47916 -10.45333,-10.34667 -23.03833,-15.52084 -37.75833,-15.52084 z m -240.44583,0.28959 c -14.82667,0 -27.4675,5.27959 -37.92083,15.83959 -10.45334,10.45333 -15.67917,23.09416 -15.67917,37.92083 0,14.82667 5.22583,27.46542 15.67917,37.91875 1.17333,1.17333 2.61416,1.76042 4.32083,1.76042 1.70667,0 3.1475,-0.58709 4.32083,-1.76042 1.28,-1.28 1.91875,-2.7725 1.91875,-4.47917 0,-1.70666 -0.58708,-3.1475 -1.76041,-4.32083 -8.10667,-8.10667 -12.15834,-17.81208 -12.15834,-29.11875 0,-11.41333 4,-21.12083 12,-29.12083 8.10667,-8.10667 17.86584,-12.16042 29.27917,-12.16042 11.41333,0 21.12083,4.05375 29.12083,12.16042 8.10667,8 12.15834,17.7075 12.15834,29.12083 0,11.30667 -4,20.95839 -12,28.95832 -1.17334,1.28 -1.75834,2.7746 -1.75834,4.48126 0,1.70667 0.585,3.19917 1.75834,4.47917 1.17333,1.17333 2.61416,1.76042 4.32083,1.76042 1.81333,0 3.30583,-0.64082 4.47917,-1.92085 10.34666,-10.45331 15.52083,-23.03832 15.52083,-37.75832 0,-14.82667 -5.22583,-27.4675 -15.67917,-37.92083 -10.45333,-10.56 -23.09416,-15.83959 -37.92083,-15.83959 z m -21.27917,61.27917 c -1.70666,0 -3.20125,0.58708 -4.48125,1.76042 -1.17333,1.17333 -1.76041,2.61416 -1.76041,4.32083 0,1.81333 0.58708,3.30583 1.76041,4.47917 1.28,1.17333 2.77459,1.76041 4.48125,1.76041 h 43.03959 c 1.70666,0 3.14541,-0.58708 4.31875,-1.76041 1.28,-1.17334 1.92083,-2.66584 1.92083,-4.47917 0,-1.70667 -0.64083,-3.1475 -1.92083,-4.32083 -1.17334,-1.17334 -2.61209,-1.76042 -4.31875,-1.76042 z m 198.43334,54.95625 h 7.57291 l 1.17292,8.85416 c 2.56,0.28445 5.04889,0.78265 7.46667,1.49375 l 4.48124,-7.7875 7.03959,2.9875 -2.34584,8.63959 c 2.20445,1.20888 4.30056,2.63111 6.29167,4.26666 l 7.14792,-5.54583 5.43958,5.33333 -5.54583,7.25209 c 1.56445,1.99111 2.94944,4.08934 4.15833,6.29374 l 8.74792,-2.4542 2.87917,7.0417 -7.89375,4.5854 c 0.64,2.3467 1.10305,4.7302 1.3875,7.1479 l 9.17291,1.173 v 7.5729 l -8.96041,1.1729 h -0.2125 c -0.28445,2.4889 -0.78265,4.9075 -1.49375,7.2542 l 8.21458,4.6937 -2.9875,7.0396 -8.63959,-2.3479 -0.32083,-0.1063 c -1.20889,2.1334 -2.59598,4.1613 -4.16041,6.0813 l 5.86666,7.4666 -5.43958,5.4396 -7.14584,-5.4396 -0.32083,-0.3208 c -1.92,1.4933 -3.94583,2.8453 -6.07917,4.0542 l 2.56042,9.1729 -7.04166,2.9854 -4.58542,-7.7854 -0.10624,-0.5333 c -2.48889,0.7111 -4.97778,1.2093 -7.46667,1.4937 l -1.28125,9.4917 h -7.57291 l -1.17292,-8.9584 v -0.5333 c -2.41778,-0.2844 -4.8364,-0.7475 -7.25417,-1.3875 l -4.69375,8.2125 -7.03958,-2.8792 2.34791,-8.6395 0.21251,-0.5334 c -2.13334,-1.1377 -4.15917,-2.4897 -6.07917,-4.0541 l -7.575,5.8666 -5.33333,-5.4396 5.44166,-7.1458 0.31875,-0.3208 c -1.56444,-1.92 -2.95153,-3.9459 -4.16041,-6.0792 l -8.95834,2.4521 -2.9875,-7.0396 7.7875,-4.4792 0.31875,-0.1083 c -0.71111,-2.4889 -1.20931,-5.0129 -1.49375,-7.5729 l -9.17291,-1.1729 v -7.5729 l 9.17291,-1.173 c 0.28444,-2.4888 0.78264,-4.9426 1.49375,-7.3604 l -8,-4.5875 2.9875,-7.0396 8.74584,2.4542 c 1.28,-2.2044 2.70222,-4.30262 4.26666,-6.29373 l -5.54583,-7.14792 5.43958,-5.43958 7.14584,5.54791 c 1.9911,-1.56444 4.0893,-2.95152 6.29375,-4.16041 l -2.34584,-8.63959 7.03959,-2.9875 4.47916,7.89375 c 2.34667,-0.7111 4.73014,-1.2093 7.14792,-1.49375 l 1.17292,-8.85416 z m 124.16041,17.06666 c -10.02667,0 -18.56,3.55556 -25.6,10.66667 -0.78222,0.78222 -1.17292,1.74346 -1.17292,2.88126 0,1.1378 0.3907,2.1321 1.17292,2.9854 0.85333,0.7822 1.84764,1.175 2.98542,1.175 1.13777,0 2.13417,-0.4279 2.9875,-1.2812 5.40444,-5.4756 11.94708,-8.21255 19.62708,-8.21255 5.97333,0 11.37694,1.77779 16.2125,5.33335 l -41.38542,41.8125 c -0.85333,0.7822 -1.28124,1.7435 -1.28124,2.8812 0,1.1378 0.39068,2.1321 1.17291,2.9855 0.85334,0.7822 1.84972,1.1729 2.9875,1.1729 l 43.30625,-0.1063 c 1.13777,0 2.09903,-0.3907 2.88125,-1.1729 0.85333,-0.8533 1.27917,-1.8497 1.27917,-2.9875 0,-1.1378 -0.42584,-2.0969 -1.27917,-2.8792 -0.78222,-0.7822 -1.74348,-1.1729 -2.88125,-1.1729 h -33.27917 l 37.43959,-37.8666 c 0.85333,-0.7823 1.27917,-1.7435 1.27917,-2.8813 0,-1.2089 -0.42584,-2.20317 -1.27917,-2.9854 -6.9689,-6.89777 -15.35959,-10.34792 -25.17292,-10.34792 z m -241.3875,0.21458 c -9.88445,0 -18.31028,3.52042 -25.27917,10.56042 -6.96888,6.96893 -10.45416,15.39473 -10.45416,25.27913 0,1.1378 0.39069,2.097 1.17292,2.8792 0.78222,0.7822 1.74346,1.175 2.88124,1.175 h 37.43959 v 28.5854 c 0,1.1378 0.39069,2.0991 1.17292,2.8813 0.85333,0.8533 1.84971,1.2791 2.98749,1.2791 1.13779,0 2.09694,-0.4258 2.87917,-1.2791 0.85334,-0.7822 1.28125,-1.7435 1.28125,-2.8813 v -28.5854 h 17.6 c 1.13778,0 2.09694,-0.3928 2.87917,-1.175 0.85333,-0.7822 1.27917,-1.7414 1.27917,-2.8792 0,-1.1377 -0.42584,-2.0969 -1.27917,-2.8791 -0.78223,-0.8534 -1.74139,-1.2813 -2.87917,-1.2813 h -17.6 v -10.4521 c 0,-1.1377 -0.42791,-2.099 -1.28125,-2.8812 -0.78223,-0.8533 -1.74138,-1.2792 -2.87917,-1.2792 -1.13778,0 -2.13416,0.4259 -2.98749,1.2792 -0.78223,0.7822 -1.17292,1.7435 -1.17292,2.8812 v 10.4521 H 487.925 c 1.06667,-6.6844 4.16125,-12.2307 9.28125,-16.6396 5.12,-4.47996 11.09209,-6.72079 17.91875,-6.72079 4.90667,0 9.45862,1.2093 13.65417,3.62709 0.64,0.3555 1.31597,0.5333 2.02708,0.5333 1.20889,0 2.20319,-0.3907 2.98542,-1.17289 0.78222,-0.85334 1.17292,-1.84972 1.17292,-2.9875 0,-1.56445 -0.67389,-2.77167 -2.02501,-3.62501 -5.47555,-3.12888 -11.41458,-4.69375 -17.81458,-4.69375 z m 121.06667,0 c -9.88445,0 -18.31028,3.52042 -25.27917,10.56042 -6.96888,6.96893 -10.45416,15.35963 -10.45416,25.17293 0,1.1378 0.39068,2.1321 1.17291,2.9854 0.78222,0.7822 1.74347,1.175 2.88125,1.175 h 44.90625 c 1.13777,0 2.09694,-0.3928 2.87917,-1.175 0.78222,-0.8533 1.175,-1.8476 1.175,-2.9854 0,-1.1378 -0.39278,-2.099 -1.175,-2.8813 -0.78223,-0.7822 -1.7414,-1.1729 -2.87917,-1.1729 h -40.32083 c 0.99555,-6.6844 4.055,-12.2307 9.175,-16.6396 5.12,-4.47996 11.09208,-6.72079 17.91875,-6.72079 7.60888,0 14.08125,2.70389 19.41458,8.10829 5.40445,5.3334 8.10625,11.7685 8.10625,19.3063 0,7.6089 -2.7018,14.1143 -8.10625,19.5187 -5.33333,5.3334 -11.8057,8 -19.41458,8 -1.13778,0 -2.13209,0.428 -2.98542,1.2813 -0.78222,0.7822 -1.175,1.7414 -1.175,2.8792 0,1.1377 0.39278,2.099 1.175,2.8812 0.85333,0.8533 1.84764,1.2792 2.98542,1.2792 9.88444,0 18.31236,-3.4853 25.28125,-10.4542 6.96888,-7.04 10.45208,-15.501 10.45208,-25.3854 0,-9.8133 -3.4832,-18.204 -10.45208,-25.17293 -6.96889,-7.04 -15.39681,-10.56042 -25.28125,-10.56042 z m -241.92083,0.12293 c -9.88445,0 -18.31237,3.48527 -25.28126,10.45416 -0.78222,0.78222 -1.17292,1.74136 -1.17292,2.87916 0,1.1378 0.3907,2.1342 1.17292,2.9875 0.85333,0.7822 1.84973,1.1729 2.98751,1.1729 1.13777,0 2.09694,-0.3907 2.87916,-1.1729 5.40444,-5.40444 11.87681,-8.10624 19.41459,-8.10624 5.04888,0 9.77652,1.31472 14.18541,3.94584 2.06222,1.8489 3.34181,3.1285 3.83958,3.8396 0.99556,1.4222 1.49375,3.2 1.49375,5.3333 0,2.7733 -0.95916,5.1568 -2.87916,7.1479 -1.92,1.92 -4.23111,2.9867 -6.93333,3.2 -0.0711,-0.071 -0.17862,-0.1062 -0.32084,-0.1062 h -0.2125 c -1.20889,0 -2.20528,0.4258 -2.9875,1.2792 -0.78222,0.7822 -1.17289,1.7413 -1.17292,2.8791 v 0.1084 c 0,1.1377 0.3907,2.132 1.17292,2.9854 0.78222,0.7822 1.77861,1.1729 2.9875,1.1729 h 0.2125 c 0.14222,-0.071 0.24972,-0.1063 0.32084,-0.1063 2.70222,0.1423 5.01333,1.2089 6.93333,3.2 1.92,1.9912 2.87916,4.3746 2.87916,7.148 0,3.4844 -1.42222,6.2565 -4.26667,8.3187 -0.28444,0.2133 -0.46222,0.356 -0.53333,0.4271 -3.91111,2.8444 -8.81652,4.2667 -14.71874,4.2667 -7.53778,0 -13.97501,-2.6667 -19.30834,-8 -0.85334,-0.7823 -1.84764,-1.173 -2.98541,-1.173 -1.13778,0 -2.13418,0.3907 -2.98751,1.173 -0.78222,0.7822 -1.17292,1.7414 -1.17292,2.8791 0,1.2089 0.42584,2.2053 1.27917,2.9875 6.9689,6.8978 15.36167,10.3459 25.17501,10.3459 7.32443,0 13.79475,-1.8832 19.41249,-5.6521 l 0.74583,-0.5334 c 5.0489,-3.6977 7.57501,-8.7107 7.57501,-15.0395 0,-5.9023 -2.31111,-10.7395 -6.93333,-14.5084 4.62222,-3.7689 6.93333,-8.5689 6.93333,-14.4 0,-6.5422 -2.70389,-11.69775 -8.10834,-15.46663 l -0.2125,-0.10624 c -1.70665,-1.70667 -4.76402,-3.1289 -9.17291,-4.26667 -3.76889,-0.99556 -7.18181,-1.49375 -10.23958,-1.49375 z"
       id="rect3774"
       inkscape:connector-curvature="0" />
  </g>
  <g
     inkscape:groupmode="layer"
     id="layer5"
     inkscape:label="Feet"
     style="display:inline"
     transform="translate(-22.4,-33.866721)">
    <rect
       style="fill:#ffffff;fill-opacity:1;stroke:none;stroke-width:1.06666672"
       id="rect3062"
       width="179.19623"
       height="124.79682"
       x="300.80386"
       y="1110.4032"
       inkscape:export-xdpi="600"
       inkscape:export-ydpi="600" />
    <rect
       style="display:inline;fill:#ffffff;fill-opacity:1;stroke:none;stroke-width:1.06666672"
       id="rect3062-1"
       width="179.19623"
       height="124.79682"
       x="672.00409"
       y="1110.4082"
       inkscape:export-xdpi="600"
       inkscape:export-ydpi="600" />
  </g>
  <g
     inkscape:groupmode="layer"
     id="layer11"
     inkscape:label="Orange Stripe"
     style="display:inline"
     transform="translate(-22.4,-33.866721)">
    <path
       style="fill:#ffffff;fill-opacity:1;stroke:none;stroke-width:1.06666672px;stroke-linecap:butt;stroke-linejoin:miter;stroke-opacity:1"
       d="m 214.20621,463.58291 0.37712,-34.88393 2.63986,-9.61665 16.02775,-32.0555 8.86241,-16.59344 13.01077,-18.66763 4.33691,-4.14835 12.06796,-9.23953 17.72481,-10.74802 15.65063,-8.29673 41.29504,-24.32447 37.52379,-21.87316 42.04928,-22.43886 10.55946,-5.65685 36.76956,-23.38167 10.93658,-7.54247 36.39243,-16.40488 34.69537,-10.93658 50.346,-5.09117 42.23784,-6.41109 59.77409,-0.94282 34.12969,2.07419 29.03851,3.01698 44.87771,18.29049 38.08948,22.43886 6.78823,4.52548 35.82675,16.782 1.50849,0.94282 7.35391,0.75424 -1.50849,-2.63987 -34.69537,-52.42018 -19.42187,-30.16989 -14.89638,-22.25029 -22.2503,-20.55324 -2.07417,-1.31992 h -12.82221 l -32.99831,-12.25652 -56.37998,-19.421869 -82.02439,2.074181 c 0,0 -49.96887,8.48528 -51.66593,8.48528 -1.69705,0 -49.96887,23.004538 -49.96887,23.004538 v 0 l -70.89924,32.05551 -130.86189,69.01362 -58.07704,61.47115 -26.21009,26.96433 -18.47905,6.22254 -14.3307,28.09571 -5.27973,29.03852 0.18856,67.128 z"
       id="path3967"
       inkscape:connector-curvature="0"
       inkscape:export-xdpi="600"
       inkscape:export-ydpi="600" />
  </g>
  <g
     inkscape:groupmode="layer"
     id="layer1"
     inkscape:label="Eyes"
     style="display:inline"
     transform="translate(-22.4,-33.866721)">
    <ellipse
       ry="10.700883"
       rx="10.689098"
       style="display:inline;fill:#ffffff;fill-opacity:1;stroke:none;stroke-width:1.06666672"
       id="path3101"
       cx="496.07159"
       cy="483.6572"
       inkscape:export-xdpi="600"
       inkscape:export-ydpi="600" />
    <ellipse
       ry="10.700883"
       rx="10.689098"
       style="display:inline;fill:#ffffff;fill-opacity:1;stroke:none;stroke-width:1.06666672"
       id="path3101-0"
       cx="652.8288"
       cy="483.65054"
       inkscape:export-xdpi="600"
       inkscape:export-ydpi="600" />
  </g>
  <g
     inkscape:groupmode="layer"
     id="layer4"
     inkscape:label="Arms"
     style="display:inline"
     transform="translate(-22.4,-33.866721)">
    <rect
       style="fill:#ffffff;fill-opacity:1;stroke:none;stroke-width:1.06666672"
       id="rect3827"
       width="81.058243"
       height="66.1707"
       x="22.404564"
       y="530.00134"
       inkscape:export-xdpi="600"
       inkscape:export-ydpi="600" />
    <rect
       style="fill:#ffffff;fill-opacity:1;stroke:none;stroke-width:1.06666672"
       id="rect3829"
       width="35.187984"
       height="234.66251"
       x="22.4"
       y="595.06665"
       inkscape:export-xdpi="600"
       inkscape:export-ydpi="600" />
    <rect
       style="fill:#ffffff;fill-opacity:1;stroke:none;stroke-width:1.06666672"
       id="rect3831"
       width="166.23782"
       height="69.345291"
       x="55.625732"
       y="760.39319"
       inkscape:export-xdpi="600"
       inkscape:export-ydpi="600" />
    <rect
       style="fill:#ffffff;fill-opacity:1;stroke:none;stroke-width:1.06666672"
       id="rect3833"
       width="38.397503"
       height="82.636391"
       x="183.46501"
       y="683.63025"
       inkscape:export-xdpi="600"
       inkscape:export-ydpi="600" />
    <rect
       style="fill:#ffffff;fill-opacity:1;stroke:none;stroke-width:1.06666672"
       id="rect3835"
       width="72.369247"
       height="27.727177"
       x="218.82597"
       y="683.60822"
       inkscape:export-xdpi="600"
       inkscape:export-ydpi="600" />
    <rect
       style="display:inline;fill:#ffffff;fill-opacity:1;stroke:none;stroke-width:1.06666672"
       id="rect3833-4"
       width="38.397503"
       height="152.79472"
       x="183.46498"
       y="829.47766"
       inkscape:export-xdpi="600"
       inkscape:export-ydpi="600" />
    <rect
       style="display:inline;fill:#ffffff;fill-opacity:1;stroke:none;stroke-width:1.06666672"
       id="rect3835-0"
       width="77.516136"
       height="27.727177"
       x="213.68333"
       y="954.55457"
       inkscape:export-xdpi="600"
       inkscape:export-ydpi="600" />
    <rect
       style="display:inline;fill:#ffffff;fill-opacity:1;stroke:none;stroke-width:1.06666672"
       id="rect3827-8"
       width="81.058243"
       height="66.1707"
       x="-1127.5833"
       y="530.00433"
       transform="scale(-1,1)"
       inkscape:export-xdpi="600"
       inkscape:export-ydpi="600" />
    <rect
       style="display:inline;fill:#ffffff;fill-opacity:1;stroke:none;stroke-width:1.06666672"
       id="rect3829-2"
       width="35.187984"
       height="234.66251"
       x="-1127.5878"
       y="595.06958"
       transform="scale(-1,1)"
       inkscape:export-xdpi="600"
       inkscape:export-ydpi="600" />
    <rect
       style="display:inline;fill:#ffffff;fill-opacity:1;stroke:none;stroke-width:1.06666672"
       id="rect3831-4"
       width="166.23782"
       height="69.345291"
       x="-1094.3619"
       y="760.39618"
       transform="scale(-1,1)"
       inkscape:export-xdpi="600"
       inkscape:export-ydpi="600" />
    <rect
       style="display:inline;fill:#ffffff;fill-opacity:1;stroke:none;stroke-width:1.06666672"
       id="rect3833-5"
       width="38.397503"
       height="82.636391"
       x="-966.52271"
       y="683.63324"
       transform="scale(-1,1)"
       inkscape:export-xdpi="600"
       inkscape:export-ydpi="600" />
    <rect
       style="display:inline;fill:#ffffff;fill-opacity:1;stroke:none;stroke-width:1.06666672"
       id="rect3835-5"
       width="72.369247"
       height="27.727177"
       x="-931.1618"
       y="683.61121"
       transform="scale(-1,1)"
       inkscape:export-xdpi="600"
       inkscape:export-ydpi="600" />
    <rect
       style="display:inline;fill:#ffffff;fill-opacity:1;stroke:none;stroke-width:1.06666672"
       id="rect3833-4-1"
       width="38.397503"
       height="152.79472"
       x="-966.52277"
       y="829.48065"
       transform="scale(-1,1)"
       inkscape:export-xdpi="600"
       inkscape:export-ydpi="600" />
    <rect
       style="display:inline;fill:#ffffff;fill-opacity:1;stroke:none;stroke-width:1.06666672"
       id="rect3835-0-7"
       width="77.516136"
       height="27.727177"
       x="-936.30444"
       y="954.55756"
       transform="scale(-1,1)"
       inkscape:export-xdpi="600"
       inkscape:export-ydpi="600" />
  </g>
  <g
     inkscape:groupmode="layer"
     id="layer13"
     inkscape:label="Top Blue"
     style="display:inline"
     transform="translate(-22.4,-33.866721)">
    <path
       style="fill:#ffffff;fill-opacity:1;stroke:none;stroke-width:1.06666672px;stroke-linecap:butt;stroke-linejoin:miter;stroke-opacity:1"
       d="m 267.33332,240.53338 19.73334,-18.26667 15.86666,-13.46667 21.73334,-18 29.06666,-14.26666 41.73333,-22.39999 56.93333,-30.66667 42,-20.8 22.8,-14.133335 13.06667,-7.866666 49.73333,-13.866667 15.46667,-3.6 26.39998,-5.066665 75.6,-1.733334 -21.46666,-5.733333 -23.2,-5.466667 -30.26667,-4.133333 -39.06665,-5.199999 -49.2,-2 -23.33334,3.2 -24.8,5.333332 -19.86666,7.6 -18.4,7.2 -37.2,22.266666 -7.6,6.4 -18.13334,18.533331 -28.53332,31.33334 -46.13333,51.06665 -17.86667,20.13334 -13.6,17.06666 z"
       id="path3973"
       inkscape:connector-curvature="0"
       inkscape:export-xdpi="600"
       inkscape:export-ydpi="600" />
    <rect
       style="display:inline;opacity:1;fill:#ffffff;fill-opacity:1;stroke:none;stroke-width:5.33333349;stroke-miterlimit:4;stroke-dasharray:none;stroke-opacity:1"
       id="rect3369"
       width="27.766666"
       height="82"
       x="855.16669"
       y="438.79999" />
  </g>
  <g
     inkscape:groupmode="layer"
     id="layer7"
     inkscape:label="Top Blue 2"
     style="display:inline" />
</svg>
