<?xml version="1.0" encoding="UTF-8" standalone="no"?>
<svg
   width="780.4812"
   height="400"
   version="1.1"
   id="svg832"
   sodipodi:docname="AEP.svg"
   inkscape:version="1.3.2 (091e20e, 2023-11-25)"
   xmlns:inkscape="http://www.inkscape.org/namespaces/inkscape"
   xmlns:sodipodi="http://sodipodi.sourceforge.net/DTD/sodipodi-0.dtd"
   xmlns="http://www.w3.org/2000/svg"
   xmlns:svg="http://www.w3.org/2000/svg">
  <defs
     id="defs836" />
  <sodipodi:namedview
     id="namedview834"
     pagecolor="#ffffff"
     bordercolor="#666666"
     borderopacity="1.0"
     inkscape:pageshadow="2"
     inkscape:pageopacity="0.0"
     inkscape:pagecheckerboard="0"
     showgrid="false"
     inkscape:zoom="0.54474116"
     inkscape:cx="150.53021"
     inkscape:cy="386.42206"
     inkscape:window-width="1312"
     inkscape:window-height="770"
     inkscape:window-x="0"
     inkscape:window-y="25"
     inkscape:window-maximized="0"
     inkscape:current-layer="svg832"
     inkscape:showpageshadow="2"
     inkscape:deskcolor="#d1d1d1" />
  <g
     id="g830"
     style="fill:#ffffff;fill-opacity:1"
     transform="matrix(1.3554727,0,0,1.3554727,-0.27109454,0)">
    <path
       d="m 140.2,106.1 h -22.3 l 28,-58.1 h 23.3 l 12.9,58.1 h -22.3 l -1,-7.2 h -15.9 z m 16.8,-21 -1.1,-10.2 c -0.3,-2.5 -0.3,-5 -0.4,-7.5 h -0.8 l -6.2,17.7 z"
       id="path824"
       style="fill:#ffffff;fill-opacity:1" />
    <path
       d="M 198.3,48 H 220 l 3.9,30.5 h 0.5 c 0.7,-2.6 1.5,-5.2 2.5,-7.7 L 236.5,48 H 258 l 1.7,58.1 h -20.5 l 1.4,-31.8 h -0.4 c -0.6,2 -1.3,3.9 -2.2,5.8 l -11.9,26 H 214 l -4.2,-24.6 c -0.3,-2.4 -0.4,-4.8 -0.3,-7.2 h -0.7 c -0.5,2.3 -0.9,4.7 -1.5,7 l -5.8,24.8 h -20.4 z m 74.8,0 h 39 L 310,63.9 h -17.8 l -0.7,5.6 h 16.2 l -2,15.1 h -16.3 l -0.8,5.7 H 307 l -2.1,15.9 h -39.7 z m 45.8,0 h 25.5 c 13.1,0 23.4,5.5 21.5,20.2 -1.2,8.8 -5.1,12.5 -13.3,15.1 l -0.1,0.5 c 1.2,0.9 2.3,2.1 3.1,3.5 l 10.1,18.9 h -24.3 l -6.7,-18.6 h -0.4 l -2.5,18.6 h -20.6 z m 17.2,25.8 h 1.5 c 3.5,0 7,-0.5 7.6,-4.9 0.6,-4.5 -2.5,-5 -6.1,-5 h -1.6 z M 377.3,48 h 21.1 l -7.8,58.1 h -21.1 z m 68,23.6 c -3,-3.1 -6.8,-5.9 -11.6,-5.9 -6.5,0.1 -12,4.9 -13,11.3 -0.9,6.4 3.9,11.3 10.3,11.3 4.8,0 9,-2.1 12.8,-5.4 l -3.5,21.7 c -3.6,1.6 -11.6,2.3 -15.3,2.3 C 408.4,106.9 397.2,94 399.5,77.5 401.8,60.6 416.9,47 434,47 c 4.7,0 9.4,0.8 13.8,2.4 z m 19.2,34.5 h -22.3 l 28,-58.1 h 23.3 l 12.9,58.1 h -22.3 l -1,-7.2 h -15.9 z m 16.8,-21 -1.1,-10.2 c -0.3,-2.5 -0.3,-5 -0.4,-7.5 H 479 l -6.2,17.7 z M 517.7,48 H 538 l 14.6,32.2 h 0.6 c -0.4,-4.9 -0.3,-9.9 0.2,-14.8 L 555.7,48 H 576 l -7.8,58.1 H 548 L 533.5,75.6 h -0.6 c 0.2,3.9 0.2,7.8 -0.3,11.6 l -2.6,18.9 h -20.1 z m -399.2,70.5 h 39.1 l -2.1,15.9 h -17.8 l -0.8,5.5 h 16.3 l -2,15.1 h -16.3 l -0.8,5.7 h 18.4 l -2.1,15.9 h -39.7 z m 45.4,0 H 185 l -5.3,39.4 h 17.7 l -2.5,18.6 h -38.8 z m 44.4,0 h 39.1 l -2.1,15.9 h -17.8 l -0.8,5.5 H 243 l -2,15.1 h -16.3 l -0.8,5.7 h 18.4 l -2.1,15.9 h -39.7 z m 84.4,23.6 c -3,-3.2 -6.8,-5.9 -11.6,-5.9 -6.5,0.1 -12,4.9 -13,11.3 -0.9,6.4 4,11.3 10.3,11.3 4.9,0 9,-2.1 12.8,-5.4 l -3.5,21.7 c -3.6,1.6 -11.6,2.3 -15.3,2.3 -16.6,0 -27.8,-12.9 -25.5,-29.4 2.3,-16.9 17.4,-30.5 34.5,-30.5 4.7,0 9.4,0.8 13.9,2.4 z m 7.4,-23.6 h 44.4 l -2.5,18.9 -11.6,-0.5 -5.4,39.7 h -21.1 l 5.4,-39.7 -11.7,0.5 z m 49,0 h 25.5 c 13.1,0 23.4,5.6 21.5,20.2 -1.2,8.8 -5.1,12.5 -13.3,15.1 l -0.1,0.5 c 1.2,0.9 2.3,2.1 3.1,3.5 l 10.1,18.9 h -24.3 l -6.7,-18.6 h -0.4 l -2.5,18.6 h -20.6 z m 17.2,25.7 h 1.5 c 3.5,0 7,-0.5 7.6,-4.9 0.6,-4.4 -2.5,-5 -6.1,-5 h -1.6 z m 41.1,-25.7 h 21.1 l -7.8,58.1 h -21.1 z m 68.1,23.6 c -3,-3.2 -6.8,-5.9 -11.6,-5.9 -6.5,0.1 -12,4.9 -13,11.3 -0.8,6.4 4,11.3 10.3,11.3 4.9,0 9,-2.1 12.8,-5.4 l -3.5,21.7 c -3.6,1.6 -11.5,2.3 -15.3,2.3 -16.6,0 -27.8,-12.9 -25.5,-29.4 2.3,-16.9 17.4,-30.5 34.5,-30.5 4.7,0 9.4,0.8 13.8,2.4 z M 109.1,189 h 26.7 c 13.6,0 22.6,6.9 20.7,21.3 -1.6,11.9 -10,19.2 -21.8,19.2 h -10.8 l -2.4,17.5 h -20.3 z m 16.8,26 h 2.1 c 3.7,0 7.8,-0.6 8.4,-5.3 0.6,-4.5 -3.7,-4.8 -7.1,-4.8 h -2 z m 95.9,3.2 c -2.5,18.6 -18.4,29.8 -36.1,29.8 -17.7,0 -30.6,-11.1 -28.1,-29.8 2.5,-18.2 18.5,-30.1 36.2,-30.1 17.7,0 30.5,11.9 28,30.1 z m -43,0.3 c -0.9,6.6 3,11.2 9.4,11.2 6.4,0 11.5,-4.5 12.4,-11.2 0.8,-6.2 -2.6,-11.3 -9.3,-11.3 -6.7,0 -11.7,5.2 -12.5,11.3 z m 64.6,-29.5 2.7,34.6 h 0.5 c 0.8,-3.6 1.9,-7.2 3.2,-10.7 l 9.3,-23.9 h 16.2 l 3.3,34.6 h 0.5 c 0.7,-3.5 1.7,-6.9 2.8,-10.2 L 291,189 h 22 l -28.3,58.1 h -18.4 l -2.4,-31.6 h -0.7 c -0.5,3 -1.3,5.9 -2.3,8.8 L 252,247.1 H 234.1 L 221.6,189 Z m 73,0 h 39 l -2.1,15.9 h -17.8 l -0.8,5.5 H 351 l -2,15.1 h -16.3 l -0.8,5.7 h 18.4 l -2.1,15.9 h -39.7 z m 45.9,0 h 25.5 c 13.1,0 23.4,5.5 21.5,20.2 -1.2,8.8 -5.1,12.5 -13.3,15.1 l -0.1,0.5 c 1.2,0.9 2.3,2.1 3.1,3.5 l 10.1,18.9 h -24.3 l -6.7,-18.6 h -0.4 l -2.5,18.6 h -20.6 z m 17.2,25.8 h 1.5 c 3.5,0 7,-0.5 7.6,-4.9 0.6,-4.4 -2.5,-5 -6.1,-5 h -1.6 z"
       id="path826"
       style="fill:#ffffff;fill-opacity:1" />
    <path
       d="m 293.1,262.3 -2.4,17.8 H 17.4 L 53.1,15.1 H 326.4 L 324,32.8 h 15.1 L 343.5,0 H 39.9 L 0.2,295.1 h 303.7 l 4.4,-32.8 z"
       id="path828"
       style="fill:#ffffff;fill-opacity:1" />
  </g>
</svg>
