<?xml version="1.0" encoding="UTF-8" standalone="no"?>
<svg
   width="1176.4688"
   height="400"
   version="1.1"
   id="svg3"
   sodipodi:docname="dow.svg"
   inkscape:version="1.3.2 (091e20e, 2023-11-25)"
   xmlns:inkscape="http://www.inkscape.org/namespaces/inkscape"
   xmlns:sodipodi="http://sodipodi.sourceforge.net/DTD/sodipodi-0.dtd"
   xmlns="http://www.w3.org/2000/svg"
   xmlns:svg="http://www.w3.org/2000/svg">
  <defs
     id="defs3" />
  <sodipodi:namedview
     id="namedview3"
     pagecolor="#ffffff"
     bordercolor="#666666"
     borderopacity="1.0"
     inkscape:showpageshadow="2"
     inkscape:pageopacity="0.0"
     inkscape:pagecheckerboard="0"
     inkscape:deskcolor="#d1d1d1"
     inkscape:zoom="0.94221448"
     inkscape:cx="189.97798"
     inkscape:cy="-65.802427"
     inkscape:window-width="1312"
     inkscape:window-height="449"
     inkscape:window-x="0"
     inkscape:window-y="25"
     inkscape:window-maximized="0"
     inkscape:current-layer="svg3" />
  <g
     id="g1"
     style="fill:#ffffff"
     transform="matrix(2,0,0,2,-10,-10)">
    <path
       d="m 457.42353,193.64706 q -3.29412,0 -6.05294,-1.11177 -2.75883,-1.11176 -4.81765,-3.12941 -2.01765,-2.05882 -3.12941,-4.81764 -1.11177,-2.75883 -1.11177,-6.05295 0,-3.29411 1.11177,-6.05294 1.11176,-2.75882 3.12941,-4.77647 2.05882,-2.05882 4.81765,-3.17059 2.75882,-1.11176 6.05294,-1.11176 3.12941,0 5.84706,1.11176 2.75882,1.11177 4.81764,3.17059 2.1,2.01765 3.25294,4.77647 1.19412,2.75883 1.19412,6.05294 0,3.29412 -1.11176,6.05295 -1.11177,2.75882 -3.17059,4.81764 -2.01765,2.01765 -4.77647,3.12941 -2.75883,1.11177 -6.05294,1.11177 z m 0,-2.18235 q 2.63529,0 4.94117,-0.94706 2.30589,-0.94706 4.07647,-2.67647 1.77059,-1.77059 2.75883,-4.11765 0.98823,-2.34706 0.98823,-5.18824 0,-2.67647 -0.94706,-5.02353 -0.94706,-2.34705 -2.67647,-4.11764 -1.68823,-1.77059 -4.03529,-2.75883 -2.30588,-1.02941 -5.10588,-1.02941 -3.70589,0 -6.62942,1.68824 -2.88235,1.64706 -4.52941,4.57059 -1.64706,2.88235 -1.64706,6.67058 0,2.67647 0.94706,5.02353 0.94706,2.34706 2.6353,4.11765 1.72941,1.77059 4.07647,2.8 2.34706,0.98824 5.14706,0.98824 z m -5.64118,-3.91177 v -17.99412 h 5.27059 q 3.37647,0 4.94117,1.31765 1.56471,1.31765 1.56471,3.99412 0,1.93529 -0.98823,3.08823 -0.98824,1.11177 -2.22353,1.60589 l 4.77647,7.98823 h -3.54118 l -4.11765,-7.12353 h -2.55294 v 7.12353 z m 5.18824,-9.67647 q 1.60588,0 2.51176,-0.82353 0.90588,-0.82353 0.90588,-2.1 0,-1.44118 -0.82353,-2.1 -0.82353,-0.65882 -2.63529,-0.65882 h -2.01765 v 5.68235 z"
       aria-label="®"
       style="font-size:7px;fill:#ffffff;stroke-width:5.88235"
       id="path1" />
    <path
       id="path2"
       style="fill:#ffffff;stroke-width:5.88235"
       d="M 299.11719,5 5,105 299.11719,205 593.23438,105 Z M 148.47656,64.353516 h 60.51758 c 15.34705,0 33.19336,19.076268 33.19336,41.058594 0,23.77645 -20.16397,39.80469 -33.19336,39.80469 h -60.51758 v -4.375 c 4.64118,-0.0471 8.40039,-1.28298 8.40039,-2.8418 h 0.22852 V 71.289062 c 0.0176,-0.0706 0.0879,-0.107318 0.0879,-0.136718 0,-0.07648 -0.0703,-0.116941 -0.0879,-0.181641 v -0.111328 h -0.0586 c -0.45294,-1.435289 -4.01768,-2.582031 -8.49415,-2.582031 h -0.0762 z m 149.28906,11.328125 c 25.78234,0 42.69336,16.271248 42.69336,36.335939 0,20.64115 -14.55407,34.24072 -37.21875,36.11719 h -10.94531 c -22.66468,-1.87647 -37.23633,-15.47604 -37.23633,-36.11719 0,-20.005871 16.77178,-36.335939 42.70703,-36.335939 z m 170.89844,4.171875 v 5.023437 c 0,0 -2.64611,-0.01215 -3.24023,0.09961 -1.8,0.37647 -3.00115,1.246208 -3.70703,2.216797 -0.0471,0.05294 -23.06886,51.5612 -23.07032,51.56445 -0.0764,2.09262 -0.0328,3.125 4.80664,3.125 v 4.5 l -31.85937,0.24024 v -4.59375 c 3.08824,0 3.94141,-0.87705 3.94141,-3.35352 0,-0.98824 -11.10547,-29.36328 -11.10547,-29.36328 l -12.99414,28.31641 c -0.30588,0.3353 -0.37696,0.70541 -0.37696,1.11718 0,2.60588 1.35889,3.28321 4.98243,3.28321 h 0.0176 v 4.59375 l -34.36523,-0.12891 v -4.63476 c 2.81176,-0.0706 5.18359,-0.5479 5.18359,-3.28907 0,-0.55295 -10e-4,-1.04697 -0.18945,-1.52343 L 347.5293,87.505859 c 0,-0.0235 0.0646,-0.06439 0.041,-0.08789 -0.84706,-1.552939 -0.52352,-2.683594 -5.5,-2.683594 v -4.728516 h 31.44727 v 4.728516 c -2.44116,0 -4.0293,0.207124 -4.0293,2.683594 h -0.1582 l 10.72265,31.628911 13.19336,-36.95313 h 11.1836 l 10.65234,-0.05859 14.25977,38.52929 12.58789,-33.005852 c 0,-1.441179 -0.52357,-2.61692 -4.49414,-2.6875 -0.11766,-0.0118 -0.88808,-0.01172 -1.04688,-0.01172 v -4.876953 z m -293.03515,1.564453 v 46.017581 h 31.66601 c 7.85881,0 17.75798,-7.57704 17.73438,-22.35938 -0.0235,-15.347042 -11.52262,-23.658201 -17.73438,-23.658201 z m 122.20117,11.210937 c -14.56471,0 -24.04102,9.088794 -24.04102,20.359374 0,11.24704 9.48219,20.35938 24.04102,20.35938 14.57644,0 24.03515,-9.11234 24.03515,-20.35938 0,-11.27058 -9.45871,-20.359374 -24.03515,-20.359374 z" />
  </g>
</svg>
