<?xml version="1.0" encoding="UTF-8" standalone="no"?>
<!-- Created with Inkscape (http://www.inkscape.org/) -->

<svg
   version="1.1"
   id="svg1"
   width="380.65332"
   height="384"
   viewBox="0 0 380.65332 384"
   sodipodi:docname="GHF.svg"
   inkscape:version="1.3.2 (091e20e, 2023-11-25)"
   xmlns:inkscape="http://www.inkscape.org/namespaces/inkscape"
   xmlns:sodipodi="http://sodipodi.sourceforge.net/DTD/sodipodi-0.dtd"
   xmlns="http://www.w3.org/2000/svg"
   xmlns:svg="http://www.w3.org/2000/svg">
  <defs
     id="defs1" />
  <sodipodi:namedview
     id="namedview1"
     pagecolor="#ffffff"
     bordercolor="#000000"
     borderopacity="0.25"
     inkscape:showpageshadow="2"
     inkscape:pageopacity="0.0"
     inkscape:pagecheckerboard="0"
     inkscape:deskcolor="#d1d1d1"
     inkscape:zoom="0.61458333"
     inkscape:cx="189.55932"
     inkscape:cy="192"
     inkscape:window-width="1440"
     inkscape:window-height="767"
     inkscape:window-x="0"
     inkscape:window-y="30"
     inkscape:window-maximized="1"
     inkscape:current-layer="group-R5">
    <inkscape:page
       x="0"
       y="0"
       inkscape:label="1"
       id="page1"
       width="380.65332"
       height="384"
       margin="0"
       bleed="0"
       inkscape:export-filename="GHF.png"
       inkscape:export-xdpi="126.09899"
       inkscape:export-ydpi="126.09899" />
  </sodipodi:namedview>
  <g
     id="g1"
     inkscape:groupmode="layer"
     inkscape:label="1">
    <g
       id="group-R5">
      <path
         id="path2"
         d="m 2046,2421.98 -5.2,59.67 -33.28,-59.67 z"
         style="fill:#ffffff;fill-opacity:1;fill-rule:nonzero;stroke:none"
         transform="matrix(0.13333333,0,0,-0.13333333,0,384)" />
      <path
         id="path3"
         d="m 1851.94,2481.65 -33.23,-59.67 h 38.44 z"
         style="fill:#ffffff;fill-opacity:1;fill-rule:nonzero;stroke:none"
         transform="matrix(0.13333333,0,0,-0.13333333,0,384)" />
      <path
         id="path4"
         d="m 1517.53,489.988 c -234.27,0 -438.65,7.063 -609.065,20.973 C 806.258,647.969 725.742,800.762 670.684,963.352 L 1096.52,962.93 889.691,604.711 H 1250.06 L 2127.28,2124.15 H 1766.9 l -490.28,-849.26 -678.249,0.63 c -8.629,67.28 -13.066,135.53 -13.066,204.38 v 739.69 H 2447.48 v -176.88 l -443.09,-767.53 -264.68,0.77 -180.4,-311.962 264.98,-0.758 -207,-358.519 h 360.33 l 468.59,811.629 c -13.15,-331.7 -128.89,-646.789 -322.14,-905.719 -144.12,-11.633 -341.39,-20.633 -606.54,-20.633 z m 539.26,-132.316 c 15.47,-8.043 24.48,-20.852 27.36,-37.852 0.84,-5.031 1.14,-10.109 1.73,-15.179 0,0 2.03,-16.411 1.23,-24.481 -1.78,-18.23 -12.18,-31.301 -28.42,-40.051 -12.39,-6.64 -25.88,-9.39 -39.88,-10.148 -12.26,-0.68 -24.27,0.551 -35.65,5.238 -18.22,7.531 -29.34,20.813 -32.09,39.973 -0.89,6 -1.65,12.047 -2.12,18.098 -0.46,5.699 -0.72,11.449 -0.59,17.16 0,0.3 0,0.601 0.04,0.851 0.6,18.688 10.07,32.77 26.18,42.457 7.99,4.774 16.45,7.692 25.29,9.434 5.37,1.047 10.87,1.648 16.45,1.976 1.43,0.09 2.87,0.172 4.27,0.172 12.6,0.262 24.82,-1.73 36.2,-7.648 z m 129.48,-26.902 c 11.04,-9.508 22.12,-18.981 33.24,-28.411 0.29,-0.257 0.63,-0.429 1.39,-0.929 -3.89,28.5 -7.73,56.492 -11.58,84.609 9.55,1.313 18.86,2.633 28.29,3.981 6.17,-43.301 12.35,-86.61 18.48,-129.911 -0.55,-0.168 -1.14,-0.339 -1.78,-0.461 -6.72,-0.929 -13.45,-1.949 -20.17,-2.75 -1.01,-0.128 -2.37,0.211 -3.13,0.84 -21.52,17.981 -42.79,36.16 -63.81,54.473 -7.78,6.719 -15.48,13.449 -23.68,20.641 3.59,-29.102 7.06,-57.602 10.57,-86.274 -9.94,-1.226 -19.58,-2.367 -29.31,-3.508 -5.07,43.508 -10.14,86.989 -15.22,130.5 2.24,0.25 4.44,0.551 6.64,0.801 5.24,0.59 10.45,1.309 15.73,1.777 1.19,0.133 2.79,-0.296 3.68,-1.058 16.83,-14.801 33.66,-29.602 50.66,-44.32 z M 1887.93,220.832 c -0.38,5.488 -0.76,11.027 -1.18,16.527 -0.38,5.5 -0.76,11 -1.14,16.539 -2.33,32.641 -4.61,65.293 -6.94,97.934 10.49,0.719 20.89,1.477 31.55,2.328 1.86,-24.441 3.76,-48.93 5.62,-73.371 0.47,-5.617 0.89,-11.207 1.31,-16.828 1.06,-13.57 2.07,-27.191 3.13,-40.77 -10.82,-0.8 -21.48,-1.601 -32.35,-2.359 z m -148.27,-8.422 c -0.76,-0.078 -34.05,-1.512 -34.05,-1.512 -3.8,7.821 -9.51,19.114 -13.32,26.981 v 0 c -22.66,-0.758 -49.78,-1.309 -72.48,-1.688 v 0 c -3.22,-7.832 -8.41,-20.062 -11.62,-27.882 v 0 c -9.47,-0.039 -21.56,-0.25 -30.99,-0.34 -0.84,-0.039 -1.65,-0.039 -2.75,-0.039 0.43,0.968 0.64,1.652 0.98,2.281 20.42,42.371 41.52,87.539 60.88,130.418 v 0 c 9.64,0.09 24.33,0.422 33.97,0.801 0,0 69,-128.219 69.38,-129.02 z m 74.06,3.68 c -11.17,-0.629 -21.78,-1.231 -32.78,-1.781 -1.77,35.48 -3.55,70.921 -5.32,106.613 -15.86,-0.762 -31.38,-1.481 -47.03,-2.113 -0.34,8.293 -0.67,16.363 -1.01,24.57 41.78,1.652 83.56,3.891 125.25,6.68 0.55,-8.079 1.06,-16.071 1.61,-24.36 -15.44,-1.019 -30.91,-1.949 -46.77,-2.828 2.03,-35.742 4.02,-71.129 6.05,-106.781 z m -386.55,-7.61 c 0.76,43.809 1.52,87.622 2.28,131.469 0.89,-0.039 1.69,-0.039 2.49,-0.039 21.57,-0.379 43.18,-0.551 64.75,-0.719 14.92,-0.089 29.3,-2.543 42.41,-10.191 17,-9.98 25.46,-24.949 26.26,-44.359 0.26,-6.559 0.17,-13.153 0.21,-19.711 0.17,-24.782 -12.26,-42.84 -36.03,-51.879 -9.38,-3.563 -19.15,-5.289 -29.17,-5.332 -23.9,-0.09 -47.83,0.25 -71.72,0.672 -0.43,0 -0.85,0.05 -1.48,0.089 z m 89.22,-195.1597 c -61.74,29.0899 -121.02,61.8281 -177.77,97.8987 56.62,-1.27 116.24,-1.989 178.91,-1.989 61.79,0 120.69,0.68 176.64,1.942 C 1637.42,75.1016 1578.09,42.3711 1516.39,13.3203 Z M 1256.41,214.359 c 2.15,43.723 4.35,87.45 6.51,131.172 l 25.36,-1.191 5.26,-7.141 c 21.44,-27.097 43.64,-53.75 66.05,-80.34 0.17,-0.168 0.38,-0.3 0.89,-0.718 0.84,28.5 1.73,56.75 2.58,85.16 9.68,-0.289 19.07,-0.551 28.63,-0.762 -1.06,-43.769 -2.16,-87.578 -3.22,-131.34 -7.78,0.211 -16.53,0.383 -24.06,0.672 l -1.14,1.438 c -14.68,17.171 -29.18,34.472 -43.56,51.8 -9.55,11.551 -19.03,23.09 -28.5,34.68 -0.38,0.512 -0.8,0.973 -1.56,1.859 -1.32,-29.179 -2.58,-57.847 -3.85,-86.687 -9.9,0.418 -19.54,0.891 -29.39,1.398 z m -109.87,4.731 c -12,1.359 -23.51,4.48 -33.95,10.621 -15.18,8.879 -23.98,21.769 -25.54,39.07 -0.22,2.199 -0.3,4.438 -0.13,6.641 0.38,4.609 0.76,9.258 1.14,13.867 0.47,5.711 0.93,11.422 1.44,17.133 1.31,16.187 2.66,32.348 4.02,48.539 0.04,0.469 0.12,0.98 0.21,1.609 10.57,-0.851 21.14,-1.691 31.97,-2.539 -0.09,-0.972 -0.13,-1.902 -0.21,-2.871 -1.87,-24.32 -3.77,-48.68 -5.59,-73.031 -0.08,-1.059 -0.17,-2.078 -0.25,-3.129 -0.04,-0.469 -0.04,-0.93 -0.04,-1.359 -0.04,-0.59 -0.04,-1.141 -0.04,-1.731 0,-1.73 0.12,-3.469 0.46,-5.121 0,-0.078 0.04,-0.168 0.04,-0.25 0.13,-0.758 0.34,-1.48 0.55,-2.199 0.26,-0.93 0.59,-1.781 0.93,-2.621 0.34,-0.848 0.72,-1.649 1.19,-2.41 0.42,-0.809 0.93,-1.571 1.48,-2.329 0.46,-0.671 0.97,-1.308 1.56,-1.992 0.68,-0.758 1.44,-1.519 2.24,-2.277 1.02,-0.891 2.03,-1.731 3.13,-2.449 0.13,-0.09 0.21,-0.172 0.34,-0.262 0.85,-0.551 1.69,-1.051 2.58,-1.52 0.17,-0.082 0.34,-0.171 0.51,-0.25 0.42,-0.261 0.84,-0.468 1.27,-0.64 0.72,-0.328 1.43,-0.668 2.19,-0.93 0.77,-0.289 1.53,-0.59 2.29,-0.801 1.06,-0.339 2.11,-0.629 3.21,-0.89 2.58,-0.59 5.12,-1.047 7.66,-1.348 0.97,-0.133 1.94,-0.25 2.87,-0.301 0.21,-0.039 0.47,-0.082 0.64,-0.039 1.69,-0.133 3.34,-0.172 5.03,-0.133 0.04,-0.039 0.08,0 0.08,0 4.15,0.051 8.29,0.551 12.39,1.614 12.48,3.258 19.12,11.929 20.01,26.047 1.64,25.082 3.17,50.152 4.77,75.23 0.05,0.973 0.09,1.949 0.17,3.043 10.79,-0.672 21.1,-1.262 31.68,-1.863 -0.05,-0.93 -0.09,-1.731 -0.13,-2.528 -1.4,-24.742 -2.75,-49.519 -4.23,-74.3 -1.39,-24.153 -15.43,-41.743 -39.03,-48.68 -0.51,-0.16 -1.02,-0.332 -1.52,-0.461 -5.12,-1.398 -10.24,-2.238 -15.4,-2.668 -7.27,-0.59 -14.58,-0.332 -21.99,0.508 z m -84.95,89.781 c -0.17,-5.121 -0.85,-10.152 -1.31,-15.223 0,0 -0.97,-14.847 -2.84,-21.906 -4.99,-18.691 -17.8,-30.32 -36.45,-36.031 -13.53,-4.141 -27.4,-4.141 -41.314,-2.109 -12.219,1.82 -23.723,5.41 -33.914,12.257 -16.278,10.95 -24.528,26.129 -23.469,45.332 0.637,11.758 1.734,23.68 4.27,35.141 4.148,18.738 16.367,31 34.507,37.387 14.125,4.992 28.543,4.941 43.13,2.871 2.8,-0.379 5.5,-0.891 8.21,-1.481 10.82,-2.41 20.89,-6.64 29.77,-13.777 12.01,-9.562 18.35,-21.871 19.28,-36.5 0.17,-1.941 0.17,-3.934 0.13,-5.961 z M 906.859,351.41 c -26.769,3.211 -53.578,6.641 -80.644,10.32 -1.52,-11.21 -2.957,-21.91 -4.438,-32.898 23.004,-3.133 45.879,-6.094 68.883,-8.883 -0.887,-7.359 -1.73,-14.418 -2.664,-21.777 -23.004,2.789 -45.965,5.75 -69.223,8.918 -2.367,-17.34 -4.652,-34.328 -7.019,-51.551 -11.078,1.481 -21.82,3.012 -32.774,4.57 6.172,43.262 12.348,86.563 18.481,129.821 37.34,-5.282 74.68,-10.192 112.273,-14.711 -0.929,-7.778 -1.902,-15.649 -2.875,-23.809 z m 977.771,2190.2 28.93,-189.02 h -50.03 l -2.92,32.3 h -62.71 l -17.93,-32.3 h -52.35 l 115.66,189.02 z m 217.74,-189.02 h -50.02 l -2.88,32.3 h -62.75 l -17.93,-32.3 h -52.36 l 115.7,189.02 h 41.32 z m 165.98,49.14 c -10.99,-44.96 -47.4,-51.76 -86.43,-51.76 -27.2,0 -52.65,4.44 -68.55,7.86 l 14.76,37.34 c 16.19,-3.68 39.03,-7.61 56.37,-7.61 19.36,0 31.54,4.99 34.42,18.14 8.37,37.05 -83.01,17.59 -67.07,88.59 10.95,44.15 55.48,50.2 83.56,50.2 32.65,0 46.26,-3.93 59.54,-7.91 l -16.45,-36.24 c -11.88,3.38 -26.05,6.81 -42.79,6.81 -18.82,0 -31.26,-4.74 -34.13,-17.08 -8.12,-34.72 83.26,-15.78 66.77,-88.34 z m -584.41,65.46 17.38,74.42 h 48.29 l -43.98,-189.02 h -48.29 l 17.93,77.3 h -65.04 l -17.93,-77.3 h -48.04 l 43.98,189.02 h 48 l -17.34,-74.42 z m -539.59,74.42 h 47.44 l 47.11,-116.46 27.19,116.46 h 47.7 l -43.93,-189.02 h -47.7 l -47.75,114.09 -26.6,-114.09 h -47.4 z M 838.988,2387.27 h 4.903 c 5.793,0 11.882,0.29 18.82,1.35 l 13.871,59.37 h 47.996 l -21.398,-90.96 c -20.508,-4.99 -41.907,-7.06 -65.629,-7.06 h -4.653 c -61.277,0 -86.437,17.84 -72.863,73.32 l 10.996,47.87 c 12.731,55.19 44.824,73.33 102.082,73.33 h 4.907 c 29.515,0 45.121,-2.37 67.406,-6.3 l -17.93,-36.54 c -12.73,2.62 -29.519,5.5 -48.039,5.5 h -4.906 c -41.063,0 -47.699,-11.04 -53.789,-35.99 l -10.996,-47.87 c -6.047,-24.95 -4.907,-36.02 29.222,-36.02 z m 238.292,80.98 -8.67,-37.05 h -65.38 l -9.808,-41.57 h 82.668 l -8.37,-37.04 H 937.012 l 43.976,189.02 H 1111.7 l -8.71,-37.08 h -82.67 l -8.42,-36.28 z m 373.31,0 -8.67,-37.05 h -65.37 l -9.81,-41.57 h 82.71 l -8.41,-37.04 h -130.72 l 43.98,189.02 h 130.71 l -8.66,-37.08 h -82.72 l -8.37,-36.28 z M 2198.11,592.488 c 164.16,253.012 254.23,545.092 261.55,847.152 l 395.22,684.51 h -360.37 l -34.34,-59.5 v 154.94 12.69 423.51 h -6.34 c -532.74,0 -930.42,220.23 -934.35,222.43 l -3.13,1.78 -3.09,-1.78 c -3.97,-2.2 -401.48,-222.43 -934.299,-222.43 h -6.344 v -423.51 -12.69 -739.69 c 0,-68.68 4.27,-136.89 12.727,-204.34 L 180.398,1275.95 0,963.988 656.094,963.352 C 699.395,833.359 759.23,708.781 834.672,592.488 c 17.68,-27.269 36.156,-53.906 55.355,-79.957 -25.117,2.149 -49.476,4.481 -73.031,6.93 -134.348,14.078 -206.152,29.309 -236.301,36.828 v -261.93 c 0.125,-1.089 0.379,-2.238 0.211,-3.418 0,-0.171 -0.129,-0.339 -0.211,-0.55 V 177.309 C 633.09,167.211 882.711,123.059 1313.88,111.852 1377.56,70.3203 1444.29,33.1094 1513.69,0.589844 L 1515.04,0 h 2.83 l 1.27,0.589844 C 1588.49,33.1094 1655.18,70.2813 1718.82,111.77 c 432.61,11.121 683.08,55.351 735.55,65.539 v 378.98 c -35.43,-9 -128.17,-28.578 -311.87,-44.141 19.29,26.172 37.85,52.942 55.61,80.34"
         style="fill:#ffffff;fill-opacity:1;fill-rule:nonzero;stroke:none"
         transform="matrix(0.13333333,0,0,-0.13333333,0,384)" />
      <path
         id="path5"
         d="m 1227.7,1725 0.38,-194.36 -8,-22.37 H 1110.77 V 1725 Z m -11.47,-275.04 H 779.531 v 37.68 h 436.699 z m -459.664,75.06 v 39.5 h 91.215 v 20.63 h -91.215 v 64.2 h 91.215 v 20.63 H 756.566 V 1725 H 876.961 V 1508.27 H 767.816 Z m 141.032,37.21 h 192.582 v -53.96 H 897.598 Z m 0,124.96 h 34.336 v -104.32 h -34.336 z m 86.519,-26.22 v -21.48 h 20.633 v 21.48 h 11.38 v 26.22 h 17.85 v -104.32 h -81.367 v 104.32 h 18.989 v -26.22 z m 106.063,26.22 v -104.32 h -35.57 v 104.32 z M 897.598,1725 h 192.582 v -17.21 H 897.598 Z m 0,46.3 h 50.406 v -25.67 h -50.406 z m 71.043,46.56 h 65.339 v -72.23 h -65.339 z m 179.469,-40.13 h 39.03 v -32.1 h -39.03 z m 59.67,20.64 h -80.31 v -52.74 h -72.86 v 92.87 H 948.004 v -46.56 h -71.043 v -46.31 H 735.934 v -226.87 l 22.961,-34.17 v -55.27 H 895.27 v -25.96 h 20.636 v 25.96 h 142.634 v -25.96 h 20.6 v 25.96 h 157.73 l -0.38,63.6 11.84,34.21 v 218.5 h -40.55 v 52.74"
         style="fill:#ffffff;fill-opacity:1;fill-rule:nonzero;stroke:none"
         transform="matrix(0.13333333,0,0,-0.13333333,0,384)" />
      <path
         id="path6"
         d="m 1148.11,1687.19 h 39.03 v -49.47 h -39.03 z m 55.57,-82.59 h -55.57 v 11.17 h 59.67 v 92.02 h -80.31 v -123.95 h 76.21 v 20.76"
         style="fill:#ffffff;fill-opacity:1;fill-rule:nonzero;stroke:none"
         transform="matrix(0.13333333,0,0,-0.13333333,0,384)" />
      <path
         id="path7"
         d="m 1550.22,1982.74 v -13.32 l -83.94,-0.17 c 0,6.13 -2.75,11.63 -7.02,15.44 0.3,2.53 0.76,5.03 0.76,7.65 0,5.03 -0.67,9.85 -1.77,14.55 h 17.42 v -24.15 z m -108.08,7.32 h -0.47 v -4.78 c -3.47,-22.84 -23,-40.43 -46.77,-40.43 -26.22,0 -47.49,21.27 -47.49,47.49 0,26.18 21.27,47.49 47.49,47.49 26.18,0 47.49,-21.31 47.49,-47.49 0,-0.8 -0.21,-1.52 -0.25,-2.28 z m -112.41,2.28 c 0,-0.8 0.22,-1.52 0.26,-2.28 h -8.12 c -16.11,0 -24.7,-10.45 -27.91,-20.64 H 823.426 c 2.707,7.19 4.398,14.84 4.398,22.92 0,35.9 -29.222,65.12 -65.168,65.12 -13.742,0 -26.429,-4.31 -36.957,-11.58 h -43.64 l -20.934,56.62 h 108.766 c 6.214,0 12.05,-3.64 14.8,-9.26 l 14.758,-30.15 84.067,29.94 c 12.941,4.61 104.324,18.9 163.184,27.44 0.6,-0.13 1.02,-0.67 1.02,-1.27 v -60.09 l -103.439,-1.48 c -8.836,-0.13 -17.547,-1.61 -25.922,-4.35 l -64.023,-21.23 5.582,-16.75 63.98,21.23 c 6.641,2.2 13.575,3.34 20.637,3.43 l 112.145,1.65 38.23,0.12 v -41.82 h 202.77 v 42.46 c 19.71,-0.09 31.51,-2.8 47.74,-8.12 -9.64,-11.38 -15.69,-25.88 -15.69,-41.91 z m -567.074,-47.49 c -26.176,0 -47.488,21.27 -47.488,47.49 0,26.18 21.312,47.49 47.488,47.49 26.219,0 47.492,-21.31 47.492,-47.49 0,-26.22 -21.273,-47.49 -47.492,-47.49 z m 349.934,94.98 H 1280 v -22.24 h -167.41 z m 380.71,-15.27 h -42.12 c -11.29,19.58 -32.13,32.9 -56.28,32.9 -12.52,0 -24.06,-3.67 -34,-9.81 -23.26,7.99 -37.13,12.39 -64.02,12.39 l -231.53,-0.76 v 59.92 c 0,10.45 -8.5,18.99 -18.98,18.99 l -1.27,-0.13 c -15.14,-2.2 -148.643,-21.69 -167.502,-28.42 l -69.227,-24.65 -7.824,16.03 c -5.707,11.59 -17.719,19.11 -30.656,19.11 H 635.754 l 34,-91.93 h 38.605 c -6.808,-10.27 -10.824,-22.63 -10.824,-35.86 0,-35.95 29.219,-65.16 65.121,-65.16 20.512,0 38.653,9.72 50.578,24.61 h 496.546 l 0.29,8.5 c 0.09,2.03 0.97,12.13 11.8,12.13 h 11.33 c 8.46,-26.17 32.78,-45.24 61.7,-45.24 24.19,0 45.08,13.4 56.33,33.02 3.04,-5.03 8.54,-8.41 14.84,-8.41 h 101.83 v 48.59 h -74.6 v 24.18"
         style="fill:#ffffff;fill-opacity:1;fill-rule:nonzero;stroke:none"
         transform="matrix(0.13333333,0,0,-0.13333333,0,384)" />
      <path
         id="path8"
         d="m 1090.26,2079.88 c 3.59,9.72 12.98,16.66 23.93,16.66 10.96,0 20.3,-6.94 23.9,-16.66 z m 67.07,-8.84 c 0,23.8 -19.37,43.13 -43.14,43.13 -23.8,0 -43.17,-19.33 -43.17,-43.13 v -8.84 h 86.31 v 8.84"
         style="fill:#ffffff;fill-opacity:1;fill-rule:nonzero;stroke:none"
         transform="matrix(0.13333333,0,0,-0.13333333,0,384)" />
      <path
         id="path9"
         d="m 762.656,1974.41 c -9.851,0 -17.886,8.04 -17.886,17.93 0,9.85 8.035,17.89 17.886,17.89 9.899,0 17.934,-8.04 17.934,-17.89 0,-9.89 -8.035,-17.93 -17.934,-17.93 z m 0,53.49 c -19.578,0 -35.562,-15.94 -35.562,-35.56 0,-19.62 15.984,-35.56 35.562,-35.56 19.621,0 35.567,15.94 35.567,35.56 0,19.62 -15.946,35.56 -35.567,35.56"
         style="fill:#ffffff;fill-opacity:1;fill-rule:nonzero;stroke:none"
         transform="matrix(0.13333333,0,0,-0.13333333,0,384)" />
      <path
         id="path10"
         d="m 1394.9,1974.41 c -9.9,0 -17.93,8.04 -17.93,17.93 0,9.85 8.03,17.89 17.93,17.89 9.85,0 17.89,-8.04 17.89,-17.89 0,-9.89 -8.04,-17.93 -17.89,-17.93 z m 0,53.49 c -19.62,0 -35.56,-15.94 -35.56,-35.56 0,-19.62 15.94,-35.56 35.56,-35.56 19.58,0 35.56,15.94 35.56,35.56 0,19.62 -15.98,35.56 -35.56,35.56"
         style="fill:#ffffff;fill-opacity:1;fill-rule:nonzero;stroke:none"
         transform="matrix(0.13333333,0,0,-0.13333333,0,384)" />
      <path
         id="path11"
         d="m 2588.49,521.25 81.97,199.082 c -103.88,-19.684 -304.09,-46.531 -399.1,-58.902 l 200.85,-75.309 c 1.01,-0.391 1.75,-1.051 2.6,-1.621 0.15,-0.102 0.36,-0.051 0.49,-0.148 0.13,-0.082 0.15,-0.243 0.28,-0.313 1.49,-1.16 2.7,-2.551 3.58,-4.168 0.05,-0.101 0.13,-0.152 0.18,-0.262 0.87,-1.75 1.33,-3.648 1.36,-5.66 0,-0.097 0.08,-0.179 0.08,-0.277 V 308.371 c 85.57,12.711 161.98,29.32 194.31,36.731 l -86.08,165.039 c -1.83,3.449 -2.01,7.507 -0.52,11.109"
         style="fill:#ffffff;fill-opacity:1;fill-rule:nonzero;stroke:none"
         transform="matrix(0.13333333,0,0,-0.13333333,0,384)" />
      <path
         id="path12"
         d="M 799.098,646.48 609.699,574.41 c 35.469,-7.531 96.27,-18.262 189.453,-28.519 l -0.054,100.589"
         style="fill:#ffffff;fill-opacity:1;fill-rule:nonzero;stroke:none"
         transform="matrix(0.13333333,0,0,-0.13333333,0,384)" />
      <path
         id="path13"
         d="m 364.922,720.02 81.941,-199.071 c 1.52,-3.578 1.34,-7.64 -0.488,-11.09 l -86.086,-165.05 c 32.281,-7.399 108.566,-23.989 194.059,-36.7 v 265.539 c 0,3.622 1.75,6.891 4.347,9.364 0,0 0,0 0.024,0.019 0.414,0.391 0.621,0.93 1.082,1.258 0.824,0.621 1.851,0.75 2.777,1.141 0.207,0.101 0.36,0.281 0.567,0.359 L 764.02,661.121 C 669.035,673.488 468.805,700.34 364.922,720.02"
         style="fill:#ffffff;fill-opacity:1;fill-rule:nonzero;stroke:none"
         transform="matrix(0.13333333,0,0,-0.13333333,0,384)" />
      <path
         id="path14"
         d="M 2233.04,648.52 V 547.289 c 93.93,10.34 154.89,21.551 190.2,29.031 l -190.2,72.2"
         style="fill:#ffffff;fill-opacity:1;fill-rule:nonzero;stroke:none"
         transform="matrix(0.13333333,0,0,-0.13333333,0,384)" />
      <path
         id="path15"
         d="m 1989.63,333.059 c -1.31,-1.02 -2.45,-2.2 -3.46,-3.469 -0.05,-0.078 -0.13,-0.129 -0.17,-0.211 -3.34,-4.27 -5.21,-9.641 -5.46,-16.027 -0.29,-6.301 0.69,-12.141 1.26,-18.942 0,0 0.98,-12.219 2,-18.308 1.99,-12.352 10.4,-20.602 22.96,-22.922 7.99,-1.481 15.9,-0.719 23.81,0.879 15.81,3.222 25.5,14.929 24.52,30.543 -0.71,11.199 -1.94,22.367 -3.5,33.488 -1.74,12.301 -10.41,20.801 -22.67,22.961 -9.73,1.73 -19.28,0.89 -28.63,-2.199 -4.23,-1.391 -7.78,-3.34 -10.66,-5.793"
         style="fill:#ffffff;fill-opacity:1;fill-rule:nonzero;stroke:none"
         transform="matrix(0.13333333,0,0,-0.13333333,0,384)" />
      <path
         id="path16"
         d="m 1010.65,340.898 c -8.86,3.274 -18.064,4.25 -27.462,3.071 -12.942,-1.571 -21.313,-8.5 -24.442,-21.02 -1.207,-4.898 -1.777,-9.98 -2.445,-15.008 -0.36,-2.711 -0.672,-5.382 -0.871,-8.101 -0.305,-4.149 -0.739,-10.418 -0.871,-14.27 -0.422,-12.39 6.257,-22.082 17.972,-26.808 7.528,-3.051 15.434,-3.852 23.469,-3.852 15.82,0 27.95,9.43 30.07,24.27 1.54,11 2.54,22.07 3.21,33.152 0.77,12.578 -6.81,24.188 -18.63,28.566"
         style="fill:#ffffff;fill-opacity:1;fill-rule:nonzero;stroke:none"
         transform="matrix(0.13333333,0,0,-0.13333333,0,384)" />
      <path
         id="path17"
         d="m 1532,254.359 c 2.11,12.012 1.65,24.192 0.12,36.282 -0.84,6.98 -4.18,13.07 -9.98,17.55 -6.34,4.868 -13.78,6.68 -21.56,6.848 -12.39,0.262 -24.83,0.211 -37.22,0.34 -0.63,0.043 -1.26,-0.039 -2.03,-0.078 -0.29,-28.082 -0.63,-56.031 -0.93,-84.281 4.87,-0.04 9.39,-0.129 13.92,-0.129 10.48,0.089 21.01,-0.25 31.5,0.468 14.38,1.012 23.72,9.172 26.18,23"
         style="fill:#ffffff;fill-opacity:1;fill-rule:nonzero;stroke:none"
         transform="matrix(0.13333333,0,0,-0.13333333,0,384)" />
      <path
         id="path18"
         d="m 1628.92,257.699 c 17.76,0.383 35.1,0.852 52.73,1.403 -9.43,19.359 -18.69,38.519 -28.12,58.308 -8.24,-20.34 -16.36,-39.961 -24.61,-59.711"
         style="fill:#ffffff;fill-opacity:1;fill-rule:nonzero;stroke:none"
         transform="matrix(0.13333333,0,0,-0.13333333,0,384)" />
    </g>
  </g>
</svg>
