<?xml version="1.0" encoding="UTF-8" standalone="no"?>
<!-- Created with Inkscape (http://www.inkscape.org/) -->

<svg
   width="45.889332mm"
   height="18.324677mm"
   viewBox="0 0 45.889332 18.324677"
   version="1.1"
   id="svg1"
   xml:space="preserve"
   inkscape:version="1.3.2 (091e20e, 2023-11-25)"
   sodipodi:docname="hope_gas.svg"
   xmlns:inkscape="http://www.inkscape.org/namespaces/inkscape"
   xmlns:sodipodi="http://sodipodi.sourceforge.net/DTD/sodipodi-0.dtd"
   xmlns="http://www.w3.org/2000/svg"
   xmlns:svg="http://www.w3.org/2000/svg"><sodipodi:namedview
     id="namedview1"
     pagecolor="#ffffff"
     bordercolor="#666666"
     borderopacity="1.0"
     inkscape:showpageshadow="2"
     inkscape:pageopacity="0.0"
     inkscape:pagecheckerboard="0"
     inkscape:deskcolor="#d1d1d1"
     inkscape:document-units="mm"
     showguides="false"
     inkscape:zoom="1.3623426"
     inkscape:cx="92.48775"
     inkscape:cy="88.450587"
     inkscape:window-width="1440"
     inkscape:window-height="900"
     inkscape:window-x="0"
     inkscape:window-y="0"
     inkscape:window-maximized="0"
     inkscape:current-layer="layer1" /><defs
     id="defs1" /><g
     inkscape:label="Layer 1"
     inkscape:groupmode="layer"
     id="layer1"
     transform="translate(-50.969225,-92.995484)"><path
       style="fill:#ffffff"
       d="m 68.748129,111.17284 c -3.689151,-1.21748 -4.176502,-5.77343 -0.801752,-7.4951 0.809383,-0.41292 3.003608,-0.60937 4.590998,-0.41104 l 0.95318,0.1191 v 1.02356 1.02357 l -0.381,-0.11992 c -0.96194,-0.30277 -2.3498,-0.3 -3.02849,0.006 -2.032321,0.91645 -1.551817,4.3125 0.58098,4.10619 l 0.54251,-0.0525 0.0504,-1.05833 0.0504,-1.05834 h 1.26192 1.26192 v 1.84455 c 0,1.59712 -0.0397,1.861 -0.29633,1.96718 -0.44081,0.18241 -4.293998,0.26698 -4.784766,0.10502 z m 6.496216,-0.0206 c -2.23804,-0.90316 -0.66542,-3.62962 2.09855,-3.63826 0.67521,-0.002 1.22766,-0.0279 1.22766,-0.0573 0,-0.70553 -1.28883,-1.02251 -2.667,-0.65594 l -0.889,0.23646 v -0.74139 c 0,-1.61002 4.61242,-1.53215 5.70868,0.0964 l 0.38732,0.57537 v 2.17629 2.17629 h -1.27 -1.27 v -0.42333 c 0,-0.23283 -0.0762,-0.42333 -0.16933,-0.42333 -0.0931,0 -0.16933,0.0598 -0.16933,0.13282 0,0.5395 -2.06736,0.91728 -2.98755,0.54594 z m 3.06261,-1.56311 c 0.45132,-0.64434 0.34311,-0.97832 -0.31697,-0.97832 -0.87633,0 -1.39916,0.66187 -0.90956,1.15147 0.32331,0.32331 0.93975,0.23628 1.22653,-0.17315 z m 3.86194,1.60852 -0.55034,-0.0683 v -0.82842 -0.82843 l 0.69863,0.24649 c 0.77771,0.27439 1.96915,0.32122 2.33171,0.0916 0.45885,-0.29053 0.0505,-0.62595 -0.99987,-0.82128 -3.66713,-0.68198 -2.70717,-3.76987 1.1698,-3.7629 1.93024,0.003 2.04907,0.0595 2.04907,0.96688 0,0.57483 -0.0567,0.73861 -0.23235,0.67121 -1.11656,-0.42846 -2.90186,-0.20501 -2.47466,0.30973 0.11466,0.13816 0.37581,0.2512 0.58034,0.2512 1.52248,0 2.63467,0.8077 2.63467,1.91337 0,1.57372 -1.93577,2.26476 -5.207,1.8588 z M 55.54483,110.62107 c -1.64974,-0.19033 -4.575605,-1.20691 -4.575605,-1.58978 0,-0.045 2.72415,-0.0794 6.053667,-0.0764 5.363911,0.005 6.016158,0.0338 5.724468,0.25437 -0.594883,0.44992 -2.868223,1.23024 -3.904135,1.34009 -0.5588,0.0593 -1.2446,0.13251 -1.524,0.16279 -0.2794,0.0303 -1.077878,-0.0107 -1.774395,-0.091 z m -0.765605,-3.08826 c -3.236026,-1.51874 -3.570499,-5.44735 -0.722304,-8.483946 1.089352,-1.16142 1.780065,-2.83649 1.956106,-4.74384 l 0.120865,-1.30954 1.106566,1.07667 c 3.719529,3.61901 5.526481,8.223726 4.318729,11.005546 l -0.247372,0.56978 -0.0102,-0.762 c -0.02345,-1.75162 -1.187879,-3.98311 -3.084415,-5.910896 l -1.067308,-1.0849 -0.09669,1.16957 c -0.108344,1.310536 -0.455416,2.098716 -1.51372,3.437576 -1.460632,1.84784 -1.561419,3.42349 -0.310145,4.84861 0.283967,0.32342 0.48936,0.58729 0.456429,0.58638 -0.03293,-9.1e-4 -0.440875,-0.18046 -0.906541,-0.39901 z m 1.862667,0.0641 c -1.034838,-0.68104 -1.449496,-2.44002 -0.803442,-3.4082 0.162493,-0.24352 0.592445,-0.87287 0.955448,-1.39856 0.492327,-0.71297 0.681211,-1.17648 0.743469,-1.82441 l 0.08346,-0.8686 0.224198,0.40449 c 0.441024,0.79569 0.289939,1.90964 -0.471265,3.47463 l -0.707464,1.45451 0.209493,0.78568 c 0.115221,0.43212 0.409735,0.99522 0.654477,1.25134 l 0.444985,0.46567 -0.41268,-10e-4 c -0.226975,-6.1e-4 -0.641281,-0.15156 -0.920681,-0.33543 z m 25.992663,-8.299446 v -4.23334 h 1.35467 1.35467 v 0.43839 0.43839 l 0.51298,-0.43165 c 1.58052,-1.32992 3.98554,-0.14015 4.06347,2.01021 0.0153,0.42313 0.0561,0.36756 0.244,-0.33259 0.93317,-3.47698 6.69421,-2.86514 6.69421,0.71095 v 0.89164 h -1.94733 c -1.96829,0 -2.18397,0.0778 -1.66202,0.59978 0.23686,0.23687 0.54015,0.27313 1.78616,0.21356 l 1.50086,-0.0718 -0.0505,0.686726 c -0.0594,0.80804 -0.26797,0.89028 -2.3365,0.92138 -2.22947,0.0335 -3.45296,-0.61025 -3.88699,-2.045226 l -0.22013,-0.7278 -0.21065,0.82163 c -0.43551,1.698626 -2.38949,2.585686 -3.64727,1.655766 -0.68339,-0.50525 -0.67096,-0.5268 -0.67096,1.16327 v 1.524 h -1.43933 -1.43934 z m 4.13907,-0.20701 c 0.51357,-0.73322 0.18848,-2.16366 -0.49171,-2.16366 -0.55729,0 -0.76869,0.33198 -0.76869,1.20711 0,1.21043 0.70683,1.74687 1.2604,0.95655 z m 7.71427,-1.87198 c 0,-0.72822 -0.79074,-1.17008 -1.25791,-0.70292 -0.5431,0.5431 -0.34018,0.91924 0.49591,0.91924 0.50545,0 0.762,-0.0728 0.762,-0.21632 z m -17.86467,3.697156 c -2.8987,-1.066986 -2.39148,-5.214416 0.71661,-5.859656 3.46212,-0.71873 5.85511,1.68485 4.50662,4.52659 -0.63218,1.332196 -3.34478,2.024506 -5.22323,1.333066 z m 2.25213,-1.652036 c 0.31298,-0.31298 0.2631,-2.24563 -0.065,-2.51791 -0.47458,-0.39387 -0.82589,0.0175 -0.88481,1.03617 -0.0877,1.51574 0.3043,2.12724 0.9498,1.48174 z m -12.835463,-2.25213 v -3.97934 h 1.524 1.524 v 1.35467 1.35467 h 1.016003 1.016 v -1.35467 -1.35467 h 1.60866 1.60867 v 3.97934 3.979326 h -1.60867 -1.60866 v -1.439326 -1.43934 h -1.016 -1.016003 v 1.43934 1.439326 h -1.524 -1.524 z"
       id="path7" /></g></svg>
