<?xml version="1.0" encoding="UTF-8" standalone="no"?>
<!-- Created with Inkscape (http://www.inkscape.org/) -->

<svg
   version="1.1"
   id="svg1"
   width="800"
   height="46.723568"
   viewBox="0 0 800 46.723568"
   sodipodi:docname="NASARAP.svg"
   inkscape:version="1.3.2 (091e20e, 2023-11-25)"
   xmlns:inkscape="http://www.inkscape.org/namespaces/inkscape"
   xmlns:sodipodi="http://sodipodi.sourceforge.net/DTD/sodipodi-0.dtd"
   xmlns="http://www.w3.org/2000/svg"
   xmlns:svg="http://www.w3.org/2000/svg">
  <defs
     id="defs1" />
  <sodipodi:namedview
     id="namedview1"
     pagecolor="#ffffff"
     bordercolor="#666666"
     borderopacity="1.0"
     inkscape:showpageshadow="2"
     inkscape:pageopacity="0.0"
     inkscape:pagecheckerboard="0"
     inkscape:deskcolor="#d1d1d1"
     inkscape:zoom="0.95266634"
     inkscape:cx="-102.86917"
     inkscape:cy="22.043395"
     inkscape:window-width="1312"
     inkscape:window-height="449"
     inkscape:window-x="0"
     inkscape:window-y="25"
     inkscape:window-maximized="0"
     inkscape:current-layer="g1" />
  <g
     inkscape:groupmode="layer"
     inkscape:label="Image"
     id="g1"
     transform="translate(-4443.2159,-272.78814)">
    <path
       style="fill:#ffffff;stroke-width:0.173209"
       d="m 5147.876,319.39938 c -0.065,-0.10463 -0.2697,-0.19019 -0.4558,-0.19019 -0.3208,0 -0.3348,-0.14415 -0.3348,-2.83109 0,-3.58304 -0.1441,-3.40439 2.7472,-3.40439 2.5319,0 3.203,-0.20878 3.5815,-1.11409 0.2138,-0.51554 0.2557,-2.67657 0.2557,-14.35569 0,-13.09959 0,-13.7623 0.3162,-14.03545 0.2697,-0.24365 0.771,-0.28643 3.3508,-0.28643 2.756,0 3.0611,0.0279 3.3303,0.32736 0.2743,0.30503 0.293,1.34323 0.2278,15.11242 -0.047,9.74176 -0.1348,15.05157 -0.2557,15.56674 -0.7519,3.14413 -2.1831,4.80482 -4.3696,5.06936 -2.033,0.24598 -8.2607,0.35107 -8.3904,0.14182 z m -679.7669,-8.97046 c -1.7386,-0.29109 -3.4196,-1.20179 -4.5147,-2.44561 -0.8532,-0.96933 -0.9202,-1.10702 -6.7545,-13.88953 -2.5868,-5.66823 -4.8244,-10.44227 -4.9718,-10.60902 -0.3673,-0.41385 -0.8328,-0.38037 -1.1569,0.0818 -0.2371,0.33991 -0.2697,1.87575 -0.2697,13.13703 0,12.13397 0,12.76591 -0.3162,13.03867 -0.2697,0.24459 -0.7784,0.28644 -3.4638,0.28644 -2.9155,0 -3.1475,-0.0233 -3.1475,-0.31155 0,-0.17158 -0.079,-0.39199 -0.1767,-0.48996 -0.2232,-0.22274 -0.1116,-27.36359 0.1162,-28.92445 0.2651,-1.79066 1.5712,-3.23155 3.6986,-4.0764 1.3397,-0.53205 5.5251,-0.67239 7.0373,-0.23576 2.3371,0.67453 3.7786,1.93979 4.9369,4.33327 0.3673,0.76213 2.77,5.98438 5.3363,11.605 2.5663,5.62061 4.8206,10.39465 5.0099,10.60902 0.4045,0.45802 0.7598,0.49461 1.1369,0.11764 0.2418,-0.24273 0.2743,-1.66478 0.2743,-13.0504 0,-12.15932 0,-12.79209 0.3162,-13.06485 0.2697,-0.24552 0.7887,-0.28644 3.6107,-0.28644 2.9988,0 3.3201,0.0279 3.587,0.3241 0.2697,0.29993 0.2883,1.36603 0.2418,14.333 -0.051,13.97077 -0.051,14.01146 -0.4371,15.01859 -1.202,3.17129 -3.7748,4.64584 -8.0128,4.59283 -0.9049,-0.009 -1.8405,-0.053 -2.0785,-0.093 z m 12.7405,-0.78492 c -0.1488,-0.21157 -0.2697,-0.65829 -0.2697,-0.99239 0,-0.59934 10.3852,-27.17355 11.4617,-29.32886 0.6649,-1.33133 1.6605,-2.29272 3.0616,-2.95664 l 1.1522,-0.54582 h 3.0402 3.0401 l 1.3267,0.65579 c 1.4861,0.73447 2.2761,1.55314 2.9713,3.08029 0.7859,1.72481 11.013,28.76718 11.013,29.11955 0,0.19065 -0.1348,0.5733 -0.2976,0.85002 l -0.2976,0.50304 -3.7302,-3.6e-4 -3.7297,-3.5e-4 -4.9197,-13.03356 c -2.7054,-7.16845 -5.0294,-13.15046 -5.1638,-13.2934 -0.2186,-0.22971 -0.279,-0.21855 -0.5366,0.0977 -0.1628,0.19669 -2.5887,6.17875 -5.3959,13.29373 l -5.1038,12.93642 h -3.6767 c -3.6033,0 -3.6823,-0.009 -3.9465,-0.38502 z m 40.1284,-0.005 c -0.372,-0.39431 -0.386,-0.54167 -0.386,-3.53133 0,-3.03704 0,-3.12967 0.3999,-3.49632 l 0.3999,-0.37664 9.5157,-0.004 c 8.9047,-0.004 9.5608,-0.0232 10.2253,-0.32643 1.0393,-0.47207 1.5415,-1.26735 1.5415,-2.44129 0,-1.6167 -0.8793,-2.43407 -2.9909,-2.77989 -0.5459,-0.0893 -3.1982,-0.16322 -5.8934,-0.16368 -5.6469,-0.001 -6.7541,-0.15159 -8.9739,-1.21755 -2.3948,-1.14999 -3.926,-3.16678 -4.5133,-5.94435 -0.3813,-1.7915 -0.2418,-5.51269 0.265,-7.0682 0.764,-2.35916 2.6128,-4.33931 4.8314,-5.17431 2.1855,-0.82281 2.6732,-0.85578 12.7023,-0.85899 8.9433,-0.003 9.472,0.014 9.7431,0.31388 0.2465,0.27062 0.2883,0.78268 0.2883,3.52393 0,2.88708 -0.046,3.23578 -0.3162,3.49386 -0.2836,0.25854 -1.1462,0.28644 -8.7568,0.28644 -5.6828,0 -8.6932,0.0637 -9.2149,0.1953 -2.5528,0.64286 -2.7695,3.81958 -0.3301,4.85295 0.3673,0.15624 2.285,0.25203 6.5815,0.32968 5.4424,0.0986 6.2008,0.1474 7.4158,0.47941 3.5717,0.97557 5.7544,3.09159 6.6444,6.4405 0.4092,1.54575 0.4138,5.37421 0,6.89257 -0.9207,3.42564 -3.0923,5.54515 -6.7053,6.54443 -1.0128,0.27993 -2.1776,0.31806 -11.6077,0.37618 l -10.482,0.0651 z m 32.1699,-0.13856 c -0.2418,-0.34178 -0.3487,-0.69387 -0.2976,-0.99594 0.1674,-0.98905 11.4199,-29.06762 12.0053,-29.95516 0.6938,-1.05224 1.8237,-1.93048 3.0867,-2.39939 0.7435,-0.2762 1.3647,-0.32921 3.832,-0.32921 2.9379,0 2.9472,10e-4 4.0706,0.5386 1.2629,0.60427 2.2078,1.45001 2.8374,2.53875 0.5427,0.93897 11.3655,29.36726 11.3655,29.85356 0,0.20088 -0.1627,0.57037 -0.358,0.82137 l -0.3581,0.45663 h -3.6856 -3.6855 l -4.9188,-13.01557 c -2.7058,-7.15855 -5.0122,-13.14074 -5.1257,-13.29373 -0.186,-0.25203 -0.2371,-0.24552 -0.5394,0.0684 -0.1813,0.19064 -2.623,6.17145 -5.4228,13.29098 l -5.0898,12.94452 -3.6689,0.003 -3.6688,0.003 z m 54.7549,0.11113 -0.3906,-0.41757 0.074,-7.41997 c 0.06,-6.16633 0.1209,-7.56026 0.3487,-8.2505 0.5599,-1.69297 1.7833,-2.71075 3.6703,-3.05327 0.6217,-0.11299 3.8032,-0.18786 8.0537,-0.19018 6.4426,-0.004 7.0847,-0.0279 7.7269,-0.32178 1.1485,-0.52173 1.9897,-1.8188 1.98,-3.05197 0,-1.09851 -1.1983,-2.52154 -2.3827,-2.85034 -0.4045,-0.11253 -4.0217,-0.17949 -9.7538,-0.17996 -8.6048,-8.2e-4 -9.126,-0.0186 -9.3967,-0.31759 -0.2464,-0.27063 -0.2883,-0.78268 -0.2883,-3.52389 0,-2.9174 0.046,-3.23378 0.3255,-3.50148 0.3023,-0.2711 1.1402,-0.29016 10.7824,-0.24087 10.4202,0.0535 10.4611,0.0549 11.6696,0.45709 3.4401,1.14562 5.6976,3.55537 6.5128,6.95251 0.3301,1.38323 0.2929,5.01816 -0.07,6.40869 -0.7017,2.68853 -2.4236,5.04221 -4.577,6.25566 l -1.0425,0.58767 3.2699,5.62284 c 1.7981,3.09257 3.2698,5.8082 3.2698,6.03479 0,0.22646 -0.1348,0.63831 -0.2976,0.91498 l -0.2976,0.50303 h -3.6628 -3.6623 l -3.6181,-6.1442 -3.6182,-6.1442 -3.5939,-0.005 -3.594,-0.005 v 5.7723 5.7723 l -0.3999,0.37664 c -0.3813,0.35805 -0.5561,0.37665 -3.5205,0.37665 -3.0736,0 -3.1257,-0.005 -3.5121,-0.41757 z m 41.209,0.30178 c -4.7992,-0.61789 -7.8952,-3.34821 -9.2097,-8.1216 -0.3302,-1.20332 -0.3813,-1.83121 -0.3906,-5.013 0,-4.30812 0.1999,-5.52985 1.3992,-8.02796 1.3433,-2.79608 3.7255,-4.66965 6.7517,-5.31079 1.687,-0.35758 10.5657,-0.35758 12.2532,0 4.2608,0.9028 7.0684,4.07222 7.9993,9.03017 0.2279,1.21936 0.2697,2.21776 0.2046,4.82821 -0.074,2.93242 -0.1348,3.46028 -0.5491,4.84514 -0.2558,0.85485 -0.7152,2.02358 -1.0193,2.5972 -0.7975,1.50543 -2.531,3.19997 -4.0594,3.96838 -2.132,1.07196 -2.8584,1.18272 -8.098,1.23536 -2.5719,0.0279 -4.9494,0.0139 -5.2828,-0.0326 z m 8.8015,-7.2255 c 1.9307,-0.70364 2.8793,-2.33453 3.0913,-5.31293 0.2372,-3.31548 -0.7147,-5.80368 -2.5858,-6.76609 -1.7057,-0.87708 -7.5553,-0.87708 -9.2605,0 -1.4387,0.73995 -2.1948,2.07589 -2.5105,4.43668 -0.3766,2.80115 0.2883,5.55143 1.628,6.76256 0.8039,0.72633 1.2843,0.93762 2.5681,1.12878 1.5513,0.23111 6.2022,0.067 7.0694,-0.24924 z m 23.3248,7.17826 c -2.3566,-0.36828 -4.3227,-1.37263 -5.501,-2.81063 -0.7258,-0.88592 -1.5344,-2.54005 -1.9748,-4.04125 -0.279,-0.94851 -0.3116,-2.29835 -0.3581,-15.45886 -0.056,-14.27129 -0.051,-14.41958 0.2883,-14.41958 0.1907,0 0.3906,-0.0781 0.4511,-0.17344 0.065,-0.10323 1.182,-0.17298 2.7714,-0.17298 1.5893,0 2.7077,0.0697 2.7714,0.17298 0.06,0.0953 0.2604,0.17344 0.4417,0.17344 0.3255,0 0.3348,0.16647 0.3348,5.02305 v 5.02304 l 6.1059,0.003 c 6.8875,0.003 7.646,0.0925 9.7854,1.14957 2.5468,1.25824 4.3505,3.67878 5.2717,7.0748 0.5259,1.93634 0.5724,7.75198 0.079,9.87288 -0.8476,3.64842 -2.5844,6.07264 -5.3498,7.46824 -2.0999,1.05977 -2.7355,1.14664 -8.7912,1.20188 -3.0006,0.0279 -5.8474,-0.009 -6.3258,-0.086 z m 10.4392,-7.12172 c 1.009,-0.28133 2.1645,-1.34375 2.6249,-2.41311 1.1508,-2.67578 0.7305,-7.26596 -0.8152,-8.89457 -1.2011,-1.26586 -2.4803,-1.48683 -8.6508,-1.49436 l -4.3737,-0.005 v 4.55363 c 0,4.86071 0.1487,6.04237 0.8839,7.07648 0.4687,0.65811 1.5684,1.20755 2.7537,1.37569 1.3332,0.18926 6.6895,0.0488 7.5772,-0.19855 z m 24.1199,7.16896 c -4.7816,-0.61556 -7.9003,-3.36588 -9.2098,-8.1216 -0.3301,-1.20332 -0.3813,-1.83121 -0.3906,-5.013 0,-4.29817 0.2,-5.53087 1.3852,-7.99969 1.3495,-2.80868 3.7451,-4.69908 6.7658,-5.33906 1.6721,-0.35432 10.5652,-0.35758 12.2313,-0.005 4.2826,0.90753 7.0879,4.06124 8.017,9.013 0.2325,1.24373 0.2743,2.22427 0.2093,4.84984 -0.075,2.93246 -0.1349,3.46032 -0.5492,4.84518 -0.2558,0.85485 -0.7152,2.02358 -1.0193,2.5972 -0.7975,1.50543 -2.531,3.19997 -4.0594,3.96838 -2.132,1.07196 -2.8584,1.18273 -8.098,1.23536 -2.5723,0.0279 -4.9494,0.0139 -5.2828,-0.0326 z m 8.8619,-7.24197 c 0.9835,-0.34781 1.873,-1.1803 2.3538,-2.20264 0.7356,-1.56523 0.9337,-4.11175 0.485,-6.22991 -0.7031,-3.31589 -2.2994,-4.29113 -7.0243,-4.29113 -5.0531,0 -6.642,1.15435 -7.1386,5.18542 -0.3487,2.84797 0.2883,5.46535 1.6256,6.67495 1.2114,1.09428 2.2623,1.29916 6.2059,1.20983 1.9218,-0.0419 2.9141,-0.14182 3.4926,-0.34642 z m 22.192,7.18269 c -2.1897,-0.31992 -4.0399,-1.51785 -4.8504,-3.14116 -0.9225,-1.84701 -0.9746,-2.33573 -1.0462,-9.80429 l -0.065,-6.97162 h -1.4331 c -2.0363,0 -2.007,0.0502 -2.007,-3.40764 0,-3.40235 -0.047,-3.34748 2.0493,-3.34748 h 1.415 v -2.65844 c 0,-2.35498 0.047,-2.69057 0.3162,-2.94455 0.2697,-0.24319 0.7644,-0.28644 3.2638,-0.28644 2.6356,0 2.9778,0.0326 3.234,0.31667 0.2418,0.26551 0.2883,0.74241 0.2883,2.94455 v 2.6278 h 3.1774 c 2.8583,0 3.2061,0.0325 3.4642,0.31666 0.2418,0.26691 0.2883,0.7526 0.2883,3.09089 0,2.4676 -0.047,2.80584 -0.3162,3.0608 -0.2697,0.24459 -0.7784,0.28644 -3.4642,0.28644 h -3.1471 v 5.36091 c 0,5.8081 0.1116,6.82668 0.8025,7.47889 0.4092,0.38548 0.5864,0.41384 2.8914,0.46727 1.9344,0.0465 2.5189,0.11439 2.7579,0.33015 0.2651,0.23901 0.3023,0.62644 0.3023,3.07759 0,2.49671 -0.046,2.83565 -0.3162,3.09088 -0.2744,0.24645 -0.7617,0.28365 -3.5075,0.26505 -1.7549,-0.0139 -3.5972,-0.0809 -4.0939,-0.15345 z m 12.3615,-0.14183 c -0.2604,-0.28876 -0.2883,-1.4507 -0.2883,-13.13698 0,-12.2001 0,-12.83412 0.3162,-13.10694 0.2697,-0.24319 0.7645,-0.28644 3.2638,-0.28644 2.6356,0 2.9779,0.0326 3.2341,0.31667 0.2604,0.28876 0.2883,1.44442 0.2883,13.04705 v 12.73029 l -0.3999,0.37665 c -0.3766,0.35525 -0.5631,0.37664 -3.2643,0.37664 -2.5538,0 -2.8941,-0.0325 -3.1499,-0.31666 z m 21.2458,0.14229 c -3.1699,-0.4636 -5.8688,-2.15805 -7.4121,-4.65398 -2.4933,-4.03218 -2.6412,-12.22944 -0.3022,-16.73313 0.8198,-1.5775 2.5407,-3.32543 3.9989,-4.06175 2.3213,-1.17157 2.8184,-1.22393 11.6208,-1.22393 5.918,0 7.9575,0.0521 8.1133,0.20786 0.3022,0.29992 0.2929,6.08877 0,6.33769 -0.1395,0.11439 -2.7579,0.20506 -7.2312,0.25063 -7.8845,0.0804 -8.124,0.11485 -9.3581,1.34924 -0.9658,0.96557 -1.4108,2.30169 -1.5135,4.54312 -0.1581,3.49529 0.6305,5.63615 2.4198,6.55386 1.0709,0.54907 2.7226,0.66937 9.24,0.67295 4.6216,0.003 6.2979,0.0577 6.4518,0.21111 0.1442,0.14554 0.2093,1.0987 0.2093,3.17747 0,2.657 -0.047,2.99984 -0.3162,3.25633 -0.2837,0.25808 -1.0514,0.28458 -7.6646,0.26505 -4.0413,-0.014 -7.752,-0.0804 -8.2458,-0.15298 z m 20.7607,-0.22645 c -0.3534,-0.37712 -0.3766,-0.56507 -0.3766,-3.17752 0,-2.43398 0.047,-2.81082 0.3069,-3.05345 0.2697,-0.2432 1.2578,-0.28319 8.1839,-0.33015 7.0485,-0.0474 7.9352,-0.0842 8.4202,-0.34968 0.6106,-0.33433 0.757,-0.60915 0.757,-1.41931 0,-0.70224 -0.584,-1.28642 -1.4986,-1.49864 -0.3674,-0.0851 -2.5761,-0.15764 -4.91,-0.16182 -5.7664,-0.009 -7.4437,-0.39665 -9.3171,-2.14932 -1.5108,-1.41322 -2.1148,-3.19021 -2.1148,-6.22455 0,-4.43841 1.7735,-6.9228 5.5827,-7.82089 1.4429,-0.34038 17.7774,-0.38828 18.1122,-0.0535 0.1441,0.14555 0.2092,1.09698 0.2092,3.16971 0,2.07272 -0.06,3.02425 -0.2092,3.1697 -0.1535,0.15438 -1.9921,0.21065 -7.1447,0.21808 -3.8153,0.005 -7.3089,0.0716 -7.7632,0.14648 -1.0853,0.17856 -1.6851,0.7366 -1.6851,1.56714 0,1.54244 0.7012,1.73997 6.1821,1.74174 4.3389,10e-4 5.7125,0.13438 7.2228,0.6994 1.9972,0.7473 3.2034,1.90561 3.9511,3.79443 0.3255,0.82877 0.3813,1.30632 0.3906,3.47242 0,2.17191 -0.047,2.66378 -0.3813,3.6374 -0.949,2.73725 -3.1062,4.36972 -6.4039,4.84653 -0.645,0.0935 -4.7644,0.17112 -9.1535,0.17298 l -7.9808,0.003 z m 40.8589,-0.1023 c -0.1953,-0.27668 -0.358,-0.64021 -0.358,-0.80789 0,-0.59469 11.4445,-29.24827 12.0495,-30.16892 0.6914,-1.05155 1.8209,-1.93007 3.0852,-2.39939 0.7436,-0.27621 1.3643,-0.32922 3.8316,-0.32922 3.1936,0 3.6925,0.11625 5.3168,1.23764 1.3308,0.91888 1.6373,1.6121 7.4153,16.77926 3.0481,8.00043 5.5414,14.71109 5.5414,14.91262 0,0.20135 -0.1628,0.57176 -0.3581,0.82277 l -0.358,0.45663 h -3.6819 -3.6823 l -4.9224,-13.01641 c -2.7073,-7.15901 -5.0155,-13.14121 -5.129,-13.29373 -0.186,-0.2511 -0.2371,-0.24412 -0.5366,0.0688 -0.1813,0.19065 -2.6216,6.17187 -5.4228,13.29192 l -5.0926,12.94544 -3.6689,0.002 -3.6688,0.002 z m 40.7222,0.1023 -0.3766,-0.40083 v -18.04582 c 0,-17.74748 0,-18.04583 0.3348,-18.04583 0.186,0 0.3859,-0.0781 0.4417,-0.17344 0.1441,-0.23203 5.5725,-0.23203 5.7162,0 0.061,0.0953 0.2604,0.17344 0.4418,0.17344 0.3301,0 0.3348,0.29853 0.3348,18.0701 v 18.07005 l -0.3999,0.37665 c -0.3767,0.35525 -0.5631,0.37664 -3.2611,0.37664 -2.7653,0 -2.8723,-0.0139 -3.2363,-0.40082 z m 13.4203,0.0842 c -0.2604,-0.29062 -0.2883,-1.81967 -0.2883,-18.44669 0,-17.83072 0,-18.12994 0.3348,-18.12994 0.186,0 0.386,-0.0781 0.4418,-0.17345 0.1441,-0.23203 5.399,-0.23203 5.5427,0 0.06,0.0953 0.2604,0.17345 0.4418,0.17345 0.3301,0 0.3348,0.29852 0.3348,18.07009 v 18.07005 l -0.3999,0.37665 c -0.3767,0.35525 -0.5631,0.37664 -3.2643,0.37664 -2.5538,0 -2.8942,-0.0325 -3.1499,-0.31666 z m 13.3371,0 c -0.2604,-0.28876 -0.2883,-1.4507 -0.2883,-13.13698 0,-12.2001 0,-12.83412 0.3162,-13.10694 0.2697,-0.24319 0.7644,-0.28644 3.2638,-0.28644 2.6356,0 2.9778,0.0326 3.2341,0.31667 0.2604,0.28876 0.2883,1.45065 0.2883,13.13698 0,12.20005 0,12.83412 -0.3162,13.10689 -0.2697,0.24319 -0.765,0.28644 -3.2643,0.28644 -2.6356,0 -2.9779,-0.0325 -3.2341,-0.31666 z m 19.3806,0.1302 c -1.3434,-0.20367 -2.0413,-0.43338 -3.2592,-1.0728 -2.5263,-1.32649 -3.7999,-4.31136 -3.5274,-8.26728 0.2511,-3.67074 1.6749,-5.68721 4.7867,-6.78707 1.0932,-0.38641 1.3313,-0.39943 8.2909,-0.45337 l 7.1656,-0.0553 -0.1163,-0.7247 c -0.1674,-1.04099 -0.6138,-1.71543 -1.4019,-2.11216 -0.6533,-0.32876 -1.0909,-0.34922 -8.6527,-0.39944 -7.0066,-0.0465 -8.0017,-0.0865 -8.2709,-0.32968 -0.2697,-0.24319 -0.3069,-0.62045 -0.3069,-3.08117 0,-2.49676 0.047,-2.83569 0.3162,-3.09093 0.2836,-0.25901 1.1736,-0.28644 9.1521,-0.28644 8.2955,0 8.9191,0.0233 10.2025,0.34968 2.4189,0.61863 4.1143,1.95983 5.1075,4.04078 0.8087,1.69287 0.877,2.63342 0.8207,11.28499 l -0.051,7.9676 -0.4139,0.83165 c -0.4649,0.93659 -1.1559,1.53291 -2.2836,1.97163 -0.6812,0.26505 -1.6563,0.30272 -8.6485,0.3348 -4.3347,0.0186 -8.3448,-0.0326 -8.9121,-0.11997 z m 13.1432,-7.01417 c 0.2092,-0.20878 0.2743,-0.6516 0.2743,-1.90528 v -1.63312 l -5.7594,3.5e-4 c -5.1359,1.2e-4 -5.8246,0.0326 -6.3649,0.30318 -1.6726,0.8357 -1.1565,2.95878 0.8109,3.33952 0.3627,0.0702 2.9351,0.13671 5.7149,0.14787 4.3812,0.0186 5.0903,-0.0186 5.326,-0.25249 z m 13.7184,6.87867 c -0.2697,-0.2962 -0.2884,-1.27688 -0.2418,-12.25451 l 0.047,-11.93263 0.3998,-0.69578 c 0.2186,-0.38269 0.6817,-0.88935 1.0268,-1.12585 l 0.6277,-0.43012 h 8.2402 c 7.9785,0 8.2868,0.014 9.712,0.38781 3.3024,0.86968 5.7483,2.70387 6.9903,5.24154 1.0992,2.24659 1.1444,2.72415 1.1476,12.14105 0,7.93654 0,8.43343 -0.3115,8.70374 -0.2697,0.24226 -0.7585,0.28644 -3.1741,0.28644 -2.763,0 -2.87,-0.0139 -3.2341,-0.40083 -0.3766,-0.39897 -0.3766,-0.44036 -0.3766,-7.84958 0,-8.29184 -0.047,-8.61692 -1.1109,-9.87214 -1.3225,-1.54486 -3.3154,-1.96136 -9.4116,-1.96657 l -3.5074,-0.003 v 9.66949 9.66949 l -0.3999,0.37664 c -0.3767,0.35526 -0.5627,0.37665 -3.2639,0.37665 -2.5705,0 -2.8932,-0.0326 -3.1545,-0.32178 z m 42.2464,0.12927 c -4.2529,-0.61961 -7.2609,-3.23634 -8.5453,-7.43411 -0.5515,-1.80103 -0.7881,-4.26031 -0.6742,-6.99077 0.186,-4.45008 1.1392,-7.05858 3.3931,-9.2895 1.4694,-1.45419 2.5747,-2.0737 4.643,-2.60278 1.2122,-0.31015 1.9558,-0.33758 9.146,-0.33758 7.3619,0 7.8431,0.0186 8.1128,0.31666 0.2418,0.26784 0.2883,0.75897 0.2883,3.18314 0,2.08203 -0.06,2.91544 -0.2185,3.04564 -0.1395,0.11439 -2.763,0.20646 -7.2312,0.25436 -4.6663,0.0497 -7.2251,0.14275 -7.6418,0.27667 -2.2854,0.73591 -3.3345,2.77511 -3.3094,6.43366 0,3.02044 0.8273,4.88095 2.4831,5.72571 1.0881,0.55525 2.7189,0.67601 9.1772,0.67959 5.7502,0.003 6.1845,0.0233 6.4519,0.32039 0.2418,0.26784 0.2883,0.75859 0.2883,3.17747 0,2.55149 -0.046,2.89177 -0.3162,3.14743 -0.2837,0.25807 -1.0519,0.28458 -7.6646,0.26551 -4.0413,-0.009 -7.8129,-0.0888 -8.3811,-0.17158 z m 28.118,0.009 c -2.8719,-0.42176 -5.0718,-1.86911 -6.1761,-4.06329 -0.9468,-1.87994 -0.9896,-2.28337 -0.9896,-9.26146 0,-6.21818 0,-6.54703 0.3813,-7.70776 0.6696,-2.12108 1.8656,-3.60457 3.6907,-4.57739 1.8182,-0.96915 2.5375,-1.04675 9.6971,-1.04675 7.034,0 7.8101,0.0777 9.5455,0.9571 2.6425,1.33915 3.7836,3.6334 3.7888,7.61848 0,4.48183 -1.4917,6.69067 -5.2894,7.79997 -0.8793,0.25668 -2.0381,0.31154 -7.9152,0.37432 l -6.8847,0.0739 v 0.6357 c 0,0.85634 0.5603,1.71919 1.3452,2.0751 0.571,0.25901 1.5875,0.299 8.7838,0.3455 7.1675,0.0465 8.1742,0.086 8.4439,0.33014 0.2697,0.24366 0.3069,0.62371 0.3069,3.16794 0,2.58065 -0.046,2.92163 -0.3162,3.17752 -0.2883,0.259 -1.136,0.28458 -8.8768,0.26551 -4.7081,-0.009 -8.9991,-0.0856 -9.5357,-0.16414 z m 11.611,-16.14914 c 1.6079,-0.56339 1.6921,-2.51866 0.1441,-3.36422 -0.498,-0.27202 -1.09,-0.30689 -5.2377,-0.30689 -4.2636,0 -4.736,0.0279 -5.3466,0.33247 -0.9528,0.47272 -1.3206,1.16421 -1.3215,2.48206 v 1.08257 l 5.586,-0.009 c 3.8595,-0.005 5.7683,-0.0735 6.1761,-0.21669 z m 28.0096,16.01048 c -0.2697,-0.29621 -0.2883,-0.99826 -0.2418,-8.18913 l 0.051,-7.86488 0.4418,-0.85945 c 0.4873,-0.94688 1.553,-1.85999 2.5495,-2.18503 0.4418,-0.14461 2.9565,-0.2418 8.0199,-0.31015 l 7.3744,-0.0995 0.7198,-0.47653 c 1.7702,-1.17245 1.9358,-3.84809 0.3115,-5.05197 -1.0458,-0.77557 -1.2824,-0.79361 -10.4103,-0.79361 -8.2031,0 -8.7104,-0.0186 -8.981,-0.31666 -0.2465,-0.27063 -0.2883,-0.78269 -0.2883,-3.5239 0,-2.88712 0.047,-3.23582 0.3162,-3.49385 0.2883,-0.25947 1.2108,-0.28644 9.6845,-0.28644 10.4629,0 11.0948,0.053 13.3459,1.12209 2.2283,1.05838 3.8385,2.8961 4.7393,5.40913 0.5026,1.40215 0.6375,5.14688 0.2511,6.97906 -0.8427,4.00233 -3.8288,6.95957 -7.785,7.71004 -1.0286,0.19529 -2.7375,0.2576 -7.0582,0.2576 h -5.7005 v 5.77225 5.7723 l -0.3999,0.37665 c -0.3813,0.35805 -0.5561,0.37665 -3.5242,0.37665 -2.8313,0 -3.1503,-0.0326 -3.4163,-0.32411 z m 31.8695,-9.4e-4 c -0.2697,-0.29992 -0.2882,-1.1445 -0.2372,-10.86881 0.061,-11.67493 0.047,-11.40105 1.2169,-13.16799 0.5967,-0.89299 1.8201,-1.81819 2.8691,-2.1701 0.4464,-0.15066 2.6495,-0.23111 7.4567,-0.27203 6.2236,-0.0535 6.848,-0.0326 7.1447,0.23576 0.293,0.26458 0.3255,0.57534 0.3255,3.09851 0,2.45175 -0.047,2.83839 -0.3022,3.07592 -0.2558,0.23017 -1.057,0.28039 -5.2475,0.33014 -4.4376,0.0521 -4.9937,0.0907 -5.427,0.37479 -0.9667,0.63384 -0.9737,0.70578 -0.9737,10.30333 0,8.31728 0,8.82845 -0.3162,9.09898 -0.2698,0.2432 -0.7646,0.28644 -3.2644,0.28644 -2.663,0 -2.9754,-0.0326 -3.2414,-0.32503 z m 30.9809,0.16275 c -5.6441,-0.88661 -8.708,-4.54754 -9.3031,-11.11531 -0.2233,-2.47616 -0.046,-5.62931 0.4687,-7.51548 1.0616,-4.03204 3.6999,-6.74795 7.499,-7.71956 1.1462,-0.29295 1.9349,-0.3348 6.3625,-0.3348 4.4277,0 5.2164,0.0419 6.3626,0.3348 3.5856,0.91706 5.9469,3.14352 7.1759,6.76692 1.321,3.8958 1.1871,9.84889 -0.3023,13.42365 -0.8941,2.14625 -2.6803,4.09868 -4.6834,5.12084 -0.3488,0.17809 -1.2091,0.4935 -1.9093,0.70047 -1.1486,0.33945 -1.741,0.3813 -6.0367,0.42547 -2.6198,0.0279 -5.1548,-0.0139 -5.6334,-0.0874 z m 7.9362,-6.94302 c 2.9202,-0.42222 4.0803,-1.97466 4.2393,-5.6719 0.098,-2.27919 -0.1348,-3.73942 -0.7937,-4.95414 -0.8998,-1.66208 -2.0548,-2.1621 -5.3153,-2.30034 -4.1641,-0.1767 -6.0799,0.33526 -7.1402,1.90798 -0.7564,1.12194 -0.9294,1.78243 -1.0387,3.96517 -0.2186,4.40642 1.0476,6.59962 4.0725,7.04305 1.401,0.20553 4.5881,0.21064 5.9761,0.009 z m 37.2835,6.91289 c -3.6907,-0.53786 -6.1329,-2.67974 -6.935,-6.08301 -0.1999,-0.85118 -0.2557,-2.41487 -0.2557,-7.23476 0,-6.65337 0.084,-7.47907 0.9523,-9.18961 0.8505,-1.67804 2.2975,-2.89964 4.3393,-3.66335 0.9831,-0.36781 1.3085,-0.38595 7.8808,-0.44454 7.5074,-0.067 8.2049,-0.002 10.1435,0.94772 1.2787,0.62616 2.6919,2.16605 3.1811,3.46669 0.5659,1.50548 0.7918,3.84507 0.5561,5.76003 -0.4185,3.40192 -1.9963,5.23378 -5.3205,6.17865 -0.8784,0.24971 -2.1073,0.30644 -7.9454,0.36596 l -6.9057,0.0707 0.093,0.70717 c 0.1115,0.84564 0.5524,1.47943 1.3508,1.94964 0.5621,0.33108 0.9509,0.34875 8.8122,0.39897 7.2479,0.0465 8.2606,0.0856 8.5304,0.33014 0.2697,0.2432 0.3068,0.61952 0.3068,3.07806 0,2.70377 0,2.81398 -0.3998,3.17751 l -0.4,0.37665 -8.4759,-0.0232 c -4.6621,-0.009 -8.94,-0.0888 -9.5074,-0.17158 z m 11.9527,-16.29264 c 0.5218,-0.28597 0.9431,-0.94176 0.9431,-1.46725 0,-0.59483 -0.5701,-1.43196 -1.1825,-1.73672 -0.5687,-0.28319 -1.1308,-0.31667 -5.3126,-0.31667 -4.3654,0 -4.716,0.0233 -5.2647,0.34643 -0.9551,0.5625 -1.2923,1.15998 -1.3731,2.43542 l -0.074,1.13264 5.8664,-0.0521 c 5.0964,-0.0465 5.9361,-0.0902 6.3955,-0.34224 z m 21.3016,16.29236 c -4.5268,-0.65941 -7.6031,-3.57425 -8.755,-8.29444 -0.7719,-3.1638 -0.6082,-8.39721 0.3535,-11.28736 1.1467,-3.44805 3.7111,-5.83837 7.2292,-6.73814 1.1993,-0.30644 1.9684,-0.3348 9.2135,-0.3348 5.9176,0 7.9575,0.0521 8.1134,0.20785 0.1441,0.14554 0.2092,1.09698 0.2092,3.1697 0,2.07273 -0.06,3.02426 -0.2092,3.16971 -0.1535,0.15391 -1.8136,0.20925 -6.3655,0.21297 -6.5433,0.005 -8.2694,0.1288 -9.3157,0.6655 -1.3806,0.70796 -2.2222,2.26147 -2.4389,4.50058 -0.3535,3.66381 0.5287,6.34871 2.4017,7.30423 1.1011,0.56181 2.7165,0.68118 9.266,0.68476 4.6221,0.003 6.2984,0.0572 6.4524,0.2111 0.1441,0.14555 0.2092,1.0987 0.2092,3.17752 0,2.65695 -0.047,2.99984 -0.3162,3.25629 -0.2836,0.25807 -1.0519,0.28458 -7.6646,0.26551 -4.0414,-0.009 -7.8128,-0.0888 -8.3807,-0.17158 z m 28.3045,0.009 c -2.3306,-0.34317 -3.881,-1.32943 -4.7956,-3.05071 -0.969,-1.82414 -1.0848,-2.91977 -1.0848,-10.2685 v -6.58921 h -1.4452 c -2.0503,0 -2.0191,0.053 -2.0191,-3.40764 0,-3.40234 -0.047,-3.34747 2.0488,-3.34747 h 1.4155 v -2.65789 c 0,-2.35493 0.047,-2.69057 0.3162,-2.94455 0.2697,-0.24319 0.7649,-0.28644 3.2642,-0.28644 2.6352,0 2.9779,0.0326 3.2341,0.31667 0.2418,0.26551 0.2883,0.74241 0.2883,2.94455 v 2.62779 h 3.1178 c 2.9709,0 3.1178,0.014 3.1178,0.3362 0,0.18507 0.079,0.38455 0.1721,0.44314 0.1023,0.0632 0.1721,1.12423 0.1721,2.59813 0,1.47386 -0.07,2.5348 -0.1721,2.59813 -0.098,0.0591 -0.1721,0.25854 -0.1721,0.44314 0,0.32039 -0.1488,0.3362 -3.1178,0.3362 h -3.1178 v 5.71235 c 0,7.84233 -0.1116,7.62471 3.9558,7.62471 h 2.2348 l 0.1068,0.64951 c 0.06,0.35712 0.107,1.58485 0.107,2.72805 0,1.14315 -0.047,2.37079 -0.107,2.72805 l -0.1068,0.64951 -3.2253,-0.0232 c -1.774,-0.009 -3.6577,-0.0846 -4.1863,-0.16275 z M 4759.2126,281.3078 c -0.2464,-0.27156 -0.2883,-0.78868 -0.2883,-3.61052 0,-2.97097 0.047,-3.32185 0.3162,-3.58044 0.2697,-0.24319 0.7645,-0.2869 3.2638,-0.2869 2.6356,0 2.9779,0.0326 3.2341,0.31666 0.2464,0.27156 0.2883,0.78873 0.2883,3.61057 0,2.97096 -0.047,3.32185 -0.3162,3.58044 -0.2697,0.24319 -0.7649,0.28643 -3.2643,0.28643 -2.6356,0 -2.9778,-0.0325 -3.234,-0.31666 z m 150.345,0 c -0.2465,-0.27156 -0.2883,-0.78868 -0.2883,-3.61052 0,-2.97097 0.047,-3.32185 0.3162,-3.58044 0.2697,-0.24319 0.7644,-0.2869 3.2638,-0.2869 2.6356,0 2.9778,0.0326 3.2341,0.31666 0.2464,0.27202 0.2883,0.79617 0.2883,3.71789 0,3.18533 0,3.41253 -0.3348,3.58044 -0.1953,0.10323 -1.5764,0.17949 -3.2639,0.17949 -2.6179,0 -2.9597,-0.0326 -3.2159,-0.31667 z m 244.3973,0 c -0.2465,-0.27156 -0.2883,-0.78868 -0.2883,-3.61052 0,-2.97097 0.047,-3.32185 0.3162,-3.58044 0.2696,-0.24366 0.7709,-0.2869 3.3508,-0.2869 2.7193,0 3.0638,0.0326 3.3205,0.31666 0.2464,0.27156 0.2882,0.78873 0.2882,3.61057 0,2.97096 -0.046,3.32185 -0.3162,3.58044 -0.2697,0.24366 -0.7709,0.28643 -3.3507,0.28643 -2.7193,0 -3.0639,-0.0325 -3.3205,-0.31666 z"
       id="path1" />
  </g>
</svg>
