<?xml version="1.0" encoding="UTF-8" standalone="no"?>
<!-- Created with Inkscape (http://www.inkscape.org/) -->

<svg
   version="1.1"
   id="svg1"
   width="800"
   height="127.92753"
   viewBox="0 0 800.00001 127.92753"
   sodipodi:docname="PutnamCoSchools.svg"
   inkscape:version="1.3.2 (091e20e, 2023-11-25)"
   xmlns:inkscape="http://www.inkscape.org/namespaces/inkscape"
   xmlns:sodipodi="http://sodipodi.sourceforge.net/DTD/sodipodi-0.dtd"
   xmlns="http://www.w3.org/2000/svg"
   xmlns:svg="http://www.w3.org/2000/svg">
  <defs
     id="defs1" />
  <sodipodi:namedview
     id="namedview1"
     pagecolor="#ffffff"
     bordercolor="#666666"
     borderopacity="1.0"
     inkscape:showpageshadow="2"
     inkscape:pageopacity="0.0"
     inkscape:pagecheckerboard="0"
     inkscape:deskcolor="#d1d1d1"
     inkscape:zoom="0.11771138"
     inkscape:cx="883.51695"
     inkscape:cy="-433.26312"
     inkscape:window-width="1312"
     inkscape:window-height="449"
     inkscape:window-x="0"
     inkscape:window-y="25"
     inkscape:window-maximized="0"
     inkscape:current-layer="g1" />
  <g
     inkscape:groupmode="layer"
     inkscape:label="Image"
     id="g1"
     transform="translate(0.11318733,-485.93202)">
    <path
       style="fill:#ffffff;stroke-width:0.250698"
       d="m 1.091817,612.11718 1.2050044,-1.74692 1.9562525,-0.01 1.9562522,-0.01 -1.2041577,1.75365 -1.204158,1.75364 -1.9570988,0.001 -1.95709893,10e-4 z m 16.778403,0.18011 c 0.101779,-0.17226 0.638308,-0.96204 1.192289,-1.75487 l 1.007239,-1.44152 h 1.84568 c 1.406145,0 1.802487,0.0746 1.664304,0.3136 -0.09976,0.17225 -0.630424,0.96204 -1.179261,1.75487 l -0.997886,1.44152 h -1.858708 c -1.418528,0 -1.814884,-0.0741 -1.673657,-0.3136 z m 74.803298,-2.75976 c 0,-0.28562 14.226602,-40.59339 14.359002,-40.68305 0.0309,-0.0196 4.56871,-2.24588 10.08408,-4.94439 35.9935,-17.61056 34.79702,-16.96098 35.14055,-19.07794 0.16706,-1.02937 -0.45974,-2.47713 -1.24497,-2.87567 -0.32282,-0.16392 -7.35926,-0.68506 -16.91588,-1.25307 -8.99973,-0.53493 -16.43061,-1.04008 -16.51306,-1.12252 -0.1592,-0.15901 18.60537,-53.30647 18.94163,-53.64873 0.13702,-0.13938 70.47011,106.38954 81.36032,123.23136 l 0.44581,0.68942 h -62.82875 c -50.31007,0 -62.828732,-0.0628 -62.828732,-0.31556 z m -81.226212,-1.34616 c 0,-0.0864 0.574749,-0.93265 1.277221,-1.88022 l 1.277221,-1.72287 h 1.752048 c 0.963628,0 1.714444,0.0952 1.668483,0.21152 -0.04598,0.11631 -0.59123,0.95895 -1.211708,1.87231 l -1.128141,1.66064 -1.817563,0.01 c -0.999659,0.004 -1.817561,-0.0628 -1.817561,-0.14919 z m 419.810254,-0.87636 c -1.22655,-0.28759 -2.59868,-1.3097 -2.93087,-2.1834 -0.17629,-0.46378 -0.15832,-0.99866 0.0602,-1.79291 0.36993,-1.34474 2.95572,-4.06951 5.36151,-5.64972 4.89451,-3.21489 14.98563,-7.31787 25.55901,-10.39211 2.15927,-0.62783 3.71955,-1.22553 4.07781,-1.5621 1.77126,-1.66403 3.96277,-7.59898 4.42453,-11.98238 0.23846,-2.26394 0.0799,-2.27223 -3.12686,-0.16342 -3.06756,2.01718 -7.24461,4.20648 -8.87305,4.65057 -1.59098,0.43383 -2.98111,0.34304 -3.72665,-0.24342 -2.11833,-1.66629 1.34571,-5.05653 7.17749,-7.02469 1.82045,-0.61438 3.80462,-0.56899 5.23864,0.11975 0.90586,0.43531 0.93358,0.43236 2.12895,-0.20367 1.41214,-0.7518 2.00937,-0.80048 2.82347,-0.23016 0.56637,0.39653 0.58537,0.50705 0.44171,2.56968 -0.18102,2.59869 -1.07585,6.00385 -2.42847,9.24103 -0.55025,1.31691 -1.00046,2.50397 -1.00046,2.6379 0,0.15213 0.82885,0.17864 2.21022,0.0707 2.78746,-0.2179 4.3202,0.12858 5.20179,1.17621 0.68845,0.81815 0.72926,1.76341 0.0815,1.88674 -0.25173,0.0491 -0.52083,-0.20661 -0.71534,-0.67598 -0.42655,-1.02972 -1.59476,-1.38503 -3.91039,-1.18931 -3.34181,0.28268 -3.8098,0.58455 -7.22798,4.66495 -3.40987,4.07044 -6.38497,6.72252 -11.02526,9.82807 -7.48742,5.01114 -15.22005,7.52659 -19.82151,6.44805 z m 5.32179,-2.11804 c 5.79557,-1.182 12.89716,-5.29106 20.07861,-11.61779 1.87659,-1.65318 4.79259,-4.86179 4.79259,-5.2734 0,-0.31065 -2.75795,0.49504 -8.52371,2.48994 -12.02358,4.16001 -18.08799,7.21275 -21.36939,10.75704 -1.41981,1.53359 -1.83168,2.50191 -1.34638,3.16557 0.65701,0.89854 3.32588,1.09912 6.36828,0.4785 z m 23.10214,-30.37422 c 2.12937,-1.07129 3.91422,-2.08466 3.96629,-2.25192 0.15307,-0.49165 -1.19303,-0.67662 -2.68928,-0.36954 -0.76348,0.15655 -2.51632,0.84303 -3.89516,1.52529 -3.79609,1.8783 -5.04723,3.53556 -2.41123,3.19403 0.71998,-0.0932 2.6217,-0.88656 5.02938,-2.09781 z m -429.020988,29.5148 1.16692,-1.75487 h 1.864347 c 1.025391,0 1.826741,0.0947 1.780779,0.21005 -0.04598,0.11582 -0.534823,0.90432 -1.086358,1.75266 l -1.002792,1.54247 -1.94491,0.002 -1.944909,0.002 z m -1.476048,-3.17568 c 1.449301,-1.82123 1.797741,-2.02322 3.822895,-2.21643 1.034132,-0.0986 1.82383,-0.12319 1.75489,-0.0545 -0.06894,0.0687 -1.52419,0.82394 -3.233878,1.67836 l -3.10853,1.55346 z m 57.528608,-1.02339 c -2.102685,-2.85865 -2.054728,-2.49332 -0.591429,-4.50516 0.707969,-0.97338 1.287228,-1.85179 1.287228,-1.95206 0,-0.10011 -2.499263,-0.0991 -5.553915,0.003 -5.13991,0.17128 -5.541881,0.15361 -5.392511,-0.23556 0.08878,-0.23115 0.895812,-1.47401 1.793437,-2.76143 0.897623,-1.28747 1.632041,-2.40563 1.632041,-2.48479 0,-0.079 -1.240733,-0.17569 -2.757184,-0.21495 l -2.757186,-0.0707 1.754154,-2.63236 1.754158,-2.6323 -2.130405,-0.0726 c -2.03361,-0.0692 -2.155344,-0.106 -2.679243,-0.81476 -0.301869,-0.40832 -0.671822,-0.74233 -0.822131,-0.74233 -0.150323,0 -1.097217,0.39457 -2.104218,0.87744 -1.093279,0.52393 -2.211757,0.87743 -2.776203,0.87743 -0.918877,0 -0.999277,0.077 -2.877244,2.7577 l -1.931952,2.75765 H 59.69721 56.833965 l -1.935432,2.75769 -1.935438,2.75765 h -2.832971 c -1.558139,0 -2.832978,-0.0687 -2.832978,-0.15312 0,-0.0844 0.741192,-1.22381 1.647088,-2.53219 0.905899,-1.30837 1.707665,-2.53675 1.78171,-2.72972 0.110373,-0.28759 -0.36498,-0.3509 -2.6375,-0.3509 h -2.772125 l -1.81494,2.63231 -1.814939,2.63236 h -2.333961 c -1.283678,0 -2.333957,-0.0717 -2.333957,-0.15901 0,-0.0874 1.036111,-1.21567 2.302468,-2.50702 l 2.302464,-2.34786 h 1.6738 1.673796 l 1.898658,-2.69498 1.898663,-2.69502 -0.735614,-0.0785 c -0.404583,-0.0442 -0.729909,-0.15606 -0.72294,-0.25077 0.007,-0.0947 2.259123,-2.48484 5.00479,-5.31144 4.296606,-4.4233 4.910243,-5.14997 4.404456,-5.21578 -0.554317,-0.0721 -0.481977,-0.23213 1.275334,-2.82037 l 1.862986,-2.74391 h 2.977342 2.977338 l 1.721318,-2.44429 c 0.946721,-1.34435 1.807756,-2.58534 1.913403,-2.7577 0.149388,-0.24391 -0.449637,-0.3136 -2.693069,-0.3136 h -2.885153 l -1.18423,1.6922 c -0.651328,0.93074 -1.264473,1.78638 -1.362553,1.90142 -0.09805,0.11533 -0.670802,-0.58907 -1.27274,-1.5647 l -1.094424,-1.77392 -3.572449,-0.002 c -1.964849,-10e-4 -3.572454,-0.0942 -3.572454,-0.2071 0,-0.11287 1.526819,-2.45352 3.392923,-5.20194 l 3.392926,-4.9972 -5.146997,-0.0677 -5.146995,-0.0677 0.92491,-1.39303 c 0.835983,-1.25906 0.89199,-1.4454 0.582548,-1.93783 -0.188305,-0.29936 -0.559607,-0.91145 -0.825139,-1.35956 l -0.482776,-0.81477 0.71418,-0.002 c 0.392804,-10e-4 8.762123,-0.17029 18.598489,-0.37592 l 17.884294,-0.37347 15.959965,-15.62384 c 8.77797,-8.59307 16.70101,-16.31474 17.60676,-17.1592 l 1.6468,-1.53545 -5.86867,17.0529 c -3.22777,9.37902 -5.81946,17.10207 -5.75931,17.16218 0.10453,0.10454 27.93334,0.8316 33.15349,0.8662 l 2.50698,0.0147 -21.94934,10.99247 -21.94933,10.99251 -6.364523,17.2119 c -3.500486,9.46653 -6.44519,17.26176 -6.543784,17.32267 -0.09859,0.0608 -0.739417,-0.65071 -1.424051,-1.58149 z M 58.455816,585.72761 c 0.963758,-1.4109 1.789894,-2.65189 1.835852,-2.7577 0.04613,-0.106 -1.16679,-0.19238 -2.695007,-0.19238 -1.528213,0 -2.778569,-0.0604 -2.778569,-0.13349 0,-0.0736 0.789702,-1.31073 1.754886,-2.7493 0.965188,-1.43858 1.75489,-2.67579 1.75489,-2.74931 0,-0.0736 -1.232296,-0.13348 -2.738432,-0.13348 h -2.738432 l -1.867217,2.69502 -1.867211,2.69498 1.033194,0.16931 c 0.568258,0.0932 1.79292,0.17766 2.721463,0.18796 l 1.688267,0.0196 -1.576525,2.4443 c -0.867086,1.34435 -1.661665,2.58534 -1.765732,2.7577 -0.146935,0.24341 0.444535,0.31359 2.648534,0.31359 h 2.837743 z m 29.136197,-0.12956 c 0.954046,-1.3444 1.817444,-2.58534 1.91867,-2.7577 0.142861,-0.24342 -0.462889,-0.3136 -2.705698,-0.3136 h -2.889746 l -1.762965,2.54785 c -0.96963,1.40127 -1.762962,2.64227 -1.762962,2.75764 0,0.11534 1.230316,0.21005 2.734041,0.21005 h 2.734044 z m -19.424241,-5.56717 c 1.068602,-1.504 1.942912,-2.79858 1.942912,-2.87691 0,-0.0785 -1.294843,-0.14232 -2.877423,-0.14232 h -2.877423 l -1.715302,2.56969 c -0.943415,1.4133 -1.798702,2.71063 -1.900639,2.88298 -0.14389,0.24342 0.448706,0.31213 2.649813,0.30722 l 2.835149,-0.005 z m 17.377985,-0.0579 c 0.955759,-1.40467 1.775355,-2.64561 1.821313,-2.7577 0.04614,-0.1119 -1.194988,-0.20023 -2.757675,-0.19631 l -2.841245,0.01 -1.629543,2.39689 c -0.896244,1.31829 -1.719751,2.55585 -1.830015,2.75009 -0.16735,0.29495 0.270264,0.35335 2.649464,0.35335 h 2.849941 z m -19.457605,-5.43535 c 0.971437,-1.3606 1.766249,-2.54515 1.766249,-2.63231 0,-0.0874 -1.286428,-0.15852 -2.858723,-0.15852 h -2.85872 l -1.7918,2.63236 -1.791803,2.6323 h 2.884276 2.884274 z m 11.621316,0.0196 c 0.922376,-1.35058 1.677045,-2.53514 1.677045,-2.63231 0,-0.0972 -1.23843,-0.17667 -2.752066,-0.17667 h -2.752079 l -1.766099,2.63235 -1.766103,2.63231 h 2.84113 2.841127 z m 0.410868,-9.26453 c 0.459745,-0.65497 1.337465,-1.89592 1.950498,-2.7577 l 1.114602,-1.56686 -2.967709,0.005 -2.967711,0.005 -1.378841,2.05742 c -0.758363,1.13156 -1.587342,2.37 -1.842179,2.75201 l -0.463331,0.69463 h 2.859388 2.859389 z m 12.617091,-1.56686 1.913604,-2.7577 -2.93445,0.005 -2.93445,0.005 -1.818621,2.75156 -1.818627,2.75151 h 2.839467 2.83947 z m 9.602813,-5.57807 1.85304,-2.69497 h -2.871557 -2.871554 l -1.762965,2.54784 c -0.96963,1.40133 -1.762969,2.64595 -1.762969,2.7659 0,0.11974 1.251674,0.186 2.781487,0.14722 l 2.781483,-0.0707 z m -26.428653,-3.51273 c 0.504818,-0.72226 1.385343,-1.96188 1.95671,-2.75471 l 1.038852,-1.44152 h -2.984544 -2.984547 l -1.372995,2.06828 c -0.755145,1.13754 -1.574757,2.37848 -1.821355,2.75764 l -0.44836,0.68943 2.849186,-0.003 2.849189,-0.003 z m -30.235413,45.25402 c 0.246314,-0.37936 0.839332,-1.28173 1.31782,-2.0056 l 0.86997,-1.31618 h 1.970094 c 1.083547,0 1.970091,0.0613 1.970091,0.13692 0,0.0751 -0.567509,0.9777 -1.261131,2.00561 l -1.261131,1.86887 H 45.255089 43.22831 Z m -33.139069,0.0579 c 0.08042,-0.20955 0.604357,-1.05568 1.164306,-1.88026 l 1.018088,-1.49918 h 1.873436 1.873456 l -0.930927,1.44152 c -1.531728,2.37186 -1.454155,2.31895 -3.401741,2.31895 -1.456346,0 -1.718818,-0.0628 -1.596637,-0.38083 z m 10.203248,-0.0579 c 0.0095,-0.10355 0.887485,-1.429 1.951174,-2.9457 l 1.93398,-2.7577 2.812091,-0.0707 c 1.54665,-0.0393 2.812092,0.01 2.812092,0.10993 0,0.0996 -0.867918,1.45703 -1.928707,3.01662 l -1.928706,2.83558 h -2.834579 c -1.559008,0 -2.826822,-0.0844 -2.817365,-0.18796 z m 34.829852,-0.69781 c 0,-0.0736 0.792225,-1.31446 1.760496,-2.75765 l 1.760497,-2.62401 h 2.88988 c 2.413526,0 2.856829,0.0584 2.689397,0.35334 -0.110275,0.19435 -0.933775,1.43181 -1.830022,2.7501 l -1.629536,2.39689 -2.820358,0.01 c -1.551195,0.004 -2.820354,-0.0525 -2.820354,-0.12612 z m -15.087987,-3.94014 0.974226,-1.31613 2.814997,-0.0712 c 1.89043,-0.0491 2.762406,0.0147 2.654866,0.18796 -0.08807,0.14232 -0.647039,0.25912 -1.242146,0.25912 -0.755168,0 -1.816267,0.34059 -3.512671,1.12817 -1.336858,0.62047 -2.483042,1.12812 -2.547073,1.12812 -0.06404,0 0.321979,-0.59226 0.857801,-1.31618 z M 500.39061,593.7931 c -1.49987,-0.28906 -2.53586,-0.89148 -3.11704,-1.81323 -0.41667,-0.66056 -0.48831,-1.11521 -0.40586,-2.5689 0.18109,-3.1906 2.05233,-6.21954 7.23774,-11.71471 l 3.08698,-3.27143 -1.62421,0.16342 c -2.52166,0.25373 -4.20948,-0.10895 -5.09014,-1.09479 -0.68228,-0.76358 -0.72376,-0.9247 -0.59736,-2.31876 0.21789,-2.40214 1.38079,-4.38316 4.31393,-7.3481 4.02805,-4.07187 10.58435,-8.03228 15.55418,-9.39572 2.74246,-0.75239 5.38831,-0.6241 6.83195,0.33127 2.02223,1.33826 2.434,3.51509 1.21877,6.44289 -0.63737,1.5355 -1.51285,2.77134 -1.96322,2.77134 -0.37246,0 -0.21738,-1.18735 0.31608,-2.42354 0.28758,-0.66636 0.58326,-1.78309 0.65701,-2.48159 0.72388,-6.8542 -11.56997,-3.39309 -20.98493,5.9079 -1.86401,1.84149 -2.62074,2.80153 -3.33647,4.23289 -1.63262,3.26524 -1.10939,4.2241 2.14098,3.92341 3.75403,-0.34747 6.66107,-1.42852 9.56316,-3.55671 2.9901,-2.19278 8.03167,-4.24594 9.26432,-3.77294 0.78519,0.30132 0.48929,1.33767 -0.64741,2.26865 -1.37658,1.12738 -5.9781,3.5094 -10.0002,5.17672 -2.85028,1.18156 -3.36995,1.49869 -5.17093,3.1559 -4.02331,3.70212 -8.48558,9.90439 -8.96519,12.46112 -0.63296,3.37375 2.54754,4.29781 8.31077,2.4147 3.76299,-1.22956 12.29878,-6.21753 20.40855,-11.92589 4.80652,-3.38327 6.5104,-4.19873 6.5104,-3.11581 0,0.74439 -2.09556,2.36165 -8.52371,6.57809 -7.60972,4.99146 -9.57358,6.16645 -13.32822,7.97456 -5.25929,2.53269 -9.03651,3.50425 -11.65977,2.99911 z m 17.96847,-24.80259 c 0.48242,-0.26403 0.76459,-0.48046 0.62669,-0.48046 -0.13791,0 -0.64553,0.21643 -1.12811,0.48046 -0.48242,0.26403 -0.76466,0.48045 -0.62675,0.48045 0.13791,0 0.64556,-0.21642 1.12817,-0.48045 z M 238.90211,591.5778 c -1.24419,-0.58101 -1.4477,-1.1236 -1.26307,-3.36776 0.17187,-2.08928 1.36734,-5.06105 3.3569,-8.34489 1.75098,-2.89006 4.10077,-6.36447 4.93792,-7.30124 0.27679,-0.30967 0.44973,-0.61654 0.38437,-0.68192 -0.0654,-0.0653 -1.66665,1.6234 -3.55842,3.75283 -5.63942,6.34782 -9.29082,9.12696 -12.70367,9.66901 -2.52552,0.40096 -3.6454,-0.90119 -3.44937,-4.01125 0.20269,-3.21578 1.62277,-6.01887 5.10849,-10.08372 2.91383,-3.39794 10.46099,-9.77365 14.29653,-12.07739 4.60882,-2.7682 8.1453,-3.26421 10.12022,-1.41938 l 0.76772,0.7172 0.80534,-0.69384 c 1.05002,-0.90472 1.53793,-1.06501 2.06618,-0.67873 0.36905,0.26992 0.38598,0.40439 0.11591,0.92288 -0.43212,0.8293 -4.16876,5.75401 -8.22768,10.84376 -5.08313,6.37408 -7.37064,9.70175 -9.42093,13.70486 -2.0237,3.95119 -2.77031,6.40285 -2.17007,7.12608 0.58428,0.70405 1.80151,0.46034 3.8801,-0.77658 1.83742,-1.09352 4.69475,-3.57251 13.05761,-11.32883 2.90787,-2.69699 5.40435,-4.54722 6.13539,-4.54722 0.24067,0 0.93287,-0.43383 1.53828,-0.964 1.86364,-1.63209 2.63936,-1.86216 3.96587,-1.17622 0.94155,0.48684 1.10967,1.02364 0.7268,2.32033 -0.42289,1.43225 -0.70702,1.33169 -1.4355,-0.50813 l -0.27875,-0.70405 -1.15971,0.82939 c -2.4782,1.77234 -4.98937,5.35447 -4.81054,6.8621 0.14242,1.20065 1.2061,1.7397 3.42157,1.73406 2.86626,-0.005 6.94409,-1.49958 16.14013,-5.90624 2.85475,-1.368 5.28025,-2.49116 5.39001,-2.49597 0.10978,-0.005 1.64177,-2.06366 3.40448,-4.57524 4.13166,-5.88695 6.74346,-9.6461 7.332,-10.55289 l 0.46843,-0.72171 -0.86476,0.44512 c -0.47565,0.24489 -2.10571,1.14451 -3.62244,1.99927 -5.88747,3.31795 -11.01004,5.15783 -13.16223,4.72738 -1.09983,-0.21986 -0.92227,-0.74984 0.31394,-0.93672 3.54417,-0.53582 10.57533,-3.66409 16.35806,-7.27797 3.40982,-2.131 3.67373,-2.37034 6.42411,-5.82669 3.48672,-4.38173 5.48924,-5.95369 6.41066,-5.03224 0.80211,0.80211 0.0206,1.93052 -4.14758,5.98972 -3.93027,3.82741 -6.23755,6.73882 -10.39893,13.12159 -0.62928,0.96523 -1.82965,2.71382 -2.66748,3.88586 -2.39823,3.35471 -9.13557,13.50713 -10.06152,15.16159 l -0.83874,1.49855 0.74555,-0.53572 c 0.41003,-0.29445 1.77775,-1.43391 3.03939,-2.5317 6.49963,-5.6558 15.4571,-12.55102 17.56512,-13.52117 1.97159,-0.90732 2.81837,-0.97617 3.67905,-0.29936 l 0.72434,0.56973 -0.17201,3.91452 c -0.0946,2.15298 -0.0967,4.11083 -0.005,4.35077 0.23345,0.60844 1.41885,1.16983 2.4701,1.16983 1.34675,0 3.82671,-1.04012 7.0926,-2.97467 2.33751,-1.38464 3.17479,-2.03603 4.01457,-3.12341 1.06948,-1.38483 2.69206,-2.4257 3.78134,-2.4257 1.07956,0 0.59317,0.98168 -1.65622,3.34294 -3.39615,3.5648 -6.06932,7.8979 -6.06932,9.83789 0,2.21123 1.41392,2.18561 5.83745,-0.10601 8.67783,-4.49519 14.67434,-8.44476 16.68672,-10.99059 1.7208,-2.17698 4.02508,-2.64247 4.46208,-0.90139 0.33418,1.33164 -1.06881,3.02168 -3.05906,3.6848 -1.27404,0.42451 -1.92708,1.64342 -1.96437,3.66659 -0.0227,1.22146 0.0723,1.55768 0.60002,2.12677 0.59854,0.64555 0.70575,0.66906 2.38164,0.52208 2.72148,-0.23851 5.76157,-1.1371 12.15886,-3.59332 8.78894,-3.37454 11.95862,-4.33084 14.35417,-4.33084 1.14573,0 1.52628,-0.12368 2.31727,-0.7521 0.5205,-0.41371 1.18468,-0.75037 1.47597,-0.74826 1.35409,0.01 1.63195,1.34935 0.28333,1.36589 -0.65848,0.01 -0.99752,0.3558 -2.93989,3.01746 -2.36009,3.23383 -4.35174,6.97237 -5.19565,9.75274 -0.28887,0.95169 -0.48546,1.77008 -0.43688,1.81867 0.35609,0.3563 3.89504,-1.56882 6.56244,-3.56952 1.79151,-1.34371 5.9045,-5.42259 7.33688,-7.27605 l 0.79527,-1.02908 -0.61898,-0.58146 c -1.35457,-1.27255 -0.45184,-3.13637 1.43152,-2.95562 0.72257,0.0692 0.87535,0.21102 1.15663,1.07251 0.1783,0.54592 0.36684,1.03531 0.419,1.08753 0.0522,0.052 1.20371,0.25176 2.55895,0.44414 4.73498,0.67088 13.04217,0.33568 18.73345,-0.75558 1.08883,-0.20906 1.99677,-0.41028 2.01772,-0.44757 0.0205,-0.0393 0.52703,-0.66533 1.12468,-1.39578 1.14499,-1.39932 2.57814,-2.30708 3.64244,-2.30708 1.19258,0 0.77531,0.943 -1.36154,3.07699 -3.36986,3.36536 -6.27479,8.07217 -6.27479,10.16704 0,2.63545 1.96005,2.14155 10.32769,-2.60242 2.11024,-1.19638 5.35975,-3.18471 7.22118,-4.41853 2.86179,-1.89686 3.57799,-2.50574 4.63791,-3.9429 2.16106,-2.9302 6.03534,-7.62631 7.17752,-8.7001 1.38703,-1.30396 1.88304,-1.48682 2.23731,-0.82483 0.31329,0.58538 0.18098,0.78576 -2.85779,4.3277 -4.53523,5.28621 -12.95288,18.03943 -12.32274,18.66962 0.0614,0.0613 0.75673,-0.38378 1.54502,-0.98889 0.78833,-0.60536 2.46755,-1.89032 3.73155,-2.85551 1.26403,-0.96518 3.86542,-2.9857 5.78092,-4.49009 6.26251,-4.91843 9.4598,-6.75295 11.53313,-6.6174 1.73762,0.11337 2.12943,0.76672 2.37697,3.96218 0.22065,2.84868 0.61643,3.78511 1.99569,4.72212 0.8758,0.59495 1.24196,0.61444 4.49902,0.239 0.90378,-0.10404 0.80003,0.55054 -0.17773,1.12159 -1.05534,0.61636 -3.25306,0.83411 -4.44564,0.44071 -1.22479,-0.40439 -2.62784,-1.6552 -3.09382,-2.75858 -0.20475,-0.48488 -0.45028,-1.98411 -0.54561,-3.33199 -0.0953,-1.34783 -0.30732,-2.5846 -0.47113,-2.74837 -0.70757,-0.70759 -6.71983,3.18343 -15.15504,9.8081 -6.07829,4.77365 -6.8702,5.29352 -8.06345,5.29352 -0.57172,0 -1.1749,-0.13545 -1.34034,-0.30084 -0.87459,-0.87464 0.11046,-3.82643 2.61869,-7.84686 0.68813,-1.10309 1.33177,-2.14179 1.43024,-2.30826 0.0985,-0.16637 -1.1384,0.63932 -2.74873,1.7905 -5.33762,3.81593 -11.6166,7.1567 -14.25599,7.585 -2.43732,0.39555 -3.79237,-0.84466 -3.58996,-3.28562 0.12313,-1.48475 1.35754,-4.30385 2.80748,-6.41167 0.50251,-0.73055 0.87545,-1.36638 0.82882,-1.41306 -0.0466,-0.0491 -0.46284,0.0245 -0.92483,0.15606 -2.89425,0.83008 -14.19503,1.32457 -19.81837,0.86718 l -2.1399,-0.17422 -1.08281,1.40354 c -1.79215,2.32298 -7.32822,7.50259 -9.75099,9.12314 -2.3008,1.53899 -4.58886,2.56988 -5.70379,2.56988 -0.33955,0 -0.84896,-0.23164 -1.1321,-0.51476 -0.43387,-0.43383 -0.48792,-0.69968 -0.344,-1.6922 0.39971,-2.75701 2.67489,-7.66351 4.96353,-10.70399 0.97318,-1.29292 1.06644,-1.51508 0.66398,-1.58178 -0.74199,-0.12318 -9.57605,2.87602 -13.25287,4.49903 -5.10431,2.25309 -11.36561,3.92772 -13.70136,3.66442 -3.31133,-0.37346 -4.53903,-2.606 -3.52583,-6.41245 0.33763,-1.26853 0.33319,-1.31844 -0.0903,-1.00283 -0.24507,0.18256 -1.50626,1.13445 -2.80259,2.11494 -4.9853,3.77073 -10.10915,6.80095 -13.74123,8.1265 -2.6212,0.9566 -3.77444,0.97005 -4.79736,0.0559 -1.4971,-1.33777 -1.21481,-3.77421 0.85686,-7.3956 0.61133,-1.06859 1.0853,-1.94289 1.05331,-1.94289 -0.0319,0 -0.94596,0.50593 -2.03103,1.12429 -3.94797,2.24986 -7.0103,2.78351 -8.87838,1.54733 -1.43775,-0.95149 -1.66411,-1.97807 -1.26139,-5.72083 0.364,-3.38258 0.27832,-3.84547 -0.66765,-3.60804 -1.78811,0.44856 -5.7325,3.44476 -19.51764,14.82473 -3.55101,2.93148 -4.60181,3.53703 -5.3981,3.11085 -1.2539,-0.67102 -0.24961,-3.29356 3.52526,-9.20554 l 1.95798,-3.06654 -0.92119,0.38476 c -0.50666,0.21152 -1.87487,0.89182 -3.04047,1.5117 -3.26156,1.73465 -9.46368,4.48685 -11.81269,5.24199 -2.96978,0.95473 -6.22609,1.13043 -7.82678,0.42255 -2.16556,-0.95797 -2.7011,-2.80864 -1.53758,-5.3135 l 0.64048,-1.37884 -0.95192,0.87743 c -0.52356,0.48242 -2.93335,2.8054 -5.35507,5.16175 -4.77057,4.64179 -9.16116,8.28914 -11.1489,9.26159 -1.78945,0.87547 -3.26097,1.00189 -4.56639,0.39212 z m -7.84567,-8.3177 c 3.03282,-1.37566 9.04281,-6.7664 15.62922,-14.0189 1.94091,-2.13723 4.63398,-5.03514 5.98462,-6.4398 2.78002,-2.89128 3.00627,-3.52672 1.53204,-4.30272 -1.62811,-0.85697 -4.16407,0.0883 -8.40658,3.13392 -8.76634,6.29296 -13.5377,11.24604 -16.16724,16.78312 -1.37768,2.901 -1.42654,5.37828 -0.10571,5.36047 0.22442,-0.003 0.91456,-0.23508 1.53367,-0.51609 z m 110.17442,-10.50298 c 0.90787,-0.56108 1.61417,-1.76105 1.03654,-1.76105 -0.18783,0 -0.74947,0.4515 -1.24814,1.00351 -1.26546,1.40074 -1.20121,1.63071 0.2116,0.75754 z m 299.21822,18.27962 c -1.58273,-0.6673 -2.85335,-2.5639 -3.28616,-4.90504 -0.31263,-1.6923 0.239,-5.93146 1.14211,-8.77573 0.32241,-1.01603 0.52998,-1.84733 0.46083,-1.84733 -0.0692,0 -1.81514,1.63439 -3.87984,3.63199 -5.24072,5.07037 -8.89365,7.71789 -11.39571,8.2593 -0.9735,0.21054 -2.44282,-0.35727 -2.83882,-1.0972 -0.83333,-1.55709 -0.43384,-5.16361 1.00967,-9.11956 0.452,-1.23878 0.64895,-2.11426 0.50717,-2.25604 -0.1276,-0.12759 -0.17423,-0.38181 -0.10403,-0.56501 0.15898,-0.4147 -2.86093,0.37887 -7.56268,1.98735 -3.29237,1.1263 -4.19017,1.4846 -7.14493,2.85133 -3.29761,1.52534 -9.94477,3.33238 -12.21947,3.32188 -1.44636,-0.005 -3.04811,-0.69306 -3.77561,-1.61795 -0.74263,-0.94408 -0.91485,-2.1441 -0.56375,-3.92851 0.16391,-0.83401 0.24636,-1.56848 0.18255,-1.63228 -0.0638,-0.0638 -1.79202,0.72152 -3.8405,1.74505 -4.38548,2.19122 -10.17648,4.72414 -12.12301,5.30246 -1.96392,0.58347 -5.23883,0.78075 -6.60609,0.39801 -0.65218,-0.18257 -1.46034,-0.66676 -1.94141,-1.16311 -0.71266,-0.73526 -0.82166,-1.01662 -0.8056,-2.07996 0.0147,-0.84156 0.24342,-1.65289 0.73025,-2.57096 0.83105,-1.56622 4.93547,-5.82884 6.00355,-6.2349 0.93778,-0.35678 2.17251,-0.12564 2.75174,0.51417 0.38132,0.42108 0.41615,0.6854 0.22231,1.6873 -0.2817,1.45795 -0.85425,1.58344 -1.22428,0.26844 -0.14232,-0.50578 -0.32781,-0.98844 -0.41222,-1.07256 -0.25768,-0.25716 -2.74454,1.76346 -3.90335,3.17131 -1.38876,1.68715 -2.08539,3.11812 -2.08539,4.28358 0,0.77295 0.12268,0.98069 0.7803,1.32074 2.09454,1.08312 4.75059,0.64315 10.60373,-1.75649 4.66814,-1.91383 13.14407,-6.13464 13.29921,-6.62265 0.23555,-0.74154 2.15364,-2.50599 3.04313,-2.79951 1.91426,-0.63176 2.85946,1.33119 1.44844,3.00813 -0.68458,0.81354 -2.28903,1.76312 -2.97914,1.76312 -0.62569,0 -1.36483,1.93189 -1.37104,3.58385 -0.005,1.23333 0.0927,1.5511 0.64425,2.10267 0.60788,0.60786 0.7575,0.64001 2.31896,0.49793 2.22144,-0.2022 5.83635,-1.17042 9.06481,-2.42805 10.87257,-4.23549 14.87293,-5.51127 17.2806,-5.51127 h 1.44659 l 1.89513,-3.82315 c 3.05214,-6.15721 6.26615,-10.88901 10.26763,-15.11629 3.38933,-3.58056 7.53623,-6.63179 9.01316,-6.63179 0.93682,0 1.58171,0.96882 1.36522,2.0511 -0.65467,3.27339 -6.76773,10.72686 -16.40071,19.99698 -4.78337,4.60327 -4.80912,4.63374 -5.5614,6.60386 -1.83433,4.8036 -2.475,8.46911 -1.67218,9.56704 1.11329,1.52255 6.51184,-2.24706 14.61591,-10.20576 4.02316,-3.95094 4.06163,-3.99938 6.69059,-8.40992 4.9951,-8.38023 10.42655,-15.15458 13.94318,-17.39049 1.33016,-0.84574 1.90402,-0.89089 2.28461,-0.17963 0.89588,1.67395 -3.41627,7.4387 -14.42988,19.29093 -3.86398,4.15814 -6.64351,10.80013 -6.64351,15.87526 0,1.76155 0.10307,2.27346 0.68943,3.43157 0.82649,1.63174 1.63714,2.10944 3.18558,1.87722 1.49376,-0.22379 4.21025,-1.58021 6.22887,-3.10968 1.76618,-1.33826 2.28451,-1.53432 2.50902,-0.94923 0.15313,0.39948 -1.68305,2.24244 -3.34276,3.3551 -2.58026,1.72979 -6.03982,2.67476 -7.51525,2.05272 z m -44.51416,-19.09222 c 0.48584,-0.6934 0.4947,-0.94845 0.0344,-0.94845 -0.35385,0 -1.89846,1.68327 -1.89846,2.06916 0,0.34108 1.45221,-0.5314 1.86501,-1.12071 z m 39.16944,-10.50739 c 3.7608,-4.16113 5.93172,-6.78112 7.24365,-8.74202 1.25898,-1.88168 1.95481,-3.42253 1.63493,-3.62021 -0.38769,-0.23949 -3.15497,1.79766 -5.65108,4.15995 -2.69091,2.54667 -4.88961,5.18507 -7.28021,8.73608 -1.51877,2.25599 -4.12508,6.89508 -4.13548,7.36086 -0.01,0.40734 5.38572,-4.79392 8.18819,-7.89466 z m 18.79367,-4.68326 c 3.33938,-4.0753 4.29136,-5.4617 3.96479,-5.77427 -0.24147,-0.23115 -4.0528,3.87914 -6.2407,6.7295 -1.9448,2.53361 -4.16084,5.84288 -4.14239,6.18597 0.0195,0.35531 2.92681,-2.88019 6.4183,-7.1412 z m -122.56532,32.77382 c -1.33493,-0.77752 0.20072,-2.5214 4.0718,-4.62437 3.51682,-1.91039 6.49176,-3.61025 7.33692,-4.19224 l 0.69132,-0.47605 -0.85334,-1.54841 c -1.88637,-3.42287 -2.65208,-6.83446 -2.48555,-11.0749 0.1276,-3.24552 0.21741,-3.63514 0.83901,-3.63514 0.67793,0 0.88994,0.67436 1.10332,3.50979 0.22724,3.01688 0.69433,5.47874 1.40382,7.39556 0.66098,1.78584 2.00704,4.13753 2.36639,4.13419 0.14034,-10e-4 1.32652,-0.56491 2.63641,-1.25257 5.67603,-2.97952 7.80907,-4.017 9.27331,-4.51026 1.43622,-0.48389 1.60691,-0.4943 2.15988,-0.13202 0.36904,0.24195 0.60034,0.63549 0.60034,1.02226 0,1.87864 -2.8079,7.74783 -4.7481,9.92471 -2.73191,3.06516 -5.15084,2.97344 -9.05001,-0.34304 -0.85497,-0.72727 -1.689,-1.42116 -1.85352,-1.54198 -0.19384,-0.14233 -1.65881,0.50671 -4.16918,1.84777 -4.54348,2.42727 -7.31719,4.27788 -7.71268,5.1459 -0.2974,0.65325 -0.87503,0.77904 -1.61014,0.3509 z m 22.00372,-5.49837 c 1.47802,-0.91346 3.74014,-4.24397 4.96922,-7.31615 0.94075,-2.35154 0.91238,-2.56684 -0.27387,-2.07421 -0.51705,0.21495 -2.51951,1.27426 -4.44989,2.35448 -1.93038,1.08017 -4.21962,2.32018 -5.0873,2.75554 l -1.57751,0.7916 0.51676,0.72584 c 0.91898,1.29051 3.73884,3.22854 4.73965,3.25739 0.19043,0.005 0.71372,-0.21691 1.16268,-0.49449 z M 29.262521,586.2327 c 0.711434,-1.0041 1.534822,-2.19087 1.829753,-2.63731 l 0.536236,-0.81168 2.903179,-0.003 2.903175,-0.003 1.860089,-2.74872 1.860088,-2.74867 2.820355,-0.01 c 1.551195,-0.005 2.820354,0.051 2.820354,0.12466 0,0.0736 -0.78982,1.31093 -1.755159,2.7497 l -1.755155,2.61606 -2.934783,0.0707 -2.934776,0.0707 -1.782324,2.50697 -1.782321,2.50701 -2.941115,0.0707 -2.941111,0.0707 z m 650.345629,0.50588 c -1.57397,-1.57398 2.38056,-8.59268 10.70361,-18.99745 0.82476,-1.03114 1.45458,-1.91986 1.39944,-1.97493 -0.12956,-0.12956 -3.07089,1.69319 -7.64065,4.73498 -9.79174,6.51783 -14.75811,9.27519 -19.63912,10.90379 -5.02202,1.67566 -8.65141,1.42777 -9.93562,-0.67863 -0.6256,-1.02609 -0.6684,-2.90213 -0.11485,-5.03784 0.2169,-0.83636 0.34109,-1.72302 0.27629,-1.97036 -0.0716,-0.27483 0.0442,-0.50181 0.30428,-0.58367 0.23213,-0.0736 0.85133,-0.709 1.37606,-1.41183 1.14004,-1.527 2.86845,-2.44743 3.79938,-2.02326 0.78126,0.3558 1.01249,1.54443 0.49518,2.5448 -0.42303,0.81835 -2.43016,2.26031 -3.14605,2.26031 -0.67965,0 -1.22552,0.83091 -1.52478,2.32111 -0.6998,3.48452 0.78184,4.82936 4.6131,4.18719 4.81539,-0.80705 9.73612,-3.26126 20.23508,-10.09215 9.00289,-5.85751 14.9933,-9.30159 15.70417,-9.02877 0.77738,0.29838 0.23116,1.23888 -2.66578,4.59026 -5.41997,6.27024 -14.70031,20.70574 -11.97723,18.6304 0.71288,-0.54327 6.08572,-4.70779 9.97135,-7.72888 7.02061,-5.45847 10.06649,-7.23106 12.18697,-7.09246 1.73416,0.11336 2.14232,0.78394 2.36939,3.89298 0.20811,2.85162 0.40243,3.43617 1.47956,4.45682 0.7415,0.70257 0.91238,0.74959 2.59487,0.71356 0.99061,-0.0196 2.08315,-0.0775 2.42785,-0.12563 0.90766,-0.12564 0.8016,0.53513 -0.17766,1.10706 -1.05534,0.61635 -3.25302,0.83411 -4.4456,0.44071 -1.22482,-0.40439 -2.62788,-1.6552 -3.09386,-2.75858 -0.20462,-0.48488 -0.45002,-1.98411 -0.54561,-3.33199 -0.0952,-1.34783 -0.3038,-2.58093 -0.46278,-2.74018 -0.77896,-0.77894 -7.61267,3.73181 -17.26755,11.39783 -4.20552,3.33921 -4.78213,3.6956 -5.97883,3.6956 -0.56097,0 -1.15523,-0.13545 -1.32064,-0.30084 z m -20.99222,-14.26566 c 0.84257,-0.73972 1.16508,-1.47822 0.64566,-1.47822 -0.27729,0 -1.42954,1.17032 -1.7894,1.81759 -0.38478,0.69217 0.14968,0.53361 1.14374,-0.33912 z m 59.11604,10.07959 c -3.16435,-1.48602 -2.61585,-4.90213 1.45061,-9.0347 2.95051,-2.99852 3.91764,-3.46724 5.48314,-2.65773 0.94158,0.48684 1.10968,1.02364 0.72682,2.32033 -0.42354,1.43469 -0.70536,1.33325 -1.44025,-0.51859 l -0.28365,-0.71455 -0.93407,0.68996 c -2.5048,1.85023 -4.75938,4.82097 -4.99563,6.58266 -0.11926,0.88774 -0.0545,1.03129 0.71179,1.57771 1.24772,0.8899 3.87396,0.83871 6.73422,-0.13104 3.05387,-1.03561 7.81453,-3.07316 12.15885,-5.20396 4.49157,-2.20303 4.55406,-2.2445 5.84697,-3.88017 1.71619,-2.17113 4.03,-2.65331 4.46256,-0.92989 0.2493,0.99389 -0.49607,2.25652 -1.8328,3.10427 -0.6486,0.41126 -1.38025,0.74787 -1.62581,0.74787 -0.61214,0 -1.13495,0.87798 -1.47946,2.48435 -0.36069,1.68224 -0.0195,3.04194 0.88248,3.52515 1.27858,0.68432 5.99681,-0.29151 11.16959,-2.30963 10.85127,-4.23387 14.16647,-5.26491 17.04748,-5.30201 l 2.13097,-0.0295 v 0.74871 c 0,0.57984 -0.1649,0.82772 -0.73095,1.09902 -0.654,0.3136 -0.76501,0.30378 -1.05483,-0.0928 -0.24687,-0.33715 -0.52121,-0.40439 -1.14938,-0.28169 -1.81258,0.35433 -9.53901,3.05966 -12.6114,4.41578 -4.77973,2.1097 -10.58876,3.76244 -13.1584,3.74375 -1.65254,-0.01 -3.26761,-0.71465 -3.9416,-1.71483 -0.62406,-0.92602 -0.74812,-2.58976 -0.32833,-4.40117 0.1271,-0.54769 0.17619,-1.05048 0.10945,-1.11737 -0.0667,-0.0667 -1.95024,0.79897 -4.18534,1.92404 -8.49521,4.27642 -12.06135,5.57949 -15.72122,5.74458 -2.00185,0.0903 -2.55067,0.0295 -3.44191,-0.39065 z m 27.62556,-10.07959 c 0.82955,-0.72834 1.1667,-1.47822 0.66465,-1.47822 -0.22282,0 -2.03477,1.89851 -2.03477,2.13168 0,0.32292 0.56442,0.054 1.37012,-0.65346 z m -711.936077,5.06031 c 0.25484,-0.40242 0.827662,-1.24855 1.272942,-1.88021 L 35.504,574.50449 h 1.910019 1.910022 l -0.463338,0.73173 c -0.25484,0.40242 -0.827665,1.24855 -1.272942,1.88021 l -0.809604,1.14853 h -1.910022 -1.910022 z m 13.179878,-8.27927 1.823958,-2.75952 2.964955,-0.005 2.964952,-0.005 -1.864077,2.69502 -1.864077,2.69498 -2.924836,0.0707 -2.924834,0.0707 z m 283.483379,-3.8973 c -0.3447,-0.18011 -1.0674,-0.51486 -1.60598,-0.7438 -0.86691,-0.36856 -0.93643,-0.45887 -0.60622,-0.7892 0.4189,-0.41911 2.73316,-1.09445 3.76484,-1.09901 0.7977,-0.004 1.45573,0.80254 1.45573,1.78318 0,0.52811 -0.16887,0.73065 -0.78948,0.94698 -0.97619,0.3401 -1.41726,0.32096 -2.21889,-0.0981 z m 84.48529,0.0196 c -0.3447,-0.18649 -1.0674,-0.52826 -1.60598,-0.76005 -0.86691,-0.37298 -0.93644,-0.46426 -0.60622,-0.7944 0.41887,-0.41911 2.73319,-1.09445 3.76484,-1.09901 0.79769,-0.003 1.45573,0.80254 1.45573,1.78319 0,0.5281 -0.16881,0.73064 -0.78948,0.94697 -1.01614,0.35433 -1.44895,0.33912 -2.21889,-0.0766 z M 236.69963,531.4934 c -0.27576,-0.0638 -1.12187,-0.23851 -1.88024,-0.38917 -3.12221,-0.619 -5.94684,-2.64296 -7.24805,-5.19356 -1.16872,-2.29088 -1.26803,-3.47357 -1.27198,-15.14805 l -0.004,-10.96807 h 3.76047 3.76048 v 10.11587 c 0,10.68784 0.0393,11.10533 1.19634,12.66228 0.91687,1.23392 2.31747,1.77818 4.59296,1.78476 2.46543,0.005 3.78982,-0.63947 4.86537,-2.37545 l 0.7521,-1.21395 0.073,-10.48673 0.073,-10.48678 h 3.75011 3.75012 l -0.004,10.71734 c -0.005,11.57947 -0.11852,12.8767 -1.34126,15.28974 -1.30355,2.57243 -2.95217,3.92085 -6.0835,4.97575 -1.62292,0.54676 -2.52687,0.67916 -5.10579,0.74802 -1.72355,0.0442 -3.35935,0.0294 -3.63512,-0.0344 z m 172.73107,-0.0343 c -4.56749,-0.6058 -8.77278,-3.6608 -10.86096,-7.89006 -1.35882,-2.75205 -1.87425,-4.98958 -1.86699,-8.1051 0.0112,-4.88977 1.43187,-8.52431 4.56746,-11.68606 3.24404,-3.27108 6.1895,-4.38281 11.04352,-4.16829 3.2087,0.14183 5.24433,0.7304 7.47342,2.16083 1.4075,0.90315 3.80798,3.33405 3.80798,3.85617 0,0.19042 -1.19962,1.37816 -2.66587,2.63967 l -2.6659,2.29373 -0.73888,-1.11556 c -1.33676,-2.01816 -3.91209,-3.61761 -5.83751,-3.62546 -1.79182,-0.01 -2.88686,0.46574 -4.26215,1.84095 -2.32501,2.32495 -3.31981,6.35441 -2.54386,10.30363 0.49243,2.50623 1.05269,3.7403 2.34988,5.17613 1.28431,1.42159 2.63936,2.05605 4.3599,2.04133 2.39037,-0.0196 4.99308,-1.58821 6.12457,-3.68927 0.26414,-0.49027 0.55707,-0.86276 0.65103,-0.82743 0.0939,0.0344 1.35934,1.07222 2.81203,2.30414 l 2.64117,2.23989 -0.42558,0.74424 c -0.81625,1.42749 -2.79265,3.14855 -4.63107,4.0328 -2.62004,1.26019 -6.41894,1.86009 -9.33219,1.47372 z m 28.77977,-0.0844 c -4.27716,-0.76982 -8.16558,-3.6291 -10.04593,-7.38722 -1.63186,-3.26142 -2.26322,-8.61123 -1.4645,-12.40954 0.61988,-2.94792 2.15704,-5.78973 4.26399,-7.88303 2.86425,-2.84574 6.0645,-4.15049 10.17999,-4.15049 4.20616,0 7.36705,1.30234 10.2914,4.2403 3.211,3.22588 4.56745,6.78868 4.54203,11.92972 -0.0383,7.69625 -3.86344,13.35917 -10.32088,15.27859 -1.67532,0.49798 -5.66397,0.70243 -7.4461,0.38181 z m 5.69121,-6.86073 c 1.29898,-0.63981 2.80182,-2.47428 3.4092,-4.16162 0.55261,-1.53511 0.75864,-6.1716 0.35503,-7.9887 -0.61863,-2.78474 -2.08898,-4.91838 -4.0696,-5.90535 -3.41197,-1.70025 -6.9373,0.17815 -8.52617,4.54329 -0.75068,2.06238 -0.90602,6.08836 -0.31863,8.25837 0.53889,1.99088 2.02699,4.34227 3.21119,5.07415 1.75636,1.08551 3.96447,1.15236 5.93898,0.18011 z m 26.66092,6.84536 c -4.2187,-0.70483 -7.33628,-3.02059 -8.59481,-6.38428 -0.88715,-2.37118 -1.01479,-4.23372 -1.01671,-14.83863 l -0.003,-10.34131 h 3.74763 3.74763 l 0.0755,10.34131 c 0.0747,10.23046 0.0817,10.35285 0.6503,11.41771 1.10235,2.06449 2.40499,2.76329 5.1913,2.78484 2.73565,0.0196 4.32075,-0.90708 5.31539,-3.11257 0.4056,-0.89943 0.45821,-2.02102 0.52633,-11.21532 l 0.0757,-10.21597 h 3.76765 3.76765 l -0.10631,11.21875 c -0.0856,9.03598 -0.17977,11.46261 -0.48379,12.47221 -1.33586,4.43566 -4.10161,6.87073 -8.83166,7.77575 -2.09336,0.40046 -5.74393,0.4461 -7.8298,0.0977 z m 127.11413,0.0393 c -1.67682,-0.26796 -3.64833,-0.92244 -5.37168,-1.78388 -1.47559,-0.73757 -4.00122,-2.84447 -4.00122,-3.33778 0,-0.16195 1.11992,-1.41055 2.48869,-2.77419 l 2.48865,-2.47929 1.28393,1.15438 c 1.72863,1.5542 3.55999,2.23057 6.43371,2.37613 2.54446,0.12907 3.69355,-0.13202 4.70431,-1.06893 0.83857,-0.77713 0.85206,-1.85401 0.0344,-2.82444 -0.67515,-0.80235 -2.87424,-1.56431 -6.02805,-2.0886 -2.39853,-0.39898 -5.67369,-1.53903 -7.16,-2.49278 -1.80635,-1.15913 -3.62315,-3.2623 -4.15792,-4.81336 -0.67332,-1.95284 -0.58221,-4.50447 0.22377,-6.26498 1.16479,-2.54422 3.35899,-4.20634 6.72478,-5.09408 2.11923,-0.55898 6.55499,-0.56786 8.7591,-0.0196 1.88416,0.47064 5.76708,2.33863 6.95771,3.34754 l 0.8181,0.6933 -1.52017,2.1309 c -0.83608,1.17204 -1.65553,2.26428 -1.82094,2.42726 -0.23212,0.2287 -0.79414,0.0535 -2.45805,-0.765 -2.27712,-1.12016 -5.03954,-1.91388 -6.65298,-1.91157 -3.27515,0.005 -5.18983,2.14321 -3.41124,3.80994 1.09392,1.02511 2.49115,1.60804 6.48466,2.70519 8.21866,2.25795 11.19003,4.81135 11.23365,9.65351 0.0147,1.70447 -0.0859,2.21732 -0.67415,3.41566 -1.75742,3.58002 -6.10388,5.8423 -11.71684,6.09857 -1.30989,0.0599 -2.9584,0.0147 -3.66339,-0.0957 z m 31.867,0.0589 c -4.10996,-0.54514 -8.16542,-3.25273 -10.3591,-6.91614 -3.27152,-5.46356 -3.13313,-13.36991 0.32538,-18.58029 1.97036,-2.96843 5.6002,-5.50632 8.83979,-6.18043 2.08255,-0.43335 6.5665,-0.17177 8.44417,0.49292 1.67996,0.59456 3.08982,1.37689 4.48517,2.48876 1.08301,0.86301 2.42904,2.47202 2.42904,2.9036 0,0.15852 -1.19581,1.32968 -2.65739,2.60296 l -2.65739,2.31513 -0.74704,-1.12788 c -0.93621,-1.41339 -1.98455,-2.3056 -3.59002,-3.05539 -2.37746,-1.11025 -4.5745,-0.68643 -6.51847,1.25758 -4.40579,4.40578 -3.39451,14.38516 1.72301,17.00358 2.73274,1.39823 6.94651,-0.16196 8.56752,-3.17176 0.26401,-0.49027 0.56471,-0.86276 0.66801,-0.82742 0.10308,0.0344 1.36644,1.0729 2.80694,2.3056 l 2.61905,2.24137 -0.38772,0.74979 c -0.66542,1.28688 -2.76908,3.10648 -4.65778,4.02887 -2.58591,1.26293 -6.38222,1.86053 -9.33308,1.46915 z m 64.17873,0.0147 c -6.11674,-0.94796 -10.56737,-5.10041 -12.06381,-11.25561 -0.5805,-2.38776 -0.59004,-6.98145 -0.0195,-9.14356 1.46098,-5.5311 5.55968,-9.83053 10.6148,-11.13473 1.9392,-0.50029 5.56053,-0.51202 7.43382,-0.0245 4.87094,1.26872 8.68416,4.97143 10.34791,10.04803 0.66695,2.03505 0.73302,2.54711 0.72608,5.62336 -0.005,2.46599 -0.12955,3.82079 -0.45641,4.99259 -1.46369,5.24685 -4.99525,8.94509 -9.94004,10.40929 -1.40024,0.41469 -5.27279,0.69717 -6.64351,0.48487 z m 4.90567,-6.87859 c 1.17131,-0.58656 2.65503,-2.24863 3.25328,-3.64431 1.15843,-2.70254 1.26435,-7.20475 0.23408,-9.95793 -1.83763,-4.91141 -6.37336,-6.65514 -9.7633,-3.75346 -1.36094,1.16488 -2.16292,2.60355 -2.76617,4.96226 -2.08315,8.14515 3.16399,15.33718 9.04195,12.39344 z m 27.87979,6.68002 c -5.07438,-0.96783 -8.98755,-4.5159 -10.70748,-9.70832 -0.93461,-2.8216 -1.15983,-6.99186 -0.53388,-9.88457 1.58331,-7.31659 7.28309,-12.13981 14.34605,-12.13981 4.33831,0 7.40312,1.24953 10.38951,4.23597 2.09016,2.09016 3.36247,4.33325 4.14293,7.30408 0.56778,2.16103 0.56487,6.76851 -0.005,9.13561 -1.27251,5.27934 -4.7907,9.16181 -9.67705,10.67896 -2.11443,0.65654 -5.62079,0.82321 -7.95446,0.37789 z m 5.88726,-6.71172 c 4.66702,-2.18395 5.68098,-11.98719 1.72384,-16.66579 -0.94479,-1.11702 -3.00251,-2.08903 -4.4079,-2.08226 -3.91704,0.0196 -6.78235,4.20015 -6.78235,9.89708 0,7.02523 4.45891,11.19426 9.46641,8.85097 z m 50.8265,6.71634 c -3.23406,-0.62882 -7.13313,-2.70175 -8.44862,-4.49171 -0.42254,-0.57498 -0.4039,-0.60232 2.14658,-3.14413 l 2.57283,-2.56404 0.98719,0.93113 c 0.54293,0.51216 1.72045,1.27578 2.61668,1.69696 1.40948,0.66233 1.96808,0.77737 4.1365,0.85157 2.22851,0.0761 2.63206,0.0196 3.63285,-0.49479 0.61917,-0.31949 1.29236,-0.88327 1.49599,-1.25316 0.33175,-0.60237 0.32488,-0.76746 -0.0638,-1.58247 -0.57008,-1.1954 -1.76557,-1.71286 -5.86478,-2.53852 -6.59503,-1.32835 -9.68473,-3.15247 -11.62633,-6.86396 -0.48929,-0.9351 -0.59186,-1.51421 -0.60024,-3.38446 -0.01,-1.9766 0.077,-2.43379 0.69344,-3.68887 1.68718,-3.43573 5.52388,-5.28213 10.95399,-5.27153 3.22361,0.005 5.47102,0.50563 8.14764,1.81023 1.87133,0.91208 3.88582,2.32396 3.88582,2.72344 0,0.27139 -3.25779,4.67761 -3.45762,4.67639 -0.0977,-6.4e-4 -1.02358,-0.42402 -2.05772,-0.94139 -4.83688,-2.41892 -9.59374,-2.46387 -10.73527,-0.10159 -0.77848,1.61108 1.46228,3.26108 5.98733,4.40878 5.34731,1.35632 8.46384,2.77968 10.29837,4.70347 1.42675,1.49614 1.79781,2.44464 1.92186,4.9123 0.10404,2.07441 0.0653,2.29285 -0.68166,3.80999 -1.7847,3.62522 -5.91845,5.73374 -11.80456,6.02118 -1.46798,0.0716 -3.0549,-0.0147 -4.13657,-0.22477 z M 200.47374,515.56151 v -15.81804 l 6.70618,0.10944 c 7.05401,0.11533 7.99783,0.24979 10.4289,1.48819 1.50968,0.76897 3.05926,2.35046 3.70715,3.78344 0.51711,1.14377 0.59247,1.69308 0.59247,4.31882 0,2.72648 -0.0619,3.14039 -0.66063,4.41731 -0.84736,1.80713 -2.12084,3.20826 -3.69448,4.06474 -1.85654,1.01044 -4.75957,1.6712 -7.34246,1.6712 h -2.21618 v 5.89142 5.89142 h -3.76047 -3.76048 z m 12.02452,-2.54559 c 1.38967,-0.71259 2.01458,-1.84675 2.01458,-3.65629 0,-1.1873 -0.097,-1.44216 -0.82653,-2.17167 -0.96354,-0.96357 -2.23628,-1.3763 -4.25011,-1.37827 l -1.44151,-10e-4 v 3.88582 3.88581 h 1.70176 c 1.27173,0 1.97975,-0.14232 2.80181,-0.56403 z m 52.40492,5.70335 V 506.059 h -4.13652 -4.13652 v -3.13372 -3.13372 h 11.90817 11.90816 v 3.13372 3.13372 h -4.01118 -4.01116 v 12.66027 12.66027 h -3.76048 -3.76047 z m 19.05306,-3.13372 v -15.79399 l 4.1992,0.005 4.19919,0.005 5.51536,10.50695 5.51536,10.5069 0.0654,-10.51206 0.0654,-10.51205 h 3.75777 3.75774 v 15.799 15.79895 l -5.28259,-0.0677 -5.28261,-0.0677 -4.43195,-8.46871 -4.43196,-8.46871 -0.066,8.53138 -0.066,8.53138 h -3.75716 -3.75719 z m 31.76108,11.72635 c 0.78038,-2.24406 3.249,-9.32592 5.4858,-15.7375 l 4.06691,-11.6575 4.13564,-0.0687 4.1356,-0.0687 0.29648,0.8207 c 0.44014,1.21852 10.28608,30.60273 10.28608,30.69769 0,0.0442 -1.79563,0.0815 -3.99028,0.0815 h -3.99028 l -0.73104,-2.19362 -0.73105,-2.19361 -5.40945,-0.0672 -5.40945,-0.0677 -0.73255,2.19842 -0.73255,2.19848 -4.04936,0.0687 -4.04933,0.0687 z m 16.81274,-6.77504 c -0.0634,-0.17225 -0.76645,-2.28764 -1.56232,-4.70063 -0.79584,-2.41293 -1.51755,-4.46526 -1.60374,-4.56066 -0.0862,-0.0952 -0.90308,2.01989 -1.81528,4.70058 l -1.65856,4.87407 h 3.3776 c 2.5964,0 3.35089,-0.0726 3.2623,-0.3136 z m 15.10352,-4.95131 v -15.79399 l 5.7034,6.4e-4 5.70337,6.4e-4 2.35858,8.96188 c 1.29719,4.92908 2.4354,9.11293 2.52934,9.29746 0.16726,0.32881 0.55377,-1.05436 3.49209,-12.49439 l 1.44879,-5.64074 5.9283,-0.0672 5.92829,-0.0672 v 15.79851 15.79855 h -3.63252 -3.6325 l -0.0653,-11.01017 -0.0653,-11.01018 -2.89457,10.94751 -2.89457,10.9475 -3.37287,0.0668 -3.37289,0.0667 -2.88303,-10.57963 -2.88306,-10.57963 -0.0654,10.57541 -0.0654,10.57541 h -3.6324 -3.6324 z m 146.15704,-0.005 v -15.79988 l 4.30188,0.0687 4.30188,0.0687 5.53802,10.52933 5.53802,10.52933 0.0653,-10.592 0.0653,-10.592 h 3.75777 3.75774 v 15.799 15.79895 l -5.32732,-0.0677 -5.32736,-0.0677 -4.31426,-8.25028 c -2.37288,-4.53759 -4.43172,-8.36766 -4.57523,-8.51116 -0.18108,-0.18109 -0.26107,2.37196 -0.26107,8.31289 v 8.57389 h -3.76048 -3.76049 z m 39.35963,3.13966 v -12.66026 h -4.1365 -4.13656 v -3.13372 -3.13372 h 12.03352 12.03352 v 3.13372 3.13372 h -4.1365 -4.13653 v 12.66027 12.66027 h -3.76049 -3.76046 z m 25.57123,5.66782 v -6.99239 l -4.60606,-8.8016 -4.60603,-8.80155 h 3.66997 3.66995 l 2.75366,5.38451 c 1.51451,2.96147 2.81001,5.38574 2.87896,5.38721 0.0687,0.002 1.35026,-2.37333 2.84731,-5.27737 1.49708,-2.90405 2.85628,-5.33161 3.02045,-5.39462 0.16442,-0.0628 1.83801,-0.0829 3.71971,-0.0442 l 3.42119,0.0702 -4.62017,8.77445 -4.62026,8.77441 -0.004,6.95692 -0.004,6.95686 h -3.76048 -3.76046 z m 88.99786,-8.80154 v -15.794 h 3.76046 3.76049 v 6.26745 6.26749 h 6.64345 6.64351 v -6.26749 -6.26745 h 3.76049 3.76045 v 15.794 15.79399 h -3.76045 -3.76049 v -6.26744 -6.26749 h -6.64351 -6.64345 v 6.26749 6.26744 h -3.76049 -3.76046 z m 102.78625,0 v -15.794 h 3.76049 3.76045 v 12.66028 12.66027 h 6.89419 6.89422 v 3.13372 3.13372 h -10.65467 -10.65468 z"
       id="path1" />
  </g>
</svg>
