<?xml version="1.0" encoding="UTF-8" standalone="no"?>
<!-- Created with Inkscape (http://www.inkscape.org/) -->

<svg
   id="svg3016"
   version="1.1"
   inkscape:version="1.3.2 (091e20e, 2023-11-25)"
   width="556.5332"
   height="400"
   sodipodi:docname="Toyota.svg"
   xmlns:inkscape="http://www.inkscape.org/namespaces/inkscape"
   xmlns:sodipodi="http://sodipodi.sourceforge.net/DTD/sodipodi-0.dtd"
   xmlns="http://www.w3.org/2000/svg"
   xmlns:svg="http://www.w3.org/2000/svg"
   xmlns:rdf="http://www.w3.org/1999/02/22-rdf-syntax-ns#"
   xmlns:cc="http://creativecommons.org/ns#"
   xmlns:dc="http://purl.org/dc/elements/1.1/">
  <metadata
     id="metadata3022">
    <rdf:RDF>
      <cc:Work
         rdf:about="">
        <dc:format>image/svg+xml</dc:format>
        <dc:type
           rdf:resource="http://purl.org/dc/dcmitype/StillImage" />
      </cc:Work>
    </rdf:RDF>
  </metadata>
  <defs
     id="defs3020" />
  <sodipodi:namedview
     pagecolor="#ffffff"
     bordercolor="#666666"
     borderopacity="1"
     objecttolerance="10"
     gridtolerance="10"
     guidetolerance="10"
     inkscape:pageopacity="0"
     inkscape:pageshadow="2"
     inkscape:window-width="1312"
     inkscape:window-height="449"
     id="namedview3018"
     showgrid="false"
     fit-margin-top="0"
     fit-margin-left="0"
     fit-margin-right="0"
     fit-margin-bottom="0"
     inkscape:zoom="0.20486114"
     inkscape:cx="580.88127"
     inkscape:cy="-175.72879"
     inkscape:window-x="0"
     inkscape:window-y="25"
     inkscape:window-maximized="0"
     inkscape:current-layer="svg3016"
     inkscape:pagecheckerboard="0"
     inkscape:showpageshadow="2"
     inkscape:deskcolor="#d1d1d1" />
  <path
     style="fill:#ffffff;fill-opacity:1;fill-rule:evenodd;stroke-width:0.594958"
     inkscape:connector-curvature="0"
     clip-rule="evenodd"
     d="M 264.36617,252.01049 C 242.831,238.62452 226.9661,192.42948 226.9661,137.54349 c 0,-2.01397 0.0159,-3.9989 0.0583,-5.98393 v 0 l 0.0265,0.0318 v 0 C 167.15376,122.24964 123.87678,96.656705 122.76844,66.39302 v 0 l -0.17573,0.348697 v 0 c -14.65568,18.074524 -23.021065,38.972333 -23.021065,61.239713 0,65.52297 72.477695,119.21046 164.407335,123.95889 v 0 l 0.38739,0.0742 v 0 0 z M 71.879491,132.75954 C 71.879491,59.443758 163.81726,0 277.23648,0 c 113.41593,0 205.35696,59.443758 205.35696,132.75954 0,73.31589 -91.94265,132.76124 -205.35696,132.76124 -113.41922,0 -205.356989,-59.44694 -205.356989,-132.76124 z M 277.23648,19.159939 c 21.89483,0 40.51835,32.959363 47.41737,78.947731 v 0 l 0.0265,-0.07419 v 0 c 42.59508,-6.579896 72.4191,-21.758532 72.4191,-39.421295 0,-23.706471 -53.67023,-42.901915 -119.8625,-42.901915 -66.19714,0 -119.86249,19.197034 -119.86249,42.901915 0,17.662763 29.81915,32.841399 72.41909,39.421295 v 0 l 0.0265,0.07419 v 0 c 6.89891,-45.986778 25.52735,-78.947731 47.41727,-78.947731 v 0 0 0 z m 13.25439,232.776251 c 91.92963,-4.74674 164.41709,-58.43592 164.41709,-123.9589 0,-22.26578 -8.37515,-43.163593 -23.0292,-61.239706 v 0 l -0.17902,-0.348698 v 0 C 430.5914,96.652677 387.32581,122.24551 327.42223,131.58722 v 0 l 0.0265,-0.0318 v 0 c 0.0403,1.98504 0.0615,3.96996 0.0615,5.98404 0,54.88588 -15.87632,101.08093 -37.39843,114.46689 v 0 l 0.37922,-0.0742 v 0 0 z M 277.23648,101.52523 c 9.80896,0 19.34451,-0.41547 28.46831,-1.21303 v 0 l -0.0159,0.0106 v 0 c -4.54073,-29.480333 -15.5687,-50.286146 -28.4553,-50.286146 -12.88658,0 -23.91293,20.805813 -28.46017,50.286146 v 0 l -0.0159,-0.0106 v 0 c 9.1238,0.79809 18.6626,1.21303 28.47158,1.21303 v 0 0 0 z m 0,109.17103 c 16.48337,0 29.92982,-34.04149 30.64753,-76.73821 v 0 l 0.088,0.0318 v 0 c -9.93592,0.91255 -20.21362,1.38896 -30.73381,1.38896 -10.52995,0 -20.79788,-0.47694 -30.7338,-1.38896 v 0 l 0.0922,-0.0318 v 0 c 0.7063,42.69513 14.14953,76.73821 30.63942,76.73821 v 0 0 z"
     id="path3032" />
  <g
     id="g3065"
     transform="matrix(0.78396555,0,0,0.78396555,-1107.1601,8.8929604)"
     style="fill:#ffffff;fill-opacity:1">
    <path
       id="path3034"
       d="m 1766.663,436.05894 c 0,-34.696 28.133,-62.824 62.821,-62.824 34.706,0 62.835,28.127 62.835,62.824 0,34.7 -28.129,62.824 -62.835,62.824 -34.688,0 -62.821,-28.124 -62.821,-62.824 z m 62.821,39.787 c 19.379,0 35.087,-17.815 35.087,-39.787 0,-21.971 -15.708,-39.788 -35.087,-39.788 -19.365,0 -35.07,17.817 -35.07,39.788 0,21.971 15.705,39.787 35.07,39.787 z"
       clip-rule="evenodd"
       inkscape:connector-curvature="0"
       style="fill:#ffffff;fill-opacity:1;fill-rule:evenodd" />
    <polygon
       transform="translate(1122.814,353.85994)"
       id="polygon3036"
       points="877.713,23.707 877.713,45.551 840.875,45.551 840.788,45.551 840.788,45.551 840.788,45.551 840.788,142.171 814.319,142.171 814.319,45.551 814.406,45.551 777.388,45.551 777.388,23.707 "
       clip-rule="evenodd"
       style="fill:#ffffff;fill-opacity:1;fill-rule:evenodd" />
    <path
       id="path3038"
       d="m 2032.55,469.37694 -0.026,0.025 -10.154,26.629 h -30.912 l 48.873,-118.465 h 16.479 16.463 l 48.878,118.465 h -30.918 l -10.155,-26.629 -0.025,-0.025 h -24.242 z m 24.259,-19.994 h 16.653 l -0.01,0.005 -16.53,-43.359 h -0.232 l -16.54,43.359 -0.01,-0.005 h 16.665 v 0 0 z"
       clip-rule="evenodd"
       inkscape:connector-curvature="0"
       style="fill:#ffffff;fill-opacity:1;fill-rule:evenodd" />
    <polygon
       transform="translate(1122.814,353.85994)"
       id="polygon3040"
       points="389.771,23.707 389.771,45.551 352.936,45.551 352.844,45.551 352.844,45.551 352.844,45.551 352.844,142.171 326.373,142.171 326.373,45.551 326.463,45.551 289.442,45.551 289.442,23.707 "
       clip-rule="evenodd"
       style="fill:#ffffff;fill-opacity:1;fill-rule:evenodd" />
    <path
       id="path3042"
       d="m 1519.355,436.05894 c 0,-34.696 28.132,-62.824 62.832,-62.824 34.698,0 62.827,28.127 62.827,62.824 0,34.7 -28.129,62.824 -62.827,62.824 -34.7,0 -62.832,-28.124 -62.832,-62.824 z m 62.832,39.787 c 19.369,0 35.078,-17.815 35.078,-39.787 0,-21.971 -15.708,-39.788 -35.078,-39.788 -19.372,0 -35.081,17.817 -35.081,39.788 0,21.971 15.709,39.787 35.081,39.787 z"
       clip-rule="evenodd"
       inkscape:connector-curvature="0"
       style="fill:#ffffff;fill-opacity:1;fill-rule:evenodd" />
    <polygon
       transform="translate(1122.814,353.85994)"
       id="polygon3044"
       points="611.718,23.707 583.024,73.5 554.334,23.707 523.417,23.707 569.601,97.188 569.601,97.742 569.601,142.171 583.024,142.171 596.446,142.171 596.446,97.742 596.446,97.188 642.625,23.707 "
       clip-rule="evenodd"
       style="fill:#ffffff;fill-opacity:1;fill-rule:evenodd" />
  </g>
</svg>
