<?xml version="1.0" encoding="UTF-8" standalone="no"?>
<!-- Created with Inkscape (http://www.inkscape.org/) -->

<svg
   width="97.250519mm"
   height="110.87132mm"
   viewBox="0 0 97.250519 110.87132"
   version="1.1"
   id="svg1"
   xml:space="preserve"
   inkscape:version="1.3.2 (091e20e, 2023-11-25)"
   sodipodi:docname="village_sampler.svg"
   xmlns:inkscape="http://www.inkscape.org/namespaces/inkscape"
   xmlns:sodipodi="http://sodipodi.sourceforge.net/DTD/sodipodi-0.dtd"
   xmlns="http://www.w3.org/2000/svg"
   xmlns:svg="http://www.w3.org/2000/svg"><sodipodi:namedview
     id="namedview1"
     pagecolor="#ffffff"
     bordercolor="#666666"
     borderopacity="1.0"
     inkscape:showpageshadow="2"
     inkscape:pageopacity="0.0"
     inkscape:pagecheckerboard="0"
     inkscape:deskcolor="#d1d1d1"
     inkscape:document-units="mm"
     inkscape:zoom="0.65582548"
     inkscape:cx="282.08724"
     inkscape:cy="363.66382"
     inkscape:window-width="1440"
     inkscape:window-height="900"
     inkscape:window-x="0"
     inkscape:window-y="0"
     inkscape:window-maximized="0"
     inkscape:current-layer="layer1" /><defs
     id="defs1" /><g
     inkscape:label="Layer 1"
     inkscape:groupmode="layer"
     id="layer1"
     transform="translate(9.1947577,-28.849405)"><path
       style="fill:#ffffff"
       d="m -7.0839748,136.13611 c -0.775656,-1.97154 -1.574641,-3.74897 -1.775522,-3.94985 -0.573876,-0.57388 -0.439974,-0.70575 0.626948,-0.61745 0.545703,0.0452 0.968255,0.21345 0.939003,0.37397 -0.05089,0.27923 1.828876,5.2762 2.078837,5.52616 0.175197,0.1752 2.22011,-5.21908 2.128963,-5.61599 -0.04636,-0.20186 0.189881,-0.33431 0.596286,-0.33431 0.762259,0 0.831589,0.17236 0.310902,0.77292 -0.199185,0.22974 -0.727059,1.3702 -1.173054,2.53437 -1.284652,3.35328 -1.961276,4.89479 -2.148502,4.89479 -0.09547,0 -0.808204,-1.61307 -1.583861,-3.58461 z m 5.899245,3.27217 c -0.06113,-0.0991 0.0099,-0.25494 0.157761,-0.34635 0.35883996,-0.22177 0.36301896,-7.01412 0.0043,-7.01412 -0.145521,0 -0.264583,-0.11907 -0.264583,-0.26459 0,-0.14552 0.46922296,-0.26458 1.04271796,-0.26458 0.573495,0 1.116303,0.11906 1.20624,0.26458 0.08994,0.14552 0.03743,0.26459 -0.116677,0.26459 -0.183371,0 -0.280198,1.23431 -0.280198,3.57187 0,2.54504 0.08874,3.57188 0.308681,3.57188 0.16977404,0 0.23136204,0.0773 0.13686304,0.17181 -0.23294304,0.23295 -2.056113,0.27024 -2.195121,0.0449 z m 2.940202,-3.85474 v -4.0349 h 0.992188 c 0.545703,0 0.992187,0.11906 0.992187,0.26458 0,0.14552 -0.119062,0.26459 -0.264583,0.26459 -0.396336,0 -0.346641,6.16211 0.05292,6.56166 0.174625,0.17463 0.805656,0.3175 1.402291,0.3175 1.176831,0 1.719792,-0.35576 1.719792,-1.12686 0,-0.27053 0.119062,-0.41828 0.264583,-0.32835 0.145521,0.0899 0.264584,0.57322 0.264584,1.07395 0,0.68758 -0.113335,0.91242 -0.463021,0.91858 -0.254662,0.004 -1.475052,0.0342 -2.711979,0.0661 l -2.248959,0.058 z m 7.011459,3.87958 c -0.800365,-0.0854 -1.306381,-0.17472 -1.12448,-0.19844 0.431456,-0.0563 0.481592,-7.18687 0.05053,-7.18687 -0.154109,0 -0.206613,-0.11907 -0.116676,-0.26459 0.08994,-0.14552 0.632744,-0.26458 1.206239,-0.26458 0.573496,0 1.042719,0.11906 1.042719,0.26458 0,0.14552 -0.119063,0.26459 -0.264583,0.26459 -0.287398,0 -0.379813,5.74185 -0.103985,6.46065 0.116463,0.3035 0.519896,0.41851 1.4679808,0.41851 h 1.307382 l 0.335599,-0.79815 c 0.401668,-0.95529 0.697189,-0.7665 0.697189,0.44538 0,0.73254 -0.100841,0.88518 -0.595312,0.90108 -0.327422,0.0105 -1.012032,0.0403 -1.521354,0.0661 -0.509323,0.0259 -1.5808858,-0.0229 -2.3812498,-0.1083 z m 4.8802268,-5.5e-4 c -0.08193,-0.13256 -0.03198,-0.24101 0.110989,-0.24101 0.142971,0 0.935037,-1.72641 1.760147,-3.83646 0.82511,-2.11005 1.595228,-3.83646 1.711372,-3.83646 0.116145,0 0.837859,1.57758 1.603808,3.50573 0.76595,1.92815 1.560515,3.70227 1.765699,3.94248 0.205184,0.24022 0.276009,0.48507 0.157389,0.54412 -0.37117,0.18479 -1.803153,-0.17386 -1.803571,-0.45171 -2.19e-4,-0.14552 -0.232099,-0.88966 -0.515288,-1.65364 l -0.51489,-1.38906 h -0.97603 -0.97603 l -0.652292,1.76467 c -0.610866,1.65259 -1.268775,2.30265 -1.671303,1.65134 z m 3.795097,-4.67278 c -0.494702,-1.16427 -0.627838,-1.19357 -0.931249,-0.20496 l -0.286212,0.93256 h 0.763313 0.763312 z m 8.258011,4.69412 c -1.933267,-0.15121 -2.8873,-0.66042 -3.699509,-1.97461 -1.899457,-3.07338 1.46624,-6.76617 5.265219,-5.77691 0.8647,0.22517 1.6207,0.95136 1.31189,1.26017 -0.0805,0.0805 -0.61549,-0.11056 -1.18883,-0.42462 -1.33243,-0.72984 -2.62144,-0.52954 -3.676046,0.57123 -0.614468,0.64136 -0.778175,1.08229 -0.869234,2.34116 l -0.112188,1.55099 0.756744,0.84458 c 0.781432,0.87214 2.021584,1.29372 3.336434,1.1342 0.63533,-0.0771 0.7276,-0.20348 0.7276,-0.99674 0,-0.49966 -0.11906,-0.90847 -0.26458,-0.90847 -0.14552,0 -0.26459,-0.11906 -0.26459,-0.26458 0,-0.14552 0.47625,-0.26459 1.05834,-0.26459 1.00451,0 1.37051,0.305 0.79375,0.66146 -0.36786,0.22735 -0.33171,1.54683 0.0529,1.93146 0.17463,0.17462 0.26392,0.32666 0.19844,0.33786 -0.57563,0.0985 -1.9988,0.0891 -3.42635,-0.0226 z m 6.35,0.002 c -1.28798,-0.0758 -2.10764,-0.22376 -1.91823,-0.34634 0.41145,-0.2663 0.47265,-6.67846 0.0661,-6.9297 -0.77445,-0.47864 -0.0658,-0.67514 2.18282,-0.60524 l 2.44739,0.0761 0.0846,0.59531 c 0.0465,0.32743 -0.0428,0.59532 -0.19844,0.59532 -0.15564,0 -0.28298,-0.11907 -0.28298,-0.26459 0,-0.14552 -0.65485,-0.26458 -1.45521,-0.26458 h -1.45521 v 1.45521 1.45521 h 1.45521 c 1.01341,0 1.45521,0.10383 1.45521,0.34202 0,0.23765 -0.42391,0.33858 -1.38907,0.33073 l -1.38906,-0.0113 -0.0856,0.89651 c -0.0471,0.49308 -0.0151,1.17769 0.0712,1.52136 l 0.15682,0.62484 h 1.45848 c 1.04985,0 1.50097,-0.11076 1.61018,-0.39535 0.0834,-0.21745 0.25306,-0.33272 0.37693,-0.25617 0.33341,0.20606 -0.13225,1.2655 -0.56743,1.29101 -0.20608,0.0121 -1.38673,-0.0376 -2.62365,-0.11032 z m 8.03002,0.0611 -0.83351,-0.0907 -0.10083,-1.05729 c -0.13127,-1.37643 0.0584,-1.52537 0.56645,-0.44493 0.33952,0.72201 0.57635,0.88423 1.38946,0.9518 1.37431,0.1142 2.11323,-0.33552 2.01062,-1.22372 -0.065,-0.56276 -0.37237,-0.85139 -1.48354,-1.39319 -1.86676,-0.91022 -2.22326,-1.31404 -2.22326,-2.51843 0,-0.76862 0.16969,-1.15929 0.70267,-1.61774 0.94909,-0.81637 2.59961,-0.83315 3.16067,-0.0321 0.59067,0.84331 0.24192,1.09286 -0.62822,0.44954 -0.87875,-0.64969 -1.94816,-0.5216 -2.37986,0.28505 -0.43503,0.81285 -0.0379,1.33304 1.5484,2.02846 1.73935,0.7625 2.14718,1.21626 2.14718,2.38903 0,1.66395 -1.48363,2.5344 -3.87623,2.2742 z m 9.65431,-0.59023 c -0.1341,-0.3638 -0.43364,-1.16747 -0.66565,-1.78593 l -0.42183,-1.12448 h -0.90465 -0.90466 l -0.65146,1.47308 c -0.35831,0.81019 -0.58286,1.5841 -0.499,1.71979 0.0839,0.13569 -0.23449,0.24671 -0.70746,0.24671 -0.73297,0 -0.79864,-0.0488 -0.44477,-0.33073 0.22833,-0.1819 1.0485,-1.96993 1.82259,-3.97339 0.77409,-2.00346 1.51039,-3.60834 1.63622,-3.56639 0.12584,0.0419 0.81309,1.53338 1.52723,3.3143 1.58648,3.95633 1.76186,4.29163 2.24483,4.29163 0.43384,0 0.48953,-0.20402 1.03234,-3.78187 0.38216,-2.51894 0.34734,-3.36188 -0.13887,-3.36188 -0.12995,0 -0.23628,-0.12661 -0.23628,-0.28135 0,-0.15708 0.3711,-0.24473 0.8402,-0.19844 l 0.84019,0.0829 1.19903,2.84427 c 0.65947,1.56435 1.26873,2.84427 1.35392,2.84427 0.0852,0 0.69446,-1.27992 1.35394,-2.84427 l 1.19906,-2.84427 0.70788,-0.0837 c 0.72818,-0.0861 0.9087,0.17393 0.4436,0.63903 -0.2962,0.2962 0.36638,6.01783 0.78264,6.75835 0.13433,0.23898 0.19239,0.48635 0.12902,0.54971 -0.17871,0.17871 -1.71317,-0.0957 -1.60051,-0.28623 0.10225,-0.1729 -0.58084,-5.09825 -0.72739,-5.2448 -0.0446,-0.0446 -0.59447,1.17286 -1.22189,2.70552 -0.62742,1.53265 -1.26168,2.74634 -1.40948,2.69707 -0.1478,-0.0493 -0.75613,-1.30206 -1.35186,-2.784 -0.59573,-1.48193 -1.15706,-2.69612 -1.24741,-2.6982 -0.16057,-0.004 -0.63028,3.77699 -0.61588,4.95717 0.004,0.32742 -0.1165,0.60516 -0.26775,0.61721 -0.15126,0.012 -0.85485,0.0418 -1.56354,0.0661 l -1.28853,0.0442 z m -1.5844,-4.23333 c -0.15218,-0.43656 -0.35801,-0.79375 -0.45739,-0.79375 -0.0994,0 -0.31552,0.35719 -0.4803,0.79375 l -0.29961,0.79375 h 0.757 0.75701 z m 13.90072,4.71468 c -0.0613,-0.0991 0.01,-0.25498 0.15753,-0.34639 0.35884,-0.22177 0.36302,-7.01412 0.004,-7.01412 -0.14552,0 -0.26459,-0.13506 -0.26459,-0.30014 0,-0.45809 3.54333,-0.13069 4.35724,0.4026 0.52904,0.34664 0.66985,0.65792 0.66985,1.48083 0,1.24654 -0.78409,2.12087 -1.90198,2.12087 -0.91796,0 -0.95184,-0.1986 -0.0898,-0.52635 1.42299,-0.54103 0.93888,-2.91439 -0.59402,-2.9122 l -0.72151,0.001 v 3.24011 c 0,1.78207 0.0595,3.40291 0.1323,3.60187 0.0938,0.25649 -0.12526,0.37198 -0.75284,0.39692 -0.48683,0.0194 -0.93525,-0.0459 -0.99651,-0.14503 z m 5.54481,-0.0183 c -0.0674,-0.10914 0.004,-0.19843 0.15767,-0.19843 0.18337,0 0.2802,-1.23432 0.2802,-3.57188 0,-2.33756 -0.0968,-3.57187 -0.2802,-3.57187 -0.15411,0 -0.20661,-0.11907 -0.11668,-0.26459 0.0899,-0.14552 0.56619,-0.26458 1.05834,-0.26458 0.49214,0 0.96839,0.11906 1.05833,0.26458 0.0899,0.14552 0.0339,0.26459 -0.12458,0.26459 -0.19656,0 -0.26457,1.07193 -0.21405,3.37343 l 0.074,3.37344 h 1.45158 c 1.24338,0 1.46528,-0.0759 1.54704,-0.52917 0.20337,-1.12747 0.60632,-1.05361 0.52381,0.096 l -0.0829,1.15435 -2.60506,0.0363 c -1.43279,0.0199 -2.6602,-0.053 -2.7276,-0.16217 z m 6.34984,0 c -0.0673,-0.10914 0.004,-0.19843 0.15783,-0.19843 0.18337,0 0.2802,-1.23432 0.2802,-3.57188 0,-2.33756 -0.0968,-3.57187 -0.2802,-3.57187 -0.15411,0 -0.20661,-0.11907 -0.11668,-0.26459 0.0899,-0.14552 1.22806,-0.26458 2.52916,-0.26458 h 2.36564 l -0.008,0.8599 c -0.007,0.71227 -0.0543,0.7804 -0.27773,0.39687 -0.19937,-0.3423 -0.61118,-0.46302 -1.57945,-0.46302 h -1.30977 v 1.45521 1.45521 h 1.4552 c 1.03571,0 1.45521,0.10161 1.45521,0.35249 0,0.26551 -0.35911,0.32272 -1.45521,0.23182 l -1.4552,-0.12067 v 1.62026 1.62026 h 1.49218 c 1.11084,0 1.58201,-0.11833 1.84367,-0.46302 l 0.35148,-0.46302 0.008,0.72761 0.008,0.7276 -1.52135,0.018 c -0.83675,0.01 -2.03886,0.0396 -2.67137,0.0661 -0.63251,0.0265 -1.20508,-0.0411 -1.27239,-0.15026 z m 6.08549,0 c -0.0673,-0.10914 0.004,-0.19843 0.15776,-0.19843 0.18337,0 0.2802,-1.23432 0.2802,-3.57188 0,-2.20486 -0.10126,-3.57187 -0.26459,-3.57187 -0.14552,0 -0.26458,-0.11907 -0.26458,-0.26459 0,-0.39923 3.06389,-0.31811 4.08404,0.10814 1.38113,0.57707 1.54076,1.94911 0.37522,3.22499 l -0.50701,0.555 1.21799,1.65453 1.218,1.65452 0.91144,-0.1064 c 1.20121,-0.14024 1.03465,0.37297 -0.22412,0.69054 -1.24201,0.31334 -1.9977,-0.17075 -3.27895,-2.10044 -0.59067,-0.88962 -1.15063,-1.44754 -1.45282,-1.44754 -0.42459,0 -0.49171,0.2167 -0.49171,1.5875 0,1.03313 0.1078,1.5875 0.30868,1.5875 0.16978,0 0.23137,0.0773 0.13687,0.17181 -0.24344,0.24344 -2.05913,0.26534 -2.20642,0.0266 z m 3.2895,-4.31448 c 1.15715,-0.8105 0.53099,-2.76312 -0.88607,-2.76312 h -0.64256 v 1.5875 c 0,1.74768 0.33932,2.00865 1.52863,1.17562 z m -50.93956,-14.58323 -0.59532,-0.41527 v -3.27502 -3.27502 h -3.56256 -3.56257 l -0.27389,-0.51177 c -0.150641,-0.28147 -0.273892,-2.00608 -0.273892,-3.83246 v -3.32069 l -7.739063,-0.0701 -7.7390618,-0.0701 -0.07405,-3.37343 -0.07405,-3.373438 h -3.643345 c -2.480935,0 -3.744643,-0.1013 -3.96084504,-0.3175 -0.237577,-0.23758 -0.3175,-3.32746 -0.3175,-12.27482 v -11.95725 l 0.418515,-0.1606 c 0.23018304,-0.0883 1.95658904,-0.1606 3.83645804,-0.1606 h 3.417944 v -3.28565 c 0,-1.80711 0.07227,-3.47398 0.160599,-3.70417 l 0.160599,-0.41851 H 20.547559 c 6.593727,0 12.176917,0.0723 12.407107,0.1606 0.35384,0.13578 0.41851,0.72863 0.41851,3.83646 v 3.67586 h 3.43959 3.43958 v -3.67331 -3.67331 l 0.59531,-0.15954 c 0.32742,-0.0877 5.75327,-0.16116 12.05744,-0.16315 9.46739,-0.003 11.5265,0.0608 11.832,0.36626 0.26967,0.26966 0.38999,1.2911 0.44412,3.77031 l 0.0743,3.40044 h 3.77037 3.77038 l -6e-5,11.85901 c -5e-5,9.92497 -0.0617,11.92065 -0.37804,12.23698 -0.29044,0.29044 -1.20952,0.37798 -3.96875,0.37798 h -3.59077 v 3.254368 c 0,2.1784 -0.10497,3.35935 -0.3175,3.57188 -0.23172,0.23171 -2.30482,0.3175 -7.67292,0.3175 h -7.35541 v 3.47656 c 0,3.00072 -0.0634,3.52467 -0.46302,3.82804 -0.32737,0.2485 -1.4514,0.35395 -3.83646,0.3599 l -3.37344,0.008 v 3.43959 3.43958 h -0.52917 c -0.29104,0 -0.52916,0.11906 -0.52916,0.26458 0,0.16506 -1.46801,0.25937 -3.90261,0.25071 -3.09994,-0.011 -4.02504,-0.0993 -4.49791,-0.42915 z m 5.75468,-1.80593 c -0.64268,-0.65485 -1.23301,-1.18741 -1.31186,-1.18347 -0.0788,0.004 -0.73866,0.53862 -1.46626,1.18819 l -1.32292,1.18102 2.63478,0.002 2.63477,0.002 z m 2.51326,-4.85098 c -0.0831,-0.0831 -0.83148,0.53649 -1.66295,1.37698 l -1.51177,1.52816 1.5875,1.43546 1.5875,1.43546 0.0755,-2.81244 c 0.0415,-1.54684 0.007,-2.88047 -0.0757,-2.96362 z m -6.00602,4.11108 1.38395,-1.40136 -1.45914,-1.25972 -1.45913,-1.25973 v 2.66108 c 0,1.4636 0.0338,2.66109 0.0752,2.66109 0.0414,0 0.69796,-0.63061 1.45914,-1.40136 z m 5.82435,-5.47781 3.46417,-3.30729 -1.76325,-1.78286 c -1.38924,-1.40469 -1.69465,-1.85145 -1.43986,-2.10624 0.25479,-0.25479 0.67506,0.0252 1.98134,1.31983 0.91188,0.90378 1.77382,1.63735 1.91542,1.63018 0.14161,-0.007 1.8042,-1.49333 3.69466,-3.30256 l 3.43719,-3.2895 -1.7983,-1.812178 c -1.40347,-1.41431 -1.72244,-1.87386 -1.45281,-2.09311 0.26153,-0.21266 0.7924,0.12568 2.18468,1.39237 l 1.83921,1.673288 1.78163,-1.680698 c 0.9799,-0.92439 1.95638,-1.65505 2.16996,-1.62371 0.21358,0.0314 1.18176,0.79921 2.15151,1.70637 l 1.76318,1.649368 3.55422,-3.353428 c 1.95482,-1.8444 3.55421,-3.44056 3.55421,-3.54703 0,-0.10648 -0.7739,-0.87305 -1.71979,-1.70349 -0.94588,-0.83044 -1.71979,-1.71908 -1.71979,-1.97475 0,-0.25567 0.78248,-1.21623 1.73885,-2.13458 l 1.73886,-1.66974 -1.71475,-1.74564 c -1.07531,-1.09469 -1.69811,-1.94298 -1.67013,-2.27481 0.0245,-0.29104 0.81737,-1.27478 1.76183,-2.18608 l 1.71721,-1.65692 -1.05833,-0.95043 c -0.58208,-0.52273 -2.19506,-1.99547 -3.58439,-3.27274 l -2.52605,-2.32231 -1.83957,1.67809 c -1.01177,0.92295 -2.02566,1.68278 -2.25309,1.68851 -0.22744,0.006 -0.76322,-0.35782 -1.19063,-0.80789 -0.42741,-0.45007 -1.23274,-1.1817 -1.78963,-1.62584 l -1.01253,-0.80754 -1.64042,1.62585 c -0.90224,0.89421 -1.87214,1.62584 -2.15536,1.62584 -0.28321,0 -1.25388,-0.73238 -2.15704,-1.62752 l -1.64211,-1.62751 -2.14353,1.82595 c -1.17895,1.00427 -2.82445,2.44892 -3.65668,3.21033 l -1.51314,1.38438 1.78482,1.75155 c 1.64635,1.61565 1.971,2.22657 1.18325,2.22657 -0.1694,0 -1.04707,-0.7325 -1.95038,-1.62779 l -1.64238,-1.62778 -1.77644,1.62778 c -0.97704,0.89529 -1.93781,1.62779 -2.13505,1.62779 -0.76632,0 -0.28735,-0.80295 1.36473,-2.28782 l 1.72333,-1.54892 -3.57342,-3.56607 -3.57342,-3.56607 -1.65565,1.61422 c -2.31795,2.25996 -2.56167,2.27629 -4.763779,0.31918 l -1.807472,-1.60639 -1.819152,1.61677 c -1.000534,0.88922 -1.900394,1.61677 -1.999688,1.61677 -0.09929,0 -1.000692,-0.7918 -2.003105,-1.75955 l -1.822568,-1.75954 -1.392852,1.29252 c -0.766068,0.71088 -2.4007338,2.27754 -3.6325918,3.48147 l -2.23974,2.18895 1.77672,1.79044 c 0.977195,0.98475 1.776719,1.92435 1.776719,2.08802 0,0.16366 -0.776868,1.04767 -1.726374,1.96446 l -1.726374,1.66689 1.683482,1.73307 c 0.939775,0.96745 1.694215,1.98343 1.707779,2.29981 0.01585,0.36973 -0.578107,1.1484 -1.708538,2.23988 l -1.732835,1.67312 1.949868,1.80704 c 1.072427,0.99387 2.7244708,2.50249 3.6712078,3.3525 l 1.721342,1.545458 1.784939,-1.666278 c 0.981717,-0.91645 1.958477,-1.64081 2.170577,-1.60968 0.2121,0.0311 1.169357,0.80917 2.127237,1.72897 l 1.7416,1.672368 1.835138,-1.771668 c 1.669704,-1.61197 2.37595,-1.95057 2.37595,-1.13914 0,0.16406 -0.791586,1.02288 -1.759082,1.90847 l -1.759083,1.610178 3.527935,3.36758 c 1.94037,1.85217 3.6077,3.36758 3.70519,3.36758 0.0975,0 0.97531,-0.73127 1.9507,-1.62504 1.33962,-1.22752 1.84809,-1.55038 2.07863,-1.31984 0.23054,0.23054 -0.13343,0.74722 -1.48793,2.11218 l -1.79314,1.80698 3.52308,3.34165 c 1.93769,1.83791 3.59566,3.31534 3.68438,3.28317 0.0887,-0.0322 1.72019,-1.54676 3.62549,-3.36577 z m -10.33871,-1.51787 -1.25329,-1.25329 -1.25329,1.25329 -1.25329,1.25329 h 2.50658 2.50657 z m 17.00296,1.14563 c 0,-0.0592 -0.57574,-0.58968 -1.27941,-1.17883 l -1.2794,-1.07118 -1.15694,1.17884 -1.15693,1.17883 h 2.43634 c 1.33998,0 2.43634,-0.0484 2.43634,-0.10766 z m -19.11388,-3.06566 c -0.0376,-0.0793 -0.69349,-0.72374 -1.45748,-1.43207 l -1.38906,-1.28786 v 2.87144 2.87144 l 1.45747,-1.43937 c 0.80162,-0.79166 1.42669,-1.50427 1.38907,-1.58358 z m 20.31636,-2.59156 c -0.0768,-0.0768 -0.76264,0.47352 -1.52401,1.223 l -1.3843,1.36271 1.44822,1.46747 1.44823,1.46748 0.0758,-2.69048 c 0.0417,-1.47976 0.0129,-2.75334 -0.0639,-2.83018 z m -32.687899,-1.71955 c 0,-0.0419 -0.569832,-0.63736 -1.266294,-1.32334 l -1.266295,-1.24726 -1.303447,1.32335 -1.303446,1.32334 h 2.569741 c 1.413358,0 2.569741,-0.0342 2.569741,-0.0761 z m 6.787423,-1.12504 c -0.705302,-0.64906 -1.365122,-1.18012 -1.466265,-1.18012 -0.101144,0 -0.709727,0.53578 -1.352408,1.19063 l -1.16851,1.19062 2.634776,-0.0105 2.634776,-0.0105 z m 31.577156,0.0105 c -0.64268,-0.65485 -1.29752,-1.19063 -1.45521,-1.19063 -0.15768,0 -0.81252,0.53578 -1.4552,1.19063 l -1.16851,1.19062 h 2.62371 2.62372 z m 7.88676,-0.006 c -0.68276,-0.65147 -1.34257,-1.18449 -1.46627,-1.18449 -0.12369,0 -0.75072,0.53578 -1.3934,1.19063 l -1.16851,1.19062 2.63477,-0.006 2.63478,-0.006 z m -43.212322,-0.53054 1.583808,-1.43842 -1.557557,-1.57398 -1.557558,-1.573978 -1.685963,1.48939 -1.685962,1.489398 1.519138,1.53515 c 0.835525,0.84434 1.582396,1.52969 1.659711,1.52301 0.07732,-0.007 0.853288,-0.65944 1.724383,-1.45057 z m 39.426602,0.029 1.5875,-1.43279 -1.56416,-1.59422 -1.56416,-1.594228 -1.69084,1.48447 -1.69083,1.484468 1.52692,1.54302 c 0.83981,0.84867 1.59018,1.54281 1.6675,1.54255 0.0773,-2.6e-4 0.85495,-0.64523 1.72807,-1.43327 z M 11.0218,102.90994 c 0.651593,-0.60061 1.1726,-1.22569 1.157793,-1.38906 -0.01481,-0.16337 -0.610118,-0.81988 -1.322916,-1.45891 L 9.5606812,98.900102 v 2.550938 c 0,1.40301 0.06219,2.55093 0.138203,2.55093 0.07601,0 0.6713238,-0.49141 1.3229158,-1.09203 z m 52.667326,-3.605218 c -0.073,-0.073 -0.67419,0.38335 -1.33599,1.014088 l -1.20328,1.1468 1.25906,1.27957 1.25905,1.27956 0.0769,-2.29365 c 0.0423,-1.26151 0.0172,-2.353368 -0.0558,-2.426368 z m -56.9753618,-3.03916 -1.651,-1.651 -1.651,1.651 -1.651,1.651 h 3.302 3.302 z m 63.1028918,-0.13207 -1.51848,-1.51847 -1.51848,1.51847 -1.51847,1.51848 h 3.03695 3.03696 z M 3.7279962,93.269182 c -0.357284,-0.38281 -0.977029,-0.93062 -1.377211,-1.21734 l -0.727604,-0.52132 v 2.59456 2.59455 l 1.377211,-1.37721 1.377212,-1.37721 z m 67.9581198,-0.48483 -0.0807,-1.16347 -1.319,1.19663 -1.319,1.19663 1.319,1.19643 1.319,1.19642 0.0807,-1.22959 c 0.0443,-0.67628 0.0443,-1.75315 0,-2.39305 z m -64.8027838,-1.16158 1.688276,-1.52259 -1.65073,-1.52829 c -0.907901,-0.84055 -1.743247,-1.49288 -1.856323,-1.44962 -0.373566,0.14293 -3.176791,2.67891 -3.176791,2.87394 0,0.21122 2.963805,3.15188 3.175,3.1502 0.07276,-5.8e-4 0.892016,-0.68622 1.820568,-1.52364 z m 63.1346338,0.077 1.5875,-1.44139 -1.49808,-1.4626 c -0.82395,-0.80444 -1.59786,-1.45972 -1.71979,-1.45619 -0.12194,0.004 -0.9308,0.64075 -1.79747,1.41605 l -1.57577,1.40962 1.57577,1.48473 c 0.86667,0.8166 1.63529,1.48617 1.70805,1.48795 0.0728,0.002 0.84667,-0.6454 1.71979,-1.43817 z m 1.7198,-5.34884 v -2.56969 l -1.32335,1.30344 -1.32335,1.30345 1.24726,1.2663 c 0.68599,0.69646 1.28149,1.26629 1.32334,1.26629 0.0418,0 0.0761,-1.15638 0.0761,-2.56974 z m -67.4688818,-0.086 c 7.1e-5,-0.0782 -0.595183,-0.7286 -1.322787,-1.44526 l -1.322916,-1.30303 v 2.58442 2.58442 l 1.322786,-1.13916 c 0.727533,-0.62654 1.322846,-1.20316 1.322917,-1.28139 z m 65.7014118,-2.05854 c 0.99567,-1.00617 1.46242,-1.67056 1.34762,-1.91823 -0.0966,-0.2084 -0.82101,-0.96758 -1.6098,-1.68707 l -1.43417,-1.30815 -1.64153,1.64371 -1.64153,1.64371 1.5875,1.57294 c 0.87313,0.86512 1.65076,1.57732 1.72807,1.58268 0.0773,0.005 0.82604,-0.68297 1.66384,-1.52959 z m -63.3042888,-3.33444 -1.577423,-1.57742 -1.534264,1.43869 c -0.843845,0.79128 -1.566975,1.50749 -1.606954,1.59158 -0.03998,0.0841 0.653691,0.84572 1.541488,1.69254 l 1.614178,1.53966 1.570199,-1.55381 1.570199,-1.55382 z m -3.129032,-1.4815 0.741559,-0.66672 -1.327677,-1.30771 -1.327676,-1.30771 v 2.47845 2.47846 l 0.586118,-0.50403 c 0.322365,-0.27721 0.919819,-0.80405 1.327676,-1.17074 z m 68.1491408,-1.95195 -0.0807,-1.16346 -1.32077,1.19823 -1.32078,1.19824 1.32078,1.16451 1.32077,1.16452 0.0807,-1.19929 c 0.0443,-0.65961 0.0443,-1.72285 0,-2.36275 z m -65.1681438,-0.95321 1.303025,-1.32292 -2.900471,0.008 -2.90047,0.008 1.455208,1.30608 c 0.800364,0.71834 1.519215,1.30986 1.597446,1.31449 0.07823,0.005 0.728599,-0.58689 1.445262,-1.31449 z m 31.7499938,0 1.30303,-1.32292 h -2.70203 c -1.48612,0 -2.70204,0.0828 -2.70204,0.18413 0,0.19815 2.41963,2.43017 2.65578,2.44985 0.0782,0.007 0.7286,-0.58346 1.44526,-1.31106 z m 31.55553,-0.005 1.39304,-1.31774 h -2.8383 -2.83829 l 1.30302,1.32291 c 0.71667,0.72761 1.36704,1.32059 1.44527,1.31775 0.0782,-0.003 0.7691,-0.59816 1.53526,-1.32292 z m -19.51381,-3.56992 1.44031,-1.45842 -1.58712,-1.58712 -1.58711,-1.58712 -1.57336,1.58995 -1.57336,1.58995 1.4375,1.4556 c 0.79064,0.80057 1.56471,1.45559 1.72017,1.45559 0.15547,0 0.9308,-0.6563 1.72297,-1.45843 z m 7.77781,-0.0779 c 0.81369,-0.77222 1.47943,-1.46948 1.47943,-1.54947 0,-0.08 -0.68461,-0.77809 -1.52135,-1.55134 l -1.52136,-1.40592 -1.6032,1.50018 -1.6032,1.50018 1.46468,1.52343 c 0.80558,0.83788 1.54588,1.49273 1.64512,1.45521 0.0992,-0.0375 0.84619,-0.70005 1.65988,-1.47227 z m -38.226543,-1.58214 c 0.06934,-0.0417 -0.612458,-0.81438 -1.515109,-1.71703 l -1.641183,-1.64118 -1.515876,1.51587 -1.515876,1.51588 1.573606,1.5902 1.573605,1.59019 1.457379,-1.38904 c 0.801558,-0.76397 1.514113,-1.42317 1.583454,-1.46489 z m 6.692163,1.26686 1.66069,-1.58711 -1.71979,-1.57377 -1.71979,-1.57376 -1.692586,1.68091 -1.692583,1.68091 1.560291,1.47032 c 0.85816,0.80867 1.646419,1.47466 1.751688,1.47996 0.10527,0.005 0.9387,-0.70455 1.85208,-1.57746 z m 17.32623,-1.17506 c -0.0357,-0.009 -0.6283,-0.54676 -1.31682,-1.19552 l -1.25185,-1.17957 v 2.49254 2.49254 l 1.31682,-1.29702 c 0.72425,-0.71336 1.28758,-1.3042 1.25185,-1.31297 z m 20.1855,-0.016 c 0,-1.38245 -0.0852,-2.51354 -0.18935,-2.51354 -0.10414,0 -0.75918,0.56126 -1.45564,1.24724 l -1.26629,1.24725 1.24726,1.2663 c 0.68599,0.69646 1.34102,1.26629 1.45564,1.26629 0.11461,0 0.20838,-1.13109 0.20838,-2.51354 z m -51.931024,-0.26202 c 0.03278,-0.0185 -0.592298,-0.67737 -1.389062,-1.46424 l -1.4486628,-1.43067 v 2.73915 2.73915 l 1.3890628,-1.27491 c 0.763984,-0.7012 1.415882,-1.29001 1.448662,-1.30848 z m 20.129014,-1.15359 -0.0803,-1.30105 -1.31887,1.1627 -1.31887,1.16271 1.31887,1.29768 1.31887,1.29768 0.0803,-1.15933 c 0.0442,-0.63764 0.0442,-1.74481 0,-2.46039 z m 14.07493,-0.70106 1.43713,-1.45521 h -2.96753 c -1.63213,0 -2.96752,0.0798 -2.96752,0.17742 0,0.19402 2.6904,2.70152 2.91945,2.72099 0.0777,0.007 0.78804,-0.64284 1.57847,-1.4432 z m 7.8052,0.004 1.5875,-1.44664 -3.16596,-0.006 -3.16596,-0.006 1.43713,1.45521 c 0.79043,0.80036 1.50073,1.45415 1.57846,1.45287 0.0777,-0.001 0.85571,-0.65333 1.72883,-1.44899 z m 6.45802,-1.40259 c -1.47976,-0.0417 -2.74882,-0.0174 -2.82012,0.0539 -0.0713,0.0713 0.50975,0.72203 1.29123,1.44604 l 1.42087,1.3164 1.39925,-1.37026 1.39924,-1.37026 z m -38.340305,1.13412 1.437131,-1.45521 h -3.024631 -3.024632 l 1.437132,1.45521 c 0.790422,0.80036 1.504797,1.45521 1.5875,1.45521 0.0827,0 0.797077,-0.65485 1.5875,-1.45521 z m -7.805209,-0.13229 1.303025,-1.32292 -2.900471,0.007 -2.9004698,0.007 1.4244478,1.31583 c 0.783447,0.7237 1.502298,1.31582 1.597446,1.31582 0.09515,0 0.759359,-0.59531 1.476022,-1.32291 z m 15.846094,0.0607 c 0.67074,-0.62146 1.21953,-1.18701 1.21953,-1.25677 0,-0.0698 -1.21592,-0.12685 -2.70203,-0.12685 h -2.70204 l 1.30549,1.32542 c 0.71801,0.72897 1.38514,1.29452 1.48249,1.25677 0.0974,-0.0377 0.72581,-0.57711 1.39656,-1.19857 z m 10.37596,-8.15213 c -0.0883,-0.23018 -0.1606,-2.24084 -0.1606,-4.46812 v -4.0496 l 3.23201,-3.00636 c 1.77761,-1.6535 3.56354,-3.33789 3.96875,-3.74309 l 0.73674,-0.73673 v -7.631394 c 0,-6.180294 0.0697,-7.689246 0.36657,-7.935624 0.24933,-0.206922 1.62449,-0.280753 4.29948,-0.230835 l 3.93291,0.07339 0.0736,3.638021 0.0736,3.638021 h 3.60138 c 3.11961,0 3.64841,0.06194 3.95287,0.46302 0.37519,0.494247 0.51091,5.650472 0.19849,7.540621 l -0.164,0.99219 h -7.65865 -7.65865 l -3.93446,3.63802 -3.93445,3.63802 -0.0139,3.50573 c -0.008,1.92815 0.0538,3.50573 0.13665,3.50573 0.0828,0 3.23813,-1.66687 7.01179,-3.70417 3.77366,-2.03729 7.03964,-3.70416 7.25774,-3.70416 0.2181,0 0.39654,-0.13154 0.39654,-0.29231 0,-0.20506 1.24371,-0.26349 4.16719,-0.19575 l 4.16719,0.0965 3.83646,3.92416 c 2.11005,2.15829 3.82455,4.03231 3.81,4.1645 -0.0146,0.13219 -0.0443,0.35941 -0.0661,0.50493 -0.0255,0.16973 -2.93078,0.26458 -8.10444,0.26458 h -8.06475 l -0.13857,-0.59531 c -0.0762,-0.32742 -0.16777,-1.98145 -0.20348,-3.67563 l -0.0649,-3.08031 -7.27604,3.9296 c -4.00182,2.16128 -7.3526,3.93437 -7.44617,3.94021 -0.0936,0.006 -0.2424,-0.17772 -0.33073,-0.40791 z m 29.06943,-2.49843 -1.29744,-1.31725 -1.27822,1.2572 -1.27822,1.2572 2.45932,0.13229 c 1.35263,0.0728 2.51168,0.0998 2.57566,0.0601 0.064,-0.0397 -0.4675,-0.665 -1.1811,-1.38949 z m -7.91336,0.0245 -1.28531,-1.30493 -1.41672,1.2231 c -0.7792,0.67271 -1.41672,1.25993 -1.41672,1.30494 0,0.045 1.21591,0.0818 2.70203,0.0818 h 2.70204 z m 5.51878,-1.68816 c 0.22473,-0.35628 -0.0176,-0.73485 -1.2995,-2.03029 l -1.57574,-1.59236 -1.67701,1.65423 -1.677,1.65423 1.6259,1.53611 1.6259,1.53612 1.35061,-1.16005 c 0.74283,-0.63803 1.47491,-1.35713 1.62684,-1.59799 z m -8.8666,0.76739 1.14569,-1.16737 -0.62758,-0.62316 c -0.34517,-0.34273 -0.955,-0.90973 -1.35519,-1.25999 l -0.7276,-0.63685 v 2.42737 c 0,1.33506 0.0943,2.42737 0.20949,2.42737 0.11523,0 0.72506,-0.52531 1.35519,-1.16737 z m 3.59469,-3.33054 1.30303,-1.32292 h -2.83433 c -1.55887,0 -2.83432,0.053 -2.83432,0.11774 0,0.23548 2.52115,2.516 2.78807,2.52196 0.15099,0.003 0.86089,-0.58918 1.57755,-1.31678 z m -7.28373,-10.651776 c -0.51356,-0.471681 -1.17519,-1.063616 -1.47029,-1.315413 l -0.53655,-0.457811 -1.29789,1.317707 -1.29789,1.317703 2.76818,-0.002 2.76817,-0.002 z m 7.21444,-0.523722 -1.38591,-1.385913 -1.38592,1.385913 -1.38591,1.385908 h 2.77183 2.77182 z m -3.67533,-3.41747 -1.49627,-1.512052 -1.54674,1.345313 c -0.85071,0.739922 -1.54674,1.451687 -1.54674,1.5817 0,0.130013 0.68461,0.878001 1.52135,1.662195 l 1.52136,1.425812 1.52166,-1.49546 1.52166,-1.495456 z m 5.67699,0.329806 -0.0803,-1.316316 -1.27846,1.210196 -1.27846,1.210195 1.27846,1.300582 1.27846,1.300585 0.0803,-1.194465 c 0.0442,-0.656954 0.0442,-1.786804 0,-2.510777 z m -12.9677,2.280784 1.11339,-1.134459 -1.32288,-1.302991 -1.32288,-1.30299 v 2.43745 c 0,1.340597 0.0943,2.437449 0.20949,2.437449 0.11522,0 0.71052,-0.510506 1.32288,-1.134459 z m 4.28846,-4.109847 0.92604,-0.834918 -1.63175,-1.632197 -1.63174,-1.632196 -1.75585,1.54155 -1.75585,1.541551 1.65773,1.672601 1.65774,1.672602 0.80382,-0.747038 c 0.4421,-0.41087 1.22054,-1.12275 1.72986,-1.581955 z m 6.92686,0.756476 1.40751,-1.31283 -3.03276,-0.01009 -3.03276,-0.01009 1.30302,1.322917 c 0.71667,0.727604 1.44803,1.322916 1.62525,1.322916 0.17722,0 0.9556,-0.590773 1.72974,-1.31283 z m -10.41498,-5.110984 c 0.23297,-0.280712 0.0124,-0.639148 -1.01764,-1.653697 l -1.31507,-1.295305 v 2.459683 2.459682 l 1.01764,-0.805985 c 0.5597,-0.443292 1.15148,-0.967262 1.31507,-1.164378 z m 4.28187,-0.518017 v -2.443914 l -1.24947,1.249465 -1.24946,1.249466 1.17226,1.194449 c 0.64474,0.656947 1.207,1.194449 1.24947,1.194449 0.0425,0 0.0772,-1.099762 0.0772,-2.443915 z m -1.85208,-1.92171 1.16851,-1.190625 -2.63478,0.0061 -2.63478,0.0061 1.24137,1.184492 c 0.68276,0.65147 1.34258,1.184492 1.46627,1.184492 0.12369,0 0.75073,-0.535782 1.39341,-1.190625 z M 0.81896316,60.279862 c -0.0058,-0.1819 1.86947704,-2.14962 4.16718704,-4.3727 l 4.177656,-4.04198 4.1010408,0.0877 4.101042,0.0877 5.027083,2.46402 c 2.764894,1.35521 6.128414,2.9789 7.474474,3.60821 l 2.4474,1.1442 v -3.34947 -3.34947 l -3.82702,-3.77894 -3.82701,-3.77893 h -7.690664 c -6.592069,0 -7.7124178,-0.0567 -7.8429578,-0.39688 -0.08376,-0.21828 -0.31815,-0.39687 -0.520863,-0.39687 -0.296833,0 -0.368567,-0.69519 -0.368567,-3.571877 0,-1.964532 0.105176,-3.571875 0.233724,-3.571875 0.128549,0 0.295996,-0.238125 0.372105,-0.529167 l 0.13838,-0.529167 h 3.5966458 3.596645 v -3.254375 c 0,-2.178403 0.104973,-3.359348 0.3175,-3.571875 0.44592,-0.44592 7.526318,-0.434889 8.491222,0.01323 l 0.71215,0.33073 0.002,7.544047 0.002,7.544049 3.83645,3.82961 3.83646,3.82961 v 4.04663 c 0,3.10376 -0.0812,4.07779 -0.34858,4.18038 -0.19172,0.0736 -2.48368,-0.89688 -5.09323,-2.15657 -2.60956,-1.25968 -6.084097,-2.92396 -7.721206,-3.6984 l -2.976563,-1.40807 v 3.68863 3.68862 H 9.0313842 c -6.379695,0 -8.20440904,-0.0735 -8.21255104,-0.33072 z m 6.71570604,-1.07613 c -0.07901,-0.17211 -0.607984,-0.71369 -1.175491,-1.20351 l -1.031831,-0.89059 -1.01681,0.89059 c -1.882968,1.64921 -1.857159,1.69472 0.907596,1.60038 1.774378,-0.0606 2.420148,-0.17118 2.316536,-0.39687 z m 7.0508558,-0.84436 c -0.791653,-0.80161 -1.524608,-1.42669 -1.628788,-1.38907 -0.104181,0.0376 -0.815032,0.6042 -1.579671,1.25904 l -1.3902518,1.19063 2.8957868,0.14613 c 1.592684,0.0804 2.951252,0.16967 3.019041,0.19844 0.06779,0.0288 -0.524463,-0.60356 -1.316117,-1.40517 z m -3.878985,-0.87854 1.52617,-1.54226 -1.503334,-1.36447 -1.5033348,-1.36447 -1.600552,1.55657 -1.600551,1.55658 1.437142,1.34007 c 0.790428,0.73704 1.500401,1.34461 1.577716,1.35016 0.07732,0.005 0.827351,-0.68394 1.6667438,-1.53218 z m 5.468724,-1.56311 v -2.31162 l -1.256771,1.26645 -1.256771,1.26646 1.190625,1.03727 c 0.654844,0.5705 1.220391,1.04082 1.256771,1.04517 0.03638,0.004 0.06615,-1.03234 0.06615,-2.30373 z m -1.852083,-1.78942 1.16851,-1.19062 h -2.491427 -2.491427 l 1.16851,1.19062 c 0.642681,0.65484 1.237993,1.19063 1.322917,1.19063 0.08492,0 0.680236,-0.53579 1.322917,-1.19063 z M 14.49602,42.740714 c -0.705302,-0.649066 -1.365122,-1.18012 -1.466265,-1.18012 -0.101144,0 -0.709727,0.535781 -1.352408,1.190625 l -1.16851,1.190623 2.634776,-0.0105 2.634776,-0.0105 z m 4.328253,-0.257294 1.440309,-1.458425 -1.647669,-1.647669 -1.647669,-1.647668 -1.515876,1.515875 -1.515876,1.515876 1.573624,1.590218 c 0.865494,0.874619 1.64095,1.590215 1.723237,1.590215 0.08229,0 0.797751,-0.656289 1.58992,-1.458422 z m 3.436408,0.410656 c -0.654844,-0.575485 -1.255759,-1.051413 -1.335366,-1.057617 -0.07961,-0.0062 -0.609787,0.464969 -1.178176,1.047052 l -1.033435,1.058331 2.368801,-7.1e-4 2.368801,-7.2e-4 z M 10.814575,39.248366 9.2960972,37.729888 v 3.036956 3.036958 l 1.5184778,-1.51848 1.518479,-1.518478 z m 13.775037,0.489796 -0.07997,-1.293265 -1.455208,1.293265 -1.455209,1.293266 1.455209,1.293265 1.455208,1.293269 0.07997,-1.293269 c 0.04399,-0.711296 0.04399,-1.875235 0,-2.586531 z M 22.627165,38.80332 c 0.817079,-0.716136 1.485599,-1.443006 1.485599,-1.615266 0,-0.348782 -2.755478,-3.042655 -3.093016,-3.023865 -0.117852,0.0066 -0.921721,0.664641 -1.786377,1.4624 l -1.572101,1.450472 1.565873,1.582384 c 0.86123,0.870312 1.644297,1.551685 1.740148,1.514163 0.09585,-0.03752 0.842794,-0.654152 1.659874,-1.370288 z m -7.982344,-0.07705 c 0.696223,-0.685754 1.26586,-1.340598 1.26586,-1.455209 0,-0.114611 -1.335386,-0.208383 -2.967525,-0.208383 H 9.9756322 l 1.4371318,1.455208 c 0.790422,0.800364 1.556172,1.455208 1.701665,1.455208 0.145493,0 0.83417,-0.561071 1.530392,-1.246824 z m 5.399915,-5.156592 c 0.0918,-0.14854 -0.503149,-0.940134 -1.322113,-1.759098 l -1.489026,-1.489026 v 2.866033 2.866032 l 1.322113,-1.106935 c 0.727162,-0.608814 1.397223,-1.228467 1.489026,-1.377006 z m 4.468798,-2.809008 c -0.08161,-0.08161 -0.741316,0.435638 -1.466015,1.14944 l -1.317633,1.297821 1.389876,1.408464 1.389877,1.408465 0.07614,-2.557904 c 0.04188,-1.406848 0.0094,-2.624676 -0.07224,-2.706286 z m -2.095819,0.481174 1.398789,-1.322916 h -2.818486 -2.818487 l 1.303025,1.322916 c 0.716663,0.727604 1.355527,1.322917 1.419697,1.322917 0.06417,0 0.746128,-0.595313 1.515462,-1.322917 z"
       id="path5" /></g></svg>
