<?xml version="1.0" encoding="UTF-8" standalone="no"?>
<!-- Created with Inkscape (http://www.inkscape.org/) -->

<svg
   version="1.1"
   id="svg1"
   width="640"
   height="640"
   viewBox="0 0 640 640"
   sodipodi:docname="WVSpaceGrantConsortium.svg"
   inkscape:version="1.3.2 (091e20e, 2023-11-25, custom)"
   xmlns:inkscape="http://www.inkscape.org/namespaces/inkscape"
   xmlns:sodipodi="http://sodipodi.sourceforge.net/DTD/sodipodi-0.dtd"
   xmlns="http://www.w3.org/2000/svg"
   xmlns:svg="http://www.w3.org/2000/svg">
  <defs
     id="defs1" />
  <sodipodi:namedview
     id="namedview1"
     pagecolor="#ffffff"
     bordercolor="#666666"
     borderopacity="1.0"
     inkscape:showpageshadow="2"
     inkscape:pageopacity="0.0"
     inkscape:pagecheckerboard="0"
     inkscape:deskcolor="#d1d1d1"
     inkscape:zoom="1.3180912"
     inkscape:cx="428.27081"
     inkscape:cy="306.12448"
     inkscape:window-width="3440"
     inkscape:window-height="1369"
     inkscape:window-x="-8"
     inkscape:window-y="-8"
     inkscape:window-maximized="1"
     inkscape:current-layer="g1" />
  <g
     inkscape:groupmode="layer"
     inkscape:label="Image"
     id="g1">
    <path
       style="fill:#ffffff"
       d="m 110.2896,593.0148 c -0.33265,-0.36756 -0.5296,-1.13745 -0.5296,-2.07018 0,-1.69675 0.21542,-2.09086 8.25621,-15.10462 11.43019,-18.49939 20.52994,-31.67453 28.07573,-40.64967 8.0236,-9.54345 26.63371,-26.76738 44.37765,-41.07216 l 2.13579,-1.72183 -4.54269,-3.36463 c -21.70516,-16.07636 -39.76092,-36.12088 -52.69538,-58.49958 l -2.42051,-4.18788 -9.2734,3.80824 c -5.10037,2.09453 -19.9108,8.2797 -32.912063,13.74482 -20.882817,8.77816 -23.784843,9.91698 -24.89255,9.76841 -1.933772,-0.25938 -2.231261,-0.66661 -2.122739,-2.90582 l 0.09395,-1.93857 7.2,-5.40667 c 9.032466,-6.78271 21.021724,-15.33155 27.058751,-19.29401 3.715909,-2.43897 24.861019,-14.79357 26.037419,-15.21306 0.16595,-0.0592 -0.6392,-2.62759 -1.78923,-5.70759 -6.45499,-17.28772 -9.97153,-33.19718 -11.4938,-52 -0.63559,-7.85072 -0.46581,-25.93745 0.31839,-33.91842 3.50498,-35.67086 13.74027,-66.46898 31.6388,-95.20158 17.03995,-27.3543 41.08595,-51.25999 68.86967,-68.4678 31.81007,-19.70152 66.65579,-30.9433 105.76,-34.11984 7.77947,-0.63195 25.54887,-0.71284 33.6,-0.15295 48.70895,3.38728 91.62174,21.98626 124.4043,53.91849 8.64989,8.42552 15.20959,16.02566 21.89955,25.37306 7.35496,10.27655 14.60086,23.01353 19.30816,33.94021 0.92109,2.13806 1.71761,3.57397 1.95259,3.52 0.6895,-0.15839 10.49642,-9.43038 19.93737,-18.84988 10.19128,-10.16814 20.81736,-21.38672 30.8751,-32.5967 9.19315,-10.24633 8.13451,-9.28459 10.22017,-9.28459 2.0743,0 2.76276,0.65268 2.76276,2.6192 0,1.79283 -0.9807,4.13158 -5.2755,12.5808 -6.78518,13.3486 -13.61631,25.33848 -21.7983,38.26001 -9.1179,14.39957 -14.63343,21.65829 -24.87546,32.73739 l -2.82925,3.06049 0.64701,2.81105 c 3.64074,15.81775 5.10974,28.36453 5.38706,46.01106 0.25143,15.99866 -0.43057,26.5084 -2.58613,39.85302 -10.09514,62.49682 -48.09508,116.89942 -103.76734,148.55846 -23.74964,13.50567 -49.94575,22.35334 -77.81201,26.2808 -12.2741,1.72991 -16.00811,1.94914 -32.85008,1.92863 -13.9704,-0.017 -16.39524,-0.097 -22.24,-0.73367 -26.92384,-2.93278 -50.3277,-9.40097 -72.52651,-20.04436 -2.75642,-1.32158 -5.1317,-2.40288 -5.2784,-2.40288 -1.23012,0 -67.37468,55.94541 -98.44451,83.26489 L 114.22115,593.6 h -1.70098 c -1.24148,0 -1.84404,-0.15808 -2.23057,-0.5852 z M 142.72,560.76767 c 23.26856,-20.08541 53.21587,-45.27803 67.52,-56.79995 25.78329,-20.76835 66.92006,-51.76215 130.4,-98.24767 26.56179,-19.45085 32.55738,-23.69691 59.36,-42.03862 34.58128,-23.66483 47.11875,-32.58969 60,-42.71129 19.00801,-14.93578 36.03137,-31.26541 63.39352,-60.81014 12.96291,-13.99692 17.40493,-19.73514 27.00095,-34.88 6.35027,-10.02226 18.33605,-30.70688 16.87369,-29.12 -18.4257,19.99477 -37.82524,39.13163 -49.98816,49.31131 -18.12341,15.16826 -50.756,34.27127 -89.6,52.45154 -34.69247,16.23721 -54.93641,24.34624 -101.6,40.69749 -51.5276,18.05562 -60.27247,20.99063 -85.66495,28.75138 -44.63986,13.64338 -55.21156,17.49192 -78.17505,28.45897 -19.17664,9.15851 -52.07423,27.34052 -63.04,34.84127 -6.125401,4.18987 -10.269742,7.16496 -10.149036,7.28567 0.06807,0.0681 3.567448,-1.33135 7.776399,-3.10981 27.018887,-11.41667 66.541517,-27.3777 83.492637,-33.71812 16.65724,-6.23049 24.60408,-8.99184 68.64,-23.85088 13.464,-4.54316 27.64873,-9.34188 31.52163,-10.66383 15.81635,-5.39866 72.86068,-25.78945 137.11837,-49.01366 33.94515,-12.26857 33.82677,-12.2317 35.12238,-10.93609 0.62947,0.62947 0.82589,2.79316 0.33016,3.63689 -0.61691,1.04998 -49.32537,38.57523 -78.01254,60.10126 -20.48691,15.3728 -35.28137,25.81829 -64.8,45.75144 -4.4,2.9712 -15.632,10.60806 -24.96,16.97079 -9.328,6.36274 -21.712,14.78554 -27.52,18.71734 -25.44921,17.22817 -33.15921,22.8543 -53.28,38.87936 -21.0427,16.75931 -33.06367,27.20534 -44.77371,38.90765 -6.76376,6.7593 -10.10164,10.60296 -15.39695,17.73003 -5.73437,7.718 -18.86934,27.32135 -18.86934,28.16164 0,0.11366 2.052,-1.57465 4.56,-3.7518 2.508,-2.17715 8.232,-7.12813 12.72,-11.00217 z m 193.76,-42.19125 c 24.68126,-2.46132 45.94092,-8.02306 67.74067,-17.72165 16.93601,-7.53473 33.88548,-18.26025 48.41933,-30.63944 42.04133,-35.80868 67.06207,-86.48772 70.07955,-141.94483 l 0.20293,-3.72951 -2.82124,-0.23746 c -5.84213,-0.49171 -11.23978,0.72284 -22.06197,4.96429 -3.77724,1.48039 -7.23768,3.11108 -9.92,4.6747 -5.61487,3.27309 -10.77318,5.78975 -13.07927,6.38117 -3.78153,0.96982 -19.56205,2.07631 -29.61189,2.07631 h -4.21339 l -6.76736,4.7514 c -7.80307,5.47858 -15.98761,11.11988 -33.96736,23.41242 -22.81326,15.59716 -31.01097,21.4156 -58.15479,41.27618 -8.53926,6.248 -15.47496,11.44909 -15.41266,11.55797 0.0623,0.10888 0.72846,0.29569 1.48036,0.41513 2.47217,0.3927 8.03223,2.43008 11.12709,4.07731 5.89331,3.13669 9.66687,6.53532 11.58405,10.43307 0.9702,1.97248 1.05595,2.39406 1.05595,5.19166 0,2.7442 -0.0984,3.25244 -0.99617,5.14713 -3.34869,7.06689 -11.16263,13.93295 -30.36383,26.68047 -4.752,3.15482 -9.90715,6.66207 -11.45588,7.7939 -3.33703,2.43873 -3.43297,2.08848 1.53588,5.60671 6.92749,4.90504 8.50832,6.46443 9.43528,9.30733 1.39218,4.26964 -1.73184,11.04861 -8.91963,19.3552 l -1.77033,2.04587 10.86734,-0.18237 c 6.11032,-0.10254 13.10854,-0.40588 15.98734,-0.69296 z M 304.38499,516.4 c 6.10404,-6.76051 10.49501,-13.38231 10.49501,-15.82699 0,-1.09082 -2.32909,-3.38644 -6.08,-5.99261 -6.76156,-4.698 -8.32,-6.46493 -8.32,-9.43307 0,-3.19153 0.79035,-3.8862 15.95134,-14.02012 18.31196,-12.2401 26.55367,-19.21888 29.3997,-24.8946 1.04135,-2.0767 1.1296,-2.92053 0.46076,-4.40541 -1.48543,-3.29777 -5.20421,-6.52634 -10.6943,-9.28459 -4.24354,-2.13197 -8.14771,-3.31768 -12.55917,-3.81428 l -3.20168,-0.36041 -3.83832,2.82379 c -2.11108,1.55309 -3.88965,2.86563 -3.95239,2.91677 -0.0627,0.0511 0.69688,0.88469 1.68802,1.85235 2.14657,2.09572 2.74604,3.38194 2.74604,5.89189 0,2.53366 -0.66566,4.30183 -2.58017,6.8536 -3.36194,4.48099 -7.32402,7.34515 -19.81983,14.32758 -9.70944,5.42546 -12.89467,8.00507 -14.7317,11.93072 -2.58065,5.51472 -1.4915,7.53547 8.68539,16.11431 7.71657,6.50486 9.87443,9.57841 10.14177,14.44546 0.21879,3.98315 -0.66725,6.6013 -3.56516,10.5346 l -1.45804,1.97899 1.66387,0.19478 c 0.91513,0.10713 2.74387,0.3139 4.06387,0.45949 1.32,0.1456 2.5623,0.2834 2.76067,0.30623 0.19837,0.0228 1.43332,-1.14648 2.74432,-2.59848 z m -16.49171,-1.65552 c 2.53784,-2.75695 4.07337,-5.16982 4.62974,-7.27494 0.37501,-1.4189 0.34441,-1.59104 -0.63728,-3.58513 -1.10745,-2.24956 -3.82006,-4.98 -11.07271,-11.14552 -3.73035,-3.17119 -6.13581,-5.89021 -7.29929,-8.25078 -0.56167,-1.13957 -0.73663,-2.13455 -0.82119,-4.6699 -0.0933,-2.79857 0.002,-3.54798 0.72609,-5.70491 1.99148,-5.93249 5.56306,-9.36102 15.70186,-15.07293 12.54706,-7.06864 15.18955,-8.82726 18.59548,-12.37555 1.07579,-1.12076 2.2737,-2.66053 2.66204,-3.42173 0.68506,-1.34283 0.68875,-1.40421 0.12402,-2.06374 -0.73129,-0.85405 -1.88977,-1.82121 -3.0154,-2.51741 l -0.86995,-0.53806 -9.38835,6.94917 c -30.59461,22.64587 -70.68621,53.13979 -70.65776,53.74274 0.0241,0.50998 11.49135,5.41229 19.18942,8.20356 10.22677,3.70815 19.56242,6.27867 30.72,8.45857 5.74846,1.12311 7.14781,1.37508 8.85328,1.59413 0.20531,0.0264 1.35731,-1.02103 2.56,-2.32757 z m -80.57669,-33.89312 c 14.30234,-11.28727 24.51448,-18.65059 46.44341,-33.48739 5.016,-3.39375 13.03947,-8.83776 17.82993,-12.0978 l 8.70993,-5.92734 -2.49508,-1.21413 c -1.56457,-0.76133 -2.97927,-1.7394 -3.79338,-2.6226 -2.52213,-2.73619 -2.64711,-7.2815 -0.32727,-11.9021 2.69302,-5.36388 9.72003,-11.84648 15.85834,-14.62972 1.12929,-0.51204 5.96022,-2.15528 10.73539,-3.65164 11.89379,-3.72706 14.31349,-4.54776 20.09147,-6.81448 13.2754,-5.20798 20.94504,-10.99812 20.85642,-15.74541 -0.0391,-2.09379 -2.61405,-5.06907 -6.98575,-8.07181 -3.87962,-2.66475 -10.8679,-6.60694 -11.71205,-6.60694 -0.20367,0 -7.29978,2.46534 -15.76913,5.47854 -17.52867,6.23628 -30.49775,10.69019 -58.11882,19.95945 -37.47187,12.57506 -55.3657,18.84235 -72.64,25.44204 -6.82816,2.60872 -31.47305,12.45247 -31.96318,12.76685 -0.53387,0.34243 0.17636,1.67448 4.70968,8.83312 11.41925,18.03231 27.13252,34.96531 44.83849,48.31905 4.24282,3.19991 8.09416,5.89236 8.4516,5.90848 0.15212,0.007 2.52812,-1.76442 5.28,-3.93617 z M 292.32,421.11886 c 2.992,-2.04859 9.256,-6.29877 13.92,-9.44486 24.14159,-16.28461 45.23789,-31.01585 55.77548,-38.9472 4.42882,-3.33345 5.02886,-3.892 4.8407,-4.50596 -0.3912,-1.2765 -2.49814,-5.79049 -3.61309,-7.74084 -1.49275,-2.61122 -6.53854,-7.53778 -10.38266,-10.13732 l -3.13958,-2.1231 -2.46042,0.90697 c -1.35324,0.49883 -5.66256,2.03342 -9.57626,3.41021 -3.91371,1.37678 -7.11771,2.59755 -7.12,2.71283 -0.002,0.11527 1.18383,0.90378 2.63583,1.75225 6.28322,3.67155 10.97735,7.74004 12.5803,10.90358 0.85428,1.686 0.9397,2.14697 0.9397,5.07129 0,3.00967 -0.0684,3.35149 -1.06286,5.31072 -2.08313,4.10409 -7.48921,8.49331 -14.93714,12.12753 -6.28386,3.06622 -13.44387,5.68439 -27.2,9.94611 -4.576,1.41767 -9.27761,2.98385 -10.44803,3.48039 -8.36621,3.54935 -17.0054,13.51642 -14.98608,17.28954 0.17923,0.3349 0.95548,0.97789 1.72499,1.42885 1.79627,1.05268 6.33207,2.71262 6.74912,2.46993 0.176,-0.10242 2.768,-1.86233 5.76,-3.91092 z M 146.88,396.87122 c 27.25787,-14.04148 42.62415,-19.97422 86.4,-33.35803 11,-3.36309 22.736,-6.98653 26.08,-8.05209 6.16439,-1.96427 32.852,-11.10138 33.0891,-11.32881 0.17819,-0.17091 -5.22003,-2.66276 -11.1691,-5.15573 -12.0055,-5.03092 -22.95542,-7.54524 -30.4,-6.98043 -6.01608,0.45643 -13.89591,2.58955 -22.68934,6.14216 -2.35914,0.95311 -9.41514,4.08284 -15.68,6.95497 -6.26486,2.87213 -14.05466,6.33682 -17.31066,7.69931 -3.256,1.36249 -9.16,3.99282 -13.12,5.84519 -28.73579,13.44169 -31.77593,14.36241 -48.56874,14.70934 -7.56041,0.15619 -8.39315,0.22614 -8.25421,0.69331 0.085,0.28577 0.67234,2.60759 1.30522,5.15959 1.42866,5.76081 3.49139,12.35123 5.97408,19.08717 l 1.90448,5.16716 2.45959,-1.35465 c 1.35277,-0.74506 5.84358,-3.09787 9.97958,-5.22846 z m -7.36,-29.21046 c 9.82973,-0.9003 16.55659,-3.2795 38.4,-13.58162 3.256,-1.53564 9.88,-4.48596 14.72,-6.55627 4.84,-2.07031 10.38204,-4.50845 12.31565,-5.41808 l 3.51565,-1.65388 -2.71565,-1.4574 c -10.73584,-5.76159 -25.0832,-12.3932 -34.39565,-15.8983 -12.69414,-4.77793 -18.90413,-5.70818 -26.24,-3.93073 -6.35454,1.53968 -14.07874,4.65478 -20.64,8.32395 l -3.04,1.70001 -0.0886,7.16578 c -0.10015,8.09845 0.46608,16.45167 1.69909,25.06553 0.44081,3.07947 0.88618,5.81981 0.98973,6.08964 0.1596,0.41592 1.07208,0.49044 5.99403,0.48952 3.19317,-6e-4 7.46176,-0.15277 9.48576,-0.33815 z M 379.29695,359.76 c 3.92032,-2.948 13.34252,-10.112 20.93822,-15.92 l 13.81038,-10.56 -11.10277,-0.0853 -11.10278,-0.0853 -17.5514,6.30637 -17.55141,6.30636 0.90777,0.65895 c 6.59784,4.78936 10.52401,9.64842 13.39596,16.57894 0.4923,1.188 0.94754,2.16 1.01164,2.16 0.0641,0 3.32408,-2.412 7.24439,-5.36 z m -57.81654,-25.70551 c 11.06577,-3.88603 20.60389,-7.2417 21.19581,-7.45704 l 1.07621,-0.39154 -2.67621,-2.3991 c -7.14604,-6.40607 -15.07856,-11.39564 -21.63227,-13.60671 -2.31855,-0.78223 -2.7503,-0.82581 -6.48395,-0.65452 -2.89117,0.13264 -5.4193,0.50171 -9.12,1.33137 -2.816,0.63133 -6.55971,1.43028 -8.31937,1.77546 -3.93771,0.77243 -9.33713,0.83166 -12.11444,0.13291 -3.18234,-0.80066 -8.0557,-3.40903 -12.15889,-6.5078 -4.81811,-3.63869 -6.9648,-5.53144 -16.2073,-14.29011 -13.89103,-13.16385 -20.44194,-18.16316 -29.62183,-22.60581 -5.34666,-2.58755 -9.11368,-3.54461 -14.05817,-3.5717 -4.82815,-0.0264 -8.68828,0.8752 -15.82251,3.69578 -8.80061,3.4794 -17.30689,8.03317 -31.90135,17.07814 -11.44577,7.09355 -14.37937,8.83196 -19.86189,11.76984 -5.84743,3.13342 -13.81728,6.77681 -17.59739,8.04457 -2.9957,1.00469 -2.6817,0.433 -3.42829,6.24177 -0.56992,4.43416 -0.96218,9.28 -0.7512,9.28 0.0842,0 2.08122,-0.92022 4.43785,-2.04492 7.11917,-3.39765 12.17392,-5.19408 18.29205,-6.50089 3.62838,-0.77501 10.93313,-0.76912 14.63273,0.0118 10.26723,2.16723 23.67418,7.58729 43.81241,17.71215 l 12.29241,6.18023 2.74759,-1.25902 c 8.86569,-4.06249 17.81297,-7.17737 24.98759,-8.6991 2.80213,-0.59432 4.42261,-0.71646 9.76,-0.7356 6.77352,-0.0243 8.29727,0.15399 15.04,1.75985 7.56885,1.80261 15.96272,5.08276 30.56,11.9422 0.968,0.45488 1.99418,0.82845 2.28041,0.83017 0.28622,0.002 9.57422,-3.17635 20.64,-7.06238 z M 456.64,336.48897 c 6.59451,-0.22871 12.45456,-0.74217 15.1997,-1.33181 2.69516,-0.5789 6.14457,-2.15694 10.9502,-5.00951 5.01602,-2.97746 7.16157,-4.00463 13.3701,-6.40089 10.77453,-4.15856 15.40283,-5.17398 22.68941,-4.97789 l 4.1294,0.11113 -0.20435,-7.68 c -0.21253,-7.98737 -0.73568,-14.34229 -1.83085,-22.24 -0.71436,-5.15161 -2.19302,-13.38454 -2.51282,-13.99102 -0.12865,-0.24398 -2.90107,2.40331 -7.37275,7.04 -20.97382,21.74778 -38.9253,37.77492 -57.77804,51.58444 -4.87444,3.5705 -4.71471,3.40058 -3.02707,3.22015 0.78489,-0.0839 3.65907,-0.22999 6.38707,-0.3246 z M 427.36,322.9719 c 3.52,-2.74717 6.184,-4.92057 5.92,-4.82978 -0.264,0.0908 -6.23152,2.23796 -13.26116,4.77148 l -12.78115,4.6064 5.58115,0.17148 c 3.06964,0.0943 6.15716,0.19484 6.86116,0.22338 1.19415,0.0484 1.70923,-0.2831 7.68,-4.94296 z m -69.19266,-2.04418 c 25.18123,-9.45929 43.29632,-17.12464 67.43266,-28.53395 25.26874,-11.9446 44.73064,-22.37697 62.4,-33.44894 10.00901,-6.27184 21.12,-14.07376 21.12,-14.83003 0,-0.15688 -0.70949,-1.97489 -1.57665,-4.04002 C 495.31719,210.95817 475.07699,185.09368 449.92,166.43919 423.9468,147.17946 393.05963,135.10396 359.81667,131.21281 343.45436,129.29757 325.7071,129.3563 308.96,131.3811 222.28737,141.86025 152.05115,199.93178 129.40229,279.84 c -2.03369,7.17514 -5.11025,20.5587 -4.79778,20.87117 0.13107,0.13108 3.73897,-1.36258 7.71549,-3.19419 7.23131,-3.33078 14.78476,-7.61896 28.8,-16.35006 20.16066,-12.55953 33.64001,-18.8163 44.31619,-20.57044 3.98977,-0.65554 10.61273,-0.42627 14.31795,0.49563 7.36065,1.83142 15.85592,6.44565 24.56586,13.34302 4.62321,3.6611 7.1916,5.9599 15.80766,14.14839 12.92248,12.28119 18.79837,16.70233 24.6038,18.51237 3.48909,1.08784 5.49876,0.94998 14.14854,-0.97061 9.14768,-2.03115 10.56891,-2.21026 16.2902,-2.05298 4.811,0.13225 5.10442,0.17981 8.1886,1.32714 7.24261,2.69429 16.36197,8.77008 24.0012,15.99083 1.408,1.33087 2.6713,2.4265 2.80734,2.43474 0.13604,0.008 3.73604,-1.29553 8,-2.89729 z m 41.56713,-34.3508 c -1.27777,-2.47116 -2.25917,-3.50609 -4.31044,-4.54555 -1.46334,-0.74153 -1.53595,-0.8401 -1.44247,-1.958 0.0916,-1.09511 0.20995,-1.21727 1.69844,-1.75274 2.67508,-0.96233 3.06691,-1.27218 4.0357,-3.19134 0.86841,-1.72033 1.01132,-1.84929 2.04931,-1.84929 1.05643,0 1.16687,0.10809 2.07564,2.03151 0.98034,2.07489 1.30848,2.33769 4.23935,3.39515 0.7241,0.26125 0.88,0.50935 0.88,1.40045 0,0.93286 -0.23118,1.25551 -1.66791,2.32792 -1.28061,0.95588 -1.96795,1.81975 -2.96,3.72022 -1.23568,2.36719 -1.34099,2.47541 -2.41209,2.47882 -1.05484,0.003 -1.182,-0.11633 -2.18553,-2.05715 z m 2.50553,-3.67237 c 0,-0.16249 0.34662,-0.70738 0.77026,-1.21085 l 0.77026,-0.91541 -1.05961,-1.00821 c -1.0357,-0.98546 -1.07208,-0.99443 -1.61246,-0.39732 -0.30407,0.336 -0.8002,0.68941 -1.10251,0.78535 -0.46804,0.14856 -0.39051,0.3432 0.5222,1.31096 0.58952,0.62507 1.07186,1.27025 1.07186,1.43371 0,0.16347 0.144,0.29722 0.32,0.29722 0.176,0 0.32,-0.13295 0.32,-0.29545 z m -112.17377,4.11317 c -0.11635,-0.18826 -0.71064,-1.33993 -1.32066,-2.55927 -1.23009,-2.45882 -2.14881,-3.16738 -5.80159,-4.47448 l -2.01602,-0.72141 0.096,-1.2875 0.096,-1.28751 2.24,-0.68777 c 3.93106,-1.20698 4.90586,-1.95373 6.37009,-4.87978 0.7897,-1.5781 0.91315,-1.67979 2.0353,-1.67653 1.12523,0.003 1.25965,0.11677 2.31461,1.95448 1.56305,2.72281 2.6386,3.55975 5.7182,4.44961 2.11924,0.61237 2.65528,0.8941 2.80027,1.47179 0.32865,1.30945 -0.13068,1.93941 -1.72765,2.36949 -3.04874,0.82104 -4.76307,1.88908 -6.09248,3.79567 -0.68857,0.98752 -1.49108,2.26349 -1.78336,2.83549 -0.44281,0.86659 -0.71364,1.04 -1.62431,1.04 -0.6011,0 -1.18809,-0.15403 -1.30444,-0.34228 z m 2.54328,-6.42455 c 0.51123,-0.72225 1.41869,-1.6018 2.01659,-1.95457 l 1.08708,-0.64139 -0.9221,-0.56077 c -0.50716,-0.30842 -1.37464,-1.10977 -1.92775,-1.78078 -0.5531,-0.67101 -1.0569,-1.15604 -1.11954,-1.07784 -0.0626,0.0782 -0.49926,0.66059 -0.97024,1.29421 -0.47098,0.63361 -1.43438,1.41269 -2.1409,1.73128 l -1.28456,0.57926 1.26237,0.75279 c 0.69431,0.41404 1.57274,1.25496 1.95206,1.86872 0.37932,0.61375 0.78593,1.11285 0.90358,1.10909 0.11764,-0.004 0.63218,-0.59776 1.14341,-1.32 z M 365.28,263.64528 c -12.25936,-1.76661 -23.45407,-10.38551 -28.49922,-21.94178 -1.26242,-2.89165 -1.36631,-4.15962 -0.43755,-5.34035 0.5358,-0.68116 0.932,-0.84315 2.06221,-0.84315 1.34304,0 1.52445,0.12527 4.53677,3.13282 2.44687,2.443 3.71116,3.4289 5.74172,4.47744 8.7024,4.49372 18.26112,3.00868 25.26747,-3.92554 2.88806,-2.85832 4.5485,-5.53472 5.82645,-9.39139 1.17719,-3.5526 1.16304,-8.43019 -0.035,-12.05333 -1.19616,-3.61753 -2.88813,-6.3406 -5.66519,-9.11767 -4.40209,-4.40209 -9.21712,-6.49099 -15.03767,-6.52379 -3.95918,-0.0223 -6.27821,0.52013 -10.13924,2.37166 -2.9721,1.42525 -4.4362,1.59017 -5.48042,0.61733 -0.5287,-0.49256 -0.70034,-1.02132 -0.70034,-2.15754 0,-1.45318 0.0824,-1.58457 2.38898,-3.81034 4.33176,-4.17998 9.83968,-7.38686 15.37102,-8.94948 5.11828,-1.44593 12.56198,-1.82159 17.8312,-0.89988 13.9256,2.43593 25.37696,12.70407 29.25222,26.22971 1.45916,5.09283 1.84479,12.76654 0.89356,17.781 -2.99021,15.76313 -14.76824,27.48812 -30.3403,30.20366 -3.06059,0.53372 -9.61082,0.60548 -12.83668,0.14062 z m 10.90073,-5.57784 c 12.85277,-2.24134 22.76161,-11.30612 26.29675,-24.05672 0.7683,-2.77113 0.86531,-3.66367 0.8446,-7.77072 -0.0249,-4.93529 -0.48226,-7.38575 -2.14853,-11.51101 -4.68526,-11.59953 -15.85394,-19.669 -28.21355,-20.38454 -3.53023,-0.20438 -6.65851,0.17588 -10.4,1.26418 l -2.4,0.6981 2.70401,0.38507 c 9.27038,1.32017 17.06651,7.09399 20.95501,15.51931 1.89083,4.09692 2.23964,5.90805 2.23964,11.62889 0,5.95111 -0.35703,7.66309 -2.54346,12.19583 -3.30006,6.84142 -9.16889,11.84803 -16.6352,14.19122 -3.04349,0.95515 -10.78639,1.25353 -14.07639,0.54244 -1.23002,-0.26585 -2.28802,-0.43175 -2.3511,-0.36866 -0.19201,0.19201 3.77236,2.99939 5.97476,4.23104 4.04655,2.26296 9.97349,3.84046 14.65081,3.89941 1.25295,0.0158 3.54914,-0.19293 5.10265,-0.46384 z M 168.60227,250.758 c -0.65989,-1.08843 -1.22034,-1.54035 -2.64,-2.12877 -1.7472,-0.72417 -1.80227,-0.78456 -1.80227,-1.97603 0,-1.05047 0.12786,-1.27517 0.88,-1.54654 2.89349,-1.04397 3.25688,-1.32448 3.87735,-2.99296 0.57477,-1.54558 0.67429,-1.63861 1.84509,-1.72475 1.21073,-0.0891 1.25837,-0.0509 2.19756,1.76 0.78167,1.5072 1.24235,1.9911 2.48,2.605 1.36397,0.67656 1.52,0.86477 1.52,1.8335 0,0.94964 -0.16365,1.16168 -1.36,1.76216 -1.65624,0.8313 -2.71123,1.76288 -3.31862,2.93039 -0.37682,0.72432 -0.66865,0.87821 -1.6496,0.86989 -1.05807,-0.009 -1.28576,-0.16514 -2.02951,-1.39189 z m 2.54024,-3.80873 c 0.55051,-0.66332 0.004,-1.21536 -0.69658,-0.70328 -0.32451,0.23728 -0.4951,0.58501 -0.37909,0.77272 0.28131,0.45516 0.66061,0.43067 1.07567,-0.0694 z m 36.45749,2.3051 c -0.4157,-0.24212 -0.56,-0.74029 -0.56,-1.93325 0,-1.52387 0.19783,-1.89996 3.82104,-7.2641 5.1446,-7.61655 8.41257,-11.61469 13.50327,-16.52035 3.72014,-3.58493 15.26101,-13.7173 18.51569,-16.25597 l 1.12,-0.8736 -1.1939,-0.004 c -0.99169,-0.003 -1.22653,-0.13354 -1.38652,-0.771 -0.36396,-1.45012 -0.0257,-2.22869 1.30042,-2.99293 1.17476,-0.67702 1.20107,-0.71996 0.32,-0.5222 -7.74241,1.73776 -19.25233,9.38052 -31.11249,20.65916 -2.53921,2.41471 -2.68719,2.50342 -4.176,2.50342 -0.84893,0 -1.71631,-0.1728 -1.92751,-0.384 -0.2112,-0.2112 -0.384,-1.05867 -0.384,-1.88327 v -1.49928 l 4.83263,-4.43397 c 10.0677,-9.23717 19.46267,-15.66738 27.0837,-18.5369 2.46769,-0.92915 7.59716,-2.29179 12.68139,-3.36881 l 3.47772,-0.7367 0.60228,-1.40506 c 0.33125,-0.77279 0.60228,-1.68113 0.60228,-2.01854 0,-0.73673 -0.32023,-0.75088 -6.41603,-0.28342 -8.11189,0.62206 -13.41273,2.06829 -22.94406,6.25981 -4.99149,2.19508 -6.38992,2.46013 -7.43991,1.41014 -0.80033,-0.80033 -0.8417,-2.5807 -0.08,-3.44322 0.72591,-0.822 9.13674,-4.47716 14.20576,-6.17351 2.17483,-0.72781 5.39424,-1.59159 7.15424,-1.91952 3.45366,-0.6435 10.38845,-1.26375 14.12947,-1.26375 h 2.32153 l 0.19171,-1.2 c 0.2842,-1.77889 0.58484,-2.14992 1.82872,-2.25687 1.04392,-0.0898 1.24709,0.0545 2.76807,1.96597 2.27322,2.8568 5.22602,5.51728 6.64222,5.98467 1.35458,0.44705 4.86061,0.26053 9.78266,-0.52044 3.77964,-0.59971 4.41562,-0.39591 4.41562,1.41493 0,1.11079 -0.15221,1.31309 -1.93264,2.56868 -3.17462,2.23881 -6.65142,5.43365 -7.51287,6.90359 -1.0478,1.78793 -1.5788,5.94719 -1.31762,10.3208 0.1617,2.70785 0.11012,3.34596 -0.30392,3.76 -0.93368,0.93368 -1.96307,0.57917 -4.37455,-1.50655 -1.27512,-1.10287 -2.95334,-2.50114 -3.72938,-3.10727 l -1.41099,-1.10205 -1.42008,1.58727 c -5.91078,6.60666 -14.44333,17.28278 -22.75157,28.46727 -2.3533,3.168 -4.50597,5.94 -4.78372,6.16 -0.76584,0.60663 -2.75533,0.49739 -3.37306,-0.1852 -0.31299,-0.34585 -0.5296,-1.12617 -0.5296,-1.90787 0,-1.20672 0.42547,-1.89182 4.85325,-7.8148 8.70374,-11.64287 11.94305,-15.7045 21.78061,-27.30981 l 0.87385,-1.03089 -0.71385,-0.19134 c -1.1144,-0.29871 -2.73568,-0.23311 -2.95361,0.1195 -0.10864,0.17578 -2.31313,2.07599 -4.89888,4.22269 -19.57176,16.24855 -23.82488,20.59157 -31.92871,32.60363 -3.97348,5.88976 -4.1265,6.05645 -5.54844,6.04436 -0.62932,-0.005 -1.39622,-0.15651 -1.70422,-0.3359 z m 60.63474,-50.26155 c 0.43544,-0.94205 1.53725,-2.45274 2.44846,-3.35708 l 1.65675,-1.64426 -3.44998,-0.13151 c -4.06216,-0.15486 -5.09431,-0.57788 -8.02075,-3.28724 l -1.90074,-1.75975 -0.52102,2.59773 c -0.57052,2.84445 -1.77086,5.75713 -2.86595,6.95432 -0.38583,0.42181 -1.82998,1.61023 -3.20922,2.64094 l -2.50771,1.87403 h 2.28641 c 5.41624,0 8.91582,1.14067 12.64901,4.12288 l 1.92,1.53377 0.36152,-3.91551 c 0.27119,-2.93719 0.55933,-4.34346 1.15322,-5.62832 z M 450.00649,248.88 c -0.17153,-0.22 -0.5633,-1.696 -0.87059,-3.28 -0.68069,-3.50869 -1.87084,-7.33098 -2.70362,-8.68293 -1.1764,-1.90979 -3.87139,-3.49276 -10.27228,-6.03366 l -3.36,-1.33378 -0.0974,-1.31425 c -0.11934,-1.61037 0.12166,-1.76297 3.61739,-2.29048 3.78182,-0.57069 8.49739,-1.87448 9.65961,-2.67076 1.22263,-0.83767 3.26535,-3.86315 4.56692,-6.76412 0.93517,-2.08431 0.96211,-2.11002 2.21116,-2.11002 1.24716,0 1.28303,0.0339 2.62096,2.48 1.96369,3.5901 3.67198,6.0135 4.89838,6.94892 1.26965,0.96841 4.33774,2.0559 8.53085,3.02379 4.55673,1.05182 4.19863,0.82987 4.08856,2.53407 L 472.8,230.88 l -3.41358,0.8311 c -5.88429,1.43265 -9.86451,3.11365 -11.23838,4.7464 -1.10496,1.31317 -2.53871,4.42181 -3.95339,8.5717 -0.647,1.89794 -1.31511,3.6308 -1.48469,3.8508 -0.16958,0.22 -0.77706,0.4 -1.34996,0.4 -0.5729,0 -1.18198,-0.18 -1.35351,-0.4 z m 2.79724,-10.96831 c 1.96549,-4.38071 3.77791,-6.07799 8.07627,-7.56321 1.188,-0.4105 2.15844,-0.81883 2.15653,-0.90742 -0.002,-0.0886 -1.05687,-0.55577 -2.34436,-1.03818 -2.75964,-1.03403 -4.70328,-2.77201 -6.55173,-5.85846 l -1.21363,-2.02645 -1.05879,1.77018 c -2.17222,3.63172 -3.70948,4.8126 -7.46848,5.7371 -1.09975,0.27048 -2.21427,0.56425 -2.47671,0.65283 -0.28608,0.0966 0.50025,0.6435 1.96363,1.36579 3.59072,1.77232 4.86822,2.91422 6.16886,5.51404 0.61825,1.23581 1.21675,2.74083 1.33,3.34451 0.11325,0.60367 0.2679,1.09758 0.34368,1.09758 0.0758,0 0.5594,-0.93974 1.07473,-2.08831 z m -129.3428,-49.01617 c -0.2785,-0.31653 -0.83079,-1.2203 -1.22731,-2.00837 -2.58665,-5.1408 -4.03265,-6.49903 -10.55362,-9.913 l -4,-2.09415 v -1.44 c 0,-1.65415 -0.40666,-1.45284 6.08,-3.00978 5.85166,-1.40453 7.32577,-2.4832 10.4529,-7.64881 0.86859,-1.43482 1.00987,-1.53194 2.09455,-1.44 1.06377,0.0902 1.34452,0.35132 3.28686,3.05743 3.6879,5.13808 4.25387,5.52633 10.1901,6.99019 3.82483,0.9432 4.11089,1.17038 3.84211,3.05133 -0.0902,0.63147 -0.62031,0.92965 -3.46652,1.95001 -5.04024,1.80692 -7.79735,3.26166 -8.95724,4.72614 -0.55005,0.6945 -1.8942,2.81541 -2.98698,4.71311 -1.88826,3.2791 -2.04302,3.45512 -3.11769,3.5459 -0.77724,0.0657 -1.28912,-0.0844 -1.63716,-0.48 z m 5.12051,-10.69393 c 0.92891,-1.03776 2.22286,-1.96446 3.95005,-2.82895 2.47773,-1.24014 2.53851,-1.29708 1.71773,-1.60913 -0.46799,-0.17793 -0.9369,-0.32351 -1.04204,-0.32351 -0.74984,0 -3.51915,-2.31974 -4.89149,-4.09739 -0.90973,-1.17844 -1.75998,-2.14261 -1.88944,-2.14261 -0.12945,0 -0.88093,0.792 -1.66996,1.76 -2.12821,2.61096 -3.44632,3.37212 -8.07732,4.66438 l -1.88104,0.52489 1.56104,0.85426 c 3.8515,2.10771 5.55737,3.65796 7.51177,6.82651 l 1.07688,1.74587 1.12619,-1.9155 c 0.6194,-1.05352 1.74784,-2.60999 2.50763,-3.45882 z m -15.02671,401.6484 c -3.27216,-0.58822 -5.79821,-2.57906 -7.2611,-5.72264 -0.73314,-1.57545 -0.85645,-2.31394 -0.96103,-5.75559 -0.16387,-5.39317 0.55036,-7.88569 2.97279,-10.37445 2.09062,-2.14785 4.9314,-3.11731 9.13461,-3.11731 4.07814,0 6.98298,0.95221 8.9717,2.94094 1.22194,1.22193 2.5407,3.88154 2.54517,5.13296 0.003,0.95566 0.17845,0.8775 -3.77779,1.68707 -3.56377,0.72927 -4.01002,0.66885 -4.62774,-0.62651 -0.64964,-1.3623 -2.16635,-2.2123 -3.44605,-1.93123 -3.40212,0.74723 -4.39861,8.00079 -1.42091,10.34304 1.76745,1.39028 3.86619,0.51526 4.97642,-2.07481 0.73621,-1.71748 0.98095,-1.73412 5.19439,-0.35305 l 3.16804,1.03841 -0.16043,1.19615 c -0.0882,0.65788 -0.4857,1.86804 -0.88323,2.68924 -1.82617,3.77236 -4.09586,5.00596 -9.41957,5.11962 -1.936,0.0413 -4.18837,-0.045 -5.00527,-0.19184 z M 331.20007,579.28 c 4e-5,-0.308 -0.3733,-5.71866 -0.82965,-12.02369 -0.45634,-6.30502 -0.75729,-11.53611 -0.66876,-11.62463 0.19693,-0.19694 15.99212,-1.38142 18.50102,-1.38739 2.13163,-0.005 2.18617,0.0912 2.19295,3.87157 l 0.004,2.43586 -2.32,0.19953 c -1.276,0.10974 -3.868,0.29481 -5.76,0.41127 l -3.44,0.21174 v 0.95147 0.95146 l 4.4,-0.26125 c 2.42,-0.14369 4.904,-0.26906 5.52,-0.2786 l 1.12,-0.0173 0.21359,3.03975 c 0.11747,1.67186 0.18155,3.07177 0.14241,3.11092 -0.0392,0.0391 -2.47526,0.24277 -5.41359,0.45249 l -5.34241,0.38132 v 1.43371 1.43371 l 2.16,-0.19657 c 1.188,-0.10812 3.90188,-0.29316 6.03085,-0.41119 l 3.87085,-0.21461 0.20478,0.76523 c 0.3882,1.45064 0.24657,6.04491 -0.18648,6.04928 -0.22,0.002 -4.216,0.2884 -8.88,0.63596 -10.78176,0.80345 -11.52002,0.80858 -11.51993,0.08 z m -31.58455,-0.23824 c -1.61947,-0.22076 -3.14945,-0.48003 -3.39996,-0.57616 -0.27546,-0.1057 -0.5429,-0.87454 -0.67669,-1.94535 -0.24676,-1.97507 -0.21953,-1.95589 -3.21887,-2.26694 -1.056,-0.10952 -2.28737,-0.27047 -2.73637,-0.35767 -0.7359,-0.14291 -0.88874,0.0161 -1.55059,1.61291 -0.85167,2.05478 -0.60915,2.00072 -5.79304,1.29145 -1.848,-0.25285 -3.468,-0.46428 -3.6,-0.46986 -0.7639,-0.0323 0.33043,-2.49534 5.39793,-12.14938 3.10086,-5.90742 5.74833,-10.86102 5.88325,-11.00801 0.18004,-0.19614 8.82553,0.62342 9.17203,0.86947 0.14304,0.10157 5.86679,24.38838 5.86679,24.89374 0,0.6974 -0.87714,0.71477 -5.34448,0.1058 z M 293.96494,567.12 c -0.087,-0.308 -0.25837,-1.20164 -0.38082,-1.98587 l -0.22263,-1.42587 -0.5601,1.10587 c -0.96306,1.90147 -1.05335,2.47685 -0.41469,2.64272 1.27681,0.33163 1.73919,0.23294 1.57824,-0.33685 z m 75.6096,7.93509 c -5.79704,-1.05395 -9.25853,-6.64253 -8.87264,-14.3249 0.28074,-5.58909 2.84339,-8.72129 8.47204,-10.35494 2.73935,-0.79506 7.79749,-1.14085 9.57773,-0.65476 2.58071,0.70466 5.2136,3.31171 5.2377,5.18631 0.01,0.75502 -0.2825,0.94256 -3.36537,2.16 -1.8568,0.73326 -3.60179,1.3332 -3.87776,1.3332 -0.27596,0 -1.00954,-0.44584 -1.63017,-0.99077 -1.22713,-1.07743 -2.30774,-1.10764 -3.83462,-0.10719 -1.4637,0.95905 -2.05719,2.3507 -1.88764,4.42624 0.32003,3.9176 2.83498,6.97888 5.29035,6.43959 1.06168,-0.23318 3.87584,-1.93751 3.87584,-2.34731 0,-0.15044 -1.00758,-0.0572 -2.23907,0.20721 -1.23149,0.26442 -2.32772,0.39211 -2.43606,0.28376 -0.28848,-0.28847 -1.06054,-4.06381 -1.07363,-5.24997 -0.008,-0.69908 0.16436,-1.0711 0.54876,-1.1864 1.76933,-0.53069 10.40418,-2.1469 11.00227,-2.05932 0.63809,0.0934 0.80282,0.53265 1.59931,4.26416 0.48837,2.288 0.89481,4.82743 0.90318,5.64318 0.0148,1.43669 -0.0474,1.53477 -1.98476,3.1289 -2.29274,1.8866 -4.37699,2.95873 -7.12,3.6625 -2.4512,0.6289 -6.30102,0.88312 -8.18546,0.54051 z M 266.08,573.60041 c -0.176,-0.06 -1.436,-0.34644 -2.8,-0.63657 l -2.48,-0.52749 v -1.09891 c 0,-0.6044 1.008,-5.88088 2.24,-11.72552 1.232,-5.84464 2.24,-10.74031 2.24,-10.87927 0,-0.50503 2.2008,-0.22438 8.13309,1.03715 8.32502,1.77036 9.87486,2.52328 10.94114,5.31529 0.78038,2.04341 0.48917,5.60565 -0.64833,7.93062 -0.67156,1.37261 -1.21916,1.9884 -2.36964,2.66472 -1.31512,0.77309 -1.82554,0.87957 -4.21626,0.87957 -1.496,0 -3.51577,-0.12057 -4.48839,-0.26792 l -1.76838,-0.26793 -0.77762,3.86793 -0.77761,3.86792 -1.454,-0.0253 c -0.7997,-0.0139 -1.598,-0.0743 -1.774,-0.13433 z m 9.58565,-14.63703 c 0.59301,-0.84664 0.34494,-1.36951 -0.93876,-1.97866 -1.50737,-0.7153 -1.69591,-0.65197 -2.07006,0.69528 -0.48436,1.74407 -0.43123,1.94601 0.54317,2.06449 1.27885,0.1555 1.96099,-0.0606 2.46565,-0.78111 z m 112.24281,0.73973 C 385.93481,553.73183 384.32,548.5036 384.32,548.08483 c 0,-0.70974 0.48939,-0.92108 7.21271,-3.11483 6.20231,-2.02375 7.53593,-2.35489 9.52,-2.36382 2.63547,-0.0119 3.77557,0.45262 5.25955,2.14278 1.81555,2.0678 2.17599,6.14435 0.78007,8.82249 l -0.68825,1.32044 0.99007,0.6021 c 0.54454,0.33115 2.13513,1.64106 3.53465,2.91091 l 2.54457,2.30881 -0.18607,-2.35685 c -0.25469,-3.22596 -1.1273,-18.6673 -1.1273,-19.94817 0,-1.00935 0.0888,-1.07579 3.37368,-2.52267 1.85552,-0.81731 3.85216,-1.48602 4.43698,-1.48602 0.97113,0 1.80408,0.76179 9.61001,8.78905 6.64557,6.834 8.52365,8.94447 8.44302,9.48772 -0.0818,0.55123 -0.84652,1.0246 -3.62369,2.24313 -1.936,0.84946 -3.7668,1.54798 -4.06844,1.55228 -0.30164,0.004 -1.09364,-0.57415 -1.76,-1.28545 l -1.21156,-1.29328 -2.88,1.25422 -2.88,1.25421 0.10341,2.03906 0.10341,2.03906 -3.46341,1.49263 c -3.94494,1.70015 -11.09862,4.10737 -12.20615,4.10737 -0.49734,0 -1.94231,-1.10729 -4.38467,-3.36 -3.3629,-3.10176 -4.60582,-3.97073 -4.23385,-2.96 1.08951,2.96046 2.50701,7.70868 2.42582,8.12581 -0.1206,0.61963 -5.85503,2.67419 -7.46384,2.67419 h -0.98379 z m 9.87485,-7.24255 c 0.45282,-0.2301 1.01696,-0.65171 1.25366,-0.93691 0.36653,-0.44164 0.33845,-0.61045 -0.18933,-1.13823 -0.59365,-0.59365 -0.6957,-0.59806 -2.42918,-0.10492 -1.04092,0.29611 -1.75597,0.66867 -1.68347,0.87713 0.73081,2.1014 0.78133,2.16663 1.50526,1.94332 0.39586,-0.12212 1.09024,-0.41029 1.54306,-0.64039 z m 23.80163,-3.71192 c 0.44828,-0.20426 0.81506,-0.46826 0.81506,-0.58669 0,-0.11843 -0.51346,-0.77931 -1.14101,-1.46863 l -1.14102,-1.25332 0.1775,1.28 c 0.0976,0.704 0.17907,1.532 0.18101,1.84 0.004,0.66261 0.0508,0.67054 1.10846,0.18864 z m -171.92953,20.50748 c -2.38766,-0.30983 -3.79739,-0.73784 -5.97541,-1.81419 -3.20413,-1.58345 -4.63879,-3.68923 -4.8891,-7.17617 -0.22924,-3.19333 -7.2e-4,-3.78696 1.4552,-3.78028 0.65664,0.003 2.2739,0.28855 3.5939,0.63452 1.32,0.34597 2.45627,0.6315 2.52505,0.63452 0.0688,0.003 -0.56388,-0.60095 -1.40591,-1.34213 -1.93779,-1.70571 -2.703,-3.36038 -2.71211,-5.86459 -0.009,-2.48786 0.94112,-4.43753 2.78796,-5.72062 1.17121,-0.81371 1.71371,-0.95953 4,-1.07515 5.72043,-0.28929 11.46473,2.19886 12.92316,5.59769 0.25366,0.59115 0.44185,2.12444 0.44185,3.6 0,2.95844 0.01,2.95189 -3.2,2.09028 -0.968,-0.25982 -1.84153,-0.47411 -1.94117,-0.4762 -0.0996,-0.002 0.49922,0.70209 1.3308,1.56485 1.2298,1.2759 1.58286,1.91008 1.89178,3.39816 0.93515,4.50458 -1.16271,8.38794 -5.17498,9.57945 -1.79576,0.53329 -2.54348,0.55311 -5.65102,0.14986 z m 1.69602,-6.89326 c 0.28443,-0.28443 0.46708,-0.68043 0.40589,-0.88 -0.0612,-0.19957 -1.11162,-1.03886 -2.33429,-1.86509 l -2.22303,-1.50222 -0.10131,0.95617 c -0.25639,2.41962 2.77687,4.76701 4.25274,3.29114 z m 2.75772,-10.44619 c -0.52483,-1.38042 -2.53571,-2.3798 -3.06505,-1.5233 -0.16767,0.2713 3.04624,2.63616 3.28485,2.41706 0.0489,-0.0449 -0.05,-0.44711 -0.2198,-0.89376 z M 433.52,541.7556 c -3.124,-5.45122 -5.68,-10.25438 -5.68,-10.67368 0,-0.6228 0.52017,-1.06258 2.84124,-2.40215 1.56268,-0.90187 3.23023,-1.63977 3.70566,-1.63977 0.47544,0 3.10632,1.08 5.8464,2.4 2.74007,1.32 5.02484,2.4 5.07726,2.4 0.0524,0 -0.90502,-1.74137 -2.12763,-3.86972 -1.22261,-2.12834 -2.21978,-4.18034 -2.21594,-4.56 0.005,-0.536 0.67824,-1.06577 3.01023,-2.37028 1.65179,-0.924 3.30464,-1.68 3.67302,-1.68 0.36837,0 0.66976,-0.20606 0.66976,-0.45791 0,-0.70129 16.92162,-12.76398 18.08,-12.88845 0.87289,-0.0938 1.11244,0.11585 2.64,2.3105 0.924,1.32751 1.67428,2.73365 1.66728,3.12476 -0.009,0.52053 -0.69228,1.18277 -2.54848,2.4711 -1.39467,0.968 -2.48272,1.91588 -2.41789,2.1064 0.0648,0.19051 2.14764,3.16329 4.62848,6.60617 2.8347,3.93396 4.50565,6.53986 4.49726,7.0136 -0.0102,0.57753 -0.6743,1.22158 -2.83944,2.75383 -4.26418,3.01771 -3.81357,3.2316 -9.27833,-4.40412 -2.52083,-3.52226 -4.67457,-6.45993 -4.7861,-6.52815 -0.11153,-0.0682 -1.27709,0.65364 -2.59014,1.60412 -1.31305,0.95048 -2.70638,1.72815 -3.0963,1.72815 -0.6301,0 -0.24892,0.79858 3.42735,7.18033 2.65847,4.61491 4.13381,7.50178 4.12932,8.08 -0.006,0.80075 -0.3372,1.08439 -3.01023,2.57967 -1.65179,0.924 -3.21667,1.68 -3.47752,1.68 -0.26084,0 -2.84959,-1.13639 -5.75277,-2.52532 l -5.27851,-2.52532 2.20301,3.83504 c 1.21166,2.10927 2.20301,4.17084 2.20301,4.58127 0,0.60347 -0.54294,1.05693 -2.83798,2.37028 -4.54981,2.60366 -3.74253,3.25032 -10.36202,-8.30035 z m 54.55293,-27.51523 c -3.85403,-0.57611 -8.06641,-3.87854 -10.02694,-7.86095 -1.84054,-3.73866 -1.57039,-8.55814 0.66146,-11.80061 1.35399,-1.96711 3.98308,-4.28002 5.85657,-5.15227 1.39681,-0.65032 2.1557,-0.77791 4.55598,-0.76601 1.92013,0.01 3.35993,0.19754 4.32,0.56413 2.11003,0.80571 2.08069,1.5793 -0.18921,4.99019 -1.9345,2.9069 -2.3792,3.165 -4.10131,2.38035 -1.64104,-0.7477 -4.02948,1.14046 -4.02948,3.18546 0,1.54866 3.64495,5.71603 5.67431,6.48759 0.96484,0.36684 2.37918,-0.3458 3.39739,-1.71183 0.6002,-0.80523 0.62209,-1.00387 0.24687,-2.24 -0.99567,-3.28012 -1.0839,-3.0994 2.34166,-4.79642 1.68753,-0.836 3.35945,-1.52 3.71537,-1.52 1.94451,0 2.89654,7.82055 1.32447,10.88 -1.29207,2.51454 -4.54515,5.56382 -7.12556,6.67916 -1.72801,0.74691 -4.36632,1.01833 -6.62158,0.68121 z m 16.04979,-18.03171 c -3.40486,-0.86879 -7.55434,-4.24691 -9.10036,-7.40866 -0.69173,-1.41465 -0.78235,-2.0263 -0.78226,-5.28 8e-5,-3.37008 0.072,-3.81634 0.85445,-5.29894 2.14322,-4.06126 5.28093,-6.77139 8.90429,-7.69091 2.70319,-0.68599 6.30386,-0.24681 8.74214,1.0663 2.40786,1.29672 5.4949,4.45458 6.53638,6.68632 0.76076,1.6302 0.87647,2.27816 0.87934,4.92396 0.003,2.81585 -0.0784,3.2126 -1.07428,5.2356 -1.39577,2.83521 -4.45385,5.98868 -6.88837,7.10324 -2.17731,0.99681 -5.6465,1.28181 -8.07133,0.66309 z m 6.56358,-9.01628 c 2.16641,-1.95722 1.96828,-3.39807 -0.84296,-6.13028 -1.76793,-1.71823 -3.73713,-2.77822 -4.70838,-2.53445 -1.02865,0.25818 -2.35211,1.3826 -2.92007,2.48091 -0.45721,0.88413 -0.44333,1.05326 0.19452,2.37089 1.05408,2.17744 4.53009,4.89141 6.30967,4.92641 0.39549,0.008 1.28074,-0.49329 1.96722,-1.11348 z m 5.55707,-14.97334 c -8.49924,-5.86717 -9.35694,-6.54145 -9.36,-7.35833 -0.002,-0.57362 0.66296,-1.87267 1.83663,-3.58718 l 1.84,-2.6879 6.38481,-0.0128 6.3848,-0.0128 -3.893,-2.64 c -4.72824,-3.20641 -4.72423,-3.1927 -2.09042,-7.15042 1.70039,-2.55511 1.89328,-2.73631 2.80015,-2.63044 1.45544,0.16991 19.6625,12.6969 19.68065,13.54086 0.008,0.352 -0.88641,1.98676 -1.98661,3.6328 l -2.00038,2.99279 -6.36148,-0.13333 c -5.8147,-0.12187 -6.30666,-0.0903 -5.72376,0.36721 0.35074,0.27529 2.1694,1.54743 4.04147,2.82697 2.44554,1.6715 3.40377,2.50955 3.40377,2.97686 0,0.35773 -0.89285,1.93883 -1.98411,3.51356 -1.64102,2.36805 -2.12519,2.85951 -2.8,2.84218 -0.51658,-0.0133 -4.24839,-2.39048 -10.17252,-6.48 z M 534.8,453.72199 c -1.42134,-0.4104 -1.37724,-1.40484 0.21593,-4.86964 l 1.25593,-2.73138 -1.40184,1.07005 c -1.87487,1.43112 -3.33233,1.86504 -5.74781,1.71123 -2.52766,-0.16095 -4.30575,-1.28515 -5.30833,-3.3562 -0.59164,-1.22217 -0.67,-1.83684 -0.55642,-4.36428 0.11734,-2.61078 0.27034,-3.22794 1.35989,-5.48515 2.60538,-5.39759 6.441,-7.54551 11.14265,-6.23979 1.03714,0.28803 1.2,0.46026 1.2,1.26909 0,0.51471 -0.36543,1.76214 -0.81208,2.77208 l -0.81207,1.83625 0.73207,-0.66969 c 3.78006,-3.45795 10.20874,-2.25605 12.42544,2.32304 0.62551,1.29213 0.69191,1.83391 0.56014,4.57032 -0.13983,2.90382 -0.2401,3.27947 -1.55172,5.81325 -1.6793,3.24406 -4.1138,5.85343 -5.93217,6.35831 -1.49656,0.41552 -5.31924,0.41129 -6.76961,-0.007 z m 6.78057,-9.31136 c 0.62756,-0.89597 0.64092,-1.97484 0.0307,-2.48127 -0.54633,-0.45341 -1.53215,0.14643 -3.34941,2.03801 -1.21552,1.26524 -1.21647,1.25352 0.13813,1.70491 1.12381,0.3745 2.38497,-0.12578 3.18057,-1.26165 z M 531.84,438.88 c 1.27274,-1.29683 1.34091,-1.44 0.68559,-1.44 -1.06422,0 -1.89595,0.53711 -2.42952,1.56892 -0.43043,0.83236 -0.38273,1.31108 0.13064,1.31108 0.11002,0 0.836,-0.648 1.61329,-1.44 z m 11.52,-7.14313 c -3.93982,-1.31924 -6.47692,-3.07096 -7.97567,-5.50675 -3.73347,-6.06766 -0.27083,-16.71834 6.23459,-19.17689 1.63224,-0.61687 2.33098,-0.69687 4.94108,-0.56571 6.29272,0.3162 11.6004,3.77752 12.83751,8.37177 0.19296,0.71661 0.29053,2.73013 0.218,4.49894 -0.11712,2.8566 -0.25493,3.46579 -1.27827,5.65081 -1.37319,2.93202 -3.3293,5.15186 -5.52439,6.26921 -2.19178,1.11565 -6.82006,1.34021 -9.45285,0.45862 z m 7.16324,-8.72512 c 0.97523,-0.76712 1.79676,-2.20498 1.79676,-3.14472 0,-1.72605 -4.62761,-4.82703 -7.2034,-4.82703 -0.95786,0 -1.43584,0.24394 -2.43425,1.24235 -2.26854,2.26855 -1.49512,4.34657 2.33001,6.2602 2.64629,1.32388 4.25066,1.46048 5.51088,0.4692 z M 551.52,405.46771 c -8.73267,-2.60048 -10.57578,-3.24872 -10.65118,-3.74617 -0.10492,-0.69215 3.13436,-11.86854 4.22322,-14.57123 0.93496,-2.32073 1.98255,-3.6267 3.38796,-4.22361 l 1.12,-0.47569 -1.36,-0.2264 c -1.11167,-0.18507 -1.36,-0.35295 -1.36,-0.91946 0,-0.38117 0.93914,-5.36677 2.08698,-11.0791 1.14784,-5.71233 2.13985,-11.10605 2.20447,-11.98605 0.0646,-0.88 0.2973,-3.0203 0.51709,-4.75622 l 0.3996,-3.15623 1.15593,0.15432 c 0.63576,0.0849 6.08793,0.78275 12.11593,1.55082 l 10.96,1.3965 v 1.0641 c 0,1.63429 -0.7049,7.23595 -0.94501,7.50979 -0.11723,0.13369 -4.15404,-0.26083 -8.97069,-0.87671 -4.81665,-0.61588 -8.82807,-1.04927 -8.91426,-0.96308 -0.0862,0.0862 0.0833,0.15671 0.37663,0.15671 0.67998,0 0.66745,0.67764 -0.0785,4.24633 -0.32262,1.54349 -0.49694,2.85461 -0.38738,2.9136 0.10955,0.059 3.78148,0.81204 8.15984,1.67343 5.47272,1.0767 8.01533,1.70866 8.1356,2.02206 0.1721,0.44851 -0.19924,3.04182 -0.9085,6.34458 -0.34144,1.58991 -0.41424,1.68 -1.35759,1.68 -0.54824,0 -4.30221,-0.6549 -8.34214,-1.45534 -4.03994,-0.80044 -7.44731,-1.34044 -7.57194,-1.2 -0.24958,0.28124 -1.38302,5.86492 -1.2186,6.00318 0.0564,0.0474 0.65925,0.34589 1.33971,0.66329 1.37159,0.63978 2.9291,2.56056 3.24591,4.00297 0.20444,0.93081 0.21225,0.93371 1.17427,0.43623 1.01817,-0.52651 8.39751,-2.05033 9.92908,-2.05033 0.71533,0 0.89355,0.14471 0.89355,0.72554 0,0.63756 -2.09115,8.19228 -2.33517,8.4363 -0.0516,0.0516 -2.09121,0.53041 -4.53242,1.06398 -2.44121,0.53357 -4.80435,1.2098 -5.25142,1.50273 l -0.81285,0.5326 1.58593,0.45302 c 6.85564,1.95832 6.86674,1.96329 6.85573,3.06519 -0.006,0.56135 -0.41975,2.38864 -0.92031,4.06064 l -0.91011,3.04 -1.23969,0.0662 c -0.79699,0.0425 -5.0107,-1.05679 -11.79969,-3.07846 z m 1.09566,-12.38853 c 0.0486,-1.99956 -1.57817,-2.23719 -2.36838,-0.34596 -0.99511,2.38162 -0.96324,2.63507 0.37338,2.96997 1.17153,0.29354 1.23407,0.26771 1.595,-0.65883 0.20661,-0.5304 0.38661,-1.41473 0.4,-1.96518 z m 6.84997,-43.75544 c -3.5499,-0.20006 -6.55438,-0.46422 -6.67662,-0.58703 -0.12224,-0.12281 -0.1167,-2.12094 0.0123,-4.4403 l 0.23456,-4.21702 1.96206,0.19012 c 1.07914,0.10456 4.65204,0.28781 7.93978,0.40721 l 5.9777,0.2171 0.9823,-0.9823 c 1.74992,-1.74992 1.13679,-4.24294 -1.18943,-4.83623 -0.65355,-0.16668 -4.35628,-0.47099 -8.22828,-0.67623 -3.872,-0.20524 -7.06698,-0.39997 -7.09996,-0.43274 -0.033,-0.0328 0.0248,-1.96459 0.12832,-4.29295 l 0.18827,-4.23337 h 1.41913 c 3.49697,0 14.17976,0.67901 15.85162,1.00755 3.04491,0.59836 5.94549,3.09852 6.61757,5.70402 1.00014,3.87729 0.58993,9.87948 -0.87442,12.79468 -0.98724,1.96537 -2.96009,3.66663 -4.80399,4.14264 -2.08358,0.5379 -5.81396,0.60832 -12.44091,0.23485 z M 70.012104,337.28855 c -6.109343,-0.10872 -11.203096,-0.29288 -11.319451,-0.40923 -0.116354,-0.11635 -0.105773,-2.60964 0.02351,-5.54064 l 0.235069,-5.32908 7.667605,-5.03588 7.667605,-5.03588 -2.471504,-0.20892 C 70.455615,315.61401 66.968342,315.52 64.065446,315.52 h -5.277993 l 0.203999,-2.16 c 0.112199,-1.188 0.205022,-3.71063 0.206273,-5.60584 l 0.0023,-3.44583 6.16,0.16897 c 3.388,0.0929 11.02,0.25623 16.96,0.36288 l 10.8,0.19391 -0.002,5.48295 -0.002,5.48296 -7.918025,5.19831 -7.918026,5.19832 6.76,0.002 c 3.718,9.3e-4 7.21,0.0917 7.76,0.20169 l 1,0.2 v 5.4 5.4 l -5.84,-0.0569 c -3.212,-0.0313 -10.838553,-0.14584 -16.947896,-0.25457 z M 553.8111,322.48 c -0.0991,-0.572 -0.27757,-3.00184 -0.39666,-5.39965 l -0.21653,-4.35965 5.24105,-1.74822 5.24104,-1.74822 -5.52,-1.04797 -5.52,-1.04796 -0.01,-1.32417 c -0.005,-0.72829 -0.14034,-3.12121 -0.29989,-5.3176 -0.15955,-2.1964 -0.24699,-4.03655 -0.19431,-4.08923 0.14818,-0.14817 24.24029,-1.72771 24.37023,-1.59777 0.27441,0.27441 0.52543,7.28314 0.26188,7.31207 -0.15846,0.0174 -2.66411,0.1974 -5.56811,0.4 l -5.28,0.36837 5.637,1.0647 5.63699,1.06471 0.20301,1.94224 c 0.11165,1.06823 0.203,2.60859 0.203,3.42303 v 1.4808 l -4.88,1.66416 -4.88,1.66415 3.52,-0.16444 c 1.936,-0.0904 4.18238,-0.24134 4.99197,-0.33532 l 1.47196,-0.17087 0.20804,1.99036 c 0.11441,1.0947 0.20803,2.80682 0.20803,3.8047 v 1.81434 l -11.12,0.70732 c -14.18899,0.90253 -13.08697,0.9315 -13.3089,-0.34988 z M 76.96,293.88329 c -12.891749,-7.68979 -14.733125,-8.88431 -14.825675,-9.61761 -0.118304,-0.93735 1.511501,-10.73261 1.886806,-11.33987 0.217752,-0.35233 33.008334,-6.64472 34.778869,-6.67393 0.638558,-0.0105 0.717804,0.14195 0.70059,1.34812 -0.01068,0.748 -0.406675,3.448 -0.88,6 l -0.86059,4.64 -2.72,0.27551 c -1.496,0.15154 -2.743328,0.29554 -2.771841,0.32 -0.172574,0.14809 -1.704666,9.55126 -1.587191,9.74133 0.07915,0.12807 1.164309,0.72649 2.411469,1.32983 1.24716,0.60333 2.267563,1.29962 2.267563,1.54731 0,0.40201 -1.336368,8.14832 -1.791762,10.38602 -0.143636,0.70579 -0.348265,0.87442 -1.033664,0.8518 C 92.022262,302.6749 85.784559,299.14704 76.96,293.88329 Z M 82.360209,283.6 c 0.08984,-0.308 0.263229,-1.26627 0.38532,-2.12949 l 0.221983,-1.5695 -1.403756,0.1924 C 80.79169,280.19923 79.188,280.38538 78,280.50709 c -1.188,0.12171 -2.16,0.31298 -2.16,0.42504 0,0.19576 5.690384,3.17063 6.138436,3.20911 0.12014,0.0103 0.291937,-0.23324 0.381773,-0.54124 z M 89.92,262.45799 c -0.829186,-0.16139 -1.146206,-0.40231 -1.220928,-0.92785 -0.08984,-0.63189 0.594896,-3.49553 2.075916,-8.68169 l 0.488771,-1.71156 1.422218,0.21328 c 2.574739,0.3861 4.753107,-1.19754 5.571244,-4.05021 0.329891,-1.15027 -0.388345,-2.69149 -1.404589,-3.01404 -1.11816,-0.35489 -2.140523,0.60792 -4.773628,4.49553 -3.141285,4.63792 -5.093724,6.66601 -7.460478,7.74954 -1.559795,0.7141 -2.106189,0.79711 -4.555453,0.6921 -3.169292,-0.13589 -4.492783,-0.64822 -6.31435,-2.44431 -1.701092,-1.67731 -2.436764,-3.53362 -2.630392,-6.63723 -0.442896,-7.09909 3.161613,-15.38352 7.761669,-17.83905 1.079818,-0.57641 1.8305,-0.68477 4.8,-0.69288 l 3.52,-0.01 0.09654,0.98991 c 0.0531,0.54446 -0.341961,2.56046 -0.877905,4.48 -0.535944,1.91955 -0.975387,3.60369 -0.976539,3.74254 -0.0012,0.13885 0.670231,-0.57298 1.491963,-1.58185 1.965105,-2.41261 2.808173,-3.1369 4.825312,-4.14543 1.543229,-0.77159 1.932347,-0.8292 4.8,-0.71066 2.700499,0.11163 3.349116,0.25399 4.81777,1.05743 6.63821,3.63148 7.58979,12.38547 2.45321,22.56806 -2.23066,4.42198 -5.26077,6.36835 -10.23035,6.57139 -1.408,0.0575 -3.064,0.006 -3.68,-0.1134 z m -6.993492,-19.33162 c 1.778127,-2.61108 1.820703,-2.80637 0.611837,-2.80637 -1.512877,0 -2.815502,0.82311 -3.535205,2.23385 -0.778387,1.52576 -0.812374,2.3512 -0.125107,3.03847 0.477378,0.47738 0.56833,0.47289 1.158909,-0.0571 0.352481,-0.31635 1.202786,-1.40031 1.889566,-2.40881 z M 97.52,222.36907 c -9.714017,-10.8684 -11.44,-12.94597 -11.44,-13.7704 0,-1.34163 4.780657,-10.50406 5.485038,-10.51243 0.288771,-0.003 8.254995,0.92976 17.702722,2.07376 9.44772,1.144 17.31146,2.08 17.47496,2.08 0.79217,0 0.073,2.16746 -2.0705,6.24 l -2.35794,4.48 -1.55714,-0.008 c -0.85643,-0.004 -2.15504,-0.12248 -2.8858,-0.26283 l -1.32866,-0.2552 -2.28668,4.42284 -2.28668,4.42283 1.77534,1.63292 c 1.21793,1.12023 1.77306,1.87376 1.76808,2.4 -0.004,0.42189 -1.05273,2.78308 -2.33053,5.24708 -2.15372,4.15304 -2.39257,4.48469 -3.27274,4.54428 -0.87109,0.059 -1.89387,-0.99235 -12.38947,-12.73521 z m 8.72,-9.88907 c 0.6388,-1.26545 0.83128,-1.92485 0.56461,-1.93424 -0.22254,-0.008 -1.82468,-0.27918 -3.56031,-0.60299 l -3.1557,-0.58875 2.50819,2.52299 c 1.37951,1.38764 2.5455,2.52299 2.5911,2.52299 0.0456,0 0.51904,-0.864 1.05211,-1.92 z M 124,177.01201 c -12.46484,-6.86557 -14.41113,-8.03631 -14.48279,-8.71173 -0.12115,-1.14179 6.00438,-7.98028 7.14828,-7.98028 0.44338,0 3.27016,1.45535 6.30891,3.2481 3.02808,1.78645 5.61194,3.30592 5.74191,3.3766 0.12998,0.0707 -1.49418,-2.50696 -3.60923,-5.72809 -2.47274,-3.76589 -3.81369,-6.10373 -3.75631,-6.54886 0.0491,-0.38074 1.45723,-2.27966 3.12923,-4.21983 2.53477,-2.94132 3.19409,-3.53093 3.96718,-3.54775 0.55141,-0.012 3.42491,1.19732 7.08993,2.9838 l 6.16274,3.00397 -4.3004,-5.48397 c -3.07286,-3.91858 -4.27458,-5.68934 -4.20993,-6.20343 0.0498,-0.39571 1.45848,-2.29984 3.13048,-4.2314 2.70166,-3.12108 3.14616,-3.504 3.99388,-3.44054 0.86215,0.0645 1.88304,1.33312 10.61576,13.1914 7.94042,10.78241 9.66619,13.30944 9.68612,14.18328 0.0207,0.90903 -0.44699,1.59379 -3.22391,4.72 -1.918,2.15926 -3.48914,3.65672 -3.83665,3.65672 -0.32367,0 -2.71401,-1.02398 -5.31185,-2.2755 -10.97486,-5.2872 -10.80224,-5.21555 -10.15115,-4.21399 0.31803,0.48922 2.42539,3.71054 4.68302,7.15849 2.25763,3.44796 4.10478,6.57132 4.10478,6.94082 0,0.3944 -1.33692,2.19926 -3.23776,4.37099 -2.85003,3.2562 -3.35778,3.6982 -4.24,3.69093 -0.69895,-0.006 -5.35988,-2.40844 -15.40224,-7.93973 z m 356.52424,-20.36623 c -4.47591,-3.74983 -4.65835,-4.09396 -3.4453,-6.49853 1.23274,-2.4436 1.31442,-2.26283 -2.43484,-5.38845 -1.89425,-1.57917 -3.59795,-2.96427 -3.78599,-3.07799 -0.18805,-0.11372 -1.19605,0.36112 -2.24,1.0552 -1.04396,0.69407 -2.19189,1.26241 -2.55095,1.26297 -0.36069,5.6e-4 -2.47294,-1.51389 -4.72,-3.38417 -3.04135,-2.53139 -4.06716,-3.57013 -4.06716,-4.11845 0,-0.63346 2.05306,-1.89293 15.08623,-9.2548 10.12962,-5.72178 15.39114,-8.52156 16.01425,-8.52156 1.34996,0 9.16422,6.52912 9.19168,7.68 0.0105,0.44 -2.55589,8.144 -5.70309,17.12 -5.35862,15.28313 -5.77231,16.32616 -6.51138,16.41699 -0.60616,0.0745 -1.72723,-0.68887 -4.83345,-3.29121 z m 2.89306,-21.26362 1.3124,-3.17784 -2.87552,1.85017 c -1.58154,1.0176 -2.83225,1.97963 -2.77937,2.13784 0.11935,0.35709 2.50378,2.36767 2.80792,2.36767 0.12219,0 0.81275,-1.43003 1.53457,-3.17784 z m -325.83616,5.91203 c -8.91662,-11.1423 -10.0919,-12.74085 -10.00247,-13.60481 0.0893,-0.86263 1.33739,-1.9672 10.50133,-9.29367 6.55375,-5.23965 10.66237,-8.31487 11.10942,-8.31519 0.89085,-6.5e-4 5.21058,5.23141 5.21058,6.31105 0,0.54921 -1.4732,1.89852 -6.25392,5.72799 l -6.25393,5.00955 0.72913,0.83544 c 0.40102,0.4595 0.82563,0.95859 0.94356,1.10909 0.11794,0.1505 2.74292,-1.7575 5.83329,-4.24 3.79427,-3.04796 5.87345,-4.51364 6.40292,-4.51364 1.02078,0 5.00272,4.86 4.98151,6.08 -0.0113,0.64966 -1.09353,1.64896 -5.75882,5.31746 l -5.74492,4.51746 1.30016,1.63293 1.30017,1.63294 3.10042,-2.45396 c 1.70524,-1.34968 4.49569,-3.57736 6.20101,-4.9504 4.18317,-3.36807 4.31297,-3.36139 7.2931,0.37564 1.69151,2.12113 2.26369,3.07808 2.18834,3.65998 -0.0782,0.60381 -2.59959,2.77386 -10.79175,9.28792 -7.09992,5.64557 -10.94085,8.50003 -11.43753,8.50003 -0.60038,0 -2.73966,-2.48906 -10.8516,-12.62581 z m 291.7596,-8.68667 c -3.57678,-2.33253 -4.22074,-2.876 -4.22074,-3.56205 0,-0.52114 3.16375,-5.63687 8.88,-14.35881 7.97348,-12.16607 8.96654,-13.55013 9.72773,-13.55795 0.53747,-0.006 2.38816,1.00509 5.05655,2.76124 3.85247,2.53543 4.20064,2.84424 4.11227,3.64736 -0.0542,0.49262 -3.95578,6.78047 -8.89655,14.33787 -7.76359,11.87517 -8.89649,13.4619 -9.61926,13.47264 -0.50276,0.007 -2.4498,-1.05115 -5.04,-2.7403 z m -256.63065,-3.03288 c -0.98445,-0.38842 -2.48728,-1.40498 -3.6,-2.43517 -1.5556,-1.44021 -1.90966,-1.95502 -1.9078,-2.77394 0.002,-0.92795 0.30456,-1.20942 3.92,-3.64829 4.28389,-2.88978 5.11027,-3.12522 6.34193,-1.80684 1.76206,1.88613 3.39514,2.16384 5.29113,0.89978 2.38497,-1.59008 2.87808,-2.7515 1.64465,-3.87367 -1.10048,-1.00121 -1.47109,-1.01819 -4.4,-0.20152 -4.73634,1.32064 -7.00006,1.7051 -10.02092,1.70188 -2.41067,-0.003 -3.22994,-0.13856 -4.55687,-0.75645 -3.39595,-1.58134 -5.17881,-5.0135 -4.85161,-9.33978 0.32094,-4.24354 2.71431,-7.42073 7.91612,-10.508618 6.66402,-3.955878 12.48323,-4.103023 16.51565,-0.417617 2.64151,2.414189 2.51707,2.824724 -1.72237,5.682065 -1.892,1.27519 -3.55064,2.415 -3.68587,2.5329 -0.13523,0.11791 0.87277,0.0149 2.24,-0.22887 2.97001,-0.52958 6.34476,-0.31442 8.24373,0.52558 1.82344,0.8066 3.5972,2.65905 4.60208,4.80625 0.72722,1.55388 0.83663,2.20616 0.83663,4.98767 0,2.79966 -0.10708,3.42891 -0.8559,5.02978 -1.65942,3.54757 -5.80648,7.01473 -11.04774,9.23647 -2.19551,0.93067 -2.89379,1.06858 -5.85293,1.15595 -2.80779,0.0829 -3.63773,-0.0104 -5.04991,-0.56756 z M 195.84,105.92795 c 1.672,-0.51241 2.70639,-0.93982 2.29865,-0.9498 -0.40774,-0.01 -1.2239,-0.38621 -1.81368,-0.83605 -1.32092,-1.00752 -1.90617,-1.0602 -3.46893,-0.31224 -1.56799,0.75046 -2.37595,1.89548 -1.81471,2.57174 0.55464,0.6683 1.31845,0.59291 4.79867,-0.47365 z m 238.69808,17.44207 -4.02192,-2.03662 -1.19553,-8.7467 c -0.65754,-4.81068 -1.27281,-8.9627 -1.36726,-9.2267 -0.0998,-0.27882 -1.56843,2.30305 -3.50406,6.16 -2.65592,5.29222 -3.4613,6.64 -3.96779,6.64 -0.34951,0 -2.58083,-0.96953 -4.9585,-2.15451 -3.99257,-1.98982 -4.32302,-2.2223 -4.32302,-3.04139 0,-0.51632 3.00866,-6.90304 7.2007,-15.285491 C 425.50507,81.472612 425.61429,81.28 426.56562,81.28 c 0.72899,0 8.20149,3.370267 8.90978,4.018512 0.0635,0.05809 0.71166,4.38924 1.44044,9.624783 l 1.32504,9.519165 3.2768,-6.781228 C 444.70533,91.064484 444.82063,90.88 445.756,90.88 c 0.52884,0 2.83409,0.885491 5.12277,1.967757 3.77329,1.78431 4.16123,2.045811 4.16123,2.805007 0,0.460487 -3.23276,7.350996 -7.18391,15.312246 l -7.1839,14.47499 -1.0561,-0.0167 c -0.63707,-0.0101 -2.65185,-0.82475 -5.07801,-2.0533 z M 230.44824,113.36 c -0.16185,-0.308 -2.19925,-5.24 -4.52755,-10.96 -2.3283,-5.72 -4.27823,-10.449291 -4.33318,-10.509535 -0.055,-0.06025 -1.92306,0.63212 -4.15134,1.538589 -2.22829,0.906468 -4.41376,1.603759 -4.85662,1.549535 -0.70121,-0.08586 -0.98824,-0.553155 -2.22267,-3.618589 -2.26865,-5.633658 -3.5774,-4.47434 12.52312,-11.093299 7.568,-3.111223 14.21456,-5.668003 14.77014,-5.681734 0.95835,-0.02369 1.05951,0.09397 1.97325,2.295033 2.83329,6.82497 2.99349,6.283757 -2.51911,8.510778 l -4.33573,1.751577 4.40649,10.748823 c 2.42356,5.911852 4.41064,11.045342 4.41572,11.407762 0.008,0.55195 -0.78312,0.9812 -4.87076,2.64368 -2.684,1.09161 -5.12693,1.98309 -5.42874,1.98106 -0.30181,-0.002 -0.68117,-0.25568 -0.84302,-0.56368 z m 168.51381,-5.61449 c -3.60577,-1.27289 -4.71844,-1.79563 -4.72,-2.21748 -0.001,-0.30358 2.43105,-7.503578 5.40484,-15.999996 5.14987,-14.71369 5.44611,-15.45281 6.23178,-15.548495 0.45368,-0.05525 2.98858,0.655618 5.6331,1.579715 4.10229,1.433493 4.80813,1.777119 4.80758,2.340461 -3.6e-4,0.363157 -2.42882,7.572285 -5.39658,16.020285 -5.38468,15.32798 -5.39786,15.36014 -6.31935,15.42551 -0.50788,0.036 -3.0465,-0.68397 -5.64137,-1.6 z m -25.32791,-6.79907 c -6.82159,-1.286103 -11.04896,-3.953138 -13.27692,-8.376366 -2.31955,-4.605084 -2.13046,-12.398819 0.43309,-17.850074 1.3185,-2.80373 2.28707,-4.083634 4.41267,-5.831086 4.24437,-3.489289 11.04701,-4.07096 19.21873,-1.643327 6.4647,1.920518 9.225,4.944783 9.70592,10.634117 l 0.20462,2.42059 -5.40613,-0.176841 c -2.97336,-0.09726 -5.56564,-0.224453 -5.76062,-0.282644 -0.19497,-0.05819 -0.43694,-0.518001 -0.5377,-1.021799 -0.27209,-1.360454 -1.30766,-2.494453 -3.00769,-3.293562 -4.34459,-2.042197 -8.2239,1.711235 -9.21478,8.915771 -0.49639,3.609225 1.30753,6.511001 4.71076,7.577698 1.57976,0.495153 2.11234,0.524126 3.81477,0.207527 2.14395,-0.39871 2.40072,-0.547611 2.5624,-1.485963 0.0937,-0.543724 -0.27497,-0.698103 -3.01326,-1.261843 -3.63736,-0.748836 -3.45135,-0.332548 -2.37657,-5.318638 0.67366,-3.125269 0.78054,-3.366666 1.52987,-3.455413 0.44309,-0.05248 4.15432,0.631523 8.24717,1.52 4.09286,0.888477 7.50411,1.615413 7.58055,1.615413 0.37862,0 0.009,2.371448 -1.32028,8.480727 -0.80259,3.687452 -1.48659,6.727734 -1.52,6.756184 -0.0334,0.02845 -1.50074,0.518014 -3.26074,1.087919 -2.76325,0.89477 -3.74593,1.05132 -7.2,1.14701 -2.64167,0.0732 -4.85774,-0.0509 -6.52586,-0.3654 z M 268.71115,84.18279 C 263.80917,75.884641 259.84,68.825911 259.84,68.406415 c 0,-0.731977 0.18623,-0.790386 5.2,-1.630926 2.86,-0.479469 5.56488,-0.8681 6.01085,-0.863625 0.73785,0.0074 1.2564,0.872402 5.75958,9.6077 l 4.94873,9.599564 1.37643,-10.78891 c 0.75704,-5.9339 1.41901,-10.831483 1.47104,-10.883516 0.20485,-0.204845 9.23832,-1.686702 10.28222,-1.686702 1.06597,0 1.11115,0.04766 1.11115,1.172151 0,1.047063 -5.97942,34.033931 -6.21123,34.265749 -0.15034,0.150335 -10.83862,2.001642 -11.55762,2.001883 -0.51662,1.73e-4 -2.45657,-3.059929 -9.52,-15.016993 z M 351.04,96.140826 c -0.264,-0.05771 -2.30016,-0.198595 -4.52481,-0.313071 l -4.0448,-0.208139 -2.6613,-5.809808 C 337.35607,84.454653 335.74564,81.92 334.79619,81.92 c -0.3575,0 -0.61513,2.313053 -0.91514,8.216543 -0.11786,2.319099 -0.30288,4.359886 -0.41115,4.535081 -0.13033,0.210882 -2.11536,0.198608 -5.87338,-0.03632 -4.77387,-0.298426 -5.67842,-0.434397 -5.68848,-0.855081 -0.0397,-1.66073 2.0704,-33.182908 2.23415,-33.375355 0.18569,-0.218237 16.88311,0.770168 20.60124,1.219493 4.67088,0.564461 7.16078,1.970545 8.74004,4.935635 0.91306,1.714285 0.83986,7.961265 -0.11461,9.781828 -0.78495,1.497212 -2.91588,3.532241 -4.31448,4.12031 l -0.95821,0.402895 0.92598,1.087483 c 0.50928,0.598116 1.17133,1.477937 1.47121,1.955156 0.87752,1.396449 5.02664,11.141062 5.02664,11.805545 0,0.534947 -0.23678,0.602388 -2,0.569663 -1.1,-0.02042 -2.216,-0.08434 -2.48,-0.142054 z M 340.45115,73.960485 c 1.08491,-0.303488 2.07067,-1.712537 1.79835,-2.570555 -0.34038,-1.072443 -1.43066,-1.589243 -4.15102,-1.96761 -2.02758,-0.28201 -2.5634,-0.267715 -2.78016,0.07417 -0.31877,0.502765 -0.37213,4.223028 -0.065,4.530176 0.2703,0.270295 4.17261,0.220608 5.19782,-0.06618 z m -37.1919,5.680843 c -0.48588,-8.690731 -0.87798,-16.325795 -0.87133,-16.96681 l 0.0121,-1.165482 3.28,-0.201572 c 1.804,-0.110866 4.37981,-0.283954 5.72403,-0.38464 l 2.44403,-0.183067 0.19859,2.510121 c 0.37522,4.742648 1.84981,31.520324 1.7416,31.626397 -0.0595,0.05836 -2.70415,0.209675 -5.87691,0.336248 l -5.76866,0.230132 z"
       id="path1" />
  </g>
</svg>
