<?xml version="1.0" encoding="UTF-8" standalone="no"?>
<!-- Created with Inkscape (http://www.inkscape.org/) -->

<svg
   xmlns:dc="http://purl.org/dc/elements/1.1/"
   xmlns:cc="http://creativecommons.org/ns#"
   xmlns:rdf="http://www.w3.org/1999/02/22-rdf-syntax-ns#"
   xmlns:svg="http://www.w3.org/2000/svg"
   xmlns="http://www.w3.org/2000/svg"
   xmlns:sodipodi="http://sodipodi.sourceforge.net/DTD/sodipodi-0.dtd"
   xmlns:inkscape="http://www.inkscape.org/namespaces/inkscape"
   width="1058.1631"
   height="1148.5071"
   id="svg2"
   version="1.1"
   inkscape:version="0.91 r13725"
   sodipodi:docname="BeanieBot.svg"
   inkscape:export-filename="C:\Users\Brandon\Box Sync\Robotics\Graphics\BeanieBot\BeanieBotVector.png"
   inkscape:export-xdpi="600"
   inkscape:export-ydpi="600">
  <defs
     id="defs4" />
  <sodipodi:namedview
     id="base"
     pagecolor="#ffffff"
     bordercolor="#666666"
     borderopacity="1.0"
     inkscape:pageopacity="0.0"
     inkscape:pageshadow="2"
     inkscape:zoom="0.25"
     inkscape:cx="-364.96716"
     inkscape:cy="313.57768"
     inkscape:document-units="px"
     inkscape:current-layer="layer3"
     showgrid="false"
     inkscape:window-width="1366"
     inkscape:window-height="705"
     inkscape:window-x="-8"
     inkscape:window-y="-8"
     inkscape:window-maximized="1"
     showguides="true"
     fit-margin-top="0"
     fit-margin-left="0"
     fit-margin-right="0"
     fit-margin-bottom="0">
    <inkscape:grid
       type="xygrid"
       id="grid3078"
       originx="-9.975256"
       originy="-2.9947968" />
  </sodipodi:namedview>
  <metadata
     id="metadata7">
    <rdf:RDF>
      <cc:Work
         rdf:about="">
        <dc:format>image/svg+xml</dc:format>
        <dc:type
           rdf:resource="http://purl.org/dc/dcmitype/StillImage" />
        <dc:title></dc:title>
      </cc:Work>
    </rdf:RDF>
  </metadata>
  <g
     inkscape:groupmode="layer"
     id="layer8"
     inkscape:label="Hat Black Outline"
     style="display:inline"
     transform="translate(-9.975256,-18.498129)"
     sodipodi:insensitive="true">
    <path
       style="fill:#000000;stroke:#000000;stroke-width:1px;stroke-linecap:butt;stroke-linejoin:miter;stroke-opacity:1"
       d="m 213.49999,486.50003 -37.75,-75.75 -0.25,-67.24999 5,-27.25 19,-37.75 18,-28.25 34.25,-47.5 32,-37.99999 35.25,-37.75 43.49999,-48.500001 15.5,-14.249999 38.5,-21.499999 33.5,-14 17,-4.749999 18,-2.75 15.5,-2.25 23.5,1.25 38.49999,2.5 49,6.749999 39.5,9.25 82.75,27.749999 56.74999,50.75 67.75,103.24999 17,90 4.5,23.5 -0.25,77.74999 -14.25,46.5 -29.25,33.5 -620.24997,-0.25 z"
       id="path3190"
       inkscape:connector-curvature="0" />
  </g>
  <g
     inkscape:groupmode="layer"
     id="layer6"
     inkscape:label="Face"
     style="display:inline"
     transform="translate(-9.975256,-18.498129)"
     sodipodi:insensitive="true">
    <rect
       style="fill:#808080;fill-opacity:1"
       id="rect3086"
       width="521.1377"
       height="164.04878"
       x="289.91376"
       y="361.77698" />
  </g>
  <g
     inkscape:groupmode="layer"
     id="layer9"
     inkscape:label="Blue Bottom Hat"
     style="display:inline"
     transform="translate(-9.975256,-18.498129)"
     sodipodi:insensitive="true">
    <path
       style="fill:#2e3094;fill-opacity:1;stroke:#2e3094;stroke-width:1px;stroke-linecap:round;stroke-linejoin:miter;stroke-opacity:1"
       d="m 226.87499,487.50003 63.5,0.25 3.625,-7.5 15.625,-14.25 7.875,-6.875 13.375,-8.75 20.99999,-13.375 12.125,-6.625 17.125,-6.75 5.625,-2.375 11.375,-4.375 12.125,-2.5 16.75,-3.75 21.125,-5.25 60.625,-14.875 32.875,-7.87499 36.12499,-7.375 28.625,-3.625 13.5,-2.875 87.125,-1.25 23.5,6.875 12.375,4.125 16.125,7.99999 35.37499,20.125 6.25,6.125 1.5,75.375 25.625,0 3.25,-9.625 24,-27 11.375,-42.25 0.75,-72.99999 -7.5,-41.125 -7.5,-42.125 -1,-1.25 -10.875,2.75 -62.49999,-32 c 0,0 -57.75,-29.625 -58.375,-29.75 -0.625,-0.125 -34.25,-4.25 -34.25,-4.25 l -96.125,-0.5 -80.24999,13.5 -65.75,33.25 -60.375,37.125 -69.87499,38.125 -56,35.75 -23,34.875 -14.5,49.62499 1.125,14.75 -8.125,11.625 z"
       id="path3193"
       inkscape:connector-curvature="0" />
    <rect
       style="fill:#000000;fill-opacity:0;stroke:#2e3094;stroke-width:1.75603449;stroke-linecap:round;stroke-linejoin:miter;stroke-opacity:1"
       id="rect3080"
       width="17.854446"
       height="77.951973"
       x="800.62909"
       y="412.51712" />
  </g>
  <g
     inkscape:groupmode="layer"
     id="layer2"
     inkscape:label="Body Bottom"
     style="display:inline"
     transform="translate(-9.975256,-18.498129)"
     sodipodi:insensitive="true">
    <rect
       style="fill:#000000"
       id="rect3771"
       width="885.01984"
       height="556.08899"
       x="96.911499"
       y="485.87415" />
  </g>
  <g
     inkscape:groupmode="layer"
     id="layer3"
     inkscape:label="Body Top"
     style="display:inline"
     transform="translate(-9.975256,-18.498129)"
     sodipodi:insensitive="true">
    <rect
       style="fill:#808080;fill-opacity:1"
       id="rect3774"
       width="864.96893"
       height="536.22559"
       x="107.01228"
       y="495.92453" />
  </g>
  <g
     inkscape:groupmode="layer"
     id="layer4"
     inkscape:label="Arms"
     style="display:inline"
     transform="translate(-9.975256,-18.498129)"
     sodipodi:insensitive="true">
    <rect
       style="fill:#000000;fill-opacity:1"
       id="rect3777"
       width="92.609978"
       height="83.000511"
       x="9.999999"
       y="485.85715" />
    <rect
       style="fill:#000000;fill-opacity:1"
       id="rect3779"
       width="54.019268"
       height="145.10986"
       x="9.975256"
       y="568.0766" />
    <rect
       style="fill:#000000;fill-opacity:1"
       id="rect3781"
       width="209.12062"
       height="84.944077"
       x="10.001833"
       y="702.92151" />
    <rect
       style="fill:#000000;fill-opacity:1"
       id="rect3783"
       width="58.961124"
       height="74.596184"
       x="160.02878"
       y="628.85315" />
    <rect
       style="fill:#000000;fill-opacity:1"
       id="rect3783-1"
       width="59.213661"
       height="144.23358"
       x="159.92305"
       y="787.6098" />
    <rect
       style="fill:#000000;fill-opacity:1"
       id="rect3807"
       width="65.178574"
       height="48.013393"
       x="218.83929"
       y="628.84821" />
    <rect
       style="fill:#000000;fill-opacity:1"
       id="rect3807-7"
       width="65.178574"
       height="48.013393"
       x="218.83929"
       y="883.90405" />
    <rect
       style="fill:#2e3094;fill-opacity:1"
       id="rect3827"
       width="75.992104"
       height="62.03503"
       x="21.004278"
       y="496.87625" />
    <rect
       style="fill:#2e3094;fill-opacity:1"
       id="rect3829"
       width="32.988735"
       height="219.99609"
       x="21"
       y="557.875" />
    <rect
       style="fill:#2e3094;fill-opacity:1"
       id="rect3831"
       width="155.84796"
       height="65.011208"
       x="52.149124"
       y="712.86859" />
    <rect
       style="fill:#2e3094;fill-opacity:1"
       id="rect3833"
       width="35.997658"
       height="77.471619"
       x="171.99844"
       y="640.90338" />
    <rect
       style="fill:#2e3094;fill-opacity:1"
       id="rect3835"
       width="67.846169"
       height="25.994228"
       x="205.14935"
       y="640.88269" />
    <rect
       style="display:inline;fill:#2e3094;fill-opacity:1"
       id="rect3833-4"
       width="35.997658"
       height="143.24506"
       x="171.99841"
       y="777.63531" />
    <rect
       style="display:inline;fill:#2e3094;fill-opacity:1"
       id="rect3835-0"
       width="72.671379"
       height="25.994228"
       x="200.32812"
       y="894.8949" />
    <rect
       style="display:inline;fill:#000000;fill-opacity:1"
       id="rect3777-1"
       width="92.609978"
       height="83.000511"
       x="-1068.1135"
       y="485.85995"
       transform="scale(-1,1)" />
    <rect
       style="display:inline;fill:#000000;fill-opacity:1"
       id="rect3779-7"
       width="54.019268"
       height="145.10986"
       x="-1068.1383"
       y="568.07935"
       transform="scale(-1,1)" />
    <rect
       style="display:inline;fill:#000000;fill-opacity:1"
       id="rect3781-4"
       width="209.12062"
       height="84.944077"
       x="-1068.1117"
       y="702.92432"
       transform="scale(-1,1)" />
    <rect
       style="display:inline;fill:#000000;fill-opacity:1"
       id="rect3783-0"
       width="58.961124"
       height="74.596184"
       x="-918.08472"
       y="628.8559"
       transform="scale(-1,1)" />
    <rect
       style="display:inline;fill:#000000;fill-opacity:1"
       id="rect3783-1-9"
       width="59.213661"
       height="144.23358"
       x="-918.19043"
       y="787.61261"
       transform="scale(-1,1)" />
    <rect
       style="display:inline;fill:#000000;fill-opacity:1"
       id="rect3807-4"
       width="65.178574"
       height="48.013393"
       x="-859.27423"
       y="628.85095"
       transform="scale(-1,1)" />
    <rect
       style="display:inline;fill:#000000;fill-opacity:1"
       id="rect3807-7-8"
       width="65.178574"
       height="48.013393"
       x="-859.27423"
       y="883.90686"
       transform="scale(-1,1)" />
    <rect
       style="display:inline;fill:#ff6a00;fill-opacity:1"
       id="rect3827-8"
       width="75.992104"
       height="62.03503"
       x="-1057.1093"
       y="496.87906"
       transform="scale(-1,1)" />
    <rect
       style="display:inline;fill:#ff6a00;fill-opacity:1"
       id="rect3829-2"
       width="32.988735"
       height="219.99609"
       x="-1057.1135"
       y="557.87775"
       transform="scale(-1,1)" />
    <rect
       style="display:inline;fill:#ff6a00;fill-opacity:1"
       id="rect3831-4"
       width="155.84796"
       height="65.011208"
       x="-1025.9644"
       y="712.8714"
       transform="scale(-1,1)" />
    <rect
       style="display:inline;fill:#ff6a00;fill-opacity:1"
       id="rect3833-5"
       width="35.997658"
       height="77.471619"
       x="-906.11505"
       y="640.90619"
       transform="scale(-1,1)" />
    <rect
       style="display:inline;fill:#ff6a00;fill-opacity:1"
       id="rect3835-5"
       width="67.846169"
       height="25.994228"
       x="-872.96417"
       y="640.8855"
       transform="scale(-1,1)" />
    <rect
       style="display:inline;fill:#ff6a00;fill-opacity:1"
       id="rect3833-4-1"
       width="35.997658"
       height="143.24506"
       x="-906.11511"
       y="777.63812"
       transform="scale(-1,1)" />
    <rect
       style="display:inline;fill:#ff6a00;fill-opacity:1"
       id="rect3835-0-7"
       width="72.671379"
       height="25.994228"
       x="-877.7854"
       y="894.89771"
       transform="scale(-1,1)" />
  </g>
  <g
     inkscape:groupmode="layer"
     id="layer5"
     inkscape:label="Feet"
     style="display:inline"
     transform="translate(-9.975256,-18.498129)"
     sodipodi:insensitive="true">
    <rect
       style="fill:#000000;fill-opacity:1"
       id="rect3060"
       width="186.00281"
       height="130.19002"
       x="272.99838"
       y="1036.8104" />
    <rect
       style="fill:#808080;fill-opacity:1"
       id="rect3062"
       width="167.99646"
       height="116.99702"
       x="282.00363"
       y="1041.0031" />
    <rect
       style="display:inline;fill:#000000;fill-opacity:1"
       id="rect3060-1"
       width="186.00281"
       height="130.19002"
       x="620.9986"
       y="1036.8152" />
    <rect
       style="display:inline;fill:#808080;fill-opacity:1"
       id="rect3062-1"
       width="167.99646"
       height="116.99702"
       x="630.00385"
       y="1041.0077" />
  </g>
  <g
     inkscape:groupmode="layer"
     id="layer7"
     inkscape:label="Eyes"
     style="display:inline"
     transform="translate(-9.975256,-18.498129)"
     sodipodi:insensitive="true">
    <circle
       style="fill:#000000;fill-opacity:1"
       id="path3095"
       transform="matrix(1.0204545,0,0,1.0181818,-8.7331705,-8.4082048)"
       cx="463.68527"
       cy="452.72855"
       r="19.445436" />
    <circle
       style="fill:#ffffff;fill-opacity:1"
       id="path3101"
       transform="matrix(1.1568878,0,0,1.1581633,-68.767039,-77.474737)"
       cx="460.5033"
       cy="457.14798"
       r="8.6620579" />
    <circle
       style="display:inline;fill:#000000;fill-opacity:1"
       id="path3095-4"
       transform="matrix(1.0204545,0,0,1.0181818,138.2267,-8.4144399)"
       cx="463.68527"
       cy="452.72855"
       r="19.445436" />
    <circle
       style="display:inline;fill:#ffffff;fill-opacity:1"
       id="path3101-0"
       transform="matrix(1.1568878,0,0,1.1581633,78.192832,-77.48097)"
       cx="460.5033"
       cy="457.14798"
       r="8.6620579" />
  </g>
  <g
     inkscape:groupmode="layer"
     id="layer10"
     inkscape:label="Gray Stripe Bottom"
     style="display:inline"
     transform="translate(-9.975256,-18.498129)"
     sodipodi:insensitive="true">
    <path
       style="fill:#808080;fill-opacity:1;stroke:#808080;stroke-width:1px;stroke-linecap:butt;stroke-linejoin:miter;stroke-opacity:1"
       d="m 211.60169,457.41317 8.13173,-3.0052 10.25305,-14.31891 -2.47487,-30.40559 10.42982,-25.45585 7.77818,-17.67766 9.89949,-15.55635 18.6309,-13.36857 27,-18.125 26.5,-15 26.12499,-14.875 36.375,-19.25 30.5,-17.5 25.43438,-15.72562 20.68287,-10.07627 55.3311,-25.98617 36.76956,-1.59099 50.91168,-8.13173 35.00179,-1.94454 38.36054,0 23.86485,3.35875 9.36916,1.41422 23.86486,9.72271 32.52691,18.38478 34.825,18.03122 33.4108,15.73313 11.49048,-2.82843 -4.59619,-25.10229 -2.82843,-1.94454 -16.61701,-7.07107 -45.60838,-24.57196 -46.84582,-24.39518 -18.38478,-4.41942 -97.40395,-6.01041 -104.6518,14.49569 -64.34672,20.15254 -53.56333,34.64823 -93.51487,56.03821 -56.74532,33.58757 -17.32411,18.03123 -17.5009,32.88046 -13.43502,29.52171 -1.06066,18.03122 2.82842,18.03122 z"
       id="path3964"
       inkscape:connector-curvature="0" />
  </g>
  <g
     inkscape:groupmode="layer"
     id="layer11"
     inkscape:label="Orange Stripe"
     style="display:inline"
     transform="translate(-9.975256,-18.498129)"
     sodipodi:insensitive="true">
    <path
       style="fill:#ff6a00;fill-opacity:1;stroke:#ff6a00;stroke-width:1px;stroke-linecap:butt;stroke-linejoin:miter;stroke-opacity:1"
       d="m 200.81832,434.60898 0.35355,-32.70369 2.47487,-9.01561 15.02602,-30.05203 8.30851,-15.55635 12.19759,-17.5009 4.06586,-3.88908 11.31371,-8.66206 16.61701,-10.07627 14.67246,-7.77818 38.7141,-22.80419 35.17856,-20.50609 39.4212,-21.03643 9.89949,-5.3033 34.47146,-21.92031 10.25305,-7.07107 34.1179,-15.37957 32.52691,-10.25305 47.19937,-4.77297 39.59798,-6.0104 56.03821,-0.88389 31.99658,1.94455 27.22361,2.82842 42.07285,17.14734 35.70889,21.03643 6.36396,4.24264 33.58758,15.73312 1.41421,0.88389 6.89429,0.7071 -1.41421,-2.47487 -32.52691,-49.14392 -18.208,-28.28427 -13.96536,-20.85965 -20.85965,-19.26866 -1.94454,-1.23743 -12.02082,0 -30.93592,-11.490489 -52.85623,-18.207999 -76.89786,1.944544 c 0,0 -46.84582,7.95495 -48.43681,7.95495 -1.59099,0 -46.84582,21.566754 -46.84582,21.566754 l 0,0 -66.46804,30.05204 -122.68302,64.70027 -54.44722,57.6292 -24.57196,25.27906 -17.32411,5.83363 -13.43503,26.33973 -4.94975,27.22361 0.17678,62.9325 z"
       id="path3967"
       inkscape:connector-curvature="0" />
  </g>
  <g
     inkscape:groupmode="layer"
     id="layer12"
     inkscape:label="Gray Stripe Top"
     style="display:inline"
     transform="translate(-9.975256,-18.498129)"
     sodipodi:insensitive="true">
    <path
       style="fill:#808080;fill-opacity:1;stroke:#808080;stroke-width:1px;stroke-linecap:butt;stroke-linejoin:miter;stroke-opacity:1"
       d="m 205.06096,293.18763 23.33452,-3.71231 30.58237,-33.23402 27.75394,-30.22881 6.54073,-6.89429 22.09709,-15.55635 13.25825,-9.54594 24.74874,-13.96536 41.01219,-20.85965 27.22361,-13.25825 26.69328,-13.43503 20.50609,-10.6066 45.25484,-19.62221 26.33972,-12.37437 8.13173,-1.06066 8.13173,-1.237437 6.89429,-1.414213 11.31371,-1.414214 7.77817,-1.59099 26.69328,-1.414213 52.50268,-1.590991 26.87005,9.192388 41.89608,14.31891 18.03122,5.3033 13.25825,-1.23743 -20.50609,-18.208003 -11.84404,-11.136932 -73.5391,-25.102289 -9.36917,-1.237437 -46.49227,-0.53033 -22.27386,0.176777 -83.26182,20.152542 -82.73149,46.845822 -53.38656,27.57716 -63.81638,33.76435 -36.06245,35.53211 -10.3743,12.29238 -16.625,22.5 -20.25,31.25 z"
       id="path3970"
       inkscape:connector-curvature="0" />
  </g>
  <g
     inkscape:groupmode="layer"
     id="layer13"
     inkscape:label="Top Blue"
     style="display:inline"
     transform="translate(-9.975256,-18.498129)"
     sodipodi:insensitive="true">
    <path
       style="fill:#2e3094;fill-opacity:1;stroke:#2e3094;stroke-width:1px;stroke-linecap:butt;stroke-linejoin:miter;stroke-opacity:1"
       d="m 250.62499,225.50004 18.5,-17.125 14.875,-12.625 20.375,-16.875 27.25,-13.375 39.12499,-20.99999 53.375,-28.75 39.375,-19.500002 21.375,-13.25 12.25,-7.374999 46.625,-13 14.5,-3.375 24.74999,-4.749999 70.875,-1.625 -20.125,-5.375 -21.75,-5.125 -28.375,-3.875 -36.62499,-4.874999 -46.125,-1.875 -21.875,3 -23.25,4.999999 -18.625,7.125 -17.25,6.75 -34.875,20.874999 -7.125,6 -17,17.374999 -26.74999,29.375002 -43.25,47.87499 -16.75,18.875 -12.75,16 z"
       id="path3973"
       inkscape:connector-curvature="0" />
  </g>
  <g
     inkscape:groupmode="layer"
     id="layer18"
     inkscape:label="White Lettering"
     style="display:inline"
     transform="translate(-9.975256,-18.498129)"
     sodipodi:insensitive="true">
    <ellipse
       style="fill:#ffffff;fill-opacity:1;stroke:#ffffff;stroke-linecap:round;stroke-linejoin:miter;stroke-opacity:1"
       id="path4121"
       cx="309"
       cy="787.5"
       rx="52.999996"
       ry="50.499996"
       transform="matrix(1.0463999,0,0,1.1180039,-13.657533,-123.42805)" />
    <ellipse
       style="fill:#ffffff;fill-opacity:1;stroke:#ffffff;stroke-linecap:round;stroke-linejoin:miter;stroke-opacity:1"
       id="path4121-8"
       cx="309"
       cy="787.5"
       rx="52.999996"
       ry="50.499996"
       transform="matrix(1.0463999,0,0,1.1180039,101.34246,-30.928057)" />
    <ellipse
       style="fill:#ffffff;fill-opacity:1;stroke:#ffffff;stroke-linecap:round;stroke-linejoin:miter;stroke-opacity:1"
       id="path4121-2"
       cx="309"
       cy="787.5"
       rx="52.999996"
       ry="50.499996"
       transform="matrix(1.0463999,0,0,1.1180039,218.84246,-124.92805)" />
    <ellipse
       style="fill:#ffffff;fill-opacity:1;stroke:#ffffff;stroke-linecap:round;stroke-linejoin:miter;stroke-opacity:1"
       id="path4121-4"
       cx="309"
       cy="787.5"
       rx="52.999996"
       ry="50.499996"
       transform="matrix(1.0463999,0,0,1.1180039,330.34245,-33.428057)" />
    <ellipse
       style="fill:#ffffff;fill-opacity:1;stroke:#ffffff;stroke-linecap:round;stroke-linejoin:miter;stroke-opacity:1"
       id="path4121-5"
       cx="309"
       cy="787.5"
       rx="52.999996"
       ry="50.499996"
       transform="matrix(1.0463999,0,0,1.1180039,440.34244,-126.42805)" />
    <ellipse
       style="fill:#ffffff;fill-opacity:1;stroke:#ffffff;stroke-linecap:round;stroke-linejoin:miter;stroke-opacity:1"
       id="path4121-51"
       cx="309"
       cy="787.5"
       rx="52.999996"
       ry="50.499996"
       transform="matrix(0.73368342,0,0,0.72544997,482.72184,385.70816)" />
    <ellipse
       style="fill:#ffffff;fill-opacity:1;stroke:#ffffff;stroke-linecap:round;stroke-linejoin:miter;stroke-opacity:1"
       id="path4121-51-7"
       cx="309"
       cy="787.5"
       rx="52.999996"
       ry="50.499996"
       transform="matrix(0.73368342,0,0,0.72544997,369.97185,386.20816)" />
    <ellipse
       style="fill:#ffffff;fill-opacity:1;stroke:#ffffff;stroke-linecap:round;stroke-linejoin:miter;stroke-opacity:1"
       id="path4121-51-1"
       cx="309"
       cy="787.5"
       rx="52.999996"
       ry="50.499996"
       transform="matrix(0.73368342,0,0,0.72544997,257.97185,387.20816)" />
    <ellipse
       style="fill:#ffffff;fill-opacity:1;stroke:#ffffff;stroke-linecap:round;stroke-linejoin:miter;stroke-opacity:1"
       id="path4121-51-15"
       cx="309"
       cy="787.5"
       rx="52.999996"
       ry="50.499996"
       transform="matrix(0.73368342,0,0,0.72544997,143.97186,387.20816)" />
  </g>
  <g
     inkscape:groupmode="layer"
     id="layer14"
     inkscape:label="PARTs"
     style="display:inline"
     transform="translate(-9.975256,-18.498129)"
     sodipodi:insensitive="true">
    <text
       xml:space="preserve"
       style="font-style:normal;font-variant:normal;font-weight:normal;font-stretch:normal;font-size:150px;line-height:125%;font-family:GearBox;-inkscape-font-specification:GearBox;letter-spacing:0px;word-spacing:0px;fill:#2e3094;fill-opacity:1;stroke:none"
       x="237.78264"
       y="800.89026"
       id="text4018"
       sodipodi:linespacing="125%"><tspan
         sodipodi:role="line"
         id="tspan4020"
         x="237.78264"
         y="800.89026">P</tspan></text>
    <text
       xml:space="preserve"
       style="font-style:normal;font-variant:normal;font-weight:normal;font-stretch:normal;font-size:150px;line-height:125%;font-family:GearBox;-inkscape-font-specification:GearBox;letter-spacing:0px;word-spacing:0px;fill:#2e3094;fill-opacity:1;stroke:none"
       x="351.74814"
       y="894.22833"
       id="text4022"
       sodipodi:linespacing="125%"><tspan
         sodipodi:role="line"
         id="tspan4024"
         x="351.74814"
         y="894.22833">a</tspan></text>
    <text
       xml:space="preserve"
       style="font-style:normal;font-variant:normal;font-weight:normal;font-stretch:normal;font-size:150px;line-height:125%;font-family:GearBox;-inkscape-font-specification:GearBox;letter-spacing:0px;word-spacing:0px;fill:#2e3094;fill-opacity:1;stroke:none"
       x="465.59232"
       y="800.89026"
       id="text4026"
       sodipodi:linespacing="125%"><tspan
         sodipodi:role="line"
         id="tspan4028"
         x="465.59232"
         y="800.89026">r</tspan></text>
    <text
       xml:space="preserve"
       style="font-style:normal;font-variant:normal;font-weight:normal;font-stretch:normal;font-size:150px;line-height:125%;font-family:GearBox;-inkscape-font-specification:GearBox;letter-spacing:0px;word-spacing:0px;fill:#2e3094;fill-opacity:1;stroke:none"
       x="577.31519"
       y="894.10699"
       id="text4030"
       sodipodi:linespacing="125%"><tspan
         sodipodi:role="line"
         id="tspan4032"
         x="577.31519"
         y="894.10699">t</tspan></text>
    <text
       xml:space="preserve"
       style="font-style:normal;font-variant:normal;font-weight:normal;font-stretch:normal;font-size:150px;line-height:125%;font-family:GearBox;-inkscape-font-specification:GearBox;letter-spacing:0px;word-spacing:0px;fill:#2e3094;fill-opacity:1;stroke:none"
       x="690.33093"
       y="800.89026"
       id="text4034"
       sodipodi:linespacing="125%"><tspan
         sodipodi:role="line"
         id="tspan4036"
         x="690.33093"
         y="800.89026">s</tspan></text>
  </g>
  <g
     inkscape:groupmode="layer"
     id="layer15"
     inkscape:label="3492"
     transform="translate(-9.975256,-18.498129)"
     sodipodi:insensitive="true">
    <text
       xml:space="preserve"
       style="font-style:normal;font-variant:normal;font-weight:normal;font-stretch:normal;font-size:100px;line-height:125%;font-family:GearBox;-inkscape-font-specification:GearBox;letter-spacing:0px;word-spacing:0px;fill:#000000;fill-opacity:1;stroke:none"
       x="319.92834"
       y="988.06647"
       id="text4039"
       sodipodi:linespacing="125%"><tspan
         sodipodi:role="line"
         id="tspan4041"
         x="319.92834"
         y="988.06647">3</tspan></text>
    <text
       xml:space="preserve"
       style="font-style:normal;font-variant:normal;font-weight:normal;font-stretch:normal;font-size:100px;line-height:125%;font-family:GearBox;-inkscape-font-specification:GearBox;letter-spacing:0px;word-spacing:0px;fill:#000000;fill-opacity:1;stroke:none"
       x="432.93005"
       y="987.75"
       id="text4043"
       sodipodi:linespacing="125%"><tspan
         sodipodi:role="line"
         id="tspan4045"
         x="432.93005"
         y="987.75">4</tspan></text>
    <text
       xml:space="preserve"
       style="font-style:normal;font-variant:normal;font-weight:normal;font-stretch:normal;font-size:100px;line-height:125%;font-family:GearBox;-inkscape-font-specification:GearBox;letter-spacing:0px;word-spacing:0px;fill:#000000;fill-opacity:1;stroke:none"
       x="546.43005"
       y="988.25"
       id="text4047"
       sodipodi:linespacing="125%"><tspan
         sodipodi:role="line"
         id="tspan4049"
         x="546.43005"
         y="988.25">9</tspan></text>
    <text
       xml:space="preserve"
       style="font-style:normal;font-variant:normal;font-weight:normal;font-stretch:normal;font-size:100px;line-height:125%;font-family:GearBox;-inkscape-font-specification:GearBox;letter-spacing:0px;word-spacing:0px;fill:#000000;fill-opacity:1;stroke:none"
       x="658.93005"
       y="987.75"
       id="text4051"
       sodipodi:linespacing="125%"><tspan
         sodipodi:role="line"
         id="tspan4053"
         x="658.93005"
         y="987.75">2</tspan></text>
  </g>
  <g
     inkscape:groupmode="layer"
     id="layer16"
     inkscape:label="Orange Gears"
     style="display:inline"
     transform="translate(-9.975256,-18.498129)"
     sodipodi:insensitive="true">
    <path
       style="fill:#ff6a00;fill-opacity:1;stroke:#ff6a00;stroke-width:1px;stroke-linecap:butt;stroke-linejoin:miter;stroke-opacity:1"
       d="m 400.18003,738.56252 4.125,4 -3.0625,10 5.9375,4.3125 7.25,-8.25 6.75,1.9375 1,10.1875 9.0625,-0.1875 0.875,-9.8125 6.6875,-2.3125 7.25,8.5 6.5,-4.375 -3.4375,-9.4375 4.8125,-5.375 9.0625,3.9375 4.5625,-6.0625 -8.1875,-7.4375 1.8125,-6.375 10.25,-2 -0.0625,-8.125 -10.375,-1.8125 -1.625,-5.75 8.0625,-7.5625 -3.8125,-6.375 -9.25,3.8125 -5.25,-4.75 3.5625,-9.5 -6.3125,-4.625 -7.3125,8.3125 -6.6875,-1.8125 -1.25,-10.125 -8.75,-0.125 -1.1875,10.3125 -6.4375,2 -7.25,-8.625 -6.5,4.25 3.625,9 -4.5,5.5625 -9.625,-3.375 -4.4375,6.1875 7.9375,6.9375 -1.8125,7.125 -10.0625,0.875 0.1875,8.875 9.8125,1.0625 1.875,6.5625 -8,6.75 3.8125,7.1875 z"
       id="path4056"
       inkscape:connector-curvature="0" />
    <circle
       style="fill:#808080;fill-opacity:1;stroke:#808080;stroke-linecap:round;stroke-linejoin:miter;stroke-opacity:1"
       id="path4068"
       cx="406.05606"
       cy="706.138"
       transform="matrix(0.92514964,0,0,0.92166358,50.899351,64.998151)"
       r="28.284269" />
    <path
       style="display:inline;fill:#ff6a00;fill-opacity:1;stroke:#ff6a00;stroke-width:1px;stroke-linecap:butt;stroke-linejoin:miter;stroke-opacity:1"
       d="m 626.33374,738.49431 4.125,4 -3.0625,10 5.9375,4.3125 7.25,-8.25 6.75,1.9375 1,10.1875 9.0625,-0.1875 0.875,-9.8125 6.6875,-2.3125 7.25,8.5 6.5,-4.375 -3.4375,-9.4375 4.8125,-5.375 9.0625,3.9375 4.5625,-6.0625 -8.1875,-7.4375 1.8125,-6.375 10.25,-2 -0.0625,-8.125 -10.375,-1.8125 -1.625,-5.75 8.0625,-7.5625 -3.8125,-6.375 -9.25,3.8125 -5.25,-4.75 3.5625,-9.5 -6.3125,-4.625 -7.3125,8.3125 -6.6875,-1.8125 -1.25,-10.125 -8.75,-0.125 -1.1875,10.3125 -6.4375,2 -7.25,-8.625 -6.5,4.25 3.625,9 -4.5,5.5625 -9.625,-3.375 -4.4375,6.1875 7.9375,6.9375 -1.8125,7.125 -10.0625,0.875 0.1875,8.875 9.8125,1.0625 1.875,6.5625 -8,6.75 3.8125,7.1875 z"
       id="path4056-4"
       inkscape:connector-curvature="0" />
    <circle
       style="display:inline;fill:#808080;fill-opacity:1;stroke:#808080;stroke-linecap:round;stroke-linejoin:miter;stroke-opacity:1"
       id="path4068-8"
       cx="406.05606"
       cy="706.138"
       transform="matrix(0.92514964,0,0,0.92166358,277.05306,64.929943)"
       r="28.284269" />
  </g>
  <g
     inkscape:groupmode="layer"
     id="layer17"
     inkscape:label="Putnam Area Robotics Team"
     transform="translate(-9.975256,-18.498129)"
     sodipodi:insensitive="true">
    <text
       xml:space="preserve"
       style="font-style:normal;font-variant:normal;font-weight:normal;font-stretch:normal;font-size:65px;line-height:125%;font-family:Stencil;-inkscape-font-specification:Stencil;letter-spacing:0px;word-spacing:0px;fill:#000000;fill-opacity:1;stroke:none"
       x="138.39467"
       y="580"
       id="text4112"
       sodipodi:linespacing="125%"><tspan
         sodipodi:role="line"
         id="tspan4114"
         x="138.39467"
         y="580"
         style="font-size:68px;fill:#000000">putnam area robotics</tspan></text>
    <text
       xml:space="preserve"
       style="font-style:normal;font-variant:normal;font-weight:normal;font-stretch:normal;font-size:100px;line-height:125%;font-family:Stencil;-inkscape-font-specification:Stencil;letter-spacing:0px;word-spacing:0px;fill:#000000;fill-opacity:1;stroke:none"
       x="450.39465"
       y="652"
       id="text4116"
       sodipodi:linespacing="125%"><tspan
         sodipodi:role="line"
         id="tspan4118"
         x="450.39465"
         y="652"
         style="font-size:68px;fill:#000000">team</tspan></text>
  </g>
</svg>
